<?xml version="1.0" encoding="utf-8"?>
<?xml-stylesheet type="text/css" href="../css/icons.css"?>
<!DOCTYPE svg PUBLIC "-//W3C//DTD SVG 1.1//EN" "http://www.w3.org/Graphics/SVG/1.1/DTD/svg11.dtd">
<svg version="1.1" id="behance" class="mainIcon" xmlns="http://www.w3.org/2000/svg" xmlns:xlink="http://www.w3.org/1999/xlink" x="0px" y="0px"
	 viewBox="0 0 128 128" style="enable-background:new 0 0 128 128;" xml:space="preserve">

<g id="tear">
	<defs>
		<path id="SVGID_1_" d="M86.1,9.1l2.6,1.4v2l0.8,4.7l-2.3,2.9c0,0-0.1,4.7,0.6,6.7s2.3,3.8,2.3,3.8l5.3,0.4l-1.2-7.1l3.8-3.9
			L99.6,9v8.3l-1.9,5.1l0.6,7.9l2.5,0.8l4.4-1.5l1.9,1.5l0.4,5.3l2.9,4l2.9,1.3l12.1-3.8l-10.6,9.6l-4.3,2.8l3.2,10.9l7.5,3.6
			c0,0-1.2,8-2.3,10.2c-1.1,2.1-4.8,8.8-4.8,8.8l6.4,5.2l-5.1,0.7l-11.1-2.7l-7.1,16.5l-7.3,1l-0.7,2.5l-3.9,3l0.4,4.1l5.7,3H90
			h-3.4l-3.4-4l-15.1-0.1l-4.2,1.5l-10-2.7v2l3.1,5.3h-1.7l-2.3-1.7v-4.6l-5-1.7l-1.7,1l-2.3-0.4v-1.5l-2.2-1.8l-1.1-3.8l-2.7,1.3
			c0,0-5.4-1.3-7.2-2.3c-1.8-1-11.8-7.9-11.8-7.9l-0.6-4.8l3.6,5l3.4,2.7l0.6-7.1l-2.1-1.2l-1-3.4c0,0-4.3-0.8-5.7-1.7
			c-1.4-0.9-10-8.7-10-8.7l4.2-4.8l0.7-6.4l5.5-1.4l-1.1-8.5l-1.7-3.3L10.5,52H5.7l-0.6-2.6l-2.9,1V49l1.7-1.1l-1.7-5.9l5,5.9l4,2.5
			l5.3,2.6l3,1.4l8.3-1.8v-10l-19.5-13l14,3.4l8.8,1.3l-1.1-8l10,8.4l1.9,0.2l-0.4-2.3l-5-6.3l0.8-7.5l6.1,7.3l2.8-2.8l4.8-0.8
			l1.8-4.8l2.4,2.1l1.4,3.1l3.8,0.6c0,0,1.7,4.1,3.3,3c1.6-1.1,3.4,0.7,5-2.4s4.8-13.6,4.8-13.6L86.1,9.1z"/>
	</defs>
	<clipPath id="SVGID_2_">
		<use xlink:href="#SVGID_1_"  style="overflow:visible;"/>
	</clipPath>
	<g class="st0">
		<rect class="st1" width="128" height="128"/>
	</g>
	<use xlink:href="#SVGID_1_"  style="overflow:visible;fill:none;stroke:#000000;stroke-miterlimit:10;"/>
</g>
<g id="B">
	<path class="st2" d="M28.6,37.6l0.2,39.1h21.8c0,0,8.9-2.3,8.8-8.8c-0.1-6.5-3.1-10.6-4.6-10.7c-1.4-0.1-3.9-0.8-3.9-0.8
		s2.5-2.2,4.1-6c1.6-3.8-2.1-9.6-3.8-10.6c-1.8-1.1-1.9-2.1-5.2-2.1S28.6,37.6,28.6,37.6z"/>
	<path class="st3" d="M34.8,43.8V52h10.3c0,0,3.4-0.7,3.7-2.4s-0.2-5-2-5.4C45.1,43.8,34.8,43.8,34.8,43.8z"/>
	<path class="st3" d="M34.8,60.3v10.3h12.3c0,0,2.9-1.5,3.3-2.3c0.4-0.8,1.2-4.3,0-5.6c-1.2-1.3-4.4-2.3-5.1-2.3
		C44.5,60.3,34.8,60.3,34.8,60.3z"/>
</g>
<rect id="_x2D_" x="67.7" y="38.8" class="st2" width="14.4" height="5"/>
<g id="e">
	<circle class="st2" cx="75.3" cy="61.3" r="13.8"/>
	<path class="st3" d="M68.2,58.2h15.4c0,0-2.3-4.4-4-5.2c-1.7-0.7-5.8-1.3-7.5,0C70.5,54.4,68.2,58.2,68.2,58.2z"/>
	<path class="st3" d="M90,64.4H68.2c0,0,2.5,4.1,3.3,4.7c0.8,0.5,2.2,1.8,4.4,1.5c2.2-0.4,5.1-2.1,5.1-2.1h7L90,64.4z"/>
</g>
</svg>
