<?xml version="1.0" encoding="utf-8"?>
<?xml-stylesheet type="text/css" href="../css/icons.css"?>
<!DOCTYPE svg PUBLIC "-//W3C//DTD SVG 1.1//EN" "http://www.w3.org/Graphics/SVG/1.1/DTD/svg11.dtd">
<svg version="1.1" id="twitter" class="mainIcon" xmlns="http://www.w3.org/2000/svg" xmlns:xlink="http://www.w3.org/1999/xlink" x="0px" y="0px"
	 viewBox="0 0 128 128" style="enable-background:new 0 0 128 128;" xml:space="preserve">

<g id="tear_1_">
	<defs>
		<path id="tear" d="M73.7,10.5L86.9,9c0,0,2.1,1.3,2.1,3.8s0.9,4.3-0.9,6c-1.9,1.7-1.1,6.2-1.1,6.2l2.3,6.6l2.8,3.4
			c0,0,3.4-0.6,3.8-3.4s-1.1-7.7-1.1-7.7l4.9-13.5V18L97,23.4l1.5,7.3l5.6-1.1c0,0,1.7-2.6,2.3,0.9c0.6,3.6,0,4.3,0,4.3l1.7,3
			l3.8,3.4l5.8-1.3l7.9-1.9l-14.8,11.7c0,0-1.7,1.3-0.4,3.9c1.3,2.6,3.8,10.3,3.8,10.3h3.4l3.2,1.4v2.8l-1.5,5.1l-1.9,5.3l-3.4,5.1
			l4.9,5.1l3.2,1.9l-17.9-3l-5.8,14.1l-1.3,2.6h-5.3l-0.9,1.5l-1.1,3.4l-2.6,1.3l-2.8,0.9l2.4,4.5l5.5,1.1v1.1h-4.5l-5.1-5.1l-4.9,3
			l-9.8-2.6l-2.6,0.8L53,110.7c0,0-0.8,3,0.9,4.5c1.7,1.5,3.6,4.5,3.6,4.5l-0.8,0.9l-3.9-3.4l-1.9-5.8c0,0,0.9-0.9-1.7-0.6
			c-2.6,0.4-4.9,0.8-4.9,0.8l-2.3-2.1v-4.9l-4.7,0.4l-6.2-0.2l-5.6-5.5h-2.3c0,0-3.4-1.1-3.4-2.1s-1.9-7.5-1.9-7.5l1.9,0.9l0.9,3.9
			l3,3.6l2.3-0.4v-6.6l-1.7-0.4L23.5,89l-1.1-3.4l-4.3-0.4L7.9,78c0,0-1.9-3,0.9-4.1c2.8-1.1,3-9.8,3-9.8h6.4l-1.5-9.2
			c0,0-1.9-3-2.8-3s-6.6-0.8-6.6-0.8L5.1,49l-3.4,1.9v-1.3L4,48.3l-2.3-6.8l4.5,6.6l6.2,2.3l3.2,0.6l2.4,3.9l9.6-2.3l0.6-9L8.3,29.3
			l22.4,5.5l-0.8-8.1l10.3,8.6c1.7-2.8-4.3-10.9-4.3-10.9l1.3-6l6,8.1l4.9-3.9h3.8l1.5-4.3l2.6,3.6l4.5,1.5l1.7,3
			c0,0,4.5,3.2,6.8-1.7C71.3,19.7,73.7,10.5,73.7,10.5z"/>
	</defs>
	<clipPath id="tear_2_">
		<use xlink:href="#tear"  style="overflow:visible;"/>
	</clipPath>
	<rect id="lightbluebackground" class="st0" width="128" height="128"/>
	<g id="t" class="st1">
		<path class="st2" d="M49.5,23.6c0,0,11.1,1.7,12.2,6.8s1.1,9.8,1.1,9.8h18.2c0,0,11.8,5.5,12.2,14.1s-1.1,10.9-3.4,13
			c-2.3,2.1-6.4,4.5-6.4,4.5l5.6,4.9c0,0,4.7,9.4,2.8,14.1c-1.9,4.7-2.4,7.3-6.8,8.8c-4.3,1.5-21.2,3.2-21.2,3.2l-10.6-0.9
			c0,0-14.3-4.7-16.4-9.8c-2.1-5.1-5.3-9.6-5.3-15.2c0-5.6,1.3-44.5,1.3-44.5s4.5-7.7,7.3-8.6C43.3,22.7,49.5,23.6,49.5,23.6z"/>
		<path class="st3" d="M47.2,30.6c0,0,6.8,1.3,6.8,3.2s0.9,15,0.9,15h25c0,0,5.1,0.8,4.3,6.6c-0.8,5.8-0.2,4.5-0.8,5.8
			c-0.6,1.3,0.2,2-2.6,2.8c-2.8,0.8-26.3,1-26.3,1l0.4,9c0,0-0.9,3.8,3.2,4.3s21.6,1.1,21.6,1.1s4.3,1.5,4.6,4.9s0.7,5.1-1.8,7.1
			c-2.4,2.1-4.3,3.4-8.3,3.4c-3.9,0-15,0.8-18,0c-3-0.8-13.3-6.8-14.7-11.8c-1.3-5.1-1.5-47.2-1.5-47.2s-0.2-2.1,2.3-3.6
			C44.8,30.8,47.2,30.6,47.2,30.6z"/>
	</g>
	<use xlink:href="#tear"  style="overflow:visible;fill:none;stroke:#000000;stroke-miterlimit:10;"/>
</g>
</svg>
