<?xml-stylesheet type="text/css" href="../css/icons.css"?><svg class="mainIcon" xmlns="http://www.w3.org/2000/svg" xmlns:xlink="http://www.w3.org/1999/xlink" viewBox="0 0 128 128"><defs><path id="a" d="M86.1 9.1l2.6 1.4v2l.8 4.7-2.3 2.9s-.1 4.7.6 6.7 2.3 3.8 2.3 3.8l5.3.4-1.2-7.1L98 20l1.6-11v8.3l-1.9 5.1.6 7.9 2.5.8 4.4-1.5 1.9 1.5.4 5.3 2.9 4 2.9 1.3 12.1-3.8-10.6 9.6-4.3 2.8 3.2 10.9 7.5 3.6s-1.2 8-2.3 10.2c-1.1 2.1-4.8 8.8-4.8 8.8l6.4 5.2-5.1.7-11.1-2.7-7.1 16.5-7.3 1-.7 2.5-3.9 3 .4 4.1 5.7 3h-4.8l-3.4-4-15.1-.1-4.2 1.5-10-2.7v2l3.1 5.3h-1.7l-2.3-1.7v-4.6l-5-1.7-1.7 1-2.3-.4v-1.5l-2.2-1.8-1.1-3.8-2.7 1.3s-5.4-1.3-7.2-2.3c-1.8-1-11.8-7.9-11.8-7.9l-.6-4.8 3.6 5 3.4 2.7.6-7.1-2.1-1.2-1-3.4s-4.3-.8-5.7-1.7c-1.4-.9-10-8.7-10-8.7l4.2-4.8.7-6.4 5.5-1.4-1.1-8.5-1.7-3.3-4.3-.1H5.7l-.6-2.6-2.9 1V49l1.7-1.1L2.2 42l5 5.9 4 2.5 5.3 2.6 3 1.4 8.3-1.8v-10l-19.5-13 14 3.4 8.8 1.3-1.1-8 10 8.4 1.9.2-.4-2.3-5-6.3.8-7.5 6.1 7.3 2.8-2.8 4.8-.8 1.8-4.8 2.4 2.1 1.4 3.1 3.8.6s1.7 4.1 3.3 3c1.6-1.1 3.4.7 5-2.4s4.8-13.6 4.8-13.6l12.6-1.4z"/></defs><path class="st0 st1" d="M0 0h128v128H0z"/><use xlink:href="#a" overflow="visible" fill="none" stroke="#000" stroke-miterlimit="10"/><path class="st2" d="M28.6 37.6l.2 39.1h21.8s8.9-2.3 8.8-8.8c-.1-6.5-3.1-10.6-4.6-10.7-1.4-.1-3.9-.8-3.9-.8s2.5-2.2 4.1-6c1.6-3.8-2.1-9.6-3.8-10.6-1.8-1.1-1.9-2.1-5.2-2.1s-17.4-.1-17.4-.1z"/><path class="st3" d="M34.8 43.8V52h10.3s3.4-.7 3.7-2.4-.2-5-2-5.4c-1.7-.4-12-.4-12-.4zM34.8 60.3v10.3h12.3s2.9-1.5 3.3-2.3c.4-.8 1.2-4.3 0-5.6-1.2-1.3-4.4-2.3-5.1-2.3-.8-.1-10.5-.1-10.5-.1z"/><path class="st2" d="M67.7 38.8h14.4v5H67.7z"/><g><circle class="st2" cx="75.3" cy="61.3" r="13.8"/><path class="st3" d="M68.2 58.2h15.4s-2.3-4.4-4-5.2c-1.7-.7-5.8-1.3-7.5 0-1.6 1.4-3.9 5.2-3.9 5.2zM90 64.4H68.2s2.5 4.1 3.3 4.7c.8.5 2.2 1.8 4.4 1.5 2.2-.4 5.1-2.1 5.1-2.1h7l2-4.1z"/></g></svg>