<svg class="mainIcon" xmlns="http://www.w3.org/2000/svg" xmlns:xlink="http://www.w3.org/1999/xlink" viewBox="0 0 128 128"><defs><path id="a" d="M73.5 10.5L86.9 9l1.7 1.5.8 6.7-2.3 2.9v4.6l1 3.3 2.5 6.3 5-2.1-1.3-8.2 2.9-4.2 1.5-6.1 1-4.6v10l-1.9 3.4.6 7.9 1.3 1.3 4.6-2.1 2.1.2 1.1 2.1v4.6l2.9 4 2.9 1.3 4.8-1.5 4-1.1 3.3-1.1 1.1-.2-4.8 4-5.7 5-5.6 3.6 3.6 12.3 5.6 1.4 1.5.9-.2 3.8-.8 2.5-1.3 3.8-1.9 3.6L114 84l7.3 5.9h-5.9l-3.3-1-4-1.1-3.8-.6-1.9 4.8-3.8 9.2-1.3 2.5-7.3 1-.6 3.8-4 1.7-1.1 1.3 2.3 4 5 1.7h-3.8l-2.3-1.1-1.9-2.9-2.9 1.1-1.7 1.5-4.2.4-6.7-2.3-3.8.6-10-2.7v3.8l3.1 3.4-.4 1-3.6-2.7v-4.6l-5-1.7-1.7 1-2.3-.4v-1.5l-1.9-1-1.3-4.6-2.7 1.3-3.8-.8-4.2-1.9-4.2-2.9-6.7-4.6-1.3-5.6 3.1 5.4 4 3.3.6-7.1-2.1-1.1-1-3.4-4.6-1-3.6-2.3-5.4-4.4-2.1-2.7 4.2-4.8.8-7.3 5.4-.5-1.1-8.5-1.7-3.3-3.4-.6-4-.4-2.1-1.9-2.9 1 1.9-1.7L1.5 41 8 50.2l4.4.4 4.2 2.5s.8 1.9 3.8 1.3c3.1-.6 7.5-1.7 7.5-1.7v-10l-19.5-13 14 3.4 8.8 1.3-1.1-8 10 8.4 1.9.2-.4-2.3-5-6.3.8-7.5 6.1 7.3 3.6-3.6h5.2l.6-4.8 3.1 2.7.8 2.5 3.8.6 1 2.5s5 1.9 7.3-1.9 3.3-8.6 3.3-8.6l1.3-5.1z"/></defs><path class="st0" d="M.9 7.5H128v111.1H.9z"/><path class="st1" d="M97.1 31.2v10h-9s-4 .6-4.6 4-1.1 9.6-1.1 9.6h14.8v11.9H82.3l1 49.4-15.1 1.1 1-50.4-9.4-.2V55.5l9 .2V43.3s1.3-13 9.7-13 18.6.9 18.6.9z"/><use xlink:href="#a" overflow="visible" fill="none" stroke="#000" stroke-miterlimit="10"/></svg>