<?xml-stylesheet type="text/css" href="../css/icons.css"?><svg class="mainIcon" xmlns="http://www.w3.org/2000/svg" xmlns:xlink="http://www.w3.org/1999/xlink" viewBox="0 0 128 128"><defs><path id="a" d="M73.6 10.8l13.7-2.1s2.1 2.1 1.5 5.2c-.6 3.1.2 3.7-.8 4.8-1 1.2-2.5 4.2-1.2 6.7s3.7 8.7 3.7 8.7l5-1.9v-4.6L94 23.7l5.8-15V17.3L98.4 20l-.4 3.8.2 4.8 1.5 3.1 5-2.9s2.7.2 2.7 1.5V37l4.8 4 12.5-2.9-5 4.2-4.8 4-4.8 3.7 3.5 10.8 6 3s2.1 4.1.4 7.2c-1.7 3.1-6.2 13.3-6.2 13.3l7.9 6.2-1.3 1-9.2-2.5-6-1.3-6.7 15.2s-1.2 2.1-2.9 1.5c-1.7-.6-4.6-1.7-4.6-1.7l-1 4.2-.2 2.5-3.8 1.2h-1.2l1 5 6.3 1.9.2 1.2-4.4-1-3.7-2.3-1.9-2.5-4 2.5-11.3-1.9-3 1.2-10.4-2.9v2.7l3.3 4.2v1.3l-3.3-2.7-1.9-3.3v-2.7l-7.9-.2-1.7-1.9v-4l-7.3-.8s-3.5.4-6.7-2.3S22 99 22 99l-4-8 2.1.6 2.5 5.6 1.9 1.3h1.9l-.4-7.1-2.4-1.4-1-4-4.6-.4s-7.3-3.7-9-6 2.3-7.9 2.3-7.9-3.3-7.3.4-7.4c3.7-.1 6.2-.3 6.2-.3l-1-8.6-3.1-3.5-5.2-.8-3-1.7-3.3 1.3V49l2.1-1.3-2.9-7.3 5.8 7.7L14 50l3.7 4s2.1 2.7 5.4 1 5.4-5 5.4-5v-6.5L8 29.4l22.7 5.4-.8-8.5 9.8 8.3s.8 2.9 2.3 1.2c1.5-1.7-2.3-6.7-2.3-6.7l-3.7-4 1-6 4.2 5 2.9 2.7 2.9-4.2 5.2-.6v-4l3.7 3.1 1.2 2.1h3.3l1.5 2.9s3.8 1.3 6.2-1.3 4.4-9.2 4.4-9.2l1.1-4.8z"/></defs><path class="st0" d="M0 0h128v128H0z"/><circle class="st1" cx="33.9" cy="35.1" r="8"/><path class="st1" d="M25.9 52.7h16v49.2h-16zM53.8 52.7v48.5h17.5V71s4.2-7.1 8.3-5.8 6.9 2.3 7.1 4.6 1.2 31.3 1.2 31.3H104v-36s-2.7-12.7-11.9-13.5-7.9-1.7-13.2 1c-5.3 2.7-7.4 5.2-7.4 5.2l-.6-5.2H53.8z"/><use xlink:href="#a" overflow="visible" fill="none" stroke="#000" stroke-miterlimit="10"/></svg>