<svg xmlns="http://www.w3.org/2000/svg" viewBox="0 0 559.3 381.5"><style>.st0{fill:#ed1c24}.st1{fill:#00a651}.st2{fill:#2e3192}.st3{fill:none;stroke:#000}</style><g id="Balls"><g id="balls"><circle id="Red_Ball" class="st0" cx="284.5" cy="82.4" r="68.2"/><circle id="Green_Ball" class="st1" cx="234.6" cy="169.4" r="68.2"/><circle id="Blue_Ball" class="st2" cx="333.9" cy="169.4" r="68.2"/></g></g><g id="Text"><path class="st0" d="M229.2 320.7v1.5c0 .5-.1 1.2-.1 2-.1.8-.1 1.5-.2 2.1 0 .6-.1 1.4-.2 2.3-.1 1-.2 1.8-.2 2.6 0 .7-.3 3.6-.8 8.5-1 10.1-1.4 17.2-1.2 21.5v1.3c0 .5-.1.8-.1.8-.4.5-1.2.6-2.3.3-1.1-.3-1.8-.7-1.9-1.4-.2-.2-.3-.4-.3-.6s.1-2.1.3-5.6l.4-11.3-.9.1c-.9 0-3 .2-6.2.6-3.2.4-5.2.7-6 .9-1 0-2 1-3.1 3-.3.7-.6 1.4-1.1 2.2-.4.8-.7 1.2-.7 1.3l-1.1 1.3c0 .5-.5 1.8-1.5 3.9-.9 2-2.3 4.5-4.3 7.5l-1.1-.8c-.7-.4-1.2-.8-1.3-1.2-.1-.4 0-1.1.4-2.1s1-2.3 1.9-3.9c.9-1.7 2.1-4 3.6-7 1.6-3 2.3-4.7 2.3-5.2-.2-.7.2-1.3 1.1-1.7 1.1-1.1 2-2.2 2.7-3.4.6-1.3 3-5.6 7.3-13 1.7-3.1 3.9-6.4 6.7-10.1 1.1-1.4 2-2.2 2.8-2.1.8 0 1.8.5 2.9 1.3 1.4 1.1 2.3 2.2 2.4 3.5-.2 0-.2.3-.2.9zm-6.3 20.1h.1c.1-.3.4-2.8.8-7.6.4-3.6.7-7.9 1.1-13-.5 0-1.6 1.2-3.3 3.5-1.8 2.3-3.3 4.8-4.7 7.5-1.3 2.3-2 3.4-2.3 3.4-.3.3-1.1 1.6-2.3 3.8-1.2 2.2-1.7 3.4-1.5 3.6 1.7-.4 3.2-.6 4.3-.6 2.8-.7 4.6-1 5.4-1.1.8-.1 1.4 0 1.7.1.3.3.6.4.7.4zM237.3 359.9c-.5.7-.9 1-1.3 1s-.9-.4-1.7-1.1c-.5-.4-.8-.7-.9-1-.3-.7.2-3.6 1.4-8.8.1-1.2 1-3.6 2.5-7.4 1.5-3.7 2.7-6.3 3.6-7.6.9-.7 1.8-.6 2.7.3.5.4.6 1 .3 1.9-.4 1.2-1.1 3.1-2.3 5.6-1.1 2.5-1.6 3.7-1.5 3.7.1 0 .3-.1.6-.3.5-.9 1.8-2.1 3.7-3.6 2-1.5 3.2-2.4 3.7-2.7.5-.3 1.1-.5 1.6-.7.6-.2.9-.4 1-.4 1-.5 2.1-.7 3.3-.6 1.1.1 1.9.6 2.1 1.3 0 .5.3.8.8 1.1l.3.4c0 .4-.6.7-1.8.7-1.2.1-2.6.4-4.1 1.1-.2.1-.6.4-1.2.7-.6.3-1 .5-1.2.7-.2.1-.6.3-1.1.6-.5.3-.9.5-1.2.7-.3.2-.6.4-1 .7-.4.3-.8.5-1.1.8-.3.2-.6.5-1 .8-1.4 1.2-2.8 2.9-4.1 5-.3.3-.7 1.2-1 2.6-.4 1.4-.5 2.2-.5 2.6.2.5-.2 1.2-.6 1.9zM262 357c-.3-1-.4-2.1-.4-3.5s.2-2.9.5-4.5c.8-4 1.5-6.6 1.9-7.8.1-.5-.1-.9-.7-1-.6-.2-1.3-.2-2.1-.2s-1.3 0-1.4-.1l-.3-.4c0-.2-.1-.5-.2-.7-.2-.3-.1-.6.1-.9.3-.4.5-.5.8-.6.3 0 .8-.1 1.4-.2.7-.1 1.2-.2 1.6-.3 1.4-.3 2.4-.8 2.9-1.5.6-1.5 1.4-3.3 2.3-5.2.9-1.9 1.6-3.1 1.9-3.5.8-.4 1.4-.6 1.8-.5.4.1.8.5 1.3 1.2.5.5.7 1 .5 1.6-.1.5-1.2 2.8-3.4 6.9.6.1 1.3.1 2.2 0 1.5-.3 2.8-.3 3.8-.2 2 0 3.1.9 3.2 2.6.1.5 0 .8-.3.9-.3.1-2.1.2-5.5.3-3.4.1-5.1.3-5.1.5-.5.3-1.3 2.6-2.4 6.7-.6 2.6-.9 4.9-.9 7 0 2.1.2 3.5.8 4.3.4.4 1.2.5 2.4.3s2.3-.8 3.3-1.6 1.8-1 2.4-.6c.6.4.4 1.3-.5 2.6-.8 1.3-2 2.3-3.4 3-1.4.7-2.7.9-3.8.6-1.1-.3-2.2-1-3.4-2-.5-1.2-1-2.3-1.3-3.2zM281.5 355.5l.3-1.5c0-.3.1-1 .6-2.3.8-1.9 2-5.2 3.4-9.9 0-.6.4-.9 1.1-.9.6-.2 1-.2 1.3 0 .3.2.7.6 1.1 1.4.7.7.6 2-.2 3.8-.8 1.8-1.3 3.2-1.5 4.2-.7 1.5-1.2 3-1.6 4.4-.3 1.4-.7 2.3-.9 2.8-.4 1.9-.8 3-1.2 3.4-.4.3-.9.1-1.5-.6-.7-.7-1.1-1.6-1.2-2.5-.1-1 0-1.8.3-2.3zm9.3-30.8c1.1-.7 2.1-.3 3.2 1.3.4.9.5 1.7.3 2.2-.1.5-.7 1.3-1.5 2.4-1.3 1.7-2.5 2-3.8.9-.6-.5-.9-1-.9-1.8 0-.7 0-1.1.1-1.1.4 0 .8-.5 1.3-1.2.5-.8.7-1.4.7-1.9-.1-.5.1-.8.6-.8zM311.5 334.8c.9.3 1.4.5 1.6.5.9.1 1.7.7 2.3 1.6.7.9 1 1.8.9 2.7-.1.9-.4 1.7-.8 2.3-.4.7-1 1.1-1.6 1.2.3 0 0-.2-.8-.6l-.2.1c0-.2-.1-.4-.2-.7-.2-.3-.2-.8-.1-1.6s.1-1.2 0-1.3c-.1-.1-.4-.2-1-.3-.6-.1-1.5.1-2.8.5-1.2.4-2.5 1-3.7 1.9-2.4 1.6-4 3.3-4.8 5-.6.8-.8 1.4-.8 1.8 0 .9 1.4 2 4.3 3.3 2.9 1.3 4.6 2.6 5.1 4 .2.6.2 1-.1 1.2l.1.1c.5.8.3 1.7-.7 2.6-1 .9-2.3 1.5-4 1.8-1.1.3-2.3.5-3.4.5-2.3 0-4-.8-5.1-2.5-.6-.8-.7-1.5-.4-2.1.3-.6.8-.5 1.3.1.7.4 1.6.6 2.9.6 1.3 0 2.5-.2 3.8-.7 1.5-.7 1.9-1.2 1.3-1.5-1.8-.5-3.6-1.4-5.4-2.7-1.8-1.3-2.8-2.5-3-3.6-.7-2.8.1-5.7 2.7-8.5 1.4-.9 2.3-1.4 2.7-1.5v.1c1.2-1.3 3.7-2.5 7.3-3.8 1.5-.4 2.4-.5 2.6-.5zM339.9 354.1c.7-.4 1.4-.4 2.1-.2.7.3 1 .8 1 1.6s-.6 1.6-1.7 2.5c-1.1.8-2.2 1.3-3.3 1.3-1.4 0-2.8-2.5-4.1-7.5-3.8 3.7-5.8 5.7-5.9 5.8-.5.9-1.8 1.7-3.9 2.5-.6.2-1.4.2-2.3.1-.9-.1-1.4-.3-1.4-.5v-.3h-.3c-.3-.3-.7-.6-1.3-.8-.4-.6-.6-1.3-.6-2.1s.2-2 .6-3.7c.2-2.3 1.6-5.2 4.2-8.9 2.5-3.6 4.9-6.1 7-7.3 1.4-1.4 3-1.5 5-.4 1.4.8 2.7 2.4 3.8 4.6.2 1.2.2 2.9 0 5.3-.6 1.9-.8 4-.8 6.2-.1.9 0 1.5.3 1.9.4.3.9.3 1.6-.1zm-17.9.9c0 1.6.8 2 2.5 1 1.1-.7 2.5-1.8 4.1-3.4 1.6-1.6 3.1-3.3 4.3-5 1.3-1.7 2.1-3.5 2.5-5.4-.2-.5-.5-1.1-.9-1.6-.4-.6-.8-.9-1.1-.9-1.4 0-3.6 2-6.6 6.1l-2.3 3.4c-.3.4-.8 1.4-1.5 3-.7 1.5-1 2.5-1 2.8zM364.5 342.2c1.1-.5 1.9-.8 2.3-.8s1.1.4 2.1 1.3c1 .8 1.5 1.5 1.7 2.1 0 .5.1 1.1.2 1.6.2.6.2 1.7.2 3.4s-.2 2.6-.6 2.8c0 .2.1.4.4.4v.3c-.5 0-.5.4-.1 1.3s.9 1.5 1.3 1.9.6.9.5 1.4c-.1.5-.5.8-1.3 1-1.8 0-3.1-.9-3.9-2.6-.3-1-.5-2.1-.6-3.4-.1-1.3-.1-2.1.1-2.3.2-.3.2-1 .2-2.3 0-1.2-.2-1.9-.6-2.1-.4-.2-1 0-1.7.5-5.5 3.5-9.4 6.2-11.7 8.1-.6.7-1.3 1.7-2.2 3.1-.1.2-.3.4-.6.4-.5.2-1.1 0-2-.8-1-1.1-1.6-1.8-1.6-1.9 0-.4.2-1.2.5-2.6.3-1.4.5-2.2.7-2.6.2 0 .4-.3.7-.9s.5-1.1.7-1.3c.1-.7.7-2.3 1.8-4.8 1.1-1.8 1.7-3.7 1.9-5.6 0-.2 0-.4.1-.5.1-.2.3-.2.5-.2.8-.8 1.7-.6 2.6.6.9 1.2 1.3 2.4 1.1 3.6-.2 1.2-.9 2.9-2.3 5.1-.7 1.6-1 2.5-1 2.7 1.9-1.3 3.2-2.1 3.9-2.7.4-.4 1.4-1.2 3-2.2 1.9-1.2 3-1.8 3.7-2z"/><g><path d="M22.7 252.7h13.7l12.3 32.5L60 252.7h14v2.1h-3.4c-1.2 0-2 .2-2.4.5-.4.4-.6 1-.6 1.8v32.6c0 .6.3 1.2.8 1.5.5.4 1.4.5 2.6.5h3.1v2.1H55.2v-2.1h3.5c1 0 1.8-.2 2.2-.6.5-.4.7-.9.7-1.5v-35L48 293.7h-1.9l-14.7-38.9v29.9c0 1.8.2 3.1.7 4 .4.9 1.1 1.6 1.9 2 .8.5 2.2.8 4.1.9v2.1H22.7v-2.1c2.5-.2 4.3-.7 5.2-1.6.9-.9 1.4-2.6 1.4-4.9v-28.4c0-.7-.2-1.2-.6-1.5-.4-.3-1.2-.5-2.4-.5h-3.5v-2zM110.7 291l1 1.6c-1.4 1.4-2.9 2.1-4.5 2.1-1.3 0-2.3-.3-3.2-1-.9-.7-1.6-1.9-2.3-3.6-1.8 1.9-3.3 3.1-4.6 3.7-1.3.6-2.9.9-4.8.9-2.7 0-4.7-.6-6.1-1.7s-2.1-2.6-2.1-4.4c0-2.7 1.6-5 4.8-6.7 3.2-1.8 7.4-3 12.7-3.6v-4c0-1.4-.6-2.6-1.7-3.6s-2.6-1.5-4.3-1.5c-1.6 0-3 .3-4.2 1-.8.5-1.3 1-1.3 1.5 0 .3.2.7.7 1.3.5.7.8 1.4.8 2 0 .8-.3 1.5-.8 2s-1.2.8-2.1.8c-.9 0-1.7-.3-2.3-.9-.6-.6-.9-1.4-.9-2.4 0-1.8 1-3.5 3.1-5s4.8-2.3 8.1-2.3c3.1 0 5.5.7 7.1 2 1.6 1.4 2.4 3 2.4 4.9v14.2c0 1.3.2 2.2.6 2.8.4.6.9.9 1.6.9.7-.2 1.5-.5 2.3-1zm-9.1-11c-4.7.6-8.1 1.7-10 3.2-1.5 1.1-2.2 2.7-2.2 4.7 0 1.4.4 2.5 1.1 3.4.8.8 1.8 1.2 3 1.2 2.2 0 4.1-.8 5.7-2.5 1.6-1.7 2.4-3.7 2.4-6.2V280zM120.1 267.7l9.4-.5v10.5c1-3.5 2.2-6.1 3.6-7.9 1.4-1.8 3.2-2.7 5.2-2.7 1.4 0 2.5.4 3.4 1.3.8.9 1.3 2 1.3 3.5 0 1.2-.3 2.1-.8 2.7-.6.6-1.3 1-2.1 1s-1.5-.3-2-.8-.8-1.3-.8-2.3c0-.6.1-1.2.4-1.7.3-.5.4-.8.4-.9 0-.3-.2-.4-.5-.4-.8 0-1.6.4-2.6 1.3-1.3 1.2-2.4 3-3.1 5.1-1.1 3.4-1.7 6.1-1.7 8.1v5.6c0 .6.2 1.1.7 1.4s1.2.5 2.3.5h3.3v2.1h-16.2v-2.1h2.6c.9 0 1.5-.2 2-.5.4-.3.7-.8.7-1.2v-16.6c0-1.3-.3-2.2-.8-2.8-.5-.6-1.3-.9-2.3-.9h-2.3v-1.8zM151.1 252.7l10-.5v28.5l8.5-7.4c.8-.7 1.2-1.4 1.2-1.9s-.2-.8-.7-1.1c-.7-.4-1.9-.6-3.5-.6v-1.9h13.9v1.9c-2.7.1-4.8.9-6.3 2.2l-6 5.3 9.7 13.4c.6.8 1.6 1.2 3.1 1.2h1.4v2.1h-14.2v-2.1h1.4c1.1 0 1.8-.1 2.1-.3.4-.2.5-.4.5-.7 0-.3-.1-.5-.3-.8l-7.1-9.9-3.8 3.3v6.6c0 .5.2.9.5 1.2.5.4 1.2.5 2.1.5h1.8v2.1h-14v-2.1h2.3c.9 0 1.6-.2 2.1-.6s.7-.9.7-1.6v-32.2c0-.8-.3-1.4-.8-1.8-.8-.6-1.8-.8-3.1-.8h-1.4v-2zM212.5 252.7h19.1v2.1H227c-.7 0-1.3.2-1.6.6-.3.4-.5 1-.5 1.8v32.5c0 .8.2 1.3.7 1.7s1.3.5 2.6.5h5.8c3.1 0 5.6-1 7.5-3.1 2-2 3.4-5.6 4.3-10.7h1.9l-.9 15.8h-34.3v-2.1h3.4c1.2 0 2-.2 2.4-.7s.7-1.1.7-2.1v-32.1c0-.7-.2-1.2-.6-1.6-.4-.4-1-.5-1.7-.5h-4.2v-2.1zM283.8 291l1 1.6c-1.4 1.4-2.9 2.1-4.5 2.1-1.3 0-2.3-.3-3.2-1-.9-.7-1.6-1.9-2.3-3.6-1.8 1.9-3.3 3.1-4.6 3.7-1.3.6-2.9.9-4.8.9-2.7 0-4.7-.6-6.1-1.7s-2.1-2.6-2.1-4.4c0-2.7 1.6-5 4.8-6.7 3.2-1.8 7.4-3 12.7-3.6v-4c0-1.4-.6-2.6-1.7-3.6s-2.6-1.5-4.3-1.5c-1.6 0-3 .3-4.2 1-.8.5-1.3 1-1.3 1.5 0 .3.2.7.7 1.3.5.7.8 1.4.8 2 0 .8-.3 1.5-.8 2s-1.2.8-2.1.8c-.9 0-1.7-.3-2.3-.9-.6-.6-.9-1.4-.9-2.4 0-1.8 1-3.5 3.1-5s4.8-2.3 8.1-2.3c3.1 0 5.5.7 7.1 2 1.6 1.4 2.4 3 2.4 4.9v14.2c0 1.3.2 2.2.6 2.8.4.6.9.9 1.6.9.8-.2 1.5-.5 2.3-1zm-9.1-11c-4.7.6-8.1 1.7-10 3.2-1.5 1.1-2.2 2.7-2.2 4.7 0 1.4.4 2.5 1.1 3.4.8.8 1.8 1.2 3 1.2 2.2 0 4.1-.8 5.7-2.5 1.6-1.7 2.4-3.7 2.4-6.2V280zM293.7 267.7l8.7-.5c.4 1.6.6 3.5.8 5.7 1.2-1.9 2.5-3.3 4.1-4.3 1.6-.9 3.4-1.4 5.4-1.4 1.7 0 3.2.3 4.3 1 1.2.7 2.1 1.7 2.8 3.2.7 1.5 1.1 3.1 1.1 4.9V289c0 .9.2 1.6.6 2s1.1.6 2.1.6h1.8v2.1h-13.7v-2.1h1.3c1.2 0 2.1-.2 2.6-.6s.7-1 .7-1.8V278c0-2.4-.4-4.2-1.1-5.4-1-1.7-2.6-2.5-4.7-2.5s-3.8.8-5.2 2.5c-1.4 1.7-2.1 3.9-2.1 6.6v9.7c0 .9.2 1.6.7 2 .4.4 1.2.6 2.2.6h1.8v2.1h-13.8v-2.1h1.8c.9 0 1.6-.2 2.1-.6.5-.4.7-.8.7-1.4v-16.8c0-1.1-.3-2-.9-2.5-.6-.6-1.5-.9-2.6-.9h-1.3v-1.6zM349 252.7l10.2-.5v35.7c0 1.4.3 2.4.8 3 .5.6 1.3.9 2.4.9h1.8v2.1h-8.9l-.7-5.3c-1.1 1.9-2.3 3.3-3.7 4.3-1.4 1-3 1.4-4.8 1.4-3 0-5.5-1.2-7.6-3.7-2.1-2.5-3.1-5.8-3.1-9.9 0-4.4 1.3-7.9 4-10.6 2.1-2.1 4.5-3.1 7.2-3.1 1.7 0 3.2.4 4.5 1.3s2.5 2.1 3.5 3.8v-14.7c0-.8-.3-1.4-.9-1.9-.6-.5-1.5-.7-2.8-.7H349v-2.1zm-1.6 16.6c-2 0-3.6.8-4.8 2.5-1.2 1.7-1.8 4.4-1.8 8.3 0 4.2.6 7.2 1.8 9s2.8 2.6 4.6 2.6c2 0 3.8-1 5.2-2.9 1.4-1.9 2.2-4.8 2.2-8.5 0-3.5-.8-6.3-2.3-8.3-1.3-1.8-3-2.7-4.9-2.7zM397.1 281h-18.7c.1 4 .8 6.8 2.2 8.4 1.6 1.8 3.6 2.8 6.1 2.8 3.6 0 6.6-2.1 8.8-6.2l1.8.8c-2.7 5.3-6.6 7.9-11.7 7.9-3.5 0-6.4-1.3-8.8-3.8-2.4-2.5-3.6-5.8-3.6-9.7 0-4.2 1.2-7.6 3.5-10.3 2.3-2.6 5.2-3.9 8.7-3.9 2.5 0 4.7.6 6.5 1.9 1.8 1.3 3.2 3.2 4.1 5.6.7 1.7 1.1 3.9 1.1 6.5zm-18.7-2h11.3c.7 0 1.2-.2 1.6-.7.4-.5.6-1.2.6-2.3 0-2-.6-3.8-1.9-5.2-1.3-1.4-2.8-2.1-4.5-2.1-1.9 0-3.6.9-4.9 2.6s-2.1 4.2-2.2 7.7zM406.4 267.7l9.4-.5v10.5c1-3.5 2.2-6.1 3.6-7.9 1.4-1.8 3.2-2.7 5.2-2.7 1.4 0 2.5.4 3.4 1.3.8.9 1.3 2 1.3 3.5 0 1.2-.3 2.1-.8 2.7-.6.6-1.3 1-2.1 1s-1.5-.3-2-.8-.8-1.3-.8-2.3c0-.6.1-1.2.4-1.7.3-.5.4-.8.4-.9 0-.3-.2-.4-.5-.4-.8 0-1.6.4-2.6 1.3-1.3 1.2-2.4 3-3.1 5.1-1.1 3.4-1.7 6.1-1.7 8.1v5.6c0 .6.2 1.1.7 1.4s1.2.5 2.3.5h3.3v2.1h-16.2v-2.1h2.6c.9 0 1.5-.2 2-.5.4-.3.7-.8.7-1.2v-16.6c0-1.3-.3-2.2-.8-2.8-.5-.6-1.3-.9-2.3-.9h-2.3v-1.8zM437.2 267.7h12.5v1.9h-1.2c-1.1 0-1.8.1-2.2.4-.4.3-.6.7-.6 1.2 0 .2.1.5.2.7l7.3 15.7 5.4-13c.4-.9.6-1.8.6-2.7 0-.7-.3-1.2-.8-1.6s-1.6-.6-3.2-.7v-1.9H466v1.9c-2.1.2-3.5 1.1-4.2 2.8l-9.6 22.4c-1.6 3.8-3.3 6.4-4.9 7.9-1.7 1.4-3.5 2.2-5.4 2.2-1.4 0-2.5-.4-3.4-1.1-.8-.8-1.3-1.7-1.3-2.8 0-.8.3-1.5.8-2.1.5-.5 1.2-.8 1.9-.8s1.3.2 1.8.7c.5.5.7 1 .7 1.7 0 .2 0 .5-.1.8-.1.3-.1.5-.1.6 0 .4.3.7.9.7.6 0 1.3-.2 2.1-.7s1.5-1.2 2.2-2.1c.7-1 1.8-3.2 3.5-6.5l-9.9-21.2c-.4-.7-.8-1.3-1.3-1.7-.5-.4-1.3-.6-2.3-.7v-2zM486.4 267c3.5 0 6.5 1.3 8.8 3.8 2.4 2.5 3.6 5.9 3.6 10 0 2.9-.5 5.3-1.6 7.3s-2.6 3.6-4.6 4.8c-2 1.2-4.1 1.8-6.4 1.8-3.4 0-6.2-1.3-8.6-3.8-2.3-2.6-3.5-5.9-3.5-10s1.2-7.4 3.5-10 5.4-3.9 8.8-3.9zm0 1.9c-2.1 0-3.8.9-5.1 2.8s-2 4.9-2 8.9c0 4.1.7 7.2 2 9.1 1.3 1.9 3 2.9 5.1 2.9 2.2 0 3.9-1 5.3-2.9 1.3-1.9 2-5 2-9.4 0-4-.7-6.9-2-8.7-1.3-1.8-3-2.7-5.3-2.7zM517.3 267.3v17.3c0 2.1.5 3.7 1.6 4.9 1.1 1.2 2.4 1.7 4.1 1.7 2.1 0 3.8-.8 5.3-2.5s2.2-3.8 2.2-6.3v-9.8c0-.9-.3-1.6-1-2.1-.6-.5-1.9-.8-3.7-.8v-1.9l9.2-.5v21.4c0 1 .3 1.7.8 2.3.6.5 1.3.8 2.3.8h1.6v1.9l-8.8.2-.6-5.1c-1.6 1.8-3.1 3.2-4.7 4.1-1.6.9-3.2 1.4-4.8 1.4-2.4 0-4.3-.8-5.9-2.4-1.6-1.6-2.4-4.2-2.4-7.9v-11.3c0-1-.4-1.8-1.2-2.3-.6-.4-1.7-.6-3.4-.6v-1.9l9.4-.6z"/><g><path class="st3" d="M22.7 252.7h13.7l12.3 32.5L60 252.7h14v2.1h-3.4c-1.2 0-2 .2-2.4.5-.4.4-.6 1-.6 1.8v32.6c0 .6.3 1.2.8 1.5.5.4 1.4.5 2.6.5h3.1v2.1H55.2v-2.1h3.5c1 0 1.8-.2 2.2-.6.5-.4.7-.9.7-1.5v-35L48 293.7h-1.9l-14.7-38.9v29.9c0 1.8.2 3.1.7 4 .4.9 1.1 1.6 1.9 2 .8.5 2.2.8 4.1.9v2.1H22.7v-2.1c2.5-.2 4.3-.7 5.2-1.6.9-.9 1.4-2.6 1.4-4.9v-28.4c0-.7-.2-1.2-.6-1.5-.4-.3-1.2-.5-2.4-.5h-3.5v-2zM110.7 291l1 1.6c-1.4 1.4-2.9 2.1-4.5 2.1-1.3 0-2.3-.3-3.2-1-.9-.7-1.6-1.9-2.3-3.6-1.8 1.9-3.3 3.1-4.6 3.7-1.3.6-2.9.9-4.8.9-2.7 0-4.7-.6-6.1-1.7s-2.1-2.6-2.1-4.4c0-2.7 1.6-5 4.8-6.7 3.2-1.8 7.4-3 12.7-3.6v-4c0-1.4-.6-2.6-1.7-3.6s-2.6-1.5-4.3-1.5c-1.6 0-3 .3-4.2 1-.8.5-1.3 1-1.3 1.5 0 .3.2.7.7 1.3.5.7.8 1.4.8 2 0 .8-.3 1.5-.8 2s-1.2.8-2.1.8c-.9 0-1.7-.3-2.3-.9-.6-.6-.9-1.4-.9-2.4 0-1.8 1-3.5 3.1-5s4.8-2.3 8.1-2.3c3.1 0 5.5.7 7.1 2 1.6 1.4 2.4 3 2.4 4.9v14.2c0 1.3.2 2.2.6 2.8.4.6.9.9 1.6.9.7-.2 1.5-.5 2.3-1zm-9.1-11c-4.7.6-8.1 1.7-10 3.2-1.5 1.1-2.2 2.7-2.2 4.7 0 1.4.4 2.5 1.1 3.4.8.8 1.8 1.2 3 1.2 2.2 0 4.1-.8 5.7-2.5 1.6-1.7 2.4-3.7 2.4-6.2V280zM120.1 267.7l9.4-.5v10.5c1-3.5 2.2-6.1 3.6-7.9 1.4-1.8 3.2-2.7 5.2-2.7 1.4 0 2.5.4 3.4 1.3.8.9 1.3 2 1.3 3.5 0 1.2-.3 2.1-.8 2.7-.6.6-1.3 1-2.1 1s-1.5-.3-2-.8-.8-1.3-.8-2.3c0-.6.1-1.2.4-1.7.3-.5.4-.8.4-.9 0-.3-.2-.4-.5-.4-.8 0-1.6.4-2.6 1.3-1.3 1.2-2.4 3-3.1 5.1-1.1 3.4-1.7 6.1-1.7 8.1v5.6c0 .6.2 1.1.7 1.4s1.2.5 2.3.5h3.3v2.1h-16.2v-2.1h2.6c.9 0 1.5-.2 2-.5.4-.3.7-.8.7-1.2v-16.6c0-1.3-.3-2.2-.8-2.8-.5-.6-1.3-.9-2.3-.9h-2.3v-1.8zM151.1 252.7l10-.5v28.5l8.5-7.4c.8-.7 1.2-1.4 1.2-1.9s-.2-.8-.7-1.1c-.7-.4-1.9-.6-3.5-.6v-1.9h13.9v1.9c-2.7.1-4.8.9-6.3 2.2l-6 5.3 9.7 13.4c.6.8 1.6 1.2 3.1 1.2h1.4v2.1h-14.2v-2.1h1.4c1.1 0 1.8-.1 2.1-.3.4-.2.5-.4.5-.7 0-.3-.1-.5-.3-.8l-7.1-9.9-3.8 3.3v6.6c0 .5.2.9.5 1.2.5.4 1.2.5 2.1.5h1.8v2.1h-14v-2.1h2.3c.9 0 1.6-.2 2.1-.6s.7-.9.7-1.6v-32.2c0-.8-.3-1.4-.8-1.8-.8-.6-1.8-.8-3.1-.8h-1.4v-2zM212.5 252.7h19.1v2.1H227c-.7 0-1.3.2-1.6.6-.3.4-.5 1-.5 1.8v32.5c0 .8.2 1.3.7 1.7s1.3.5 2.6.5h5.8c3.1 0 5.6-1 7.5-3.1 2-2 3.4-5.6 4.3-10.7h1.9l-.9 15.8h-34.3v-2.1h3.4c1.2 0 2-.2 2.4-.7s.7-1.1.7-2.1v-32.1c0-.7-.2-1.2-.6-1.6-.4-.4-1-.5-1.7-.5h-4.2v-2.1zM283.8 291l1 1.6c-1.4 1.4-2.9 2.1-4.5 2.1-1.3 0-2.3-.3-3.2-1-.9-.7-1.6-1.9-2.3-3.6-1.8 1.9-3.3 3.1-4.6 3.7-1.3.6-2.9.9-4.8.9-2.7 0-4.7-.6-6.1-1.7s-2.1-2.6-2.1-4.4c0-2.7 1.6-5 4.8-6.7 3.2-1.8 7.4-3 12.7-3.6v-4c0-1.4-.6-2.6-1.7-3.6s-2.6-1.5-4.3-1.5c-1.6 0-3 .3-4.2 1-.8.5-1.3 1-1.3 1.5 0 .3.2.7.7 1.3.5.7.8 1.4.8 2 0 .8-.3 1.5-.8 2s-1.2.8-2.1.8c-.9 0-1.7-.3-2.3-.9-.6-.6-.9-1.4-.9-2.4 0-1.8 1-3.5 3.1-5s4.8-2.3 8.1-2.3c3.1 0 5.5.7 7.1 2 1.6 1.4 2.4 3 2.4 4.9v14.2c0 1.3.2 2.2.6 2.8.4.6.9.9 1.6.9.8-.2 1.5-.5 2.3-1zm-9.1-11c-4.7.6-8.1 1.7-10 3.2-1.5 1.1-2.2 2.7-2.2 4.7 0 1.4.4 2.5 1.1 3.4.8.8 1.8 1.2 3 1.2 2.2 0 4.1-.8 5.7-2.5 1.6-1.7 2.4-3.7 2.4-6.2V280zM293.7 267.7l8.7-.5c.4 1.6.6 3.5.8 5.7 1.2-1.9 2.5-3.3 4.1-4.3 1.6-.9 3.4-1.4 5.4-1.4 1.7 0 3.2.3 4.3 1 1.2.7 2.1 1.7 2.8 3.2.7 1.5 1.1 3.1 1.1 4.9V289c0 .9.2 1.6.6 2s1.1.6 2.1.6h1.8v2.1h-13.7v-2.1h1.3c1.2 0 2.1-.2 2.6-.6s.7-1 .7-1.8V278c0-2.4-.4-4.2-1.1-5.4-1-1.7-2.6-2.5-4.7-2.5s-3.8.8-5.2 2.5c-1.4 1.7-2.1 3.9-2.1 6.6v9.7c0 .9.2 1.6.7 2 .4.4 1.2.6 2.2.6h1.8v2.1h-13.8v-2.1h1.8c.9 0 1.6-.2 2.1-.6.5-.4.7-.8.7-1.4v-16.8c0-1.1-.3-2-.9-2.5-.6-.6-1.5-.9-2.6-.9h-1.3v-1.6zM349 252.7l10.2-.5v35.7c0 1.4.3 2.4.8 3 .5.6 1.3.9 2.4.9h1.8v2.1h-8.9l-.7-5.3c-1.1 1.9-2.3 3.3-3.7 4.3-1.4 1-3 1.4-4.8 1.4-3 0-5.5-1.2-7.6-3.7-2.1-2.5-3.1-5.8-3.1-9.9 0-4.4 1.3-7.9 4-10.6 2.1-2.1 4.5-3.1 7.2-3.1 1.7 0 3.2.4 4.5 1.3s2.5 2.1 3.5 3.8v-14.7c0-.8-.3-1.4-.9-1.9-.6-.5-1.5-.7-2.8-.7H349v-2.1zm-1.6 16.6c-2 0-3.6.8-4.8 2.5-1.2 1.7-1.8 4.4-1.8 8.3 0 4.2.6 7.2 1.8 9s2.8 2.6 4.6 2.6c2 0 3.8-1 5.2-2.9 1.4-1.9 2.2-4.8 2.2-8.5 0-3.5-.8-6.3-2.3-8.3-1.3-1.8-3-2.7-4.9-2.7zM397.1 281h-18.7c.1 4 .8 6.8 2.2 8.4 1.6 1.8 3.6 2.8 6.1 2.8 3.6 0 6.6-2.1 8.8-6.2l1.8.8c-2.7 5.3-6.6 7.9-11.7 7.9-3.5 0-6.4-1.3-8.8-3.8-2.4-2.5-3.6-5.8-3.6-9.7 0-4.2 1.2-7.6 3.5-10.3 2.3-2.6 5.2-3.9 8.7-3.9 2.5 0 4.7.6 6.5 1.9 1.8 1.3 3.2 3.2 4.1 5.6.7 1.7 1.1 3.9 1.1 6.5zm-18.7-2h11.3c.7 0 1.2-.2 1.6-.7.4-.5.6-1.2.6-2.3 0-2-.6-3.8-1.9-5.2-1.3-1.4-2.8-2.1-4.5-2.1-1.9 0-3.6.9-4.9 2.6s-2.1 4.2-2.2 7.7zM406.4 267.7l9.4-.5v10.5c1-3.5 2.2-6.1 3.6-7.9 1.4-1.8 3.2-2.7 5.2-2.7 1.4 0 2.5.4 3.4 1.3.8.9 1.3 2 1.3 3.5 0 1.2-.3 2.1-.8 2.7-.6.6-1.3 1-2.1 1s-1.5-.3-2-.8-.8-1.3-.8-2.3c0-.6.1-1.2.4-1.7.3-.5.4-.8.4-.9 0-.3-.2-.4-.5-.4-.8 0-1.6.4-2.6 1.3-1.3 1.2-2.4 3-3.1 5.1-1.1 3.4-1.7 6.1-1.7 8.1v5.6c0 .6.2 1.1.7 1.4s1.2.5 2.3.5h3.3v2.1h-16.2v-2.1h2.6c.9 0 1.5-.2 2-.5.4-.3.7-.8.7-1.2v-16.6c0-1.3-.3-2.2-.8-2.8-.5-.6-1.3-.9-2.3-.9h-2.3v-1.8zM437.2 267.7h12.5v1.9h-1.2c-1.1 0-1.8.1-2.2.4-.4.3-.6.7-.6 1.2 0 .2.1.5.2.7l7.3 15.7 5.4-13c.4-.9.6-1.8.6-2.7 0-.7-.3-1.2-.8-1.6s-1.6-.6-3.2-.7v-1.9H466v1.9c-2.1.2-3.5 1.1-4.2 2.8l-9.6 22.4c-1.6 3.8-3.3 6.4-4.9 7.9-1.7 1.4-3.5 2.2-5.4 2.2-1.4 0-2.5-.4-3.4-1.1-.8-.8-1.3-1.7-1.3-2.8 0-.8.3-1.5.8-2.1.5-.5 1.2-.8 1.9-.8s1.3.2 1.8.7c.5.5.7 1 .7 1.7 0 .2 0 .5-.1.8-.1.3-.1.5-.1.6 0 .4.3.7.9.7.6 0 1.3-.2 2.1-.7s1.5-1.2 2.2-2.1c.7-1 1.8-3.2 3.5-6.5l-9.9-21.2c-.4-.7-.8-1.3-1.3-1.7-.5-.4-1.3-.6-2.3-.7v-2zM486.4 267c3.5 0 6.5 1.3 8.8 3.8 2.4 2.5 3.6 5.9 3.6 10 0 2.9-.5 5.3-1.6 7.3s-2.6 3.6-4.6 4.8c-2 1.2-4.1 1.8-6.4 1.8-3.4 0-6.2-1.3-8.6-3.8-2.3-2.6-3.5-5.9-3.5-10s1.2-7.4 3.5-10 5.4-3.9 8.8-3.9zm0 1.9c-2.1 0-3.8.9-5.1 2.8s-2 4.9-2 8.9c0 4.1.7 7.2 2 9.1 1.3 1.9 3 2.9 5.1 2.9 2.2 0 3.9-1 5.3-2.9 1.3-1.9 2-5 2-9.4 0-4-.7-6.9-2-8.7-1.3-1.8-3-2.7-5.3-2.7zM517.3 267.3v17.3c0 2.1.5 3.7 1.6 4.9 1.1 1.2 2.4 1.7 4.1 1.7 2.1 0 3.8-.8 5.3-2.5s2.2-3.8 2.2-6.3v-9.8c0-.9-.3-1.6-1-2.1-.6-.5-1.9-.8-3.7-.8v-1.9l9.2-.5v21.4c0 1 .3 1.7.8 2.3.6.5 1.3.8 2.3.8h1.6v1.9l-8.8.2-.6-5.1c-1.6 1.8-3.1 3.2-4.7 4.1-1.6.9-3.2 1.4-4.8 1.4-2.4 0-4.3-.8-5.9-2.4-1.6-1.6-2.4-4.2-2.4-7.9v-11.3c0-1-.4-1.8-1.2-2.3-.6-.4-1.7-.6-3.4-.6v-1.9l9.4-.6z"/></g></g></g></svg>