<?xml version="1.0" encoding="utf-8"?>
<!-- Generator: Adobe Illustrator 21.1.0, SVG Export Plug-In . SVG Version: 6.00 Build 0)  -->
<svg version="1.1" xmlns="http://www.w3.org/2000/svg" xmlns:xlink="http://www.w3.org/1999/xlink" x="0px" y="0px"
	 viewBox="0 0 559.3 381.5" style="enable-background:new 0 0 559.3 381.5;" xml:space="preserve">
<style type="text/css">
	.st0{fill:#ED1C24;}
	.st1{fill:#00A651;}
	.st2{fill:#2E3192;}
	.st3{fill:none;stroke:#000000;}
</style>
<g id="Balls">
	<g id="balls">
		<circle id="Red_Ball" class="st0" cx="284.5" cy="82.4" r="68.2"/>
		<circle id="Green_Ball" class="st1" cx="234.6" cy="169.4" r="68.2"/>
		<circle id="Blue_Ball" class="st2" cx="333.9" cy="169.4" r="68.2"/>
	</g>
</g>
<g id="Text">
	<g>
		<path class="st0" d="M229.2,320.7c0,0.5,0,1,0,1.5c0,0.5-0.1,1.2-0.1,2c-0.1,0.8-0.1,1.5-0.2,2.1c0,0.6-0.1,1.4-0.2,2.3
			c-0.1,1-0.2,1.8-0.2,2.6c0,0.7-0.3,3.6-0.8,8.5c-1,10.1-1.4,17.2-1.2,21.5c0,0.3,0,0.7,0,1.3c0,0.5-0.1,0.8-0.1,0.8
			c-0.4,0.5-1.2,0.6-2.3,0.3c-1.1-0.3-1.8-0.7-1.9-1.4c-0.2-0.2-0.3-0.4-0.3-0.6s0.1-2.1,0.3-5.6l0.4-11.3l-0.9,0.1
			c-0.9,0-3,0.2-6.2,0.6c-3.2,0.4-5.2,0.7-6,0.9c-1,0-2,1-3.1,3c-0.3,0.7-0.6,1.4-1.1,2.2c-0.4,0.8-0.7,1.2-0.7,1.3l-1.1,1.3
			c0,0.5-0.5,1.8-1.5,3.9c-0.9,2-2.3,4.5-4.3,7.5l-1.1-0.8c-0.7-0.4-1.2-0.8-1.3-1.2c-0.1-0.4,0-1.1,0.4-2.1c0.4-1,1-2.3,1.9-3.9
			c0.9-1.7,2.1-4,3.6-7c1.6-3,2.3-4.7,2.3-5.2c-0.2-0.7,0.2-1.3,1.1-1.7c1.1-1.1,2-2.2,2.7-3.4c0.6-1.3,3-5.6,7.3-13
			c1.7-3.1,3.9-6.4,6.7-10.1c1.1-1.4,2-2.2,2.8-2.1c0.8,0,1.8,0.5,2.9,1.3c1.4,1.1,2.3,2.2,2.4,3.5
			C229.2,319.8,229.2,320.1,229.2,320.7z M222.9,340.8h0.1c0.1-0.3,0.4-2.8,0.8-7.6c0.4-3.6,0.7-7.9,1.1-13c-0.5,0-1.6,1.2-3.3,3.5
			c-1.8,2.3-3.3,4.8-4.7,7.5c-1.3,2.3-2,3.4-2.3,3.4c-0.3,0.3-1.1,1.6-2.3,3.8c-1.2,2.2-1.7,3.4-1.5,3.6c1.7-0.4,3.2-0.6,4.3-0.6
			c2.8-0.7,4.6-1,5.4-1.1c0.8-0.1,1.4,0,1.7,0.1C222.5,340.7,222.8,340.8,222.9,340.8z"/>
		<path class="st0" d="M237.3,359.9c-0.5,0.7-0.9,1-1.3,1c-0.4,0-0.9-0.4-1.7-1.1c-0.5-0.4-0.8-0.7-0.9-1c-0.3-0.7,0.2-3.6,1.4-8.8
			c0.1-1.2,1-3.6,2.5-7.4c1.5-3.7,2.7-6.3,3.6-7.6c0.9-0.7,1.8-0.6,2.7,0.3c0.5,0.4,0.6,1,0.3,1.9c-0.4,1.2-1.1,3.1-2.3,5.6
			c-1.1,2.5-1.6,3.7-1.5,3.7c0.1,0,0.3-0.1,0.6-0.3c0.5-0.9,1.8-2.1,3.7-3.6c2-1.5,3.2-2.4,3.7-2.7c0.5-0.3,1.1-0.5,1.6-0.7
			c0.6-0.2,0.9-0.4,1-0.4c1-0.5,2.1-0.7,3.3-0.6c1.1,0.1,1.9,0.6,2.1,1.3c0,0.5,0.3,0.8,0.8,1.1l0.3,0.4c0,0.4-0.6,0.7-1.8,0.7
			c-1.2,0.1-2.6,0.4-4.1,1.1c-0.2,0.1-0.6,0.4-1.2,0.7c-0.6,0.3-1,0.5-1.2,0.7c-0.2,0.1-0.6,0.3-1.1,0.6c-0.5,0.3-0.9,0.5-1.2,0.7
			c-0.3,0.2-0.6,0.4-1,0.7c-0.4,0.3-0.8,0.5-1.1,0.8c-0.3,0.2-0.6,0.5-1,0.8c-1.4,1.2-2.8,2.9-4.1,5c-0.3,0.3-0.7,1.2-1,2.6
			c-0.4,1.4-0.5,2.2-0.5,2.6C238.1,358.5,237.7,359.2,237.3,359.9z"/>
		<path class="st0" d="M262,357c-0.3-1-0.4-2.1-0.4-3.5c0-1.4,0.2-2.9,0.5-4.5c0.8-4,1.5-6.6,1.9-7.8c0.1-0.5-0.1-0.9-0.7-1
			c-0.6-0.2-1.3-0.2-2.1-0.2c-0.8,0-1.3,0-1.4-0.1l-0.3-0.4c0-0.2-0.1-0.5-0.2-0.7c-0.2-0.3-0.1-0.6,0.1-0.9
			c0.3-0.4,0.5-0.5,0.8-0.6c0.3,0,0.8-0.1,1.4-0.2c0.7-0.1,1.2-0.2,1.6-0.3c1.4-0.3,2.4-0.8,2.9-1.5c0.6-1.5,1.4-3.3,2.3-5.2
			c0.9-1.9,1.6-3.1,1.9-3.5c0.8-0.4,1.4-0.6,1.8-0.5c0.4,0.1,0.8,0.5,1.3,1.2c0.5,0.5,0.7,1,0.5,1.6c-0.1,0.5-1.2,2.8-3.4,6.9
			c0.6,0.1,1.3,0.1,2.2,0c1.5-0.3,2.8-0.3,3.8-0.2c2,0,3.1,0.9,3.2,2.6c0.1,0.5,0,0.8-0.3,0.9c-0.3,0.1-2.1,0.2-5.5,0.3
			c-3.4,0.1-5.1,0.3-5.1,0.5c-0.5,0.3-1.3,2.6-2.4,6.7c-0.6,2.6-0.9,4.9-0.9,7c0,2.1,0.2,3.5,0.8,4.3c0.4,0.4,1.2,0.5,2.4,0.3
			c1.2-0.2,2.3-0.8,3.3-1.6c1-0.8,1.8-1,2.4-0.6c0.6,0.4,0.4,1.3-0.5,2.6c-0.8,1.3-2,2.3-3.4,3c-1.4,0.7-2.7,0.9-3.8,0.6
			c-1.1-0.3-2.2-1-3.4-2C262.8,359,262.3,357.9,262,357z"/>
		<path class="st0" d="M281.5,355.5l0.3-1.5c0-0.3,0.1-1,0.6-2.3c0.8-1.9,2-5.2,3.4-9.9c0-0.6,0.4-0.9,1.1-0.9c0.6-0.2,1-0.2,1.3,0
			c0.3,0.2,0.7,0.6,1.1,1.4c0.7,0.7,0.6,2-0.2,3.8c-0.8,1.8-1.3,3.2-1.5,4.2c-0.7,1.5-1.2,3-1.6,4.4c-0.3,1.4-0.7,2.3-0.9,2.8
			c-0.4,1.9-0.8,3-1.2,3.4c-0.4,0.3-0.9,0.1-1.5-0.6c-0.7-0.7-1.1-1.6-1.2-2.5C281.1,356.8,281.2,356,281.5,355.5z M290.8,324.7
			c1.1-0.7,2.1-0.3,3.2,1.3c0.4,0.9,0.5,1.7,0.3,2.2c-0.1,0.5-0.7,1.3-1.5,2.4c-1.3,1.7-2.5,2-3.8,0.9c-0.6-0.5-0.9-1-0.9-1.8
			c0-0.7,0-1.1,0.1-1.1c0.4,0,0.8-0.5,1.3-1.2c0.5-0.8,0.7-1.4,0.7-1.9C290.1,325,290.3,324.7,290.8,324.7z"/>
		<path class="st0" d="M311.5,334.8c0.9,0.3,1.4,0.5,1.6,0.5c0.9,0.1,1.7,0.7,2.3,1.6c0.7,0.9,1,1.8,0.9,2.7
			c-0.1,0.9-0.4,1.7-0.8,2.3c-0.4,0.7-1,1.1-1.6,1.2c0.3,0,0-0.2-0.8-0.6l-0.2,0.1c0-0.2-0.1-0.4-0.2-0.7c-0.2-0.3-0.2-0.8-0.1-1.6
			c0.1-0.8,0.1-1.2,0-1.3c-0.1-0.1-0.4-0.2-1-0.3c-0.6-0.1-1.5,0.1-2.8,0.5c-1.2,0.4-2.5,1-3.7,1.9c-2.4,1.6-4,3.3-4.8,5
			c-0.6,0.8-0.8,1.4-0.8,1.8c0,0.9,1.4,2,4.3,3.3c2.9,1.3,4.6,2.6,5.1,4c0.2,0.6,0.2,1-0.1,1.2c0,0,0.1,0.1,0.1,0.1
			c0.5,0.8,0.3,1.7-0.7,2.6c-1,0.9-2.3,1.5-4,1.8c-1.1,0.3-2.3,0.5-3.4,0.5c-2.3,0-4-0.8-5.1-2.5c-0.6-0.8-0.7-1.5-0.4-2.1
			c0.3-0.6,0.8-0.5,1.3,0.1c0.7,0.4,1.6,0.6,2.9,0.6c1.3,0,2.5-0.2,3.8-0.7c1.5-0.7,1.9-1.2,1.3-1.5c-1.8-0.5-3.6-1.4-5.4-2.7
			c-1.8-1.3-2.8-2.5-3-3.6c-0.7-2.8,0.1-5.7,2.7-8.5c1.4-0.9,2.3-1.4,2.7-1.5v0.1c1.2-1.3,3.7-2.5,7.3-3.8
			C310.4,334.9,311.3,334.8,311.5,334.8z"/>
		<path class="st0" d="M339.9,354.1c0.7-0.4,1.4-0.4,2.1-0.2c0.7,0.3,1,0.8,1,1.6c0,0.8-0.6,1.6-1.7,2.5c-1.1,0.8-2.2,1.3-3.3,1.3
			c-1.4,0-2.8-2.5-4.1-7.5c-3.8,3.7-5.8,5.7-5.9,5.8c-0.5,0.9-1.8,1.7-3.9,2.5c-0.6,0.2-1.4,0.2-2.3,0.1c-0.9-0.1-1.4-0.3-1.4-0.5
			s0-0.3,0-0.3c0,0-0.1,0-0.3,0c-0.3-0.3-0.7-0.6-1.3-0.8c-0.4-0.6-0.6-1.3-0.6-2.1c0-0.8,0.2-2,0.6-3.7c0.2-2.3,1.6-5.2,4.2-8.9
			c2.5-3.6,4.9-6.1,7-7.3c1.4-1.4,3-1.5,5-0.4c1.4,0.8,2.7,2.4,3.8,4.6c0.2,1.2,0.2,2.9,0,5.3c-0.6,1.9-0.8,4-0.8,6.2
			c-0.1,0.9,0,1.5,0.3,1.9C338.7,354.5,339.2,354.5,339.9,354.1z M322,355c0,1.6,0.8,2,2.5,1c1.1-0.7,2.5-1.8,4.1-3.4
			c1.6-1.6,3.1-3.3,4.3-5c1.3-1.7,2.1-3.5,2.5-5.4c-0.2-0.5-0.5-1.1-0.9-1.6c-0.4-0.6-0.8-0.9-1.1-0.9c-1.4,0-3.6,2-6.6,6.1
			l-2.3,3.4c-0.3,0.4-0.8,1.4-1.5,3C322.3,353.7,322,354.7,322,355z"/>
		<path class="st0" d="M364.5,342.2c1.1-0.5,1.9-0.8,2.3-0.8s1.1,0.4,2.1,1.3c1,0.8,1.5,1.5,1.7,2.1c0,0.5,0.1,1.1,0.2,1.6
			c0.2,0.6,0.2,1.7,0.2,3.4c0,1.7-0.2,2.6-0.6,2.8c0,0.2,0.1,0.4,0.4,0.4v0.3c-0.5,0-0.5,0.4-0.1,1.3c0.4,0.9,0.9,1.5,1.3,1.9
			s0.6,0.9,0.5,1.4c-0.1,0.5-0.5,0.8-1.3,1c-1.8,0-3.1-0.9-3.9-2.6c-0.3-1-0.5-2.1-0.6-3.4c-0.1-1.3-0.1-2.1,0.1-2.3
			c0.2-0.3,0.2-1,0.2-2.3c0-1.2-0.2-1.9-0.6-2.1c-0.4-0.2-1,0-1.7,0.5c-5.5,3.5-9.4,6.2-11.7,8.1c-0.6,0.7-1.3,1.7-2.2,3.1
			c-0.1,0.2-0.3,0.4-0.6,0.4c-0.5,0.2-1.1,0-2-0.8c-1-1.1-1.6-1.8-1.6-1.9c0-0.4,0.2-1.2,0.5-2.6c0.3-1.4,0.5-2.2,0.7-2.6
			c0.2,0,0.4-0.3,0.7-0.9s0.5-1.1,0.7-1.3c0.1-0.7,0.7-2.3,1.8-4.8c1.1-1.8,1.7-3.7,1.9-5.6c0-0.2,0-0.4,0.1-0.5
			c0.1-0.2,0.3-0.2,0.5-0.2c0.8-0.8,1.7-0.6,2.6,0.6c0.9,1.2,1.3,2.4,1.1,3.6c-0.2,1.2-0.9,2.9-2.3,5.1c-0.7,1.6-1,2.5-1,2.7
			c1.9-1.3,3.2-2.1,3.9-2.7c0.4-0.4,1.4-1.2,3-2.2C362.7,343,363.8,342.4,364.5,342.2z"/>
	</g>
	<g>
		<g>
			<path d="M22.7,252.7h13.7l12.3,32.5L60,252.7h14v2.1h-3.4c-1.2,0-2,0.2-2.4,0.5c-0.4,0.4-0.6,1-0.6,1.8v32.6
				c0,0.6,0.3,1.2,0.8,1.5c0.5,0.4,1.4,0.5,2.6,0.5h3.1v2.1H55.2v-2.1h3.5c1,0,1.8-0.2,2.2-0.6c0.5-0.4,0.7-0.9,0.7-1.5v-35
				l-13.6,39.1h-1.9l-14.7-38.9v29.9c0,1.8,0.2,3.1,0.7,4c0.4,0.9,1.1,1.6,1.9,2c0.8,0.5,2.2,0.8,4.1,0.9v2.1H22.7v-2.1
				c2.5-0.2,4.3-0.7,5.2-1.6c0.9-0.9,1.4-2.6,1.4-4.9v-28.4c0-0.7-0.2-1.2-0.6-1.5c-0.4-0.3-1.2-0.5-2.4-0.5h-3.5V252.7z"/>
			<path d="M110.7,291l1,1.6c-1.4,1.4-2.9,2.1-4.5,2.1c-1.3,0-2.3-0.3-3.2-1c-0.9-0.7-1.6-1.9-2.3-3.6c-1.8,1.9-3.3,3.1-4.6,3.7
				c-1.3,0.6-2.9,0.9-4.8,0.9c-2.7,0-4.7-0.6-6.1-1.7s-2.1-2.6-2.1-4.4c0-2.7,1.6-5,4.8-6.7c3.2-1.8,7.4-3,12.7-3.6v-4
				c0-1.4-0.6-2.6-1.7-3.6c-1.1-1-2.6-1.5-4.3-1.5c-1.6,0-3,0.3-4.2,1c-0.8,0.5-1.3,1-1.3,1.5c0,0.3,0.2,0.7,0.7,1.3
				c0.5,0.7,0.8,1.4,0.8,2c0,0.8-0.3,1.5-0.8,2c-0.5,0.5-1.2,0.8-2.1,0.8c-0.9,0-1.7-0.3-2.3-0.9c-0.6-0.6-0.9-1.4-0.9-2.4
				c0-1.8,1-3.5,3.1-5c2.1-1.5,4.8-2.3,8.1-2.3c3.1,0,5.5,0.7,7.1,2c1.6,1.4,2.4,3,2.4,4.9v14.2c0,1.3,0.2,2.2,0.6,2.8
				c0.4,0.6,0.9,0.9,1.6,0.9C109.1,291.8,109.9,291.5,110.7,291z M101.6,280c-4.7,0.6-8.1,1.7-10,3.2c-1.5,1.1-2.2,2.7-2.2,4.7
				c0,1.4,0.4,2.5,1.1,3.4c0.8,0.8,1.8,1.2,3,1.2c2.2,0,4.1-0.8,5.7-2.5c1.6-1.7,2.4-3.7,2.4-6.2V280z"/>
			<path d="M120.1,267.7l9.4-0.5v10.5c1-3.5,2.2-6.1,3.6-7.9c1.4-1.8,3.2-2.7,5.2-2.7c1.4,0,2.5,0.4,3.4,1.3c0.8,0.9,1.3,2,1.3,3.5
				c0,1.2-0.3,2.1-0.8,2.7c-0.6,0.6-1.3,1-2.1,1c-0.8,0-1.5-0.3-2-0.8s-0.8-1.3-0.8-2.3c0-0.6,0.1-1.2,0.4-1.7
				c0.3-0.5,0.4-0.8,0.4-0.9c0-0.3-0.2-0.4-0.5-0.4c-0.8,0-1.6,0.4-2.6,1.3c-1.3,1.2-2.4,3-3.1,5.1c-1.1,3.4-1.7,6.1-1.7,8.1v5.6
				c0,0.6,0.2,1.1,0.7,1.4s1.2,0.5,2.3,0.5h3.3v2.1h-16.2v-2.1h2.6c0.9,0,1.5-0.2,2-0.5c0.4-0.3,0.7-0.8,0.7-1.2v-16.6
				c0-1.3-0.3-2.2-0.8-2.8c-0.5-0.6-1.3-0.9-2.3-0.9h-2.3V267.7z"/>
			<path d="M151.1,252.7l10-0.5v28.5l8.5-7.4c0.8-0.7,1.2-1.4,1.2-1.9c0-0.5-0.2-0.8-0.7-1.1c-0.7-0.4-1.9-0.6-3.5-0.6v-1.9h13.9
				v1.9c-2.7,0.1-4.8,0.9-6.3,2.2l-6,5.3l9.7,13.4c0.6,0.8,1.6,1.2,3.1,1.2h1.4v2.1h-14.2v-2.1h1.4c1.1,0,1.8-0.1,2.1-0.3
				c0.4-0.2,0.5-0.4,0.5-0.7c0-0.3-0.1-0.5-0.3-0.8l-7.1-9.9l-3.8,3.3v6.6c0,0.5,0.2,0.9,0.5,1.2c0.5,0.4,1.2,0.5,2.1,0.5h1.8v2.1
				h-14v-2.1h2.3c0.9,0,1.6-0.2,2.1-0.6s0.7-0.9,0.7-1.6v-32.2c0-0.8-0.3-1.4-0.8-1.8c-0.8-0.6-1.8-0.8-3.1-0.8h-1.4V252.7z"/>
			<path d="M212.5,252.7h19.1v2.1H227c-0.7,0-1.3,0.2-1.6,0.6c-0.3,0.4-0.5,1-0.5,1.8v32.5c0,0.8,0.2,1.3,0.7,1.7s1.3,0.5,2.6,0.5
				h5.8c3.1,0,5.6-1,7.5-3.1c2-2,3.4-5.6,4.3-10.7h1.9l-0.9,15.8h-34.3v-2.1h3.4c1.2,0,2-0.2,2.4-0.7s0.7-1.1,0.7-2.1v-32.1
				c0-0.7-0.2-1.2-0.6-1.6c-0.4-0.4-1-0.5-1.7-0.5h-4.2V252.7z"/>
			<path d="M283.8,291l1,1.6c-1.4,1.4-2.9,2.1-4.5,2.1c-1.3,0-2.3-0.3-3.2-1c-0.9-0.7-1.6-1.9-2.3-3.6c-1.8,1.9-3.3,3.1-4.6,3.7
				c-1.3,0.6-2.9,0.9-4.8,0.9c-2.7,0-4.7-0.6-6.1-1.7s-2.1-2.6-2.1-4.4c0-2.7,1.6-5,4.8-6.7c3.2-1.8,7.4-3,12.7-3.6v-4
				c0-1.4-0.6-2.6-1.7-3.6s-2.6-1.5-4.3-1.5c-1.6,0-3,0.3-4.2,1c-0.8,0.5-1.3,1-1.3,1.5c0,0.3,0.2,0.7,0.7,1.3
				c0.5,0.7,0.8,1.4,0.8,2c0,0.8-0.3,1.5-0.8,2c-0.5,0.5-1.2,0.8-2.1,0.8c-0.9,0-1.7-0.3-2.3-0.9c-0.6-0.6-0.9-1.4-0.9-2.4
				c0-1.8,1-3.5,3.1-5c2.1-1.5,4.8-2.3,8.1-2.3c3.1,0,5.5,0.7,7.1,2c1.6,1.4,2.4,3,2.4,4.9v14.2c0,1.3,0.2,2.2,0.6,2.8
				c0.4,0.6,0.9,0.9,1.6,0.9C282.3,291.8,283,291.5,283.8,291z M274.7,280c-4.7,0.6-8.1,1.7-10,3.2c-1.5,1.1-2.2,2.7-2.2,4.7
				c0,1.4,0.4,2.5,1.1,3.4c0.8,0.8,1.8,1.2,3,1.2c2.2,0,4.1-0.8,5.7-2.5c1.6-1.7,2.4-3.7,2.4-6.2V280z"/>
			<path d="M293.7,267.7l8.7-0.5c0.4,1.6,0.6,3.5,0.8,5.7c1.2-1.9,2.5-3.3,4.1-4.3c1.6-0.9,3.4-1.4,5.4-1.4c1.7,0,3.2,0.3,4.3,1
				c1.2,0.7,2.1,1.7,2.8,3.2c0.7,1.5,1.1,3.1,1.1,4.9v12.7c0,0.9,0.2,1.6,0.6,2s1.1,0.6,2.1,0.6h1.8v2.1h-13.7v-2.1h1.3
				c1.2,0,2.1-0.2,2.6-0.6s0.7-1,0.7-1.8v-11.2c0-2.4-0.4-4.2-1.1-5.4c-1-1.7-2.6-2.5-4.7-2.5c-2.1,0-3.8,0.8-5.2,2.5
				c-1.4,1.7-2.1,3.9-2.1,6.6v9.7c0,0.9,0.2,1.6,0.7,2c0.4,0.4,1.2,0.6,2.2,0.6h1.8v2.1h-13.8v-2.1h1.8c0.9,0,1.6-0.2,2.1-0.6
				c0.5-0.4,0.7-0.8,0.7-1.4v-16.8c0-1.1-0.3-2-0.9-2.5c-0.6-0.6-1.5-0.9-2.6-0.9h-1.3V267.7z"/>
			<path d="M349,252.7l10.2-0.5v35.7c0,1.4,0.3,2.4,0.8,3c0.5,0.6,1.3,0.9,2.4,0.9h1.8v2.1h-8.9l-0.7-5.3c-1.1,1.9-2.3,3.3-3.7,4.3
				c-1.4,1-3,1.4-4.8,1.4c-3,0-5.5-1.2-7.6-3.7c-2.1-2.5-3.1-5.8-3.1-9.9c0-4.4,1.3-7.9,4-10.6c2.1-2.1,4.5-3.1,7.2-3.1
				c1.7,0,3.2,0.4,4.5,1.3s2.5,2.1,3.5,3.8v-14.7c0-0.8-0.3-1.4-0.9-1.9c-0.6-0.5-1.5-0.7-2.8-0.7H349V252.7z M347.4,269.3
				c-2,0-3.6,0.8-4.8,2.5c-1.2,1.7-1.8,4.4-1.8,8.3c0,4.2,0.6,7.2,1.8,9s2.8,2.6,4.6,2.6c2,0,3.8-1,5.2-2.9c1.4-1.9,2.2-4.8,2.2-8.5
				c0-3.5-0.8-6.3-2.3-8.3C351,270.2,349.3,269.3,347.4,269.3z"/>
			<path d="M397.1,281h-18.7c0.1,4,0.8,6.8,2.2,8.4c1.6,1.8,3.6,2.8,6.1,2.8c3.6,0,6.6-2.1,8.8-6.2l1.8,0.8
				c-2.7,5.3-6.6,7.9-11.7,7.9c-3.5,0-6.4-1.3-8.8-3.8c-2.4-2.5-3.6-5.8-3.6-9.7c0-4.2,1.2-7.6,3.5-10.3c2.3-2.6,5.2-3.9,8.7-3.9
				c2.5,0,4.7,0.6,6.5,1.9c1.8,1.3,3.2,3.2,4.1,5.6C396.7,276.2,397.1,278.4,397.1,281z M378.4,279h11.3c0.7,0,1.2-0.2,1.6-0.7
				c0.4-0.5,0.6-1.2,0.6-2.3c0-2-0.6-3.8-1.9-5.2c-1.3-1.4-2.8-2.1-4.5-2.1c-1.9,0-3.6,0.9-4.9,2.6S378.5,275.5,378.4,279z"/>
			<path d="M406.4,267.7l9.4-0.5v10.5c1-3.5,2.2-6.1,3.6-7.9c1.4-1.8,3.2-2.7,5.2-2.7c1.4,0,2.5,0.4,3.4,1.3c0.8,0.9,1.3,2,1.3,3.5
				c0,1.2-0.3,2.1-0.8,2.7c-0.6,0.6-1.3,1-2.1,1c-0.8,0-1.5-0.3-2-0.8s-0.8-1.3-0.8-2.3c0-0.6,0.1-1.2,0.4-1.7
				c0.3-0.5,0.4-0.8,0.4-0.9c0-0.3-0.2-0.4-0.5-0.4c-0.8,0-1.6,0.4-2.6,1.3c-1.3,1.2-2.4,3-3.1,5.1c-1.1,3.4-1.7,6.1-1.7,8.1v5.6
				c0,0.6,0.2,1.1,0.7,1.4s1.2,0.5,2.3,0.5h3.3v2.1h-16.2v-2.1h2.6c0.9,0,1.5-0.2,2-0.5c0.4-0.3,0.7-0.8,0.7-1.2v-16.6
				c0-1.3-0.3-2.2-0.8-2.8c-0.5-0.6-1.3-0.9-2.3-0.9h-2.3V267.7z"/>
			<path d="M437.2,267.7h12.5v1.9h-1.2c-1.1,0-1.8,0.1-2.2,0.4c-0.4,0.3-0.6,0.7-0.6,1.2c0,0.2,0.1,0.5,0.2,0.7l7.3,15.7l5.4-13
				c0.4-0.9,0.6-1.8,0.6-2.7c0-0.7-0.3-1.2-0.8-1.6s-1.6-0.6-3.2-0.7v-1.9H466v1.9c-2.1,0.2-3.5,1.1-4.2,2.8l-9.6,22.4
				c-1.6,3.8-3.3,6.4-4.9,7.9c-1.7,1.4-3.5,2.2-5.4,2.2c-1.4,0-2.5-0.4-3.4-1.1c-0.8-0.8-1.3-1.7-1.3-2.8c0-0.8,0.3-1.5,0.8-2.1
				c0.5-0.5,1.2-0.8,1.9-0.8c0.7,0,1.3,0.2,1.8,0.7c0.5,0.5,0.7,1,0.7,1.7c0,0.2,0,0.5-0.1,0.8c-0.1,0.3-0.1,0.5-0.1,0.6
				c0,0.4,0.3,0.7,0.9,0.7c0.6,0,1.3-0.2,2.1-0.7s1.5-1.2,2.2-2.1c0.7-1,1.8-3.2,3.5-6.5l-9.9-21.2c-0.4-0.7-0.8-1.3-1.3-1.7
				c-0.5-0.4-1.3-0.6-2.3-0.7V267.7z"/>
			<path d="M486.4,267c3.5,0,6.5,1.3,8.8,3.8c2.4,2.5,3.6,5.9,3.6,10c0,2.9-0.5,5.3-1.6,7.3c-1.1,2-2.6,3.6-4.6,4.8
				c-2,1.2-4.1,1.8-6.4,1.8c-3.4,0-6.2-1.3-8.6-3.8c-2.3-2.6-3.5-5.9-3.5-10c0-4.1,1.2-7.4,3.5-10S483,267,486.4,267z M486.4,268.9
				c-2.1,0-3.8,0.9-5.1,2.8s-2,4.9-2,8.9c0,4.1,0.7,7.2,2,9.1c1.3,1.9,3,2.9,5.1,2.9c2.2,0,3.9-1,5.3-2.9c1.3-1.9,2-5,2-9.4
				c0-4-0.7-6.9-2-8.7C490.4,269.8,488.7,268.9,486.4,268.9z"/>
			<path d="M517.3,267.3v17.3c0,2.1,0.5,3.7,1.6,4.9c1.1,1.2,2.4,1.7,4.1,1.7c2.1,0,3.8-0.8,5.3-2.5c1.5-1.7,2.2-3.8,2.2-6.3v-9.8
				c0-0.9-0.3-1.6-1-2.1c-0.6-0.5-1.9-0.8-3.7-0.8v-1.9l9.2-0.5v21.4c0,1,0.3,1.7,0.8,2.3c0.6,0.5,1.3,0.8,2.3,0.8h1.6v1.9l-8.8,0.2
				l-0.6-5.1c-1.6,1.8-3.1,3.2-4.7,4.1c-1.6,0.9-3.2,1.4-4.8,1.4c-2.4,0-4.3-0.8-5.9-2.4c-1.6-1.6-2.4-4.2-2.4-7.9v-11.3
				c0-1-0.4-1.8-1.2-2.3c-0.6-0.4-1.7-0.6-3.4-0.6v-1.9L517.3,267.3z"/>
		</g>
		<g>
			<path class="st3" d="M22.7,252.7h13.7l12.3,32.5L60,252.7h14v2.1h-3.4c-1.2,0-2,0.2-2.4,0.5c-0.4,0.4-0.6,1-0.6,1.8v32.6
				c0,0.6,0.3,1.2,0.8,1.5c0.5,0.4,1.4,0.5,2.6,0.5h3.1v2.1H55.2v-2.1h3.5c1,0,1.8-0.2,2.2-0.6c0.5-0.4,0.7-0.9,0.7-1.5v-35
				l-13.6,39.1h-1.9l-14.7-38.9v29.9c0,1.8,0.2,3.1,0.7,4c0.4,0.9,1.1,1.6,1.9,2c0.8,0.5,2.2,0.8,4.1,0.9v2.1H22.7v-2.1
				c2.5-0.2,4.3-0.7,5.2-1.6c0.9-0.9,1.4-2.6,1.4-4.9v-28.4c0-0.7-0.2-1.2-0.6-1.5c-0.4-0.3-1.2-0.5-2.4-0.5h-3.5V252.7z"/>
			<path class="st3" d="M110.7,291l1,1.6c-1.4,1.4-2.9,2.1-4.5,2.1c-1.3,0-2.3-0.3-3.2-1c-0.9-0.7-1.6-1.9-2.3-3.6
				c-1.8,1.9-3.3,3.1-4.6,3.7c-1.3,0.6-2.9,0.9-4.8,0.9c-2.7,0-4.7-0.6-6.1-1.7s-2.1-2.6-2.1-4.4c0-2.7,1.6-5,4.8-6.7
				c3.2-1.8,7.4-3,12.7-3.6v-4c0-1.4-0.6-2.6-1.7-3.6c-1.1-1-2.6-1.5-4.3-1.5c-1.6,0-3,0.3-4.2,1c-0.8,0.5-1.3,1-1.3,1.5
				c0,0.3,0.2,0.7,0.7,1.3c0.5,0.7,0.8,1.4,0.8,2c0,0.8-0.3,1.5-0.8,2c-0.5,0.5-1.2,0.8-2.1,0.8c-0.9,0-1.7-0.3-2.3-0.9
				c-0.6-0.6-0.9-1.4-0.9-2.4c0-1.8,1-3.5,3.1-5c2.1-1.5,4.8-2.3,8.1-2.3c3.1,0,5.5,0.7,7.1,2c1.6,1.4,2.4,3,2.4,4.9v14.2
				c0,1.3,0.2,2.2,0.6,2.8c0.4,0.6,0.9,0.9,1.6,0.9C109.1,291.8,109.9,291.5,110.7,291z M101.6,280c-4.7,0.6-8.1,1.7-10,3.2
				c-1.5,1.1-2.2,2.7-2.2,4.7c0,1.4,0.4,2.5,1.1,3.4c0.8,0.8,1.8,1.2,3,1.2c2.2,0,4.1-0.8,5.7-2.5c1.6-1.7,2.4-3.7,2.4-6.2V280z"/>
			<path class="st3" d="M120.1,267.7l9.4-0.5v10.5c1-3.5,2.2-6.1,3.6-7.9c1.4-1.8,3.2-2.7,5.2-2.7c1.4,0,2.5,0.4,3.4,1.3
				c0.8,0.9,1.3,2,1.3,3.5c0,1.2-0.3,2.1-0.8,2.7c-0.6,0.6-1.3,1-2.1,1c-0.8,0-1.5-0.3-2-0.8s-0.8-1.3-0.8-2.3
				c0-0.6,0.1-1.2,0.4-1.7c0.3-0.5,0.4-0.8,0.4-0.9c0-0.3-0.2-0.4-0.5-0.4c-0.8,0-1.6,0.4-2.6,1.3c-1.3,1.2-2.4,3-3.1,5.1
				c-1.1,3.4-1.7,6.1-1.7,8.1v5.6c0,0.6,0.2,1.1,0.7,1.4s1.2,0.5,2.3,0.5h3.3v2.1h-16.2v-2.1h2.6c0.9,0,1.5-0.2,2-0.5
				c0.4-0.3,0.7-0.8,0.7-1.2v-16.6c0-1.3-0.3-2.2-0.8-2.8c-0.5-0.6-1.3-0.9-2.3-0.9h-2.3V267.7z"/>
			<path class="st3" d="M151.1,252.7l10-0.5v28.5l8.5-7.4c0.8-0.7,1.2-1.4,1.2-1.9c0-0.5-0.2-0.8-0.7-1.1c-0.7-0.4-1.9-0.6-3.5-0.6
				v-1.9h13.9v1.9c-2.7,0.1-4.8,0.9-6.3,2.2l-6,5.3l9.7,13.4c0.6,0.8,1.6,1.2,3.1,1.2h1.4v2.1h-14.2v-2.1h1.4c1.1,0,1.8-0.1,2.1-0.3
				c0.4-0.2,0.5-0.4,0.5-0.7c0-0.3-0.1-0.5-0.3-0.8l-7.1-9.9l-3.8,3.3v6.6c0,0.5,0.2,0.9,0.5,1.2c0.5,0.4,1.2,0.5,2.1,0.5h1.8v2.1
				h-14v-2.1h2.3c0.9,0,1.6-0.2,2.1-0.6s0.7-0.9,0.7-1.6v-32.2c0-0.8-0.3-1.4-0.8-1.8c-0.8-0.6-1.8-0.8-3.1-0.8h-1.4V252.7z"/>
			<path class="st3" d="M212.5,252.7h19.1v2.1H227c-0.7,0-1.3,0.2-1.6,0.6c-0.3,0.4-0.5,1-0.5,1.8v32.5c0,0.8,0.2,1.3,0.7,1.7
				s1.3,0.5,2.6,0.5h5.8c3.1,0,5.6-1,7.5-3.1c2-2,3.4-5.6,4.3-10.7h1.9l-0.9,15.8h-34.3v-2.1h3.4c1.2,0,2-0.2,2.4-0.7
				s0.7-1.1,0.7-2.1v-32.1c0-0.7-0.2-1.2-0.6-1.6c-0.4-0.4-1-0.5-1.7-0.5h-4.2V252.7z"/>
			<path class="st3" d="M283.8,291l1,1.6c-1.4,1.4-2.9,2.1-4.5,2.1c-1.3,0-2.3-0.3-3.2-1c-0.9-0.7-1.6-1.9-2.3-3.6
				c-1.8,1.9-3.3,3.1-4.6,3.7c-1.3,0.6-2.9,0.9-4.8,0.9c-2.7,0-4.7-0.6-6.1-1.7s-2.1-2.6-2.1-4.4c0-2.7,1.6-5,4.8-6.7
				c3.2-1.8,7.4-3,12.7-3.6v-4c0-1.4-0.6-2.6-1.7-3.6s-2.6-1.5-4.3-1.5c-1.6,0-3,0.3-4.2,1c-0.8,0.5-1.3,1-1.3,1.5
				c0,0.3,0.2,0.7,0.7,1.3c0.5,0.7,0.8,1.4,0.8,2c0,0.8-0.3,1.5-0.8,2c-0.5,0.5-1.2,0.8-2.1,0.8c-0.9,0-1.7-0.3-2.3-0.9
				c-0.6-0.6-0.9-1.4-0.9-2.4c0-1.8,1-3.5,3.1-5c2.1-1.5,4.8-2.3,8.1-2.3c3.1,0,5.5,0.7,7.1,2c1.6,1.4,2.4,3,2.4,4.9v14.2
				c0,1.3,0.2,2.2,0.6,2.8c0.4,0.6,0.9,0.9,1.6,0.9C282.3,291.8,283,291.5,283.8,291z M274.7,280c-4.7,0.6-8.1,1.7-10,3.2
				c-1.5,1.1-2.2,2.7-2.2,4.7c0,1.4,0.4,2.5,1.1,3.4c0.8,0.8,1.8,1.2,3,1.2c2.2,0,4.1-0.8,5.7-2.5c1.6-1.7,2.4-3.7,2.4-6.2V280z"/>
			<path class="st3" d="M293.7,267.7l8.7-0.5c0.4,1.6,0.6,3.5,0.8,5.7c1.2-1.9,2.5-3.3,4.1-4.3c1.6-0.9,3.4-1.4,5.4-1.4
				c1.7,0,3.2,0.3,4.3,1c1.2,0.7,2.1,1.7,2.8,3.2c0.7,1.5,1.1,3.1,1.1,4.9v12.7c0,0.9,0.2,1.6,0.6,2s1.1,0.6,2.1,0.6h1.8v2.1h-13.7
				v-2.1h1.3c1.2,0,2.1-0.2,2.6-0.6s0.7-1,0.7-1.8v-11.2c0-2.4-0.4-4.2-1.1-5.4c-1-1.7-2.6-2.5-4.7-2.5c-2.1,0-3.8,0.8-5.2,2.5
				c-1.4,1.7-2.1,3.9-2.1,6.6v9.7c0,0.9,0.2,1.6,0.7,2c0.4,0.4,1.2,0.6,2.2,0.6h1.8v2.1h-13.8v-2.1h1.8c0.9,0,1.6-0.2,2.1-0.6
				c0.5-0.4,0.7-0.8,0.7-1.4v-16.8c0-1.1-0.3-2-0.9-2.5c-0.6-0.6-1.5-0.9-2.6-0.9h-1.3V267.7z"/>
			<path class="st3" d="M349,252.7l10.2-0.5v35.7c0,1.4,0.3,2.4,0.8,3c0.5,0.6,1.3,0.9,2.4,0.9h1.8v2.1h-8.9l-0.7-5.3
				c-1.1,1.9-2.3,3.3-3.7,4.3c-1.4,1-3,1.4-4.8,1.4c-3,0-5.5-1.2-7.6-3.7c-2.1-2.5-3.1-5.8-3.1-9.9c0-4.4,1.3-7.9,4-10.6
				c2.1-2.1,4.5-3.1,7.2-3.1c1.7,0,3.2,0.4,4.5,1.3s2.5,2.1,3.5,3.8v-14.7c0-0.8-0.3-1.4-0.9-1.9c-0.6-0.5-1.5-0.7-2.8-0.7H349
				V252.7z M347.4,269.3c-2,0-3.6,0.8-4.8,2.5c-1.2,1.7-1.8,4.4-1.8,8.3c0,4.2,0.6,7.2,1.8,9s2.8,2.6,4.6,2.6c2,0,3.8-1,5.2-2.9
				c1.4-1.9,2.2-4.8,2.2-8.5c0-3.5-0.8-6.3-2.3-8.3C351,270.2,349.3,269.3,347.4,269.3z"/>
			<path class="st3" d="M397.1,281h-18.7c0.1,4,0.8,6.8,2.2,8.4c1.6,1.8,3.6,2.8,6.1,2.8c3.6,0,6.6-2.1,8.8-6.2l1.8,0.8
				c-2.7,5.3-6.6,7.9-11.7,7.9c-3.5,0-6.4-1.3-8.8-3.8c-2.4-2.5-3.6-5.8-3.6-9.7c0-4.2,1.2-7.6,3.5-10.3c2.3-2.6,5.2-3.9,8.7-3.9
				c2.5,0,4.7,0.6,6.5,1.9c1.8,1.3,3.2,3.2,4.1,5.6C396.7,276.2,397.1,278.4,397.1,281z M378.4,279h11.3c0.7,0,1.2-0.2,1.6-0.7
				c0.4-0.5,0.6-1.2,0.6-2.3c0-2-0.6-3.8-1.9-5.2c-1.3-1.4-2.8-2.1-4.5-2.1c-1.9,0-3.6,0.9-4.9,2.6S378.5,275.5,378.4,279z"/>
			<path class="st3" d="M406.4,267.7l9.4-0.5v10.5c1-3.5,2.2-6.1,3.6-7.9c1.4-1.8,3.2-2.7,5.2-2.7c1.4,0,2.5,0.4,3.4,1.3
				c0.8,0.9,1.3,2,1.3,3.5c0,1.2-0.3,2.1-0.8,2.7c-0.6,0.6-1.3,1-2.1,1c-0.8,0-1.5-0.3-2-0.8s-0.8-1.3-0.8-2.3
				c0-0.6,0.1-1.2,0.4-1.7c0.3-0.5,0.4-0.8,0.4-0.9c0-0.3-0.2-0.4-0.5-0.4c-0.8,0-1.6,0.4-2.6,1.3c-1.3,1.2-2.4,3-3.1,5.1
				c-1.1,3.4-1.7,6.1-1.7,8.1v5.6c0,0.6,0.2,1.1,0.7,1.4s1.2,0.5,2.3,0.5h3.3v2.1h-16.2v-2.1h2.6c0.9,0,1.5-0.2,2-0.5
				c0.4-0.3,0.7-0.8,0.7-1.2v-16.6c0-1.3-0.3-2.2-0.8-2.8c-0.5-0.6-1.3-0.9-2.3-0.9h-2.3V267.7z"/>
			<path class="st3" d="M437.2,267.7h12.5v1.9h-1.2c-1.1,0-1.8,0.1-2.2,0.4c-0.4,0.3-0.6,0.7-0.6,1.2c0,0.2,0.1,0.5,0.2,0.7
				l7.3,15.7l5.4-13c0.4-0.9,0.6-1.8,0.6-2.7c0-0.7-0.3-1.2-0.8-1.6s-1.6-0.6-3.2-0.7v-1.9H466v1.9c-2.1,0.2-3.5,1.1-4.2,2.8
				l-9.6,22.4c-1.6,3.8-3.3,6.4-4.9,7.9c-1.7,1.4-3.5,2.2-5.4,2.2c-1.4,0-2.5-0.4-3.4-1.1c-0.8-0.8-1.3-1.7-1.3-2.8
				c0-0.8,0.3-1.5,0.8-2.1c0.5-0.5,1.2-0.8,1.9-0.8c0.7,0,1.3,0.2,1.8,0.7c0.5,0.5,0.7,1,0.7,1.7c0,0.2,0,0.5-0.1,0.8
				c-0.1,0.3-0.1,0.5-0.1,0.6c0,0.4,0.3,0.7,0.9,0.7c0.6,0,1.3-0.2,2.1-0.7s1.5-1.2,2.2-2.1c0.7-1,1.8-3.2,3.5-6.5l-9.9-21.2
				c-0.4-0.7-0.8-1.3-1.3-1.7c-0.5-0.4-1.3-0.6-2.3-0.7V267.7z"/>
			<path class="st3" d="M486.4,267c3.5,0,6.5,1.3,8.8,3.8c2.4,2.5,3.6,5.9,3.6,10c0,2.9-0.5,5.3-1.6,7.3c-1.1,2-2.6,3.6-4.6,4.8
				c-2,1.2-4.1,1.8-6.4,1.8c-3.4,0-6.2-1.3-8.6-3.8c-2.3-2.6-3.5-5.9-3.5-10c0-4.1,1.2-7.4,3.5-10S483,267,486.4,267z M486.4,268.9
				c-2.1,0-3.8,0.9-5.1,2.8s-2,4.9-2,8.9c0,4.1,0.7,7.2,2,9.1c1.3,1.9,3,2.9,5.1,2.9c2.2,0,3.9-1,5.3-2.9c1.3-1.9,2-5,2-9.4
				c0-4-0.7-6.9-2-8.7C490.4,269.8,488.7,268.9,486.4,268.9z"/>
			<path class="st3" d="M517.3,267.3v17.3c0,2.1,0.5,3.7,1.6,4.9c1.1,1.2,2.4,1.7,4.1,1.7c2.1,0,3.8-0.8,5.3-2.5
				c1.5-1.7,2.2-3.8,2.2-6.3v-9.8c0-0.9-0.3-1.6-1-2.1c-0.6-0.5-1.9-0.8-3.7-0.8v-1.9l9.2-0.5v21.4c0,1,0.3,1.7,0.8,2.3
				c0.6,0.5,1.3,0.8,2.3,0.8h1.6v1.9l-8.8,0.2l-0.6-5.1c-1.6,1.8-3.1,3.2-4.7,4.1c-1.6,0.9-3.2,1.4-4.8,1.4c-2.4,0-4.3-0.8-5.9-2.4
				c-1.6-1.6-2.4-4.2-2.4-7.9v-11.3c0-1-0.4-1.8-1.2-2.3c-0.6-0.4-1.7-0.6-3.4-0.6v-1.9L517.3,267.3z"/>
		</g>
	</g>
</g>
</svg>
