<svg class="mainIcon" xmlns="http://www.w3.org/2000/svg" xmlns:xlink="http://www.w3.org/1999/xlink" viewBox="0 0 128 128"><defs><path id="a" d="M73.7 10.5L86.9 9s2.1 1.3 2.1 3.8.9 4.3-.9 6C86.2 20.5 87 25 87 25l2.3 6.6 2.8 3.4s3.4-.6 3.8-3.4-1.1-7.7-1.1-7.7l4.9-13.5V18L97 23.4l1.5 7.3 5.6-1.1s1.7-2.6 2.3.9c.6 3.6 0 4.3 0 4.3l1.7 3 3.8 3.4 5.8-1.3 7.9-1.9-14.8 11.7s-1.7 1.3-.4 3.9c1.3 2.6 3.8 10.3 3.8 10.3h3.4l3.2 1.4v2.8l-1.5 5.1-1.9 5.3-3.4 5.1 4.9 5.1 3.2 1.9-17.9-3-5.8 14.1-1.3 2.6h-5.3l-.9 1.5-1.1 3.4-2.6 1.3-2.8.9 2.4 4.5 5.5 1.1v1.1h-4.5l-5.1-5.1-4.9 3-9.8-2.6-2.6.8-12.4-3.5s-.8 3 .9 4.5c1.7 1.5 3.6 4.5 3.6 4.5l-.8.9-3.9-3.4-1.9-5.8s.9-.9-1.7-.6c-2.6.4-4.9.8-4.9.8l-2.3-2.1v-4.9l-4.7.4-6.2-.2-5.6-5.5h-2.3s-3.4-1.1-3.4-2.1-1.9-7.5-1.9-7.5l1.9.9.9 3.9 3 3.6 2.3-.4v-6.6l-1.7-.4-.8-1.7-1.1-3.4-4.3-.4L7.9 78s-1.9-3 .9-4.1c2.8-1.1 3-9.8 3-9.8h6.4l-1.5-9.2s-1.9-3-2.8-3-6.6-.8-6.6-.8L5.1 49l-3.4 1.9v-1.3L4 48.3l-2.3-6.8 4.5 6.6 6.2 2.3 3.2.6 2.4 3.9 9.6-2.3.6-9L8.3 29.3l22.4 5.5-.8-8.1 10.3 8.6c1.7-2.8-4.3-10.9-4.3-10.9l1.3-6 6 8.1 4.9-3.9h3.8l1.5-4.3 2.6 3.6 4.5 1.5 1.7 3s4.5 3.2 6.8-1.7c2.3-5 4.7-14.2 4.7-14.2z"/></defs><path class="st0" d="M0 0h128v128H0z"/><g class="st1"><path class="st2" d="M49.5 23.6s11.1 1.7 12.2 6.8 1.1 9.8 1.1 9.8H81s11.8 5.5 12.2 14.1-1.1 10.9-3.4 13c-2.3 2.1-6.4 4.5-6.4 4.5l5.6 4.9s4.7 9.4 2.8 14.1c-1.9 4.7-2.4 7.3-6.8 8.8-4.3 1.5-21.2 3.2-21.2 3.2l-10.6-.9s-14.3-4.7-16.4-9.8c-2.1-5.1-5.3-9.6-5.3-15.2s1.3-44.5 1.3-44.5 4.5-7.7 7.3-8.6c3.2-1.1 9.4-.2 9.4-.2z"/><path class="st3" d="M47.2 30.6s6.8 1.3 6.8 3.2.9 15 .9 15h25s5.1.8 4.3 6.6c-.8 5.8-.2 4.5-.8 5.8-.6 1.3.2 2-2.6 2.8-2.8.8-26.3 1-26.3 1l.4 9s-.9 3.8 3.2 4.3 21.6 1.1 21.6 1.1 4.3 1.5 4.6 4.9.7 5.1-1.8 7.1c-2.4 2.1-4.3 3.4-8.3 3.4-3.9 0-15 .8-18 0S42.9 88 41.5 83C40.2 77.9 40 35.8 40 35.8s-.2-2.1 2.3-3.6c2.5-1.4 4.9-1.6 4.9-1.6z"/></g><use xlink:href="#a" overflow="visible" fill="none" stroke="#000" stroke-miterlimit="10"/></svg>