<svg id="Layer_1" xmlns="http://www.w3.org/2000/svg" xmlns:xlink="http://www.w3.org/1999/xlink" viewBox="0 0 64 64"><style>.st0,.st1{enable-background:new}.st1{clip-path:url(#SVGID_2_)}.st2{fill:#a3a3a3}.st3{fill:#9e9e9e}.st4{fill:#999}.st5{fill:#949494}.st6{fill:#8f8f8f}.st7{fill:#8a8a8a}.st8{fill:#858585}.st9{fill:#a8a8a8}.st10{fill:#adadad}.st11{fill:#b3b3b3}.st12{fill:#b8b8b8}.st13{fill:#bdbdbd}.st14{fill:#c2c2c2}.st15{fill:#c7c7c7}.st16{fill:#ccc}.st17{fill:#d1d1d1}.st18{fill:#d6d6d6}.st19{fill:#dbdbdb}.st20{fill:#e0e0e0}.st21{fill:#e6e6e6}.st22{fill:#ebebeb}.st23{fill:#f0f0f0}.st24{fill:#f5f5f5}.st25{fill:#fafafa}.st26{fill:#fff}.st27{clip-path:url(#SVGID_4_);enable-background:new}.st28{fill:#006a34}.st29{fill:#006632}.st30{fill:#006331}.st31{fill:#00602f}.st32{fill:#005c2d}.st33{fill:#00592c}.st34{fill:#00562a}.st35{fill:#006d35}.st36{fill:#007037}.st37{fill:#007439}.st38{fill:#00773a}.st39{fill:#007a3c}.st40{fill:#007d3e}.st41{fill:#00813f}.st42{fill:#008441}.st43{fill:#008742}.st44{fill:#008b44}.st45{fill:#008e46}.st46{fill:#009147}.st47{fill:#009549}.st48{fill:#00984b}.st49{fill:#009b4c}.st50{fill:#009e4e}.st51{fill:#00a24f}.st52{fill:#00a551}.st53{fill:#1fb066}.st54{fill:#2bb46f}.st55{fill:#35b875}.st56{fill:#3dbb7b}.st57{fill:#44bd80}.st58{fill:#4bbf84}.st59{fill:#51c288}.st60{fill:#57c48c}.st61{fill:#5cc590}.st62{fill:#61c793}.st63{fill:#65c996}.st64{fill:#6aca99}.st65{fill:#6ecc9c}.st66{fill:#72cd9f}.st67{fill:#77cfa2}.st68{fill:#7ad0a5}.st69{fill:#7ed2a7}.st70{fill:#82d3aa}.st71{fill:#85d4ac}.st72,.st73,.st74{clip-path:url(#SVGID_6_);enable-background:new}.st73,.st74{clip-path:url(#SVGID_8_)}.st74{clip-path:url(#SVGID_10_)}.st75,.st76,.st77,.st78{clip-path:url(#SVGID_12_);enable-background:new}.st76,.st77,.st78{clip-path:url(#SVGID_14_)}.st77,.st78{clip-path:url(#SVGID_16_)}.st78{clip-path:url(#SVGID_18_)}.st79,.st80,.st81,.st82{clip-path:url(#SVGID_20_);enable-background:new}.st80,.st81,.st82{clip-path:url(#SVGID_22_)}.st81,.st82{clip-path:url(#SVGID_24_)}.st82{clip-path:url(#SVGID_26_)}</style><g class="st0" id="GreenBall"><g class="st0"><defs><path id="SVGID_1_" class="st0" d="M.8 32.3c0-.8 0-1.9.1-2.8.4-3.4.4-3.4.9-5.1 1-3.8 2.5-6.5 3-7.3.7-1.2 1.8-2.8 2.6-3.9.5-.7 1.3-1.6 1.9-2.2 2.1-2.1 2.1-2.1 4.1-3.6 1.2-.9 2.4-1.6 3.5-2.3.9-.5 2.2-1.2 3.2-1.5 1.4-.6 2.3-.9 4.5-1.4 1.6-.4 4.2-.9 7.5-.9 3.9 0 6.8.8 8.2 1.2.4.1 1.7.5 3.6 1.3 1 .4 2.2 1.1 3.2 1.6 7.6 4.3 12.6 12.8 12.6 23.2C59.7 45 47.1 60 31.8 62.1 47.1 60 59.7 45 59.7 28.6c0-10.4-5-18.9-12.6-23.2.7.4 1.7 1 2.4 1.5.5.4 1.2.9 1.7 1.3.6.5 1.5 1.2 2 1.8l1.6 1.6c.5.6 1.2 1.4 1.7 2 1.5 2 2.4 3.7 2.7 4.2.5 1 1.2 2.4 2 4.6.5 1.4.9 3.3 1.2 4.7.4 2 .6 5.7.3 8.3-.2 1.7-.4 2.9-1 5.1-.5 1.7-.5 1.7-1.8 4.8-.6 1.3-1.1 2.2-2.5 4.4-.5.7-1.2 1.7-1.8 2.3-.9 1-2.1 2.4-3.1 3.3-2 1.7-3.1 2.4-4.2 3.2-1.1.7-4 2.4-8.1 3.6-4.5 1.3-9.2 1.5-13.8.7-3.4-.6-5.9-1.6-6.7-2-2.8-1.2-5.2-2.8-5.9-3.3-.7-.5-1.6-1.1-2.2-1.7-2.1-1.9-2.3-2.1-3.5-3.5-1.5-1.8-2.9-3.8-4.1-6.1-.4-.7-.8-1.7-1.1-2.4-.5-1.4-1.1-3.2-1.5-4.6-.5-3-.6-5.6-.6-6.9z"/></defs><clipPath id="SVGID_2_"><use xlink:href="#SVGID_1_" overflow="visible"/></clipPath><g class="st1"><path class="st2" d="M.8 32.3C1.1 51.8 16 59.4 20.5 61.2c9.5 3.8 23.6 3 33.6-7.4 14.1-14.6 10.7-38.2-7-48.5 7.6 4.3 12.6 12.8 12.6 23.2C59.7 45 47.1 60 31.8 62.1 47.1 60 59.7 45 59.7 28.6c0-10.4-5-18.9-12.6-23.2-14.8-7.9-26.9-2.2-30.2-.2C1.3 14.2.8 29.3.8 32.3"/><path class="st2" d="M59.7 28.6c0 13.6-8.7 26.3-20.4 31.4-1.3.7-3 1.6-5.1 1.7-.8.2-1.6.3-2.5.4.8-.1 1.6-.3 2.5-.4l.1-.1c.2-.1.5-.2.8-.3-5.8.5-5.8.5-5.9.6-1.1.7-2.3.7-2.3.7-.7 0-3.3-.2-7.5-1.9-2.2-.8-7.9-3.6-12.9-10.4-6.7-9.2-7.2-21.6-1.1-29.5 13.3-17.2 40.5-4 43.8 16.2 1.9 11.8-3.9 19.7-10 23.1C51 54.9 59.7 42.2 59.7 28.6c0-10.4-5-18.9-12.6-23.2-.5-.3-1.1-.6-1.6-.8-.7-.3-1.7-.8-2.4-1.1L41.8 3c-.5-.1-1.1-.3-1.5-.5l-1.1-.3c-.3-.1-.8-.2-1.1-.3l-.9-.2c-.3 0-.6-.1-.9-.1l-.8-.1c-.2 0-.5-.1-.8-.1l-.7-.1h-4.2c-.2 0-.5 0-.7.1l-.8.1c-.2 0-.6.1-.8.1l-1 .2c-2.9.6-4.4 1-6.6 1.9l-1.6.7c-2.1 1.1-2.2 1.1-3.4 1.9l-1.7 1.2c-.7.6-1.7 1.4-2.4 2L9.3 11c-.6.6-1.3 1.5-1.9 2.2L6 15.1c-.4.7-1 1.6-1.4 2.3l-1.1 2.1c-.3.7-.7 1.7-1 2.5l-.7 2.3c-.2.8-.4 1.8-.6 2.6L1 29.5c0 .8-.1 1.9-.1 2.8l.1 2.5c.2 1.3.4 3.1.7 4.4l.6 2.4c.3.8.6 1.8.9 2.5l1 2.2c.3.7.8 1.6 1.2 2.3l1.3 1.9c.5.6 1.2 1.5 1.7 2.1l1.6 1.7c.6.6 1.5 1.4 2.1 1.9l1.7 1.3c.8.5 1.9 1.3 2.7 1.8l1.6.8c.7.3 1.7.8 2.4 1.1l1.3.5c.5.1 1.1.3 1.5.5l1.1.3c.3.1.8.2 1.1.3l.9.2c.3 0 .6.1.9.1l.8.1c.2 0 .5.1.8.1l.7.1h4.2c.2 0 .5 0 .7-.1l.8-.1c.2 0 .6-.1.8-.1l1-.2c2.3-.4 3.7-.8 6.3-1.7l1.6-.7c2-1 2.2-1.1 3.5-1.9l1.7-1.2c.8-.6 1.8-1.4 2.5-2l1.6-1.6c.6-.6 1.4-1.5 1.9-2.2l1.4-1.9c.4-.7 1-1.6 1.4-2.3l1.1-2.1c.3-.7.7-1.7 1-2.5l.7-2.3c.2-.8.5-1.8.6-2.6l.4-2.5c.1-.9.1-2.2.2-3.1l-.1-2.5c-.1-.8-.2-1.9-.3-2.7l-.5-2.4c-.2-.8-.5-1.8-.8-2.6l-.9-2.2c-.3-.7-.8-1.7-1.2-2.4l-1.2-2c-.5-.7-1.1-1.6-1.6-2.2l-1.5-1.8-2-2-1.6-1.4c-2.2-1.6-2.4-1.8-4.1-2.8 7.5 4.3 12.5 12.9 12.5 23.3"/><path class="st3" d="M2.1 41.2c-6-21.5 13.7-36.4 33.6-25.4 14.6 8.1 21.2 29.9 8.1 41.8 9.4-6.1 15.8-17.2 15.9-29 0-10.4-5-18.9-12.6-23.2-.5-.3-1.1-.6-1.6-.8-.7-.3-1.7-.8-2.4-1.1L41.8 3c-.5-.1-1.1-.3-1.5-.5l-1.1-.3c-.3-.1-.8-.2-1.1-.3l-.9-.2c-.3 0-.6-.1-.9-.1l-.8-.1c-.2 0-.5-.1-.8-.1l-.7-.1h-4.2c-.2 0-.5 0-.7.1l-.8.1c-.2 0-.6.1-.8.1l-1 .2c-2.9.6-4.4 1-6.6 1.9l-1.6.7c-2.1 1.1-2.2 1.1-3.4 1.9l-1.7 1.2c-.7.6-1.7 1.4-2.4 2L9.3 11c-.6.6-1.3 1.5-1.9 2.2L6 15.1c-.4.7-1 1.6-1.4 2.3l-1.1 2.1c-.3.7-.7 1.7-1 2.5l-.7 2.3c-.2.8-.4 1.8-.6 2.6L1 29.5c0 .8-.1 1.9-.1 2.8l.1 2.5c.2 1.3.4 3.1.7 4.4l.6 2.4.7 1.9-.9-2.3"/><path class="st3" d="M59.7 28.6c0 11.8-6.5 22.9-15.9 29-4.5 3.9-6.4 4-9.9 4.2-.7.1-1.4.3-2.1.4.7-.1 1.4-.2 2.1-.4l.1-.1c-.8-.4-.8-.4-5.7 1.1 0 0-4.8.6-12.9-4.1.8.5 1.9 1.1 2.7 1.5.7.3 1.7.8 2.4 1.1l1.3.5c.5.1 1.1.3 1.5.5l1.1.3c.3.1.8.2 1.1.3l.9.2c.3 0 .6.1.9.1l.8.1c.2 0 .5.1.8.1l.7.1h4.2c.2 0 .5 0 .7-.1l.8-.1c.2 0 .6-.1.8-.1l1-.2c2.3-.4 3.7-.8 6.3-1.7l1.6-.7c2-1 2.2-1.1 3.5-1.9l1.7-1.2c.8-.6 1.8-1.4 2.5-2l1.6-1.6c.6-.6 1.4-1.5 1.9-2.2l1.4-1.9c.4-.7 1-1.6 1.4-2.3l1.1-2.1c.3-.7.7-1.7 1-2.5l.7-2.3c.2-.8.5-1.8.6-2.6l.4-2.5c.1-.9.1-2.2.2-3.1l-.1-2.5c-.1-.8-.2-1.9-.3-2.7l-.5-2.4c-.2-.8-.5-1.8-.8-2.6l-.9-2.2c-.3-.7-.8-1.7-1.2-2.4l-1.2-2c-.5-.7-1.1-1.6-1.6-2.2l-1.5-1.8-2-2-1.6-1.4c-2.2-1.6-2.4-1.8-4.1-2.8 7.5 4.2 12.5 12.8 12.5 23.2"/><path class="st4" d="M1.2 37.1C-1.7 12.5 23.5 3.7 40.7 17.6c8.8 7.2 16.7 23.5 6.6 37.4 7.5-6.4 12.4-16.1 12.5-26.4 0-10.4-5-18.9-12.6-23.2-.5-.3-1.1-.6-1.6-.8-.7-.3-1.7-.8-2.4-1.1L41.8 3c-.5-.1-1.1-.3-1.5-.5l-1.1-.3c-.3-.1-.8-.2-1.1-.3l-.9-.2c-.3 0-.6-.1-.9-.1l-.8-.1c-.2 0-.5-.1-.8-.1l-.7-.1h-4.2c-.2 0-.5 0-.7.1l-.8.1c-.2 0-.6.1-.8.1l-1 .2c-2.9.6-4.4 1-6.6 1.9l-1.6.7c-2.1 1.1-2.2 1.1-3.4 1.9l-1.7 1.2c-.7.6-1.7 1.4-2.4 2L9.3 11c-.6.6-1.3 1.5-1.9 2.2L6 15.1c-.4.7-1 1.6-1.4 2.3l-1.1 2.1c-.3.7-.7 1.7-1 2.5l-.7 2.3c-.2.8-.4 1.8-.6 2.6L1 29.5c0 .8-.1 1.9-.1 2.8l.1 2.5c.1.8.2 2 .4 2.8l-.2-.5"/><path class="st4" d="M59.7 28.6c0 10.3-5 20.1-12.5 26.4-4.9 6.4-9 6.6-13.7 6.8l-1.8.3 1.8-.3.1-.1c-1.4-.5-4.1 0-4 .5 0 .2.6.4.9.5-2.4 1.1-9.1-1.2-9.2-1.2l1.3.4.7.2 1.1.3c.3.1.8.2 1.1.3l.9.2c.3 0 .6.1.9.1l.8.1c.2 0 .5.1.8.1l.7.1h4.2c.2 0 .5 0 .7-.1l.8-.1c.2 0 .6-.1.8-.1l1-.2c2.3-.4 3.7-.8 6.3-1.7l1.6-.7c2-1 2.2-1.1 3.5-1.9l1.7-1.2c.8-.6 1.8-1.4 2.5-2l1.6-1.6c.6-.6 1.4-1.5 1.9-2.2l1.4-1.9c.4-.7 1-1.6 1.4-2.3l1.1-2.1c.3-.7.7-1.7 1-2.5l.7-2.3c.2-.8.5-1.8.6-2.6l.4-2.5c.1-.9.1-2.2.2-3.1l-.1-2.5c-.1-.8-.2-1.9-.3-2.7l-.5-2.4c-.2-.8-.5-1.8-.8-2.6l-.9-2.2c-.3-.7-.8-1.7-1.2-2.4l-1.2-2c-.5-.7-1.1-1.6-1.6-2.2l-1.5-1.8-2-2L51.3 8c-2.2-1.6-2.4-1.8-4.1-2.8 7.5 4.4 12.5 13 12.5 23.4"/><path class="st5" d="M.8 32.2C2.1 5.9 30.7 4.4 44.6 19.4c9 9.7 11.2 22.9 5.6 32.8 5.8-6.2 9.5-14.8 9.6-23.7 0-10.4-5-18.9-12.6-23.2-.5-.3-1.1-.6-1.6-.8-.7-.3-1.7-.8-2.4-1.1L41.8 3c-.5-.1-1.1-.3-1.5-.5l-1.1-.3c-.3-.1-.8-.2-1.1-.3l-.9-.2c-.3 0-.6-.1-.9-.1l-.8-.1c-.2 0-.5-.1-.8-.1l-.7-.1h-4.2c-.2 0-.5 0-.7.1l-.8.1c-.2 0-.6.1-.8.1l-1 .2c-2.9.6-4.4 1-6.6 1.9l-1.6.7c-2.1 1.1-2.2 1.1-3.4 1.9l-1.7 1.2c-.7.6-1.7 1.4-2.4 2L9.3 11c-.6.6-1.3 1.5-1.9 2.2L6 15.1c-.4.7-1 1.6-1.4 2.3l-1.1 2.1c-.3.7-.7 1.7-1 2.5l-.7 2.3c-.2.8-.4 1.8-.6 2.6L1 29.5c-.1.8-.2 1.9-.2 2.7"/><path class="st5" d="M59.7 28.6c0 8.9-3.7 17.4-9.6 23.7-4.8 8.4-13.8 12.4-23.9 10.6l.9.1h.2l.8.1c.2 0 .5.1.8.1l.7.1h4.2c.2 0 .5 0 .7-.1l.8-.1c.2 0 .6-.1.8-.1l1-.2c2.3-.4 3.7-.8 6.3-1.7l1.6-.7c2-1 2.2-1.1 3.5-1.9l1.7-1.2c.8-.6 1.8-1.4 2.5-2l1.6-1.6c.6-.6 1.4-1.5 1.9-2.2l1.4-1.9c.4-.7 1-1.6 1.4-2.3l1.1-2.1c.3-.7.7-1.7 1-2.5l.7-2.3c.2-.8.5-1.8.6-2.6l.4-2.5c.1-.9.1-2.2.2-3.1l-.1-2.5c-.1-.8-.2-1.9-.3-2.7l-.5-2.4c-.2-.8-.5-1.8-.8-2.6l-.9-2.2c-.3-.7-.8-1.7-1.2-2.4l-1.2-2c-.5-.7-1.1-1.6-1.6-2.2l-1.5-1.8-2-2L51.3 8c-2.2-1.6-2.4-1.8-4.1-2.8 7.5 4.4 12.5 13 12.5 23.4"/><path class="st6" d="M1.5 25.9C9-.5 40.8 6.3 50.8 25.5c5.7 10.9 3.6 19.5 1.9 23.6 4.3-5.8 7-13.1 7-20.6 0-10.4-5-18.9-12.6-23.2-.5-.3-1.1-.6-1.6-.8-.7-.3-1.7-.8-2.4-1.1L41.8 3c-.5-.1-1.1-.3-1.5-.5l-1.1-.3c-.3-.1-.8-.2-1.1-.3l-.9-.2c-.3 0-.6-.1-.9-.1l-.8-.1c-.2 0-.5-.1-.8-.1l-.7-.1h-4.2c-.2 0-.5 0-.7.1l-.8.1c-.2 0-.6.1-.8.1l-1 .2c-2.9.6-4.4 1-6.6 1.9l-1.6.7c-2.1 1.1-2.2 1.1-3.4 1.9l-1.7 1.2c-.7.6-1.7 1.4-2.4 2L9.3 11c-.6.6-1.3 1.5-1.9 2.2L6 15.1c-.4.7-1 1.6-1.4 2.3l-1.1 2.1c-.3.7-.7 1.7-1 2.5l-.7 2.3c-.2.8-.4 1.8-.6 2.6 0 .2-.1.6-.1.8.2-.4.3-1.2.4-1.8"/><path class="st6" d="M59.7 28.6c0 7.5-2.7 14.8-7 20.6-2.4 7.2-10.1 14.3-21.7 14.1H33.6c.2 0 .5 0 .7-.1l.8-.1c.2 0 .6-.1.8-.1l1-.2c2.3-.4 3.7-.8 6.3-1.7l1.6-.7c2-1 2.2-1.1 3.5-1.9l1.7-1.2c.8-.6 1.8-1.4 2.5-2l1.6-1.6c.6-.6 1.4-1.5 1.9-2.2l1.4-1.9c.4-.7 1-1.6 1.4-2.3l1.1-2.1c.3-.7.7-1.7 1-2.5l.7-2.3c.2-.8.5-1.8.6-2.6l.4-2.5c.1-.9.1-2.2.2-3.1l-.1-2.5c-.1-.8-.2-1.9-.3-2.7l-.5-2.4c-.2-.8-.5-1.8-.8-2.6l-.9-2.2c-.3-.7-.8-1.7-1.2-2.4l-1.2-2c-.5-.7-1.1-1.6-1.6-2.2l-1.5-1.8-2-2L51.1 8c-2.2-1.6-2.4-1.8-4.1-2.8 7.7 4.4 12.7 13 12.7 23.4"/><path class="st7" d="M2.3 22.7c9.1-24 40-18.5 50.6 3.3 2.2 4.5 4.3 11.5 2.2 19.5 2.9-5.1 4.6-10.9 4.6-17 0-10.4-5-18.9-12.6-23.2-.5-.3-1.1-.6-1.6-.8-.7-.3-1.7-.8-2.4-1.1L41.8 3c-.5-.1-1.1-.3-1.5-.5l-1.1-.3c-.3-.1-.8-.2-1.1-.3l-.9-.2c-.3 0-.6-.1-.9-.1l-.8-.1c-.2 0-.5-.1-.8-.1l-.7-.1h-4.2c-.2 0-.5 0-.7.1l-.8.1c-.2 0-.6.1-.8.1l-1 .2c-2.9.6-4.4 1-6.6 1.9l-1.6.7c-2.1 1.1-2.2 1.1-3.4 1.9l-1.7 1.2c-.7.6-1.7 1.4-2.4 2L9.3 11c-.6.6-1.3 1.5-1.9 2.2L6 15.1c-.4.7-1 1.6-1.4 2.3l-1.1 2.1c-.3.7-.7 1.7-1 2.5-.1.3-.2.7-.3 1 .1 0 .1-.2.1-.3"/><path class="st7" d="M59.7 28.6c0 6-1.7 11.9-4.6 17-2 9.3-9.3 16-18.9 17.5l1-.2c1.5-.3 3.3-.6 6.1-1.7l1.6-.7c2-1 2.2-1.1 3.5-1.9l1.7-1.2c.8-.6 1.8-1.4 2.5-2l1.6-1.6c.6-.6 1.4-1.5 1.9-2.2l1.4-1.9c.4-.7 1-1.6 1.4-2.3l1.1-2.1c.3-.7.7-1.7 1-2.5l.7-2.3c.2-.8.5-1.8.6-2.6l.4-2.5c.1-.9.1-2.2.2-3.1l-.1-2.5c-.1-.8-.2-1.9-.3-2.7l-.5-2.4c-.2-.8-.5-1.8-.8-2.6l-.9-2.2c-.3-.7-.8-1.7-1.2-2.4l-1.2-2c-.5-.7-1.1-1.6-1.6-2.2l-1.5-1.8-2-2-1.6-1.4c-2.2-1.6-2.4-1.8-4.1-2.8 7.6 4.3 12.6 12.9 12.6 23.3"/><path class="st8" d="M5.8 15.5C20.5-5.4 52.8 9 57 32.5c.6 3.3.8 4.4.3 8.5 1.5-3.9 2.4-8.1 2.4-12.4 0-10.4-5-18.9-12.6-23.2-.5-.3-1.1-.6-1.6-.8-.7-.3-1.7-.8-2.4-1.1L41.8 3c-.5-.1-1.1-.3-1.5-.5l-1.1-.3c-.3-.1-.8-.2-1.1-.3l-.9-.2c-.3 0-.6-.1-.9-.1l-.8-.1c-.2 0-.5-.1-.8-.1l-.7-.1h-4.2c-.2 0-.5 0-.7.1l-.8.1c-.2 0-.6.1-.8.1l-1 .2c-2.9.6-4.4 1-6.6 1.9l-1.6.7c-2.1 1.1-2.2 1.1-3.4 1.9l-1.7 1.2c-.7.6-1.7 1.4-2.4 2L9.3 11c-.6.6-1.3 1.5-1.9 2.2L6 15.1c-.4.7-1 1.6-1.4 2.3l.9-1.4c.1-.1.2-.3.3-.5"/><path class="st8" d="M59.7 28.6c0 4.3-.9 8.5-2.4 12.4-.2 9.6-6.7 18-16.2 21l1.1-.4 1.1-.4 1.6-.7c2-1 2.2-1.1 3.5-1.9l1.7-1.2c.8-.6 1.8-1.4 2.5-2l1.6-1.6c.6-.6 1.4-1.5 1.9-2.2l1.4-1.9c.4-.7 1-1.6 1.4-2.3l1.1-2.1c.3-.7.7-1.7 1-2.5l.7-2.3c.2-.8.5-1.8.6-2.6l.4-2.5c.1-.9.1-2.2.2-3.1l-.1-2.5c-.1-.8-.2-1.9-.3-2.7l-.5-2.4c-.2-.8-.5-1.8-.8-2.6l-.9-2.2c-.3-.7-.8-1.7-1.2-2.4l-1.2-2c-.5-.7-1.1-1.6-1.6-2.2l-1.5-1.8-2-2-1.6-1.4c-2.2-1.6-2.4-1.8-4.1-2.8 7.6 4.3 12.6 12.9 12.6 23.3"/><path class="st9" d="M26.6 62.1c11.4-2 11.4-2 13.9-3.7 3.4-2.3 6.4-7.3 7.2-10.5 4.1-17-9.3-27.3-10.9-28.5C18.7 6.2-.9 19.5 1.6 37.6c2.7 18.8 21 25.2 25 24.5"/><path class="st10" d="M23.3 61.4c4.9 1 12.4-1 12.5-1 3.8-1.6 7-4.5 9-8.1 4.2-7.3 3.3-17.2-2.1-25.1C30.5 9.4 5 12.3 2 31.8c-2.1 12.9 8.1 27 21.3 29.6"/><path class="st11" d="M20.5 60.3c18.8 5.8 32.6-12.5 22.7-30.2-11.2-19.8-36-17.3-40.3-.5-3.7 14 6.1 27.2 17.6 30.7"/><path class="st12" d="M16.6 58.4c16.2 8.4 32.8-5 27.8-22.3-6.2-21.3-31.7-24.5-39.7-9.5-5.7 10.7-.2 25.6 11.9 31.8"/><path class="st13" d="M15.4 57.4c16.3 9.2 32.7-3.4 27.9-21.5-5-18.6-31-23.9-38.6-7.8-5.2 11 1.3 24 10.7 29.3"/><path class="st14" d="M13.5 55.8c14.9 10.1 31.6.4 29.3-17.1-2.3-17.8-25.9-26.2-36-12.8-7.2 9.6-2.4 23.7 6.7 29.9"/><path class="st15" d="M13.3 55.2c15.3 11 31.1-1 28.5-16.6-3.1-18.5-27.2-23.5-35-11.2-6.3 9.8-1.5 22 6.5 27.8"/><path class="st16" d="M13.5 54.8C29.3 66 43.4 52.1 40.9 38.5c-3.5-18.4-26.2-22.3-34-9.6-5.1 8-2.1 19.4 6.6 25.9"/><path class="st17" d="M11.7 52.7c13.7 12.5 28.7 1.7 28.5-11.5C39.8 23.1 18.4 18 9.5 27c-7.4 7.5-4.8 19.3 2.2 25.7"/><path class="st18" d="M12.1 52.3c13 11.8 28.9.9 27.1-14-1.7-14.5-22.3-20.4-30.6-8.9-5.5 7.9-2.3 17.7 3.5 22.9"/><path class="st19" d="M12.6 52c13.2 11.6 27.7-1 25.9-13.6-1.9-13.6-20.8-19.1-28.9-8.5-6.1 8-1.9 17.7 3 22.1"/><path class="st20" d="M11.3 49.6C22 62.1 37.2 53 38 41c.9-13.8-16.9-20.5-25.6-12.5-8.5 7.8-4.4 17.2-1.1 21.1"/><path class="st21" d="M12 49.2C22 60.6 36.5 52 37.3 41c.9-11.8-14.1-21-24.5-11.6-7 6.3-4.7 15.4-.8 19.8"/><path class="st22" d="M12.9 48.8c9.3 10.3 22.9 2.2 23.8-7.9.9-10.5-12.8-20.6-23.8-10.4-4.2 4-5.3 12.4 0 18.3"/><path class="st23" d="M13.9 48.4C22.2 57 35 51 36 40.9c1.2-11.6-12.4-18.4-21.5-10.8-6 5.2-5.2 13.7-.6 18.3"/><path class="st24" d="M13.1 45.8c4.4 6.6 11.6 5.5 11.7 5.5 2.4-.5 9.7-2.1 10.8-10.4.6-5.1-1.7-9.1-7-12.3-.1 0-6-3-12.2.9-5.2 3.2-6.8 11-3.3 16.3"/><path class="st25" d="M14.2 45.5c5.9 8.6 19.5 5.6 20.9-4.6.7-4.7-1.7-9-6.6-11.7-.9-.5-5.9-3-12.1 1.1-3.5 2.3-6.4 9.1-2.2 15.2"/><path class="st26" d="M15 45.3c6 7.6 18.1 4.8 19.6-4.4.3-2.1.4-7.3-6.1-11.2-2-1.2-6.1-2.6-11.5.9-4.6 2.9-5.6 10.1-2 14.7"/><path class="st26" d="M16 45c6.2 7.3 16.8 3.7 18.3-4.2 1.4-7.6-7.9-15.3-15.7-10.5C11 34.9 14 42.7 16 45"/><path class="st5" d="M31.8 62.1c.5-.1.9-.1 1.4-.2 0 0 .1 0 .1-.1-1.7-.3-3.6.1-3.2.6.5.6 4 .5 4.1-.1 0-.4-.7-.3-1-.3-.5 0-.9 0-1.4.1"/><path class="st26" d="M16 43.7c1.7 2.6 4.9 5.4 10.6 4.5 2.8-.5 6.3-3.5 7.1-7.4.5-2.5.1-6.2-4.7-9.9-2.1-1.6-7-2-9.2-.8-8.2 4.9-5.4 11.2-3.8 13.6"/><path class="st26" d="M17.4 44.7c2.7 2.8 7.6 3.6 9.1 3 3.7-1.5 3.8-1.6 5.7-4.2.8-1.1 1.5-3.2 1.2-5.4-.4-3.1-2.6-5.3-3-5.7-1.6-1.5-1.6-1.5-5.9-2.6-2.7-.7-7.4 2.5-8.2 3.8-3.8 6 .9 10.9 1.1 11.1"/><path class="st26" d="M16.3 42.2c1.1 2.1 3.9 5.5 10.1 5 1.8-.1 5.7-3 6.4-6.4 1.1-5-2.9-8.3-3-8.4-2-1.6-5-2.2-5.3-2.2-1.2-.2-2.9.2-4 .7-1.2.5-2.6 1.7-3.4 2.6-.2.3-1.6 3.1-1.6 3.2 0 0-.5 2.9.8 5.5"/><path class="st6" d="M31.8 62.1c.4 0 .7-.1 1.1-.2h.1c-1.3-.2-2.7.1-2.4.4.4.5 3 .4 3-.1 0-.3-.5-.3-.7-.3-.4.1-.8.2-1.1.2"/><path class="st26" d="M16.9 42.1c.9 1.5 3.5 5.1 9.5 4.6l3-1.3c1.5-1.5 2.5-2.4 3.1-4.6.9-3.6-1-6.7-3.1-8.4-1.4-1.2-4.7-1.9-4.7-1.9-1.2-.2-2.9.2-4 .7-.5.2-3.2 1.6-4.4 5.2-.4.7-.7 3.5.6 5.7"/><path class="st26" d="M17.4 42s1.9 2.2 2.1 2.4c1 .7 2.5 1.2 3.6 1.7.9.4 2.2.1 3.1 0 1-.1 2.3-.6 3-1.3 1.8-1.7 2.4-3.3 2.7-4.1.4-1.4.9-5.1-3.3-8.4-1-.8-2.8-1.4-4.1-1.5-1.2-.1-2.9.3-4 .8-2.5 1.3-5.8 5.8-3.1 10.4"/><path class="st26" d="M17.9 41.9c1.2 2 3.6 4.2 8.2 3.8 1-.1 2.3-.7 3-1.4 1.4-1.3 2.3-3.5 2.3-3.5.8-2.8-.3-5.8-2.8-7.9-.4-.3-3.6-1.5-4.1-1.6-1.2-.1-2.9.3-4 .8 0 .1-6 4.1-2.6 9.8"/><path class="st7" d="M31.8 62.1c.2 0 .5-.1.7-.1-.9-.2-1.8 0-1.6.3.2.3 2 .3 2 0 0-.2-.4-.2-.5-.2-.1-.1-.4 0-.6 0"/><path class="st26" d="M18.5 41.8c1.1 1.8 3.5 2.9 4.3 3.3.9.4 2.3.3 3.3.2 1-.1 2.3-.8 3.1-1.5.6-.6 1.9-3 1.9-3 .9-2.8-.5-5.9-2.4-7.4-1-.8-2.8-1.6-4.1-1.7-1.2-.1-2.9.4-4 .9-.1.1-5.3 4-2.1 9.2"/><path class="st26" d="M19 41.7s1.7 2 3.7 2.9c.9.4 2.3.4 3.3.3 0 0 2.8-1.3 3.1-1.6.6-.6 1.2-1.6 1.5-2.4 1.2-3.5-1.2-6.3-1.9-6.8-.6-.5-3.5-1.8-4.1-1.8-.2 0-3.8.9-3.9 1-1 .7-2.2 1.9-2.4 3.1-.3 1.3-.7 3.3.7 5.3"/><path class="st26" d="M19.5 41.6s2.7 2.3 3.1 2.4c.9.4 2.4.5 3.4.4.2 0 2.5-1.3 3.2-1.8.5-.4.9-1.2 1.1-1.8 1.3-3.9-1.5-6.3-1.5-6.3s-3.8-1.9-4.1-2c-.2 0-3.7 1-3.9 1.1-2.1 1.4-3.4 5.2-1.3 8"/><path class="st26" d="M20.1 41.6c.6.7 1.5 1.6 2.4 1.9 1 .4 2.4.6 3.5.5.3 0 3.2-2 3.2-2 .3-.3.6-.8.7-1.2 1-2.8-.6-5.5-1-5.8-1.1-.8-2.7-1.9-4.1-2-1.2-.1-2.9.5-3.8 1.2-2.7 1.7-2.5 5.4-.9 7.4"/><path class="st8" d="M31.8 62.1h.4c-.4-.1-.9 0-.8.1.1.2 1 .1 1 0s-.2-.1-.2-.1h-.4"/><path class="st26" d="M20.6 41.5c.4.5 1.1 1.2 1.7 1.4 1 .4 2.5.9 3.5.7 1.1-.2 2.3-1.5 3.2-2.2.1-.1.3-.3.3-.5.3-.8.5-1.9.4-2.8 0 0-.8-2.3-1.3-2.8-1-.8-2.5-1.8-3.7-1.9-1.2-.1-2.7.9-3.8 1.3-1.4.5-1.5 4.1-1.5 4.1.1.9.6 2 1.2 2.7"/><path class="st26" d="M21.1 41.4c.3.3.7.7 1.1.9 1 .4 2.5 1 3.6.8 1.1-.2 2.2-1.5 3.1-2.2.1-.1.1-.3.2-.4.4-1.6.8-3.3-1.4-5.1-.8-.6-1.9-1.4-2.9-1.5-1.2-.1-2.7.9-3.8 1.4-.2.1-.4.4-.5.6-1 1.9-.8 3.8.6 5.5"/><path class="st26" d="M21.6 41.4c.1.1.2.3.4.3 1.1.3 2.5 1.1 3.6.9.8-.2 1.8-1 2.3-1.7.5-.6.8-1.7.9-2.5V38c-.6-.8-1.2-2-2-2.6-.5-.4-1.4-1-2.1-1-1.2-.1-3 .5-3.8 1.5-.6.7-.8 2-.7 2.9.2.8.9 1.9 1.4 2.6"/><path class="st26" d="M21.8 40.6c.2.2.5.5.7.6.9.3 2.1 1 3 .8.6-.1 1.2-.7 1.5-1.1.5-.7 1.2-1.9 1.1-2.8-.1-1-1.4-2-2.1-2.7-.3-.3-.8-.6-1.3-.6-1-.1-5.9 2-2.9 5.8"/><path class="st26" d="M21.5 39c.6.8 1.6 1.6 2.5 2.1.4.3 1.1.5 1.5.4.3-.1.6-.3.8-.6.4-.8 1.3-1.9 1.1-2.8-.1-1-1.5-1.9-2.2-2.7-.1-.1-.3-.2-.5-.2-.6 0-.8.1-3.4 3.1-.1.2.1.5.2.7"/><path class="st26" d="M25.4 41c.2 0 1.3-2.8 1.3-2.8-.1-.8-1-2.2-1.8-2.2-1.1-.1-2.6 1.5-2.5 2.5.1 1.2 2 2 3 2.5"/><path class="st26" d="M25.3 39.7c.5-.1.7-1 .7-1.5-.1-.4-.5-1.1-.9-1.1-.6 0-1.3.8-1.3 1.3-.1.6.9 1.5 1.5 1.3"/><path class="st26" d="M25.1 38.4l.1-.1s0-.1-.1-.1l-.1.1.1.1"/></g></g><g class="st0"><defs><path id="SVGID_3_" class="st0" d="M.2 32.3c0-.5-.1-3.8 1-8 1-3.9 2.6-6.7 3-7.4.7-1.2 1.8-2.8 2.7-4 .5-.7 1.3-1.6 1.9-2.2C11 8.5 11 8.5 13 7c1.2-.9 2.4-1.6 3.6-2.3.9-.5 2.3-1.2 3.3-1.6 1.5-.6 2.3-.9 4.5-1.5 1.7-.4 4.3-.9 7.7-.9 4 0 7 .8 8.4 1.2.4.1 1.8.5 3.7 1.3 1 .4 2.3 1.1 3.2 1.6 7.7 4.4 12.8 13.1 12.8 23.7 0 16.7-12.8 32.1-28.5 34.2 15.7-2.1 28.4-17.5 28.5-34.2 0-10.6-5.1-19.3-12.8-23.7.8.4 1.8 1 2.5 1.5.5.4 1.2.9 1.7 1.3.6.5 1.5 1.2 2.1 1.8.5.5 1.2 1.1 1.6 1.7.5.6 1.2 1.4 1.7 2.1 1.5 2 2.5 3.8 2.7 4.3.5 1 1.3 2.4 2 4.7.5 1.4.9 3.4 1.2 4.8.4 2.1.6 5.8.3 8.5-.2 1.8-.4 3-1 5.2-.5 1.8-.5 1.8-1.8 4.9-.4 1.4-1 2.3-2.4 4.6-.5.8-1.2 1.7-1.8 2.4-2.7 3.2-5 4.9-7.5 6.6-1.1.7-4.1 2.5-8.2 3.7-4.6 1.3-9.3 1.5-14.1.7-3.4-.6-6-1.7-6.8-2-2.9-1.2-5.3-2.9-6-3.4-.7-.5-1.6-1.2-2.2-1.7-2.1-2-2.3-2.1-3.5-3.6C6.4 51.1 5 49 3.8 46.7 3.4 46 3 45 2.7 44.3 2 42.7 1.3 40.8 1 39.4c-.7-3.1-.8-5.7-.8-7.1z"/></defs><clipPath id="SVGID_4_"><use xlink:href="#SVGID_3_" overflow="visible"/></clipPath><g class="st27"><path class="st28" d="M.2 32.3c.3 20 15.5 27.6 20.1 29.5 9.7 3.9 24 3.1 34.3-7.5 14.4-14.9 10.9-39-7.2-49.5 7.7 4.4 12.8 13.1 12.8 23.7 0 16.7-12.8 32.1-28.5 34.2 15.7-2.1 28.4-17.5 28.5-34.2 0-10.6-5.1-19.3-12.8-23.7-15.1-8-27.4-2.2-30.8-.2C.7 13.9.2 29.3.2 32.3"/><path class="st28" d="M60.2 28.5c0 13.9-8.8 26.8-20.8 32-1.3.7-3.1 1.6-5.2 1.7-.8.2-1.7.3-2.5.5.8-.1 1.7-.3 2.5-.5l.1-.1c.2-.1.6-.2.8-.3-5.9.5-5.9.5-6 .6-1.1.7-2.3.7-2.3.7-.7 0-3.3-.2-7.7-1.9-2.3-.9-8-3.6-13.1-10.6-6.9-9.4-7.3-22-1.1-30.1C18.5 3 46.3 16.5 49.6 37c2 12.1-4 20.1-10.2 23.5 12-5.2 20.8-18.1 20.8-32 0-10.6-5.1-19.3-12.8-23.7-.5-.3-1.1-.6-1.6-.9-.7-.3-1.7-.8-2.4-1.1L42 2.4c-.5-.1-1.1-.4-1.6-.5l-1.1-.3c-.3-.1-.8-.2-1.1-.3l-.9-.2c-.3 0-.6-.1-.9-.1l-.8-.1c-.2 0-.5-.1-.8-.1l-.7-.1h-4.2c-.2 0-.5 0-.7.1l-.8.1c-.2 0-.6.1-.8.1l-1 .2c-3 .6-4.5 1-6.8 1.9l-1.6.7C16.1 4.9 16 5 14.7 5.7L13 7c-.8.6-1.8 1.4-2.5 2.1l-1.6 1.6c-.6.7-1.4 1.5-1.9 2.2l-1.4 1.9c-.4.7-1 1.7-1.4 2.4L3 19.3c-.3.8-.7 1.8-1 2.5l-.7 2.4c-.2.8-.4 1.9-.6 2.7l-.3 2.5c0 .8-.1 2-.1 2.8l.1 2.6c.1 1.4.3 3.2.6 4.6l.6 2.4c.3.8.6 1.8.9 2.6l1 2.2c.4.7.9 1.7 1.3 2.4l1.3 2c.5.7 1.2 1.5 1.7 2.2l1.6 1.7c.6.6 1.5 1.4 2.2 2l1.7 1.3c.8.6 1.9 1.3 2.8 1.8l1.6.9c.7.3 1.7.8 2.4 1.1l1.3.5c.5.1 1.1.4 1.6.5l1.1.3c.3.1.8.2 1.1.3l.9.2c.3 0 .6.1.9.1l.8.1c.2 0 .5.1.8.1l.7.1h4.2c.2 0 .5 0 .7-.1l.8-.1c.2 0 .6-.1.8-.1l1-.2c2.3-.4 3.8-.8 6.4-1.8l1.6-.7c2.1-1 2.2-1.1 3.6-1.9l1.8-1.2c.8-.6 1.8-1.4 2.5-2l1.7-1.6c.6-.7 1.4-1.5 1.9-2.2l1.4-1.9c.4-.7 1.1-1.6 1.5-2.4l1.1-2.2c.3-.8.8-1.8 1-2.5l.8-2.4c.2-.8.5-1.9.6-2.7l.4-2.5c.1-.9.2-2.2.2-3.2l-.1-2.6c.1-.9 0-2-.2-2.9l-.5-2.5c-.2-.8-.5-1.8-.8-2.6l-.9-2.3c-.3-.6-.8-1.6-1.1-2.4l-1.2-2.1c-.5-.7-1.1-1.6-1.6-2.2l-1.5-1.8c-.6-.6-1.4-1.5-2-2l-1.7-1.4c-2.2-1.7-2.4-1.8-4.2-2.9 7.7 4.4 12.8 13.1 12.7 23.7"/><path class="st29" d="M1.5 41.3c-6.2-21.9 14-37.2 34.3-25.9 14.9 8.3 21.6 30.5 8.3 42.6 9.5-6.2 16.2-17.5 16.2-29.6 0-10.6-5.1-19.3-12.8-23.7-.5-.3-1.1-.6-1.6-.9-.7-.3-1.7-.8-2.4-1.1L42 2.4c-.5-.1-1.1-.4-1.6-.5l-1.1-.3c-.3-.1-.8-.2-1.1-.3l-.9-.2c-.3 0-.6-.1-.9-.1l-.8-.1c-.2 0-.5-.1-.8-.1l-.7-.1h-4.2c-.2 0-.5 0-.7.1l-.8.1c-.2 0-.6.1-.8.1l-1 .2c-3 .6-4.5 1-6.8 1.9l-1.6.7C16.1 4.9 16 5 14.7 5.7L13 7c-.8.6-1.8 1.4-2.5 2.1l-1.6 1.6c-.6.7-1.4 1.5-1.9 2.2l-1.4 1.9c-.4.7-1 1.7-1.4 2.4L3 19.3c-.3.8-.7 1.8-1 2.5l-.7 2.4c-.2.8-.4 1.9-.6 2.7l-.3 2.5c0 .8-.1 2-.1 2.8l.1 2.6c.1 1.4.3 3.2.6 4.6l.6 2.4.7 1.9-.8-2.3v-.1"/><path class="st29" d="M60.2 28.5c0 12.1-6.6 23.4-16.2 29.6-4.6 4-6.6 4.1-10.1 4.3-.7.2-1.4.3-2.1.4.7-.1 1.4-.2 2.1-.4l.1-.1c-.8-.4-.8-.4-5.8 1.1 0 0-4.9.6-13.1-4.2.8.5 1.9 1.1 2.7 1.5.7.3 1.7.8 2.4 1.1l1.3.5c.5.1 1.1.4 1.6.5l1.1.3c.3.1.8.2 1.1.3l.9.2c.3 0 .6.1.9.1l.8.1c.2 0 .5.1.8.1l.7.1h4.2c.2 0 .5 0 .7-.1l.8-.1c.2 0 .6-.1.8-.1l1-.2c2.3-.4 3.8-.8 6.4-1.8l1.6-.7c2.1-1 2.2-1.1 3.6-1.9l1.8-1.2c.8-.6 1.8-1.4 2.5-2l1.7-1.6c.6-.7 1.4-1.5 1.9-2.2l1.4-1.9c.4-.7 1.1-1.6 1.5-2.4l1.1-2.2c.3-.8.8-1.8 1-2.5l.8-2.4c.2-.8.5-1.9.6-2.7l.4-2.5c.1-.9.2-2.2.2-3.2l-.1-2.6c0-.7-.1-1.8-.3-2.7l-.5-2.5c-.2-.8-.5-1.8-.8-2.6l-.9-2.3c-.3-.6-.8-1.6-1.1-2.4l-1.2-2.1c-.5-.7-1.1-1.6-1.6-2.2l-1.5-1.8c-.6-.6-1.4-1.5-2-2l-1.7-1.4c-2.2-1.7-2.4-1.8-4.2-2.9 7.7 4.4 12.8 13.1 12.7 23.7"/><path class="st30" d="M.6 37.2C-2.4 12 23.4 3.1 40.9 17.3c9 7.3 17 24 6.7 38.1 7.6-6.5 12.7-16.5 12.7-27 0-10.6-5.1-19.3-12.8-23.7-.5-.3-1.1-.6-1.6-.9-.7-.3-1.7-.8-2.4-1.1L42 2.4c-.5-.1-1.1-.4-1.6-.5l-1.1-.3c-.3-.1-.8-.2-1.1-.3l-.9-.2c-.3 0-.6-.1-.9-.1l-.8-.1c-.2 0-.5-.1-.8-.1l-.7-.1h-4.2c-.2 0-.5 0-.7.1l-.8.1c-.2 0-.6.1-.8.1l-1 .2c-3 .6-4.5 1-6.8 1.9l-1.6.7C16.1 4.9 16 5 14.7 5.7L13 7c-.8.6-1.8 1.4-2.5 2.1l-1.6 1.6c-.6.7-1.4 1.5-1.9 2.2l-1.4 1.9c-.4.7-1 1.7-1.4 2.4L3 19.3c-.3.8-.7 1.8-1 2.5l-.7 2.4c-.2.8-.4 1.9-.6 2.7l-.3 2.5c0 .8-.1 2-.1 2.8l.1 2.6c.1.9.2 2 .4 2.9l-.2-.5"/><path class="st30" d="M60.2 28.5c0 10.5-5.1 20.5-12.7 27-5 6.5-9.1 6.7-14 6.9l-1.8.3 1.8-.3.1-.1c-1.4-.5-4.1 0-4.1.5 0 .2.6.4.9.5-2.5 1.1-9.3-1.2-9.4-1.2l1.3.4.7.2 1.1.3c.3.1.8.2 1.1.3l.9.2c.3 0 .6.1.9.1l.8.1c.2 0 .5.1.8.1l.7.1h4.2c.2 0 .5 0 .7-.1l.8-.1c.2 0 .6-.1.8-.1l1-.2c2.3-.4 3.8-.8 6.4-1.8l1.6-.7c2.1-1 2.2-1.1 3.6-1.9l1.8-1.2c.8-.6 1.8-1.4 2.5-2l1.7-1.6c.6-.7 1.4-1.5 1.9-2.2l1.4-1.9c.4-.7 1.1-1.6 1.5-2.4l1.1-2.2c.3-.8.8-1.8 1-2.5l.8-2.4c.2-.8.5-1.9.6-2.7l.4-2.5c.1-.9.2-2.2.2-3.2l-.1-2.6c.1-.6 0-1.7-.2-2.6l-.5-2.5c-.2-.8-.5-1.8-.8-2.6l-.9-2.3c-.3-.6-.8-1.6-1.1-2.4l-1.2-2.1c-.5-.7-1.1-1.6-1.6-2.2l-1.5-1.8c-.6-.6-1.4-1.5-2-2l-1.7-1.4c-2.2-1.7-2.4-1.8-4.2-2.9 7.7 4.4 12.8 13.1 12.7 23.7"/><path class="st31" d="M.2 32.2c1.3-26.8 30.4-28.4 44.6-13 9.2 9.9 11.4 23.4 5.7 33.5 6-6.4 9.7-15.1 9.7-24.2 0-10.6-5.1-19.3-12.8-23.7-.5-.3-1.1-.6-1.6-.9-.7-.3-1.7-.8-2.4-1.1L42 2.4c-.5-.1-1.1-.4-1.6-.5l-1.1-.3c-.3-.1-.8-.2-1.1-.3l-.9-.2c-.3 0-.6-.1-.9-.1l-.8-.1c-.2 0-.5-.1-.8-.1l-.7-.1h-4.2c-.2 0-.5 0-.7.1l-.8.1c-.2 0-.6.1-.8.1l-1 .2c-3 .6-4.5 1-6.8 1.9l-1.6.7C16.1 4.9 16 5 14.7 5.7L13 7c-.8.6-1.8 1.4-2.5 2.1l-1.6 1.6c-.6.7-1.4 1.5-1.9 2.2l-1.4 1.9c-.4.7-1 1.7-1.4 2.4L3 19.3c-.3.8-.7 1.8-1 2.5l-.7 2.4c-.2.8-.4 1.9-.6 2.7l-.3 2.5c-.1.9-.2 2-.2 2.8"/><path class="st31" d="M60.2 28.5c0 9.1-3.8 17.8-9.7 24.2-4.9 8.6-14 12.6-24.4 10.8l.9.1h.2l.8.1c.2 0 .5.1.8.1l.7.1h4.2c.2 0 .5 0 .7-.1l.8-.1c.2 0 .6-.1.8-.1l1-.2c2.3-.4 3.8-.8 6.4-1.8l1.6-.7c2.1-1 2.2-1.1 3.6-1.9l1.8-1.2c.8-.6 1.8-1.4 2.5-2l1.7-1.6c.6-.7 1.4-1.5 1.9-2.2l1.4-1.9c.4-.7 1.1-1.6 1.5-2.4l1.1-2.2c.3-.8.8-1.8 1-2.5l.8-2.4c.2-.8.5-1.9.6-2.7l.4-2.5c.1-.9.2-2.2.2-3.2l-.1-2.6c-.1-.6-.2-1.7-.4-2.6l-.5-2.5c-.2-.8-.5-1.8-.8-2.6l-.9-2.3c-.3-.6-.8-1.6-1.1-2.4l-1.2-2.1c-.5-.7-1.1-1.6-1.6-2.2l-1.5-1.8c-.6-.6-1.4-1.5-2-2l-1.7-1.4c-2.2-1.7-2.4-1.8-4.2-2.9 7.7 4.4 12.8 13.1 12.7 23.7"/><path class="st32" d="M.9 25.7C8.5-1.2 41 5.8 51.2 25.4c5.8 11.2 3.7 19.9 1.9 24.1 4.4-5.9 7.1-13.3 7.1-21 0-10.6-5.1-19.3-12.8-23.7-.5-.3-1.1-.6-1.6-.9-.7-.3-1.7-.8-2.4-1.1L42 2.4c-.5-.1-1.1-.4-1.6-.5l-1.1-.3c-.3-.1-.8-.2-1.1-.3l-.9-.2c-.3 0-.6-.1-.9-.1l-.8-.1c-.2 0-.5-.1-.8-.1l-.7-.1h-4.2c-.2 0-.5 0-.7.1l-.8.1c-.2 0-.6.1-.8.1l-1 .2c-3 .6-4.5 1-6.8 1.9l-1.6.7C16.1 4.9 16 5 14.7 5.7L13 7c-.8.6-1.8 1.4-2.5 2.1l-1.6 1.6c-.6.7-1.4 1.5-1.9 2.2l-1.4 1.9c-.4.7-1 1.7-1.4 2.4L3 19.3c-.3.8-.7 1.8-1 2.5l-.7 2.4c-.2.8-.4 1.9-.6 2.7 0 .2-.1.6-.1.8.1-.5.2-1.4.3-2"/><path class="st32" d="M60.2 28.5c0 7.7-2.7 15.1-7.1 21-2.5 7.3-10.3 14.6-22.1 14.4h2.7c.2 0 .5 0 .7-.1l.8-.1c.2 0 .6-.1.8-.1l1-.2c2.3-.4 3.8-.8 6.4-1.8l1.6-.7c2.1-1 2.2-1.1 3.6-1.9l1.8-1.2c.8-.6 1.8-1.4 2.5-2l1.7-1.6c.6-.7 1.4-1.5 1.9-2.2l1.4-1.9c.4-.7 1.1-1.6 1.5-2.4l1.1-2.2c.3-.8.8-1.8 1-2.5l.8-2.4c.2-.8.5-1.9.6-2.7l.4-2.5c.1-.9.2-2.2.2-3.2l-.1-2.6c-.1-.6-.2-1.7-.4-2.6l-.5-2.5c-.2-.8-.5-1.8-.8-2.6l-.9-2.3c-.3-.6-.8-1.6-1.1-2.4l-1.2-2.1c-.5-.7-1.1-1.6-1.6-2.2l-1.5-1.8c-.6-.6-1.4-1.5-2-2l-1.7-1.4c-2.2-1.7-2.4-1.8-4.2-2.9 7.7 4.4 12.8 13.1 12.7 23.7"/><path class="st33" d="M1.8 22.5C11-2 42.6 3.7 53.3 25.9c2.2 4.6 4.4 11.7 2.2 19.9 3-5.2 4.7-11.2 4.7-17.3 0-10.6-5.1-19.3-12.8-23.7-.5-.3-1.1-.6-1.6-.9-.7-.3-1.7-.8-2.4-1.1L42 2.4c-.5-.1-1.1-.4-1.6-.5l-1.1-.3c-.3-.1-.8-.2-1.1-.3l-.9-.2c-.3 0-.6-.1-.9-.1l-.8-.1c-.2 0-.5-.1-.8-.1l-.7-.1h-4.2c-.2 0-.5 0-.7.1l-.8.1c-.2 0-.6.1-.8.1l-1 .2c-3 .6-4.5 1-6.8 1.9l-1.6.7C16.1 4.9 16 5 14.7 5.7L13 7c-.8.6-1.8 1.4-2.5 2.1l-1.6 1.6c-.6.7-1.4 1.5-1.9 2.2l-1.4 1.9c-.4.7-1 1.7-1.4 2.4L3 19.3c-.3.8-.7 1.8-1 2.5-.1.3-.2.7-.3 1 0 0 0-.2.1-.3"/><path class="st33" d="M60.2 28.5c0 6.2-1.7 12.1-4.7 17.3-2.1 9.5-9.5 16.3-19.3 17.8l1-.2c1.6-.3 3.4-.7 6.2-1.7L45 61c2.1-1 2.2-1.1 3.6-1.9l1.8-1.2c.8-.6 1.8-1.4 2.5-2l1.7-1.6c.6-.7 1.4-1.5 1.9-2.2l1.4-1.9c.4-.7 1.1-1.6 1.5-2.4l1.1-2.2c.3-.8.8-1.8 1-2.5l.8-2.4c.2-.8.5-1.9.6-2.7l.4-2.5c.1-.9.2-2.2.2-3.2l-.1-2.6c-.1-.7-.2-1.8-.4-2.7l-.5-2.5c-.2-.8-.5-1.8-.8-2.6l-.9-2.3c-.3-.6-.8-1.6-1.1-2.4l-1.2-2.1c-.5-.7-1.1-1.6-1.6-2.2l-1.5-1.8c-.6-.6-1.4-1.5-2-2l-1.7-1.4c-2.2-1.7-2.4-1.8-4.2-2.9 7.7 4.4 12.8 13.1 12.7 23.7"/><path class="st34" d="M5.3 15.2c15-21.4 47.9-6.7 52.2 17.3.6 3.3.8 4.4.3 8.7 1.6-4 2.4-8.2 2.5-12.6 0-10.6-5.1-19.3-12.8-23.7-.5-.3-1.1-.6-1.6-.9-.7-.3-1.7-.8-2.4-1.1L42 2.4c-.5-.1-1.1-.4-1.6-.5l-1.1-.3c-.3-.1-.8-.2-1.1-.3l-.9-.2c-.3 0-.6-.1-.9-.1l-.8-.1c-.2 0-.5-.1-.8-.1l-.7-.1h-4.2c-.2 0-.5 0-.7.1l-.8.1c-.2 0-.6.1-.8.1l-1 .2c-3 .6-4.5 1-6.8 1.9l-1.6.7C16.1 4.9 16 5 14.7 5.7L13 7c-.8.6-1.8 1.4-2.5 2.1l-1.6 1.6c-.6.7-1.4 1.5-1.9 2.2l-1.4 1.9c-.4.7-1 1.7-1.4 2.4l.8-1.5c.1-.1.2-.3.3-.5"/><path class="st34" d="M60.2 28.5c0 4.4-.9 8.6-2.5 12.6-.2 9.8-6.9 18.4-16.6 21.4l1.2-.4 1.1-.4L45 61c2.1-1 2.2-1.1 3.6-1.9l1.8-1.2c.8-.6 1.8-1.4 2.5-2l1.7-1.6c.6-.7 1.4-1.5 1.9-2.2l1.4-1.9c.4-.7 1.1-1.6 1.5-2.4l1.1-2.2c.3-.8.8-1.8 1-2.5l.8-2.4c.2-.8.5-1.9.6-2.7l.4-2.5c.1-.9.2-2.2.2-3.2l-.1-2.6c-.1-.7-.2-1.8-.4-2.7l-.5-2.5c-.2-.8-.5-1.8-.8-2.6l-.9-2.3c-.3-.6-.8-1.6-1.1-2.4l-1.2-2.1c-.5-.7-1.1-1.6-1.6-2.2l-1.5-1.8c-.6-.6-1.4-1.5-2-2l-1.7-1.4c-2.2-1.7-2.4-1.8-4.2-2.9 7.7 4.4 12.8 13.1 12.7 23.7"/><path class="st35" d="M26.5 62.7c11.6-2 11.6-2 14.2-3.8 3.5-2.4 6.5-7.4 7.3-10.7 4.1-17.4-9.5-27.9-11.1-29C18.4 5.7-1.6 19.2 1 37.7c2.7 19.2 21.4 25.7 25.5 25"/><path class="st36" d="M23.1 62c5 1 12.7-1 12.7-1.1 3.9-1.6 7.1-4.6 9.2-8.2 4.2-7.5 3.4-17.5-2.2-25.6C30.5 9 4.5 11.9 1.4 31.8-.7 44.9 9.7 59.3 23.1 62"/><path class="st37" d="M20.2 60.9c19.2 6 33.3-12.8 23.2-30.8C32.1 9.9 6.7 12.5 2.3 29.6c-3.7 14.2 6.3 27.7 17.9 31.3"/><path class="st38" d="M16.3 58.9c16.5 8.6 33.5-5.1 28.3-22.8-6.3-21.7-32.3-25-40.5-9.7-5.8 11-.1 26.2 12.2 32.5"/><path class="st39" d="M15 57.9c16.6 9.4 33.4-3.5 28.4-21.9-5.1-19-31.6-24.4-39.3-8C-1.2 39.2 5.5 52.5 15 57.9"/><path class="st40" d="M13.2 56.3c15.1 10.3 32.1.4 29.8-17.5-2.4-18.1-26.4-26.7-36.7-13-7.3 9.8-2.4 24.1 6.9 30.5"/><path class="st41" d="M12.9 55.6c15.6 11.2 31.7-1 29.1-16.9-3.1-18.9-27.7-24-35.7-11.5-6.4 10-1.5 22.6 6.6 28.4"/><path class="st42" d="M13.2 55.3C29.3 66.7 43.7 52.5 41 38.6c-3.5-18.7-26.7-22.7-34.7-9.8-5.1 8.2-2.1 19.9 6.9 26.5"/><path class="st43" d="M11.3 53.1c14 12.7 29.3 1.8 29-11.7-.4-18.5-22.2-23.7-31.2-14.5-7.6 7.6-4.9 19.7 2.2 26.2"/><path class="st44" d="M11.7 52.7c13.3 12 29.5.9 27.7-14.2-1.8-14.7-22.8-20.8-31.2-9.1-5.7 8-2.4 18 3.5 23.3"/><path class="st45" d="M12.2 52.3c13.5 11.8 28.2-1 26.5-13.9-1.9-13.9-21.2-19.5-29.5-8.6-6.3 8.2-2 18.1 3 22.5"/><path class="st46" d="M10.9 49.9c10.9 12.8 26.5 3.5 27.3-8.7C39 27.1 20.9 20.3 12 28.4c-8.6 7.9-4.5 17.5-1.1 21.5"/><path class="st47" d="M11.6 49.5c10.2 11.6 25 2.8 25.9-8.4.9-12-14.4-21.4-25-11.8-7.2 6.5-4.9 15.7-.9 20.2"/><path class="st48" d="M12.5 49.1c9.4 10.5 23.4 2.3 24.3-8 .9-10.7-13.1-21-24.3-10.6-4.3 4-5.4 12.7 0 18.6"/><path class="st49" d="M13.5 48.7C22 57.4 35 51.4 36.1 41c1.2-11.8-12.7-18.8-21.9-11-6.2 5.4-5.3 14-.7 18.7"/><path class="st50" d="M12.8 46.1c4.5 6.8 11.8 5.7 11.9 5.6 2.5-.5 9.9-2.2 11-10.7.6-5.2-1.7-9.3-7.2-12.5-.1 0-6.1-3-12.4.9-5.3 3.4-6.9 11.3-3.3 16.7"/><path class="st51" d="M13.8 45.8c6.1 8.8 19.8 5.8 21.4-4.7.7-4.8-1.7-9.1-6.7-12-1.3-.8-6.2-2.9-12.3 1.1-3.2 2.1-7.1 8.7-2.4 15.6"/><path class="st52" d="M14.7 45.5c6.1 7.7 18.5 5 20-4.5.3-2.1.4-7.5-6.2-11.4-2-1.2-6.2-2.6-11.7.9-4.7 3.1-5.8 10.4-2.1 15"/><path class="st53" d="M15.6 45.3c6.3 7.5 17.1 3.8 18.6-4.3 1.4-7.8-8.1-15.6-16.1-10.7-7.5 4.7-4.5 12.6-2.5 15"/><path class="st31" d="M31.8 62.7c.5-.1 1-.1 1.4-.2 0 0 .1 0 .1-.1v-.1c-1.7-.3-3.6.1-3.3.6.5.7 4.1.6 4.1-.1 0-.4-.7-.3-1-.3-.3.1-.8.1-1.3.2"/><path class="st54" d="M15.7 43.9c1.7 2.6 5 5.5 10.8 4.6 2.8-.5 6.4-3.6 7.2-7.5.8-3.7-.9-7.1-4.8-10.1-2.2-1.7-7.2-2.1-9.4-.8-8.3 5-5.4 11.3-3.8 13.8"/><path class="st55" d="M17.2 45c2.8 2.8 7.7 3.7 9.3 3 3.8-1.6 3.8-1.6 5.8-4.3.8-1.1 1.5-3.3 1.2-5.5-.4-3.2-2.7-5.4-3.1-5.8-1.6-1.5-1.6-1.5-6-2.7-2.7-.7-7.5 2.6-8.3 3.9-4 6.1.8 11.2 1.1 11.4"/><path class="st56" d="M16 42.4c1.1 2.1 4 5.6 10.3 5.1 1.8-.2 5.8-3.1 6.5-6.5 1.1-5.1-2.9-8.4-3.1-8.6-2.1-1.7-5.1-2.2-5.4-2.3-1.2-.2-3 .2-4.1.7-1.2.5-2.6 1.7-3.4 2.7-.3.3-1.6 3.2-1.6 3.2s-.5 3.1.8 5.7"/><path class="st32" d="M31.8 62.7c.4 0 .7-.1 1.1-.2h.1c-1.3-.2-2.7.1-2.5.4.4.5 3.1.4 3.1-.1 0-.3-.6-.3-.7-.3-.4.1-.7.2-1.1.2"/><path class="st57" d="M16.6 42.3c.7 1.2 3.4 5.2 9.7 4.7l3-1.3c1.5-1.5 2.6-2.5 3.1-4.7.9-3.7-1-6.8-3.2-8.6-1.5-1.2-4.8-1.9-4.8-1.9-1.2-.2-2.9.2-4.1.7-.5.2-3.3 1.6-4.5 5.4-.2.6-.5 3.5.8 5.7"/><path class="st58" d="M17.1 42.2s1.9 2.3 2.2 2.4c1 .7 2.6 1.3 3.7 1.8.9.4 2.2.1 3.2 0s2.3-.6 3.1-1.3c1.8-1.7 2.5-3.3 2.7-4.1.4-1.4.9-5.2-3.3-8.5-1.1-.8-2.9-1.4-4.2-1.5-1.2-.1-2.9.3-4.1.8-2.7 1.1-6.1 5.7-3.3 10.4"/><path class="st59" d="M17.7 42.1c1 1.6 3.4 4.3 8.4 3.9 1-.1 2.4-.7 3.1-1.4 1.4-1.3 2.3-3.6 2.3-3.6.9-2.8-.3-6-2.9-8-.4-.3-3.7-1.6-4.2-1.6-1.2-.1-2.9.3-4 .9-.1-.1-6.3 4-2.7 9.8"/><path class="st33" d="M31.8 62.7c.2 0 .5-.1.7-.1-.9-.2-1.8 0-1.6.3.2.3 2 .3 2.1 0 0-.2-.4-.2-.5-.2-.2-.1-.5 0-.7 0"/><path class="st60" d="M18.2 42c1.1 1.8 3.6 3 4.4 3.4.9.4 2.4.3 3.4.2 1-.1 2.4-.8 3.1-1.5.6-.6 1.9-3.1 1.9-3.1.9-2.9-.6-6-2.4-7.5-1.1-.8-2.8-1.6-4.2-1.7-1.2-.1-2.9.4-4 .9-.1 0-5.4 4-2.2 9.3"/><path class="st61" d="M18.8 41.9s1.7 2 3.8 2.9c.9.4 2.4.4 3.4.3 0 0 2.9-1.4 3.2-1.7.7-.6 1.2-1.7 1.5-2.5 1.2-3.6-1.3-6.4-2-7-.6-.5-3.6-1.8-4.2-1.9-.2 0-3.8.9-4 1-1 .7-2.2 1.9-2.5 3.1-.3 1.8-.7 3.8.8 5.8"/><path class="st62" d="M19.3 41.8s2.8 2.3 3.1 2.5c1 .4 2.4.5 3.4.4.3 0 2.6-1.3 3.2-1.9.5-.4.9-1.2 1.1-1.8 1.3-4-1.5-6.4-1.5-6.5 0 0-3.9-2-4.2-2-.2 0-3.8 1-4 1.2-1.9 1.4-3.3 5.2-1.1 8.1"/><path class="st63" d="M19.8 41.7c.6.7 1.6 1.6 2.4 2 1 .4 2.5.6 3.5.5.4 0 3.2-2 3.2-2.1.3-.3.6-.8.7-1.2 1-2.9-.6-5.6-1.1-5.9-1.1-.8-2.8-1.9-4.2-2.1-1.2-.1-2.9.5-3.9 1.3-1.5 1.2-2.6 4.9-.6 7.5"/><path class="st34" d="M31.8 62.7c.1 0 .2 0 .4-.1-.4-.1-.9 0-.8.1.1.2 1 .1 1 0s-.2-.1-.3-.1c-.1.1-.2.1-.3.1"/><path class="st64" d="M20.4 41.7c.4.5 1.1 1.2 1.8 1.4 1 .4 2.5.9 3.6.7 1.2-.3 2.3-1.5 3.3-2.3.1-.1.3-.3.3-.5.3-.8.5-2 .4-2.8 0 0-.8-2.4-1.3-2.8-1-.8-2.5-1.8-3.8-1.9-1.2-.1-2.7.9-3.9 1.3-1.4.6-1.5 4.2-1.5 4.2 0 .9.5 2 1.1 2.7"/><path class="st65" d="M20.9 41.6c.3.3.7.7 1.1.9 1.1.4 2.6 1 3.7.8 1.1-.2 2.2-1.5 3.1-2.3.1-.1.1-.3.2-.5.4-1.6.8-3.4-1.4-5.2-.8-.6-2-1.4-3-1.5-1.2-.1-2.7.9-3.9 1.4-.2.1-.4.4-.5.6-.9 2.1-.7 4 .7 5.8"/><path class="st66" d="M21.4 41.5c.1.1.2.3.4.3 1.1.3 2.6 1.1 3.7.9.9-.2 1.8-1 2.4-1.7.5-.6.8-1.8.9-2.6V38c-.6-.8-1.3-2-2.1-2.6-.5-.4-1.4-1-2.1-1-1.2-.1-3 .5-3.8 1.5-.6.7-.8 2.1-.7 3 .1.9.8 1.9 1.3 2.6"/><path class="st67" d="M21.6 40.8c.2.2.5.5.7.6.9.3 2.2 1 3.1.8.6-.1 1.3-.7 1.6-1.2.5-.8 1.2-1.9 1.1-2.8-.2-1-1.4-2-2.2-2.8-.3-.3-.9-.6-1.3-.6-1 0-6.1 2.1-3 6"/><path class="st68" d="M21.3 39.2c.6.8 1.7 1.6 2.5 2.2.4.3 1.1.5 1.6.4.3-.1.7-.3.8-.6.5-.8 1.3-1.9 1.2-2.9-.1-1.1-1.5-2-2.2-2.8-.1-.1-.3-.2-.5-.2-.6 0-.9.1-3.5 3.1-.2.2 0 .6.1.8"/><path class="st69" d="M25.3 41.2c.2 0 1.3-2.9 1.3-2.9-.1-.9-1-2.2-1.8-2.3-1.1-.1-2.6 1.5-2.5 2.6 0 1.2 1.9 2 3 2.6"/><path class="st70" d="M25.2 39.9c.5-.1.7-1 .7-1.5-.1-.4-.5-1.1-1-1.2-.6 0-1.3.8-1.3 1.3 0 .6.9 1.5 1.6 1.4"/><path class="st71" d="M25 38.5l.1-.1s0-.1-.1-.1l-.1.1c0 .1.1.1.1.1"/></g></g><g class="st0"><defs><path id="SVGID_5_" class="st0" d="M31.8 62.1v0z"/></defs><clipPath id="SVGID_6_"><use xlink:href="#SVGID_5_" overflow="visible"/></clipPath><path class="st72 st8" d="M31.8 62.4v-.3.3"/></g><g class="st0"><defs><path id="SVGID_7_" class="st0" d="M31.8 62.4v-.3.3z"/></defs><clipPath id="SVGID_8_"><use xlink:href="#SVGID_7_" overflow="visible"/></clipPath><path class="st73 st34" d="M31.8 62.1v.3-.3"/></g><g class="st0"><defs><path id="SVGID_9_" class="st0" d="M31.8 62.4v-.3.3z"/></defs><clipPath id="SVGID_10_"><use xlink:href="#SVGID_9_" overflow="visible"/></clipPath><path class="st74 st8" d="M31.8 62.4v-.3.3"/></g><g class="st0"><defs><path id="SVGID_11_" class="st0" d="M31.8 62.1v.3-.3z"/></defs><clipPath id="SVGID_12_"><use xlink:href="#SVGID_11_" overflow="visible"/></clipPath><path class="st75 st34" d="M31.8 62.1v.3-.3"/></g><g class="st0"><defs><path id="SVGID_13_" class="st0" d="M31.8 62.4v-.3.3z"/></defs><clipPath id="SVGID_14_"><use xlink:href="#SVGID_13_" overflow="visible"/></clipPath><path class="st76 st8" d="M31.8 62.4v-.3.3"/></g><g class="st0"><defs><path id="SVGID_15_" class="st0" d="M31.8 62.1v.3-.3z"/></defs><clipPath id="SVGID_16_"><use xlink:href="#SVGID_15_" overflow="visible"/></clipPath><path class="st77 st34" d="M31.8 62.1v.3-.3"/></g><g class="st0"><defs><path id="SVGID_17_" class="st0" d="M31.8 62.1v0z"/></defs><clipPath id="SVGID_18_"><use xlink:href="#SVGID_17_" overflow="visible"/></clipPath><path class="st78 st34" d="M31.8 62.1v.3-.3"/></g><g class="st0"><defs><path id="SVGID_19_" class="st0" d="M27.7 1.6c5-.7 8.9.1 10.4.4 1 .2 2.7.6 4.8 1.4 1.3.5 2.6 1.1 4.3 2 7.6 4.3 12.6 12.8 12.6 23.2-.1 16.4-12.7 31.4-28 33.5C47.1 60 59.7 45 59.7 28.6c0-10.4-5-18.9-12.6-23.2.5.3 1.3.7 1.8 1.1.8.6 1.9 1.3 2.7 2 1.1.8 2.3 2.1 3.3 3.1.6.6 1.4 1.6 1.9 2.3 1.5 2.2 2.1 3 2.7 4.3 1.2 2.4 1.4 2.9 2 4.7.7 2.3 1 3.7 1.2 5 .2 1.3.3 3.2.3 4.5 0 1.5-.2 3.5-.4 5-.3 1.9-1.2 5.4-2.2 7.4-1.4 2.9-1.4 2.9-2.4 4.4-1.3 2-2.6 3.4-3.1 4-3.3 3.5-5.6 4.9-7.8 6.2-1.3.8-3.4 1.7-3.4 1.7-1.1.4-2.4 1-4.6 1.5-3.7.9-6.7.9-8.8.8-3-.1-6.2-.9-8.1-1.5-1-.3-2.2-.8-3.2-1.2-1.1-.5-2.9-1.4-4.2-2.3-.5-.4-1.2-.8-1.7-1.2-.7-.5-1.6-1.3-2.2-1.9-2-1.8-3.3-3.6-3.5-3.8-.8-1-1.6-2.2-2.8-4.2-.7-1.3-1.4-3-2-4.4C2.3 42 1.2 38.6.9 35c-.2-2.1-.1-2.4 0-5.3 0-.9.2-2.1.4-3 .5-2.2.7-3.1 1.3-4.9.9-2.5 2-4.4 2.1-4.6 1.1-2 3.8-6.5 9.7-10.5 5.1-3.4 10-4.7 13.3-5.1z"/></defs><clipPath id="SVGID_20_"><use xlink:href="#SVGID_19_" overflow="visible"/></clipPath><g class="st79"><path class="st28" d="M27.7 1.6c6.7-.9 13.2.4 19.4 3.8 7.6 4.3 12.6 12.8 12.6 23.2C59.7 45 47.1 60 31.8 62.1 47.1 60 59.7 45 59.7 28.6c0-10.4-5-18.9-12.6-23.2 15.9 9.7 16.4 24.3 15.3 32C61 47.1 53.1 59.1 39 62.5 11.8 69-9.5 38.5 6 15.2 11 7.7 18.9 2.8 27.7 1.6"/><path class="st28" d="M34.2 61.7c3.4-.7 3.4-.7 5.1-1.7C51 54.9 59.7 42.2 59.7 28.6c0-10.4-5-18.9-12.6-23.2 2.1 1.3 2.6 1.6 4.4 3l1.7 1.5c.6.6 1.4 1.4 2 2.1l1.5 1.8c.5.7 1.1 1.6 1.5 2.3l1.2 2.1c.3.7.8 1.7 1.1 2.4l.8 2.3c.2.8.5 1.8.7 2.6l.5 2.4c.1 1.4.3 3.2.3 4.5l-.1 2.5c-.1.8-.2 1.9-.3 2.7l-.5 2.4c-.2.8-.5 1.8-.8 2.6l-.9 2.2c-.4.7-.8 1.7-1.2 2.4l-1.2 2c-.5.7-1.1 1.6-1.6 2.2l-1.5 1.7-2 2-1.6 1.4c-.8.6-1.8 1.3-2.5 1.8l-1.6 1c-2.1 1.1-2.2 1.1-3.4 1.7l-1.1.4c-2 .7-3.5 1.2-6.5 1.6l-.8.1c-.2 0-.6.1-.8.1l-.7.1h-4.2c-.2 0-.5 0-.7-.1l-.8-.1c-.2 0-.5-.1-.8-.1l-.9-.1c-.3-.1-.6-.1-.9-.2l-1-.2c-.3-.1-.8-.2-1.1-.3l-1.3-.4c-.5-.2-1.1-.4-1.6-.6l-1.4-.7c-.7-.4-1.7-.8-2.4-1.2l-1.8-1.1c-2.2-1.5-2.4-1.7-4-3.1l-1.6-1.6c-.6-.6-1.3-1.5-1.8-2.2L6 49.4c-.4-.7-1-1.6-1.4-2.3L3.5 45c-.3-.7-.7-1.7-1-2.5l-.7-2.3c-.2-.8-.4-1.8-.6-2.6L.9 35c0-.8-.1-1.9-.1-2.8l.1-2.5c.1-.9.2-2.1.4-3l.5-2.4c.2-.8.5-1.8.8-2.5l.9-2.2c.4-.7.8-1.7 1.2-2.4l1.2-2c.5-.7 1.1-1.6 1.6-2.2L9 11.3l2-2 1.6-1.4c.8-.6 1.8-1.3 2.6-1.8l1.6-.9c2-1.1 2.2-1.1 3.5-1.7l1.1-.4c1.6-.5 3.2-1 6.1-1.5l.8-.1c.2 0 .5-.1.8-.1H34.2c.2 0 .5 0 .7.1l.8.1c.2 0 .5.1.8.1l.9.1c.3.1.6.1.9.2l1 .2c.3.1.8.2 1.1.3l1.3.4c.3.1 1 .4 1.4.5l1.6.7c.7.4 1.7.8 2.4 1.2 7.6 4.3 12.6 12.8 12.6 23.2 0 13.6-8.7 26.3-20.4 31.4.1 0 .2-.1.2-.1 18.8-12 9.1-39.9-10.8-45.8C8.9 8.2-5.7 27.7 4.3 46.6c3.3 6.1 8 10.7 14.1 13.6 3 1.4 6.5 2.2 8.6 2.3 0 0 1.5-.2 2-.6.3-.2.3-.2 6.1-.7-.2.1-.6.3-.9.5-.8.2-1.6.3-2.5.4.9-.1 1.7-.3 2.5-.4"/><path class="st29" d="M2.5 42.5c-.3-1-.9-2.5-1.3-5L.9 35c0-.8-.1-1.9-.1-2.8l.1-2.5c.1-.9.2-2.1.4-3l.5-2.4c.2-.8.5-1.8.8-2.5l.9-2.2c.4-.7.8-1.7 1.2-2.4l1.2-2c.5-.7 1.1-1.6 1.6-2.2L9 11.3l2-2 1.6-1.4c.8-.6 1.8-1.3 2.6-1.8l1.6-.9c2-1.1 2.2-1.1 3.5-1.7l1.1-.4c1.6-.5 3.2-1 6.1-1.5l.8-.1c.2 0 .5-.1.8-.1H34.2c.2 0 .5 0 .7.1l.8.1c.2 0 .5.1.8.1l.9.1c.3.1.6.1.9.2l1 .2c.3.1.8.2 1.1.3l1.3.4c.3.1 1 .4 1.4.5l1.6.7c.7.4 1.7.8 2.4 1.2 7.6 4.3 12.6 12.8 12.6 23.2 0 11.8-6.5 22.9-15.9 29l.4-.4c17-17.7-1-46-22.8-45.2-15.5.6-24.5 15.9-18.5 31.6-.1-.3-.3-.7-.4-1"/><path class="st29" d="M33.9 61.7c5.1-.7 6.4-.8 9.9-4.2 9.4-6.1 15.8-17.2 15.9-29 0-10.4-5-18.9-12.6-23.2 2.1 1.3 2.6 1.6 4.4 3l1.7 1.5c.6.6 1.4 1.4 2 2.1l1.5 1.8c.5.7 1.1 1.6 1.5 2.3l1.2 2.1c.3.7.8 1.7 1.1 2.4l.8 2.3c.2.8.5 1.8.7 2.6l.5 2.4c.1 1.4.3 3.2.3 4.5l-.1 2.5c-.1.8-.2 1.9-.3 2.7l-.5 2.5c-.2.8-.5 1.8-.8 2.6l-.9 2.2c-.4.7-.8 1.7-1.2 2.4l-1.2 2c-.5.7-1.1 1.6-1.6 2.2l-1.5 1.7-2 2-1.6 1.4c-.8.6-1.8 1.3-2.5 1.8l-1.6 1c-2.1 1.1-2.2 1.1-3.4 1.7l-1.1.4c-2 .7-3.5 1.2-6.5 1.6l-.8.1c-.2 0-.6.1-.8.1l-.7.1h-4.2c-.2 0-.5 0-.7-.1l-.8-.1c-.2 0-.5-.1-.8-.1l-.9-.1c-.3-.1-.6-.1-.9-.2l-1-.2c-.3-.1-.8-.2-1.1-.3l-1.3-.4c-.5-.2-1.1-.4-1.6-.6l-1.4-.7c-.7-.4-1.7-.8-2.4-1.2-.4-.2-.9-.6-1.3-.8.5.3 1.2.7 1.8 1 8.6 4.3 12.1 3 12.1 3 .7-.7 1.5-1.5 5-.9-.2 0-.4.1-.3.1-.7.1-1.4.3-2.1.4.7-.1 1.4-.2 2.1-.4"/><path class="st30" d="M1.3 37.5C1 36 .8 34.6.8 32.3l.1-2.5c.1-.9.2-2.1.4-3l.5-2.4c.2-.8.5-1.8.8-2.5l.9-2.2c.4-.7.8-1.7 1.2-2.4l1.2-2c.5-.7 1.1-1.6 1.6-2.2L9 11.4l2-2L12.6 8c.8-.6 1.8-1.3 2.6-1.8l1.6-.9c2-1.1 2.2-1.1 3.5-1.7l1.1-.4c1.6-.5 3.2-1 6.1-1.5l.8-.1c.2 0 .5-.1.8-.1l.9-.1h4.2c.2 0 .5 0 .7.1l.8.1c.2 0 .5.1.8.1l.9.1c.3.1.6.1.9.2l1 .2c.3.1.8.2 1.1.3l1.3.4c.3.1 1 .4 1.4.5l1.6.7c.7.4 1.7.8 2.4 1.2 7.6 4.3 12.6 12.8 12.6 23.2 0 10.3-5 20.1-12.5 26.4.3-.4.7-1 1.1-1.4 12.7-21.2-9-46.3-30-42.4-12 2.2-19.1 13.3-17 26.4 0 .1 0 0 0 0"/><path class="st30" d="M33.5 61.8c1.3-.2 2.7.3 4 .1 0 0 .7-.1 2.9-1.2 1.5-.7 4.3-2.4 6.8-5.7 7.5-6.4 12.4-16.1 12.5-26.4 0-10.4-5-18.9-12.6-23.2 2.1 1.3 2.6 1.6 4.4 3l1.7 1.5c.6.6 1.4 1.4 2 2.1l1.5 1.8c.5.7 1.1 1.6 1.5 2.3l1.2 2.1c.3.7.8 1.7 1.1 2.4l.8 2.3c.2.8.5 1.8.7 2.6l.5 2.4c.1 1.4.3 3.2.3 4.5l-.1 2.5c-.1.8-.2 1.9-.3 2.7l-.5 2.4c-.2.8-.5 1.8-.8 2.6l-.9 2.2c-.4.7-.8 1.7-1.2 2.4l-1.2 2c-.5.7-1.1 1.6-1.6 2.2l-1.5 1.7-2 2-1.6 1.4c-.8.6-1.8 1.3-2.5 1.8l-1.6 1c-2.1 1.1-2.2 1.1-3.4 1.7l-1.1.4c-2 .7-3.5 1.2-6.5 1.6l-.8.1c-.2 0-.6.1-.8.1l-.7.1h-4.2c-.2 0-.5 0-.7-.1l-.8-.1c-.2 0-.5-.1-.8-.1l-.9-.1c-.3-.1-.6-.1-.9-.2l-1-.2c-.3-.1-.8-.2-1.1-.3l-1.3-.4-.7-.3 1.7.5c.9.3 5.7 1.5 7.6.7-.7-.2-.8-.3-.9-.4 0-.1 0-.2.1-.3.3-.4 3.6-.7 3.8-.4 0 .1-.1.2-.1.2l-1.8.3c.7-.1 1.3-.2 1.8-.3"/><path class="st31" d="M.8 32.3c0-1.6.1-3 .5-5.6l.5-2.4c.2-.8.5-1.8.8-2.5l.9-2.2c.4-.7.8-1.7 1.2-2.4l1.2-2c.5-.7 1.1-1.6 1.6-2.2L9 11.3l2-2 1.6-1.4c.8-.6 1.8-1.3 2.6-1.8l1.6-.9c2-1.1 2.2-1.1 3.5-1.7l1.1-.4c1.6-.5 3.2-1 6.1-1.5l.8-.1c.2 0 .5-.1.8-.1H34.2c.2 0 .5 0 .7.1l.8.1c.2 0 .5.1.8.1l.9.1c.3.1.6.1.9.2l1 .2c.3.1.8.2 1.1.3l1.3.4c.3.1 1 .4 1.4.5l1.6.7c.7.4 1.7.8 2.4 1.2 7.6 4.3 12.6 12.8 12.6 23.2 0 8.9-3.7 17.4-9.6 23.7l.3-.6c11.5-23.3-14-47.8-34.9-40.8C8.4 13.2.8 20.1.8 32.5v-.2"/><path class="st31" d="M59.7 28.6c0-10.4-5-18.9-12.6-23.2 2.1 1.3 2.6 1.6 4.4 3l1.7 1.5c.6.6 1.4 1.4 2 2.1l1.5 1.8c.5.7 1.1 1.6 1.5 2.3l1.2 2.1c.3.7.8 1.7 1.1 2.4l.8 2.3c.2.8.5 1.8.7 2.6l.5 2.4c.1 1.4.3 3.2.3 4.5l-.1 2.5c-.1.8-.2 1.9-.3 2.7l-.5 2.4c-.2.8-.5 1.8-.8 2.6l-.9 2.2c-.4.7-.8 1.7-1.2 2.4l-1.2 2c-.5.7-1.1 1.6-1.6 2.2l-1.5 1.7-2 2-1.6 1.4c-.8.6-1.8 1.3-2.5 1.8l-1.6 1c-2.1 1.1-2.2 1.1-3.4 1.7l-1.1.4c-2 .7-3.5 1.2-6.5 1.6l-.8.1c-.2 0-.6.1-.8.1l-.7.1h-4.2c-.2 0-.5 0-.7-.1l-.8-.1c-.2 0-.5-.1-.8-.1l-.9-.1h-.2.2c16.4 2.6 23-9.2 23.6-10.6 6.1-6.3 9.8-14.8 9.8-23.7"/><path class="st32" d="M1.3 26.7c.2-1 .5-2.6 1.3-4.9l.9-2.2c.4-.7.8-1.7 1.2-2.4l1.2-2c.5-.7 1.1-1.6 1.6-2.2L9 11.3l2-2 1.6-1.4c.8-.6 1.8-1.3 2.6-1.8l1.6-.9c2-1.1 2.2-1.1 3.5-1.7l1.1-.4c1.6-.5 3.2-1 6.1-1.5l.8-.1c.2 0 .5-.1.8-.1H34.2c.2 0 .5 0 .7.1l.8.1c.2 0 .5.1.8.1l.9.1c.3.1.6.1.9.2l1 .2c.3.1.8.2 1.1.3l1.3.4c.3.1 1 .4 1.4.5l1.6.7c.7.4 1.7.8 2.4 1.2 7.6 4.3 12.6 12.8 12.6 23.2 0 7.5-2.7 14.8-7 20.6.2-.6.5-1.4.7-1.9 7-26.5-22.4-47-41.7-35.6-8.4 5-10 13.1-10.6 16.2.1-.3.2-.8.2-1.1"/><path class="st32" d="M59.7 28.6c0-10.4-5-18.9-12.6-23.2 2.1 1.3 2.6 1.6 4.4 3l1.7 1.5c.6.6 1.4 1.4 2 2.1l1.5 1.8c.5.7 1.1 1.6 1.5 2.3l1.2 2.1c.3.7.8 1.7 1.1 2.4l.8 2.3c.2.8.5 1.8.7 2.6l.5 2.4c.1 1.4.3 3.2.3 4.5l-.1 2.5c-.1.8-.2 1.9-.3 2.7l-.5 2.4c-.2.8-.5 1.8-.8 2.6l-.9 2.2c-.4.7-.8 1.7-1.2 2.4l-1.2 2c-.5.7-1.1 1.6-1.6 2.2l-1.5 1.7-2 2-1.6 1.4c-.8.6-1.8 1.3-2.5 1.8l-1.6 1c-2.1 1.1-2.2 1.1-3.4 1.7l-1.1.4c-2 .7-3.5 1.2-6.5 1.6l-.8.1c-.2 0-.6.1-.8.1l-.7.1H31h.5c15.9-.1 20.7-12.7 21.2-14.2 4.3-5.8 7-13 7-20.5"/><path class="st33" d="M2.7 21.8c.3-.9.9-2.4 2.1-4.6l1.2-2c.5-.7 1.1-1.6 1.6-2.2l1.5-1.7 2-2 1.6-1.4c.8-.6 1.8-1.3 2.6-1.8l1.6-.9c2-1.1 2.2-1.1 3.5-1.7l1.1-.4c1.6-.5 3.2-1 6.1-1.5l.8-.1c.2 0 .5-.1.8-.1H34.2c.2 0 .5 0 .7.1l.8.1c.2 0 .5.1.8.1l.9.1c.3.1.6.1.9.2l1 .2c.3.1.8.2 1.1.3l1.3.4c.3.1 1 .4 1.4.5l1.6.7c.7.4 1.7.8 2.4 1.2 7.6 4.3 12.6 12.8 12.6 23.2 0 6-1.7 11.9-4.6 17 .1-.2.1-.5.2-.7 5.4-26.7-25.2-46.1-43.7-34.1-3.1 2-7.2 5.8-9.3 12.3.1-.3.2-.9.4-1.2"/><path class="st33" d="M59.7 28.6c0-10.4-5-18.9-12.6-23.2 2.1 1.3 2.6 1.6 4.4 3l1.7 1.5c.6.6 1.4 1.4 2 2.1l1.5 1.8c.5.7 1.1 1.6 1.5 2.3l1.2 2.1c.3.7.8 1.7 1.1 2.4l.8 2.3c.2.8.5 1.8.7 2.6l.5 2.4c.1 1.4.3 3.2.3 4.5l-.1 2.5c-.1.8-.2 1.9-.3 2.7l-.5 2.4c-.2.8-.5 1.8-.8 2.6l-.9 2.2c-.4.7-.8 1.7-1.2 2.4l-1.2 2c-.5.7-1.1 1.6-1.6 2.2l-1.5 1.7-2 2-1.6 1.4c-.8.6-1.8 1.3-2.5 1.8l-1.6 1c-2.1 1.1-2.2 1.1-3.4 1.7l-1.1.4c-1.7.6-3.2 1.1-6.3 1.6l.5-.1C47.6 61 53.9 52.6 55.1 45.5c2.9-5 4.6-10.9 4.6-16.9"/><path class="st34" d="M4.8 17.2c.6-1.1 1.3-2.3 2.8-4.2l1.5-1.7 2-2 1.6-1.4c.8-.6 1.8-1.3 2.6-1.8l1.6-.9c2-1.1 2.2-1.1 3.5-1.7l1.1-.4c1.6-.5 3.2-1 6.1-1.5l.8-.1c.2 0 .5-.1.8-.1H34.2c.2 0 .5 0 .7.1l.8.1c.2 0 .5.1.8.1l.9.1c.3.1.6.1.9.2l1 .2c.3.1.8.2 1.1.3l1.3.4c.3.1 1 .4 1.4.5l1.6.7c.7.4 1.7.8 2.4 1.2 7.6 4.3 12.6 12.8 12.6 23.2 0 4.3-.9 8.5-2.4 12.4 0-.4.1-.9.1-1.3C58.5 14.3 27.2-4.2 9.6 11.3c-3 2.7-4.4 5.2-5.1 6.4.1-.2.2-.4.3-.5"/><path class="st34" d="M59.7 28.6c0-10.4-5-18.9-12.6-23.2 2.1 1.3 2.6 1.6 4.4 3l1.7 1.5c.6.6 1.4 1.4 2 2.1l1.5 1.8c.5.7 1.1 1.6 1.5 2.3l1.2 2.1c.3.7.8 1.7 1.1 2.4l.8 2.3c.2.8.5 1.8.7 2.6l.5 2.4c.1 1.4.3 3.2.3 4.5l-.1 2.5c-.1.8-.2 1.9-.3 2.7l-.5 2.4c-.2.8-.5 1.8-.8 2.6l-.9 2.2c-.4.7-.8 1.7-1.2 2.4l-1.2 2c-.5.7-1.1 1.6-1.6 2.2l-1.5 1.7-2 2-1.6 1.4c-.8.6-1.8 1.3-2.5 1.8l-1.6 1c-2.1 1.1-2.2 1.1-3.4 1.7l-1.1.4c-.5.2-1.1.4-1.6.5 11.1-3.5 16.2-13.1 16.4-21 1.5-3.8 2.4-8 2.4-12.3"/><path class="st35" d="M23.7 61.8C.1 56.4-5.3 26.7 10.7 17c17.8-10.8 42.1 9.1 37.1 30.3-.4 1.9-2.4 8.3-9 12.2-3 1.8-12 3-15.1 2.3"/><path class="st36" d="M18.1 59.7c-19.5-9.2-22.3-36.2-4.5-43.1C32.3 9.3 53.7 31.5 45.9 50c-3.3 7.8-9.4 10.1-10.1 10.3l-9.6 1.4c-2.2 0-5.8-.9-8.1-2"/><path class="st37" d="M15.5 58.1C-3.3 46.7-2.4 20.3 16.9 16.6 37.2 12.7 54.4 38 42.5 54.1c-6.3 8.4-19 8.9-27 4"/><path class="st38" d="M13.1 56.2C-3.8 43.2.9 20.8 16.8 17.7c17.7-3.5 36.3 18.5 25 35.9-5.1 7.6-18 10.5-28.7 2.6"/><path class="st39" d="M10.9 54.1c-15.3-14.7-7-35.6 9.6-35.7 19.4 0 31.4 24.3 18.4 37.1-8.2 8.1-20.6 5.6-28-1.4"/><path class="st40" d="M11 53.7c-13.9-13-8.1-34.1 9.4-34.2 18.9-.1 30 23 17.3 35.9-6.6 6.7-18.6 5.9-26.7-1.7"/><path class="st41" d="M9.2 51.3C-2.1 37.4 5.9 19.1 22.6 20.7 42 22.6 48 46.4 35.5 56c-8.5 6.6-20.3 2.7-26.3-4.7"/><path class="st42" d="M9.5 51c-11.3-14-2-32.2 14.9-29.1 18.2 3.3 21.8 25.6 9.5 34.3-7.2 4.9-18.1 2.6-24.4-5.2"/><path class="st43" d="M8.1 48.4c-8.9-14.7 2.4-28.2 16.2-25.6 18.4 3.5 19.8 24.7 9.3 32.3-9.7 7-21 .6-25.5-6.7"/><path class="st44" d="M8.5 48C.2 34.1 11.2 21.3 24.3 23.7c17 3.1 19.6 22.3 7.9 31.2-6.1 4.6-18 2.6-23.7-6.9"/><path class="st45" d="M9.1 47.6C.9 33.5 13.1 21.3 26.7 25c15.2 4.2 15.4 23.1 3.6 29.9-6.8 3.9-16.7.5-21.2-7.3"/><path class="st46" d="M8.4 44.7c-5-13.4 8.7-23.4 20.1-18.4 13.6 5.9 11.4 23.6-.3 28.4-7.2 2.9-16.7-1.8-19.8-10"/><path class="st47" d="M9.2 44.4C5 32.4 16.8 21.8 28.5 27c12.8 5.6 10.6 22-.5 26.7-8.4 3.4-16.7-3.1-18.8-9.3"/><path class="st48" d="M10 44c-4-11.9 8.6-20.9 18.5-16.5 12.1 5.3 9.8 21-.9 25.2-7.6 3-15.4-2.2-17.6-8.7"/><path class="st49" d="M10.9 43.6C7.1 32.3 19.1 23.9 28.5 28c10.4 4.6 9.7 19.4-1.1 23.7-5.7 2.3-14-.7-16.5-8.1"/><path class="st50" d="M11.3 40.6c-.6-8.4 5.3-11.2 7.2-12 6.7-3.1 11.7 1.2 13.3 2.6 7.7 6.6 3.4 18.9-7 20.3-7.2.8-13.1-5.1-13.5-10.9"/><path class="st51" d="M12.2 40.3c-.8-6.2 4.2-10 4.3-10.1 6.9-4.4 11.8-1.4 12.7-.7 11.6 8.4 4.1 18.7-2.1 20.6-6.1 1.9-13.9-2-14.9-9.8"/><path class="st52" d="M12.9 40.1c-.9-8.1 8.6-16 17.6-9 9.1 7.2 2.2 18.7-6.2 18.6-3.6.1-10.6-2.8-11.4-9.6"/><path class="st53" d="M13.7 39.9c-.3-2.8.2-7.8 6.7-10.6 1.8-.8 7.2-1.1 11.1 3 5.6 5.9 2.1 16.8-7.5 16.6-5.9 0-10-5.3-10.3-9"/><path class="st31" d="M33.2 61.9c1-.1 1 .3.9.4-.5.6-3.9.5-4.1-.1-.1-.4 1.7-.8 3.3-.5 0 .1-.1.2-.1.2-.5.1-.9.2-1.4.2.5-.1.9-.1 1.4-.2"/><path class="st54" d="M14.4 39.7c-1-10.6 11.1-13 16.5-7.3 6.6 6.9.9 16.6-7.1 16-6.4-.5-9.1-6.2-9.4-8.7"/><path class="st55" d="M15 39.6C14 33 21.3 27.2 28.6 31c.6.3 5.5 3.1 4.7 9.8-.2 1.6-2.5 5.9-6.7 6.9-4.1.9-10.7-2.1-11.6-8.1"/><path class="st56" d="M15.5 36.6s1.2-2.8 1.6-3.2c.8-1 2.3-1.9 3.4-2.6 1-.7 2.8-.6 4-.7 1.3-.1 3.1.6 4.1 1.3 2 1.4 3.4 3.7 3.4 3.7 1.8 3.5.6 6.9-.4 8.2-2.1 3-4.9 4.2-8.2 3.8-5.3-.6-8.9-6.4-7.9-10.5"/><path class="st32" d="M32.8 61.9c1 0 .7.4.7.4-.5.4-3 .4-3-.1 0-.3 1.4-.5 2.3-.3.1 0 .1 0 0 0-.4.1-.7.1-1.1.2.4 0 .8-.1 1.1-.2"/><path class="st57" d="M16.1 36.5c1.4-5.4 6.5-5.8 8.4-6 1.3-.1 3 .7 4.1 1.4 1.2.8 3 3.3 3 3.3 2.6 4.8-.8 12.6-8.3 11.4-.3 0-3.6-1.6-3.6-1.6-.7-.5-1.3-.9-2.8-3-.6-.7-1.3-3.6-.8-5.5"/><path class="st58" d="M16.6 36.4c1.4-4.9 5.8-5.3 7.9-5.5 1.3-.1 3 .8 4.1 1.5 1 .6 2 1.8 2.5 2.8.7 1.3 2.1 4.6-.6 8.2-2.3 3.1-6.2 2.9-7.5 2.6-1.2-.3-2.6-1.1-3.6-1.7-.2-.2-2.1-2.4-2.1-2.4-.7-1.1-1.2-3.6-.7-5.5"/><path class="st59" d="M17.2 36.3s.8-2.4 3.4-4.1c1-.7 2.8-.7 4-.8 0 0 3.1.9 4.1 1.6.8.5 1.6 1.5 2.1 2.3 2.4 4.1.1 7.2-.7 8.2-.9 1.2-2.6 1.9-3.9 2.2-.9.3-2.3.1-3.2-.1-2.1-.5-7.4-3.7-5.8-9.3"/><path class="st33" d="M32.5 62c.5 0 .5.2.5.2-.2.3-2 .3-2-.1-.1-.1.8-.3 1.5-.1-.2 0-.5.1-.7.1.2 0 .5-.1.7-.1"/><path class="st60" d="M17.6 37.7c0-.4-.1-1.1.2-1.5.6-1.1 1.4-2.4 2.3-3.2.5-.5.7-.6 4.5-1.3 0 0 4 .6 5.7 3.5 2.4 4 .2 6.9-.8 8.2-.6.8-3.4 1.8-3.4 1.8-1 .2-2.3 0-3.3-.2-2.1-.6-4.3-3.3-4.3-3.3-.8-1-1.1-2.3-.9-4"/><path class="st61" d="M18.3 36.2c.4-1.1 1.4-2.4 2.4-3.1.2-.1 3.6-1 3.9-1 0 0 3.9.9 5.3 3.1 2.4 3.9.1 6.9-.7 8-.1.1-2.9 1.6-3.1 1.6-1 .2-2.4 0-3.3-.3-1.3-.2-6.4-3.8-4.5-8.3"/><path class="st62" d="M18.8 36.1c.4-.9 1.1-2 1.9-2.4.2-.1 3.5-1.1 3.9-1.1.2 0 4.1 1.9 4.1 2 .3.2.6.5.7.8 1.6 2.6 1.5 5-.3 7.3-.7.8-2.1 1.6-3.1 1.8-1 .2-2.4-.1-3.4-.3-.3-.1-3-2.4-3.1-2.4-.9-2.2-1.6-3.6-.7-5.7"/><path class="st63" d="M19.3 36c.3-.6.8-1.5 1.5-1.8 1.1-.6 2.7-1.5 3.8-1.2 1.3.3 3.1 1.1 4.1 2 .7.6 1.4 3.1 1.4 3.1s0 3.2-1 3.9c-.3.2-2.7 1.9-3.2 2-1 .2-2.5-.1-3.5-.5-.8-.4-1.8-1.2-2.4-1.9-.5-.7-.8-1.8-1.1-2.6-.3-.9.1-2.2.4-3"/><path class="st34" d="M32.1 62.1c.3 0 .3.1.2.1-.1.2-1 .1-1 0 0-.2.5-.2.8-.1.1-.1 0 0 0 0h-.4.4"/><path class="st64" d="M19.9 36c.2-.4.6-1 1-1.2 1.1-.6 2.6-1.6 3.8-1.3 1.2.3 2.8 1 3.7 1.9.6.6 1.3 2.8 1.3 2.8s0 2.3-.7 3.3-2.1 2-3.2 2.2c-1.1.2-2.5-.3-3.5-.7-.6-.2-1.3-.9-1.7-1.4-.5-.7-1.1-1.8-1.2-2.6-.1-1 .1-2.2.5-3"/><path class="st65" d="M20.4 35.9c.1-.2.3-.5.5-.6 1.1-.5 2.6-1.5 3.8-1.4 1 .1 2.1.9 2.9 1.5.5.3.9 1 1.2 1.5 1.1 1.9 0 4 0 4-.7.9-2 2-3.1 2.2-1.1.2-2.5-.4-3.6-.8-.4-.1-.8-.5-1.1-.9-.5-.7-1.1-1.8-1.2-2.6 0-.9.2-2.1.6-2.9"/><path class="st66" d="M21 35.8c.8-.9 2.6-1.6 3.8-1.5.7 0 1.5.6 2.1 1 .7.7 1.6 1.7 2 2.6.2.4-.9 2.9-.9 2.9-.5.7-1.5 1.5-2.3 1.7-1.1.2-2.6-.6-3.6-.9-.1 0-.3-.2-.4-.3-.5-.7-1.2-1.8-1.3-2.6-.2-.8.2-2.1.6-2.9"/><path class="st67" d="M21.2 37c1-1.9 3.6-2.3 3.6-2.3.4 0 1 .3 1.3.6.7.7 2 1.7 2.1 2.7.1.9-.6 2-1.1 2.8-.3.5-1 1-1.5 1.1-.9.2-2.2-.5-3-.8-.3-.1-.5-.4-.7-.6-.8-.7-1.2-2.5-.7-3.5"/><path class="st68" d="M21.4 38.3c.5-1 1.8-2 2.6-2.8.2-.2.6-.3.8-.3.7 0 2.6 2.9 2.6 2.9.1.9-.7 2-1.1 2.8-.1.3-.5.5-.8.6-.5.1-1.2-.1-1.5-.4-.8-.6-1.8-1.4-2.5-2.1-.1-.1-.2-.5-.1-.7"/><path class="st69" d="M24.9 36c.9 0 1.7 1.4 1.8 2.2L25.5 41c-.9-.7-2.9-1.3-3-2.5-.2-1.1 1.3-2.6 2.4-2.5"/><path class="st70" d="M25 37.1c.4 0 .9.7.9 1.1.1.5-.2 1.4-.7 1.5-.6.1-1.6-.7-1.6-1.4.1-.5.8-1.2 1.4-1.2"/><path class="st71" d="M25.1 38.2c.1 0 .1 0 0 0 .1.1.1.2 0 .2s-.1-.1-.1-.1c0-.1.1-.1.1-.1"/></g></g><g class="st0"><defs><path id="SVGID_21_" class="st0" d="M16.6 59.3c-1.1-.6-2.3-1.3-4.4-3-1.1-.8-2.3-2.1-3.3-3.1-.6-.6-1.4-1.6-1.9-2.3-1.8-2.6-1.8-2.6-2.7-4.3-1.9-3.7-2.7-7.3-2.7-7.3-.3-1.5-.6-3.4-.7-4.9-.1-1.4-.1-3.2 0-4.6.1-.9.2-2 .4-2.8.2-.7.3-1.7.5-2.4.2-.8.5-1.8.8-2.6 1.1-2.7 1.2-3 2.1-4.6C6 15 7.4 13.2 7.4 13.2c.9-1.1 2.1-2.4 3.1-3.4.2-.2 2-1.9 3.8-3.1 1.5-1 4.5-3 9.3-4.3 4-1.1 8-1.4 12.1-.9 5.9.7 9.9 2.9 11.5 3.8-4.4-2.5-9.6-3.6-15.2-2.8 5.6-.8 10.8.3 15.2 2.8 1.1.7 2.5 1.5 3.5 2.3.9.7 2.4 1.9 3.9 3.5 1 1.1 1.9 2.1 3.2 4.1 1.2 1.7 1.5 2.5 2.5 4.5 1 2.1 2 5.6 2.3 7.5.1.7.3 1.7.3 2.5.1.8.1 1.9.1 2.8 0 1.5-.2 3.5-.4 5-.4 2.8-1.6 6.1-2.3 7.7-1.2 2.4-1.4 2.8-2.4 4.4-.7 1-1.7 2.5-3.1 3.9-1.3 1.4-2.3 2.3-3.7 3.4-1.7 1.3-2.6 1.8-4.1 2.7-1.2.7-3.2 1.5-3.5 1.7-.9.4-2.4.9-4.5 1.4-11 2.3-19.3-1.6-22.4-3.4z"/></defs><clipPath id="SVGID_22_"><use xlink:href="#SVGID_21_" overflow="visible"/></clipPath><g class="st80"><path class="st2" d="M16.6 59.3C2.4 51 .1 36.4.9 29.7c.3-2.5 1.2-10.2 6.5-16.5C9.3 11 14.2 5.1 23.5 2.5 29 .9 37.6.2 47.1 5.4c-4.4-2.5-9.6-3.6-15.2-2.8 5.6-.8 10.8.3 15.2 2.8 26.3 16.2 17.1 51.3-8.4 57.2-10.7 2.4-19-1.5-22.1-3.3"/><path class="st2" d="M34.3 2.3c.3 0 .7.1 1.1.1-2.9.7-6 .4-8.9 1.2-.9.3-3.2 1.6-4.5 2.5-4.1 3.3-6.6 7.5-7.7 12.9-2.1 11.2 4.9 22.6 12.6 27.7 18.9 12.4 39.5-.5 34.9-21.9-1.6-8-8.4-17.8-19.5-21.5 1.7.5 3.3 1.2 4.8 2.1.5.3 1.2.8 1.8 1.1 2.2 1.5 2.5 1.7 4 3.1l1.6 1.6c.6.6 1.3 1.5 1.8 2.2l1.4 1.9c.4.7 1 1.6 1.4 2.3l1.1 2.1c.3.7.7 1.7 1 2.5l.7 2.3c.2.8.4 1.8.6 2.6l.3 2.5c0 .8.1 1.9.1 2.8l-.1 2.5c-.1.9-.2 2.1-.4 3l-.5 2.4c-.2.8-.5 1.8-.8 2.5l-.9 2.2c-.4.7-.8 1.7-1.2 2.4l-1.2 2c-.5.7-1.1 1.6-1.6 2.2l-1.5 1.7-2 2-1.6 1.4c-.8.6-1.8 1.3-2.6 1.8l-1.6.9c-2 1.1-2.2 1.1-3.5 1.7l-1.1.4c-1.6.5-3.2 1-6.2 1.5l-.8.1c-.2 0-.6.1-.8.1l-.7.1h-4.2c-.2 0-.5 0-.7-.1l-.8-.1c-.2 0-.5-.1-.8-.1l-.9-.1c-.3-.1-.6-.1-.9-.2l-1-.2c-.3-.1-.8-.2-1.1-.3l-1.3-.4c-.5-.2-1.1-.4-1.6-.6l-1.5-.7c-.7-.4-1.7-.8-2.4-1.2l-1.8-1.1c-.8-.6-1.9-1.3-2.7-2l-1.7-1.5c-.6-.6-1.4-1.4-2-2.1L7 50.8c-.5-.7-1.1-1.6-1.5-2.3l-1.2-2.1c-.3-.7-.8-1.7-1.1-2.4l-.8-2.3c-.3-.7-.6-1.7-.8-2.5l-.5-2.4C1 35.4.8 33.6.8 32.3l.1-2.5c.1-.9.2-2 .4-2.8l.5-2.4c.2-.8.5-1.8.8-2.6l.9-2.2c.4-.7.8-1.7 1.2-2.4l1.2-2c.5-.7 1.1-1.6 1.6-2.2L9 11.5l2-2 1.6-1.4c.8-.6 1.8-1.3 2.5-1.8l1.6-1c2.1-1.1 2.2-1.1 3.4-1.7l1.1-.4c2-.7 3.5-1.2 6.5-1.6l.8-.1c.2 0 .5-.1.8-.1h4.9c.2 0 .5 0 .7.1l.8.1c.2 0 .5.1.8.1l.9.1c.3.1.6.1.9.2l1 .2c.3.1.8.2 1.1.3l1.3.4c.3.1 1 .4 1.4.5l1.6.7c.7.4 1.7.8 2.4 1.2-1.5-.9-3.1-1.6-4.8-2.1 0 0-.1 0-.2-.1-2.5-.6-10.4-.9-7.8-.8-.8 0-1.6.1-2.4.2.8-.1 1.6-.2 2.4-.2"/><path class="st3" d="M47.1 5.3c.5.3 1.1.7 1.6.9-.6-.3-1.3-.8-1.9-1.1-.1 0-.2-.1-.2-.1.2.1.3.2.5.3"/><path class="st3" d="M34 2.3c.2 0 .4.1.5.1-.1.2-.1.2-6.7.7-5.5.4-18.1 9.3-14.1 27 2.9 12.8 17.2 25 32.1 22.2 13.7-2.5 20.5-16.8 15-31.2.4 1 .8 2.4 1.1 3.4.2.8.4 1.8.6 2.6l.3 2.5c0 .8.1 1.9.1 2.8l-.1 2.5c-.1.9-.2 2.1-.4 3l-.5 2.4c-.2.8-.5 1.8-.8 2.5l-.9 2.2c-.4.7-.8 1.7-1.2 2.4l-1.2 2c-.5.7-1.1 1.6-1.6 2.2l-1.5 1.7-2 2-1.6 1.4c-.8.6-1.8 1.3-2.6 1.8l-1.6.9c-2 1.1-2.2 1.1-3.5 1.7l-1.1.4c-1.6.5-3.2 1-6.2 1.5l-.8.1c-.2 0-.6.1-.8.1l-.7.1h-4.2c-.2 0-.5 0-.7-.1l-.8-.1c-.2 0-.5-.1-.8-.1l-.9-.1c-.3-.1-.6-.1-.9-.2l-1-.2c-.3-.1-.8-.2-1.1-.3l-1.3-.4c-.5-.2-1.1-.4-1.6-.6l-1.5-.7c-.7-.4-1.7-.8-2.4-1.2l-1.8-1.1c-.8-.6-1.9-1.3-2.7-2l-1.7-1.5c-.6-.6-1.4-1.4-2-2.1L7 50.8c-.5-.7-1.1-1.6-1.5-2.3l-1.2-2.1c-.3-.7-.8-1.7-1.1-2.4l-.8-2.3c-.3-.7-.6-1.7-.8-2.5l-.5-2.4C1 35.4.8 33.6.8 32.3l.1-2.5c.1-.9.2-2 .4-2.8l.5-2.4c.2-.8.5-1.8.8-2.6l.9-2.2c.4-.7.8-1.7 1.2-2.4l1.2-2c.5-.7 1.1-1.6 1.6-2.2L9 11.5l2-2 1.6-1.4c.8-.6 1.8-1.3 2.5-1.8l1.6-1c2.1-1.1 2.2-1.1 3.4-1.7l1.1-.4c2-.7 3.5-1.2 6.5-1.6l.8-.1c.2 0 .5-.1.8-.1h4.9c.2 0 .5 0 .7.1l.8.1c.2 0 .5.1.8.1l.9.1c.3.1.6.1.9.2l1 .2c.3.1.8.2 1.1.3l1.3.4c.3.1 1 .4 1.4.5l1.6.7c.7.4 1.7.8 2.4 1.2-.2-.1-.4-.2-.5-.3-.6-.3-1.3-.6-1.9-.9-2.8-1.2-4.9-1.7-6.1-1.9l-4.6.1c-.7 0-1.4.1-2.1.2.7-.1 1.4-.1 2.1-.2"/><path class="st4" d="M33.6 2.3c.1 0 .3 0 .4.1-.8 1-4.2.6-4.6.4C23.8.5 9.3 11.3 11.8 27.1c3 19.1 19.4 27.1 30.2 26.7 12.1-.4 23.1-10.5 20.4-26.8l.3 2.6c0 .8.1 1.9.1 2.8l-.1 2.5c-.1.9-.2 2.1-.4 3l-.5 2.4c-.2.8-.5 1.8-.8 2.5l-.9 2.2c-.4.7-.8 1.7-1.2 2.4l-1.2 2c-.5.7-1.1 1.6-1.6 2.2l-1.5 1.7-2 2-1.6 1.4c-.8.6-1.8 1.3-2.6 1.8l-1.6.9c-2 1.1-2.2 1.1-3.5 1.7l-1.1.4c-1.6.5-3.2 1-6.2 1.5l-.8.1c-.2 0-.6.1-.8.1l-.7.1h-4.2c-.2 0-.5 0-.7-.1l-.8-.1c-.2 0-.5-.1-.8-.1l-.9-.1c-.3-.1-.6-.1-.9-.2l-1-.2c-.3-.1-.8-.2-1.1-.3l-1.3-.4c-.5-.2-1.1-.4-1.6-.6l-1.4-.7c-.7-.4-1.7-.8-2.4-1.2l-1.8-1.1c-.8-.6-1.9-1.3-2.7-2l-1.7-1.5c-.6-.6-1.4-1.4-2-2.1L7 50.8c-.5-.7-1.1-1.6-1.5-2.3l-1.2-2.1c-.3-.7-.8-1.7-1.1-2.4l-.8-2.3c-.3-.7-.6-1.7-.8-2.5l-.5-2.4C1 35.4.8 33.6.8 32.3l.1-2.5c.1-.9.2-2 .4-2.8l.5-2.4c.2-.8.5-1.8.8-2.6l.9-2.2c.4-.7.8-1.7 1.2-2.4l1.2-2c.5-.7 1.1-1.6 1.6-2.2L9 11.5l2-2 1.6-1.4c.8-.6 1.8-1.3 2.5-1.8l1.6-1c2.1-1.1 2.2-1.1 3.4-1.7l1.1-.4c2-.7 3.5-1.2 6.5-1.6l.8-.1c.2 0 .5-.1.8-.1h4.9c.2 0 .5 0 .7.1l.8.1c.2 0 .5.1.8.1l.9.1c.3.1.6.1.9.2l1 .2c.3.1.8.2 1.1.3l1.3.4.7.3-1.6-.5c-.9-.3-5.7-1.5-7.6-.7.2.1.5.2.8.3-.2-.1-.5 0-.4 0-.6 0-1.1.1-1.7.2.6-.1 1.2-.1 1.7-.2"/><path class="st5" d="M62.9 32.4c0 1.6-.1 3-.5 5.6l-.5 2.4c-.2.8-.5 1.8-.8 2.5l-.9 2.2c-.4.7-.8 1.7-1.2 2.4l-1.2 2c-.5.7-1.1 1.6-1.6 2.2l-1.5 1.7-2 2-1.6 1.4c-.8.6-1.8 1.3-2.6 1.8l-1.6.9c-2 1.1-2.2 1.1-3.5 1.7l-1.1.4c-1.6.5-3.2 1-6.2 1.5l-.8.1c-.2 0-.6.1-.8.1l-.7.1h-4.2c-.2 0-.5 0-.7-.1l-.8-.1c-.2 0-.5-.1-.8-.1l-.9-.1c-.3-.1-.6-.1-.9-.2l-1-.2c-.3-.1-.8-.2-1.1-.3l-1.3-.4c-.5-.2-1.1-.4-1.6-.6l-1.5-.8c-.7-.4-1.7-.8-2.4-1.2l-1.8-1.1c-.8-.6-1.9-1.3-2.7-2l-1.7-1.5c-.6-.6-1.4-1.4-2-2.1L7 50.8c-.5-.7-1.1-1.6-1.5-2.3l-1.2-2.1c-.3-.7-.8-1.7-1.1-2.4l-.8-2.3c-.3-.7-.6-1.7-.8-2.5l-.5-2.4C1 35.4.8 33.6.8 32.3l.1-2.5c.1-.9.2-2 .4-2.8l.5-2.4c.2-.8.5-1.8.8-2.6l.9-2.2c.4-.7.8-1.7 1.2-2.4l1.2-2c.5-.7 1.1-1.6 1.6-2.2L9 11.5l2-2 1.6-1.4c.8-.6 1.8-1.3 2.5-1.8l1.6-1c2.1-1.1 2.2-1.1 3.4-1.7l1.1-.4c2-.7 3.5-1.2 6.5-1.6l.8-.1c.2 0 .5-.1.8-.1h4.9c.2 0 .5 0 .7.1l.8.1c.2 0 .5.1.8.1l.9.1h.2-.2C12.7-2.1 3.1 24.9 16.9 42.7c14.8 19 43 14.8 45.7-6.7.3-2 .3-3 .3-3.8v.2"/><path class="st6" d="M62.4 37.9c-.2 1-.5 2.6-1.3 4.9l-.9 2.2c-.4.7-.8 1.7-1.2 2.4l-1.2 2c-.5.7-1.1 1.6-1.6 2.2l-1.5 1.7-2 2-1.6 1.4c-.8.6-1.8 1.3-2.6 1.8l-1.6.9c-2 1.1-2.2 1.1-3.5 1.7l-1.1.4c-1.6.5-3.2 1-6.2 1.5l-.8.1c-.2 0-.6.1-.8.1l-.7.1h-4.2c-.2 0-.5 0-.7-.1l-.8-.1c-.2 0-.5-.1-.8-.1l-.9-.1c-.3-.1-.6-.1-.9-.2l-1-.2c-.3-.1-.8-.2-1.1-.3l-1.3-.4c-.5-.2-1.1-.4-1.6-.6l-1.5-.7c-.7-.4-1.7-.8-2.4-1.2l-1.8-1.1c-.8-.6-1.9-1.3-2.7-2l-1.7-1.5c-.6-.6-1.4-1.4-2-2.1L7 50.8c-.5-.7-1.1-1.6-1.5-2.3l-1.2-2.1c-.3-.7-.8-1.7-1.1-2.4l-.8-2.3c-.3-.7-.6-1.7-.8-2.5l-.5-2.4C1 35.4.8 33.6.8 32.3l.1-2.5c.1-.9.2-2 .4-2.8l.5-2.4c.2-.8.5-1.8.8-2.6l.9-2.2c.4-.7.8-1.7 1.2-2.4l1.2-2c.5-.7 1.1-1.6 1.6-2.2L9 11.5l2-2 1.6-1.4c.8-.6 1.8-1.3 2.5-1.8l1.6-1c2.1-1.1 2.2-1.1 3.4-1.7l1.1-.4c2-.7 3.5-1.2 6.5-1.6l.8-.1c.2 0 .5-.1.8-.1h3.4-.5C9 1.4 1 29.2 18.9 47.1c14.6 14.6 39.3 12.1 43.6-10.3 0 .3-.1.8-.1 1.1"/><path class="st7" d="M61 42.9c-.3.9-.9 2.4-2.1 4.6l-1.2 2c-.5.7-1.1 1.6-1.6 2.2l-1.5 1.7-2 2-1.6 1.4c-.8.6-1.8 1.3-2.6 1.8l-1.6.9c-2 1.1-2.2 1.1-3.5 1.7l-1.1.4c-1.6.5-3.2 1-6.2 1.5l-.8.1c-.2 0-.6.1-.8.1l-.7.1h-4.2c-.2 0-.5 0-.7-.1l-.8-.1c-.2 0-.5-.1-.8-.1l-.9-.1c-.3-.1-.6-.1-.9-.2l-1-.2c-.3-.1-.8-.2-1.1-.3l-1.3-.4c-.5-.2-1.1-.4-1.6-.6l-1.4-.8c-.7-.4-1.7-.8-2.4-1.2l-1.8-1.1c-.8-.6-1.9-1.3-2.7-2l-1.7-1.5c-.6-.6-1.4-1.4-2-2.1L7 50.8c-.5-.7-1.1-1.6-1.5-2.3l-1.2-2.1c-.3-.7-.8-1.7-1.1-2.4l-.8-2.3c-.3-.7-.6-1.7-.8-2.5l-.5-2.4C1 35.4.8 33.6.8 32.3l.1-2.5c.1-.9.2-2 .4-2.8l.5-2.4c.2-.8.5-1.8.8-2.6l.9-2.2c.4-.7.8-1.7 1.2-2.4l1.2-2c.5-.7 1.1-1.6 1.6-2.2L9 11.5l2-2 1.6-1.4c.8-.6 1.8-1.3 2.5-1.8l1.6-1c2.1-1.1 2.2-1.1 3.4-1.7l1.1-.4c1.7-.6 3.2-1.1 6.3-1.6l-.5.1C3.4 5.8.5 36.8 22.4 51.9c15.3 10.6 33.9 5.6 39.1-10.4-.2.5-.3 1-.5 1.4"/><path class="st8" d="M58.9 47.5c-.6 1.1-1.3 2.3-2.8 4.2l-1.5 1.7-2 2-1.6 1.4c-.8.6-1.8 1.3-2.6 1.8l-1.6.9c-2 1.1-2.2 1.1-3.5 1.7l-1.1.4c-1.6.5-3.2 1-6.2 1.5l-.8.1c-.2 0-.6.1-.8.1l-.7.1h-4.2c-.2 0-.5 0-.7-.1l-.8-.1c-.2 0-.5-.1-.8-.1l-.9-.1c-.3-.1-.6-.1-.9-.2l-1-.2c-.3-.1-.8-.2-1.1-.3l-1.3-.4c-.5-.2-1.1-.4-1.6-.6l-1.4-.8c-.7-.4-1.7-.8-2.4-1.2l-1.8-1.1c-.8-.6-1.9-1.3-2.7-2l-1.7-1.5c-.6-.6-1.4-1.4-2-2.1L7 50.8c-.5-.7-1.1-1.6-1.5-2.3l-1.2-2.1c-.3-.7-.8-1.7-1.1-2.4l-.8-2.3c-.3-.7-.6-1.7-.8-2.5l-.5-2.4C1 35.4.8 33.6.8 32.3l.1-2.5c.1-.9.2-2 .4-2.8l.5-2.4c.2-.8.5-1.8.8-2.6l.9-2.2c.4-.7.8-1.7 1.2-2.4l1.2-2c.5-.7 1.1-1.6 1.6-2.2L9 11.5l2-2 1.6-1.4c.8-.6 1.8-1.3 2.5-1.8l1.6-1c2.1-1.1 2.2-1.1 3.4-1.7l1.1-.4c.5-.2 1.1-.4 1.6-.5C-.4 10 .4 42.9 24.2 55.2c16.2 8.4 29.5 1.6 35-8.3l-.3.6"/><path class="st9" d="M40 2.9C63.5 8.2 69 38 53 47.6c-17.8 10.8-42.1-9.1-37.1-30.3.4-1.9 2.4-8.3 9-12.2 3-1.8 12-2.9 15.1-2.2"/><path class="st10" d="M45.6 4.9c19.5 9.2 22.3 36.2 4.5 43.2C31.4 55.4 10 33.2 17.8 14.6c3.3-7.8 9.4-10.1 10.1-10.3l9.6-1.4c2.2 0 5.8 1 8.1 2"/><path class="st11" d="M48.2 6.5C67 18 66 44.3 46.8 48 26.5 51.9 9.3 26.7 21.2 10.5c6.2-8.4 19-8.8 27-4"/><path class="st12" d="M50.6 8.4c16.9 13 12.2 35.4-3.7 38.5C29.3 50.4 10.6 28.4 22 11 26.9 3.4 39.9.5 50.6 8.4"/><path class="st13" d="M52.8 10.6c15.3 14.7 6.9 35.7-9.6 35.7-19.4 0-31.4-24.3-18.4-37.1 8.2-8.2 20.6-5.7 28 1.4"/><path class="st14" d="M52.7 10.9c13.9 13 8.1 34.1-9.4 34.2-18.8.1-30-23-17.3-35.9 6.6-6.7 18.6-5.9 26.7 1.7"/><path class="st15" d="M54.5 13.3c11.4 13.9 3.4 32.2-13.4 30.6C21.7 42 15.7 18.2 28.2 8.6c8.5-6.6 20.3-2.7 26.3 4.7"/><path class="st16" d="M54.2 13.6c11.3 13.9 2 32.2-14.9 29.1-18.2-3.3-21.8-25.6-9.5-34.3 7.2-4.9 18.1-2.6 24.4 5.2"/><path class="st17" d="M55.6 16.3c8.9 14.7-2.4 28.2-16.2 25.6C21 38.4 19.5 17.2 30 9.6c9.7-7.1 21.1-.7 25.6 6.7"/><path class="st18" d="M55.1 16.6c8.3 13.9-2.7 26.7-15.8 24.3-17-3.1-19.5-22.3-7.9-31.2 6.2-4.6 18.1-2.6 23.7 6.9"/><path class="st19" d="M54.6 17c8.2 14.1-4 26.3-17.6 22.6-15.2-4.2-15.4-23.1-3.6-29.9 6.8-3.8 16.7-.4 21.2 7.3"/><path class="st20" d="M55.3 19.9c5 13.4-8.7 23.4-20.1 18.4-13.6-5.9-11.5-23.6.2-28.3 7.3-3 16.8 1.7 19.9 9.9"/><path class="st21" d="M54.5 20.3c4.2 12-7.6 22.6-19.4 17.4-12.8-5.6-10.6-22 .5-26.7 8.5-3.5 16.8 3 18.9 9.3"/><path class="st22" d="M53.7 20.6c4 11.9-8.6 20.9-18.5 16.5-12.1-5.3-9.8-21 .8-25.1 7.7-3 15.5 2.1 17.7 8.6"/><path class="st23" d="M52.7 21c3.8 11.3-8.2 19.7-17.6 15.6-10.4-4.6-9.7-19.4 1.1-23.7 5.8-2.3 14.1.7 16.5 8.1"/><path class="st24" d="M52.4 24.1c.6 8.4-5.3 11.2-7.2 12-6.7 3.1-11.7-1.2-13.3-2.6-7.7-6.6-3.5-18.9 7-20.3 7.2-.8 13.1 5 13.5 10.9"/><path class="st25" d="M51.5 24.3c.8 6.1-4.2 10-4.3 10.1-3.2 2.1-3.3 2.1-7.9 2.3 0 0-3.7-.8-4.8-1.6-11.7-8.5-4.1-18.7 2.1-20.6 6.1-1.9 13.9 2 14.9 9.8"/><path class="st26" d="M50.8 24.5c.9 8.1-8.6 16-17.6 9-9.2-7.2-2.2-18.7 6.2-18.6 3.6 0 10.6 2.8 11.4 9.6"/><path class="st26" d="M50 24.7c.2 2.2 0 7.7-6.7 10.6-1.9.8-7.1 1.1-11.1-3-5.6-5.9-2.1-16.8 7.5-16.6 5.9.1 10 5.3 10.3 9"/><path class="st5" d="M33.3 2.4h.3c.2.2-1.3.7-3 .5-.9-.1-1.3-.4-1-.6.5-.5 3.3-.6 3.9 0 0 0-.3.1-.2.1-.5 0-.9.1-1.4.1.5 0 .9-.1 1.4-.1"/><path class="st26" d="M49.3 24.9c1 10.6-11.1 13-16.5 7.3-6.6-6.9-.9-16.7 7.1-16 6.5.6 9.1 6.1 9.4 8.7"/><path class="st26" d="M48.7 25c.8 5.3-2.5 7.4-5.4 9.2-.4.3-4.1 1.5-8.2-.7-.6-.3-5.5-3.1-4.7-9.8.2-1.6 2.5-5.9 6.7-6.9 3.6-.7 10.6 1.8 11.6 8.2"/><path class="st26" d="M48.2 28s-1.2 2.7-1.6 3.2c-.8 1-2.3 1.9-3.4 2.6-1 .7-2.8.6-4 .7-1.3.1-3.1-.6-4.1-1.3-2-1.4-3.4-3.7-3.4-3.7-2.8-5.4 1.5-13 8.6-12 4.9.6 9 6 7.9 10.5"/><path class="st6" d="M32.9 2.4h.2c.2.2-.8.6-2.1.4-.7-.1-1-.3-.8-.5.4-.4 2.5-.4 3 0-.1.1-.3.1-.3.1-.3 0-.7.1-1 .1.3 0 .7-.1 1-.1"/><path class="st26" d="M47.6 28.1c-1.4 5.4-6.5 5.8-8.4 6-1.3.1-3-.7-4.1-1.4-1.2-.8-3-3.3-3-3.3-2.6-4.8.8-12.6 8.3-11.4.3 0 3.6 1.6 3.6 1.6.7.5 1.3.9 2.8 3 1.5 1.9.8 5.5.8 5.5"/><path class="st26" d="M47.1 28.2c-.7 2.5-2.8 3.9-3.9 4.7-1 .7-2.8.7-4 .8-1.3.1-3-.8-4.1-1.5-1-.6-2-1.8-2.5-2.8-.7-1.3-2.1-4.6.6-8.2 2.3-3.1 6.2-2.9 7.5-2.6 1.2.3 2.6 1.1 3.6 1.8.2.2 2.1 2.4 2.1 2.4 1.5 2.3.7 5.3.7 5.4"/><path class="st26" d="M46.5 28.3s-.8 2.4-3.4 4.1c-1 .7-2.8.7-4 .8 0 0-3.1-.9-4.1-1.6-.8-.5-1.6-1.5-2.1-2.3-2.4-4.1-.1-7.2.7-8.2.9-1.2 2.6-1.9 3.9-2.3.9-.3 2.3-.1 3.2.1.1.1 7.8 2.6 5.8 9.4"/><path class="st7" d="M32.6 2.4h.2c.1.1-.6.4-1.5.2-.5-.1-.7-.2-.5-.3.3-.2 1.7-.3 2 0-.1.1-.2.1-.2.1-.2 0-.5.1-.7.1.2 0 .5 0 .7-.1"/><path class="st26" d="M46.1 26.9c0 .4.1 1.1-.2 1.5-.6 1.1-1.4 2.4-2.3 3.2-.5.5-.7.6-4.5 1.3 0 0-4-.6-5.7-3.5-2.4-4-.1-7 .8-8.2.6-.8 3.4-1.8 3.4-1.8 1-.2 2.3 0 3.3.2 2.2.6 4.3 3.3 4.4 3.3 1 1.5.9 2.8.8 4"/><path class="st26" d="M45.4 28.5c-.4 1-1.4 2.4-2.4 3-.2.1-3.6 1-3.9 1 0 0-3.9-.9-5.3-3.1-2.4-3.9-.1-7 .7-8 .1-.1 2.9-1.6 3.1-1.6 1-.2 2.4 0 3.3.3 2.1.5 6.2 4.3 4.5 8.4"/><path class="st26" d="M44.9 28.5c-.4.9-1.1 2-1.9 2.4-.2.1-3.5 1.1-3.9 1.1-.2 0-4.1-1.9-4.1-2-.3-.2-.6-.5-.7-.8-1.1-1.8-1.9-4.5.3-7.4.2-.3 2.7-1.7 3.1-1.8 1-.2 2.4.1 3.4.4.3.1 3.1 2.4 3.1 2.4.4.8 1 1.8 1.1 2.6.1 1.1-.1 2.3-.4 3.1"/><path class="st26" d="M44.3 28.6c-.3.6-.8 1.5-1.5 1.8-1.1.6-2.7 1.5-3.8 1.2-1.3-.3-3.1-1.1-4.1-2-.7-.6-1.4-3.1-1.4-3.1s0-3.2 1-3.9c.8-.6 2.8-1.9 3.2-2 1-.2 2.5.1 3.5.5.8.4 1.8 1.2 2.4 1.9.5.7.8 1.8 1.1 2.6.4.9 0 2.2-.4 3"/><path class="st8" d="M32.2 2.5c.1 0 .1 0 0 0 .1.1-.2.2-.7.1-.2 0-.4-.1-.3-.2.3-.1 1-.1 1 .1.1 0 0 0 0 0h-.3.3"/><path class="st26" d="M43.8 28.7c-.2.4-.6 1-1 1.2-1.1.6-2.6 1.6-3.8 1.3-1.2-.3-2.8-1-3.7-1.9-.6-.6-1.3-2.8-1.3-2.8s0-2.3.7-3.3 2.1-2 3.2-2.2c1.1-.2 2.5.3 3.5.7.6.2 1.3.9 1.7 1.4.5.7 1.1 1.8 1.2 2.6.1.9-.1 2.2-.5 3"/><path class="st26" d="M43.3 28.7c-.1.2-.3.5-.5.6-1.1.5-2.6 1.5-3.8 1.4-1-.1-2.1-.9-2.9-1.5-.5-.3-.9-1-1.2-1.5-1.1-1.9 0-4 0-4 .7-.9 2-2 3.1-2.2 1.1-.2 2.5.4 3.6.8.4.1.8.5 1.1.9.5.7 1.1 1.8 1.2 2.6 0 .9-.3 2.1-.6 2.9"/><path class="st26" d="M42.7 28.8c-.8.9-2.6 1.6-3.8 1.5-.7 0-1.5-.6-2.1-1-.7-.7-1.6-1.7-2-2.6-.2-.4.9-2.9.9-2.9.5-.7 1.5-1.5 2.3-1.7 1.1-.2 2.6.6 3.6.9.1 0 .3.2.4.3.5.7 1.2 1.8 1.3 2.6.2.9-.2 2.1-.6 2.9"/><path class="st26" d="M42.5 27.6c-1 1.9-3.6 2.3-3.6 2.3-.4 0-1-.3-1.3-.6-.7-.7-2-1.7-2.1-2.7-.1-.9.6-2 1.1-2.8.3-.5 1-1 1.6-1.1.9-.2 2.2.5 3.1.8.3.1.5.4.7.6.6.7 1 2.5.5 3.5"/><path class="st26" d="M42.3 26.3c-.5 1-1.8 2-2.6 2.8-.2.2-.6.3-.8.3-.7 0-2.6-2.9-2.6-2.9-.1-.9.7-2 1.1-2.8.1-.3.5-.5.8-.6.5-.1 1.2.1 1.6.4 2.8 2.3 2.7 2.4 2.5 2.8"/><path class="st26" d="M38.8 28.7c-.9 0-1.7-1.4-1.8-2.2l1.2-2.8h.1c.9.7 2.9 1.3 3 2.5 0 1-1.4 2.5-2.5 2.5"/><path class="st26" d="M38.7 27.6c-.4 0-.9-.7-.9-1.1-.1-.5.2-1.4.7-1.5.6-.1 1.6.7 1.6 1.4-.1.4-.9 1.2-1.4 1.2"/><path class="st26" d="M38.6 26.5c-.1 0-.1-.1 0 0-.1-.1-.1-.2 0-.2s.1.1.1.1l-.1.1"/></g></g><g class="st0"><defs><path id="SVGID_23_" class="st0" d="M47.1 5.3c-4.4-2.5-9.6-3.6-15.2-2.8 5.6-.7 10.9.4 15.2 2.8.8.5 2 1.2 2.7 1.8 1.5 1.1 2.7 2 3.8 3.2 1.7 1.8 2.1 2.2 3.3 3.8 1.7 2.3 2.6 4.2 2.6 4.3.3.7.8 1.7 1.1 2.4.3.7.6 1.6.8 2.3.4 1.3.8 3 1 4.3.2 1.2.4 2.7.4 5.2 0 1.5-.2 3.5-.4 5 0 0-.3 2.2-1.3 5-.3.8-.7 1.8-1 2.5-.3.7-.7 1.5-1.1 2.1 0 0-1.6 3.1-4.7 6.4-1.6 1.7-2.8 2.6-4.1 3.6-1.2.9-2.3 1.6-3.5 2.3-.9.5-2.2 1.2-3.2 1.5-1.2.5-2.4.9-4.5 1.4-3.8.9-6.9.9-8.9.8-3.3-.1-6.5-.9-8.4-1.6-.9-.3-2.2-.8-3.7-1.5-1.6-.8-3-1.6-4-2.4-1-.8-2.2-1.6-3.7-3-1.6-1.6-2.8-3-3.3-3.7-.5-.7-1.5-2.1-2.7-4.2-.7-1.3-1.4-3.1-1.9-4.4C1.9 41 1 37.6.8 34.7c-.1-.9-.1-2.2-.1-3.1.2-2.1.3-3.6.7-5.1.5-2.3.7-3.1 1.4-5 1-2.6 2.1-4.5 2.2-4.7.7-1.2 1.8-2.7 2.6-3.9.5-.7 1.3-1.5 1.9-2.2l1.6-1.6c.7-.6 1.7-1.4 2.5-2 .2-.1 4.2-3.2 9.8-4.8 1.5-.4 6.1-1.7 12.1-.9 3 .4 5.2 1.1 6.2 1.4.6.2 1.5.5 2.1.8 1.1.6 2.4 1.2 3.3 1.7z"/></defs><clipPath id="SVGID_24_"><use xlink:href="#SVGID_23_" overflow="visible"/></clipPath><g class="st81"><path class="st28" d="M47.1 5.3C29.4-4 15.7 5.4 12 8.5 2.2 16.6-1.7 30.2 2.5 42.2c4.1 12 15.3 20.4 27.8 21 12.8.6 24.6-6.5 29.9-18.2 5.6-12.5 3-30.2-13.1-39.7-4.4-2.5-9.6-3.6-15.2-2.8 5.6-.7 10.9.4 15.2 2.8"/><path class="st28" d="M42.3 3.3c22.4 8.3 27.7 37.4 8.4 46.5-18.6 8.8-42.5-13.9-35.5-33.7 1.2-3.3 2.9-7.2 8.4-10.9 3.5-2.4 8-1.1 11.7-2.7-.3-.1-.6-.1-.9-.2-.8 0-1.6.1-2.4.2.8-.1 1.6-.2 2.4-.2.1 0 .1 0 .2-.1 1.7-.1 3.8-.2 7.7 1.1 1.7.5 3.3 1.2 4.8 2.1-.5-.3-1.1-.6-1.6-.8-.7-.3-1.7-.8-2.4-1.1L41.8 3c-.5-.1-1.1-.3-1.5-.5l-1.1-.3c-.3-.1-.8-.2-1.1-.3l-.9-.2c-.3 0-.6-.1-.9-.1l-.8-.1c-.2 0-.5-.1-.8-.1l-.7-.1h-4.2c-.2 0-.5 0-.7.1l-.8.1c-.2 0-.6.1-.8.1l-1 .2c-2.3.4-3.7.8-6.3 1.7l-1.6.7c-2 1-2.2 1.1-3.5 1.9l-1.7 1.2c-.8.6-1.8 1.4-2.5 2l-1.6 1.6c-.3.5-1.1 1.4-1.7 2.1l-1.4 1.9c-.4.7-1 1.6-1.4 2.3l-1.1 2.1c-.3.7-.7 1.7-1 2.5L2 24.1c-.2.8-.5 1.8-.6 2.6L1 29.2c-.1.9-.1 2.2-.2 3.1l.1 2.5c.1.8.2 1.9.3 2.7l.5 2.4c.2.8.5 1.8.8 2.6l.9 2.2c.3.7.8 1.7 1.2 2.4l1.2 2c.5.7 1.1 1.6 1.6 2.2l1.5 1.8 2 2 1.6 1.4c2.2 1.6 2.4 1.8 4.1 2.8l1.6.8c.7.3 1.7.8 2.4 1.1l1.3.5c.5.1 1.1.3 1.5.5l1.1.3c.3.1.8.2 1.1.3l.9.2c.3 0 .6.1.9.1l.8.1c.2 0 .5.1.8.1l.7.1h4.2c.2 0 .5 0 .7-.1l.8-.1c.2 0 .6-.1.8-.1l1-.2c2.9-.6 4.4-1 6.6-1.9l1.6-.7c2.1-1.1 2.2-1.1 3.4-1.9l1.7-1.2c.7-.6 1.7-1.4 2.4-2l1.6-1.6c.6-.6 1.3-1.5 1.9-2.2l1.4-1.9c.4-.7 1-1.6 1.4-2.3l1.1-2.1c.3-.7.7-1.7 1-2.5l.7-2.3c.2-.8.4-1.8.6-2.6l.3-2.5c0-.8.1-1.9.1-2.8l-.1-2.5c-.2-1.3-.4-3.1-.7-4.4l-.6-2.4c-.3-.8-.6-1.8-.9-2.5l-1-2.2c-.4-.7-.9-1.6-1.3-2.3l-1.3-1.9c-.5-.6-1.2-1.5-1.7-2.1l-1.6-1.7c-.6-.6-1.5-1.4-2.1-1.9L50 7.2c-.8-.5-1.9-1.3-2.7-1.8-1.7-.9-3.3-1.6-5-2.1"/><path class="st29" d="M31.9 2.5c.7-.1 1.4-.2 2.1-.2.1 0 .2 0 .2-.1C38.5.8 46.2 4.8 46.6 5c.2.1.4.2.5.3-.5-.3-1.1-.6-1.6-.8-.7-.3-1.7-.8-2.4-1.1L41.8 3c-.5-.1-1.1-.3-1.5-.5l-1.1-.3c-.3-.1-.8-.2-1.1-.3l-.9-.2c-.3 0-.6-.1-.9-.1l-.8-.1c-.2 0-.5-.1-.8-.1l-.7-.1h-4.2c-.2 0-.5 0-.7.1l-.8.1c-.2 0-.6.1-.8.1l-1 .2c-2.3.4-3.7.8-6.3 1.7l-1.6.7c-2 1-2.2 1.1-3.5 1.9l-1.7 1.2c-.8.6-1.8 1.4-2.5 2l-1.6 1.6c-.3.5-1.1 1.4-1.7 2.1l-1.4 1.9c-.4.7-1 1.6-1.4 2.3l-1.1 2.1c-.3.7-.7 1.7-1 2.5L2 24.1c-.2.8-.5 1.8-.6 2.6L1 29.2c-.1.9-.1 2.2-.2 3.1l.1 2.5c.1.8.2 1.9.3 2.7l.5 2.4c.2.8.5 1.8.8 2.6l.9 2.2c.3.7.8 1.7 1.2 2.4l1.2 2c.5.7 1.1 1.6 1.6 2.2l1.5 1.8 2 2 1.6 1.4c2.2 1.6 2.4 1.8 4.1 2.8l1.6.8c.7.3 1.7.8 2.4 1.1l1.3.5c.5.1 1.1.3 1.5.5l1.1.3c.3.1.8.2 1.1.3l.9.2c.3 0 .6.1.9.1l.8.1c.2 0 .5.1.8.1l.7.1h4.2c.2 0 .5 0 .7-.1l.8-.1c.2 0 .6-.1.8-.1l1-.2c2.9-.6 4.4-1 6.6-1.9l1.6-.7c2.1-1.1 2.2-1.1 3.4-1.9l1.7-1.2c.7-.6 1.7-1.4 2.4-2l1.6-1.6c.6-.6 1.3-1.5 1.9-2.2l1.4-1.9c.4-.7 1-1.6 1.4-2.3l1.1-2.1c.3-.7.7-1.7 1-2.5l.7-2.3c.2-.8.4-1.8.6-2.6l.3-2.5c0-.8.1-1.9.1-2.8l-.1-2.5c-.2-1.3-.4-3.1-.7-4.4l-.6-2.4-.7-1.9.8 2.2C67.4 45.2 47.9 60 28 48.9 6.1 36.7 10.6 7.2 26 3.2c2.8-.7 5.8 2 8.4-.8-.2 0-.4-.1-.5-.1-.6.1-1.3.1-2 .2"/><path class="st29" d="M46.6 5c.6.3 1.3.8 1.8 1.1-.4-.2-.9-.5-1.3-.8-.2-.1-.3-.2-.5-.3"/><path class="st30" d="M31.9 2.5c.6-.1 1.2-.1 1.7-.2.1 0 .1 0 .2-.1-.2-.2-.5-.3-.7-.4C35.6.7 42.2 3 42.3 3L41 2.7l-.7-.2-1.1-.3c-.3-.1-.8-.2-1.1-.3l-.9-.2c-.3 0-.6-.1-.9-.1l-.8-.1c-.2 0-.5-.1-.8-.1l-.7-.1h-4.2c-.2 0-.5 0-.7.1l-.8.1c-.2 0-.6.1-.8.1l-1 .2c-2.3.4-3.7.8-6.3 1.7l-1.6.7c-2 1-2.2 1.1-3.5 1.9l-1.7 1.2c-.8.6-1.8 1.4-2.5 2l-1.6 1.6c-.3.5-1.1 1.4-1.7 2.1l-1.4 1.9c-.4.7-1 1.6-1.4 2.3l-1.1 2.1c-.3.7-.7 1.7-1 2.5L2 24.1c-.2.8-.5 1.8-.6 2.6L1 29.2c-.1.9-.1 2.2-.2 3.1l.1 2.5c.1.8.2 1.9.3 2.7l.5 2.4c.2.8.5 1.8.8 2.6l.9 2.2c.3.7.8 1.7 1.2 2.4l1.2 2c.5.7 1.1 1.6 1.6 2.2l1.5 1.8 2 2 1.6 1.4c2.2 1.6 2.4 1.8 4.1 2.8l1.6.8c.7.3 1.7.8 2.4 1.1l1.3.5c.5.1 1.1.3 1.5.5l1.1.3c.3.1.8.2 1.1.3l.9.2c.3 0 .6.1.9.1l.8.1c.2 0 .5.1.8.1l.7.1h4.2c.2 0 .5 0 .7-.1l.8-.1c.2 0 .6-.1.8-.1l1-.2c2.9-.6 4.4-1 6.6-1.9l1.6-.7c2.1-1.1 2.2-1.1 3.4-1.9l1.7-1.2c.7-.6 1.7-1.4 2.4-2l1.6-1.6c.6-.6 1.3-1.5 1.9-2.2l1.4-1.9c.4-.7 1-1.6 1.4-2.3l1.1-2.1c.3-.7.7-1.7 1-2.5l.7-2.3c.2-.8.4-1.8.6-2.6l.3-2.5c0-.8.1-1.9.1-2.8l-.1-2.5c-.1-.8-.2-2-.4-2.8l.1.5C65.4 52.2 40.2 61 23 47 3.3 31 13.1 5.3 26.2 2.7c2.6-.5 5.3 2 7.9-.2-.1 0-.3-.1-.4-.1-.6 0-1.2 0-1.8.1"/><path class="st31" d="M62.9 32.4C61.6 58.7 33 60.3 19.1 45.2 2.4 27.2 11.3.6 33.6 1.4c.5 0 1.8.1 3.8.4l-.9-.1h-.2l-.8-.1c-.2 0-.5-.1-.8-.1l-.7-.1h-4.2c-.2 0-.5 0-.7.1l-.8.1c-.2 0-.6.1-.8.1l-1 .2c-2.3.4-3.7.8-6.3 1.7l-1.6.7c-2 1-2.2 1.1-3.5 1.9l-1.7 1.2c-.8.6-1.8 1.4-2.5 2L9.3 11c-.3.4-1.1 1.3-1.7 2l-1.4 1.9c-.4.7-1 1.6-1.4 2.3l-1.1 2.1c-.3.7-.7 1.7-1 2.5L2 24.1c-.2.8-.5 1.8-.6 2.6L1 29.2c-.1.9-.1 2.2-.2 3.1l.1 2.5c.1.8.2 1.9.3 2.7l.5 2.4c.2.8.5 1.8.8 2.6l.9 2.2c.3.7.8 1.7 1.2 2.4l1.2 2c.5.7 1.1 1.6 1.6 2.2l1.5 1.8 2 2 1.6 1.4c2.2 1.6 2.4 1.8 4.1 2.8l1.6.8c.7.3 1.7.8 2.4 1.1l1.3.5c.5.1 1.1.3 1.5.5l1.1.3c.3.1.8.2 1.1.3l.9.2c.3 0 .6.1.9.1l.8.1c.2 0 .5.1.8.1l.7.1h4.2c.2 0 .5 0 .7-.1l.8-.1c.2 0 .6-.1.8-.1l1-.2c2.9-.6 4.4-1 6.6-1.9l1.6-.7c2.1-1.1 2.2-1.1 3.4-1.9l1.7-1.2c.7-.6 1.7-1.4 2.4-2l1.6-1.6c.6-.6 1.3-1.5 1.9-2.2l1.4-1.9c.4-.7 1-1.6 1.4-2.3l1.1-2.1c.3-.7.7-1.7 1-2.5l.7-2.3c.2-.8.4-1.8.6-2.6l.3-2.5c-.1-.9 0-2 0-2.8"/><path class="st32" d="M62.2 38.8c-7.5 26.4-39.3 19.5-49.3.3C3.1 20.4 13.3 1 32.6 1.3H30c-.2 0-.5 0-.7.1l-.8.1c-.2 0-.6.1-.8.1l-1 .2c-2.3.4-3.7.8-6.3 1.7l-1.6.7c-2 1-2.2 1.1-3.5 1.9l-1.7 1.2c-.8.6-1.8 1.4-2.5 2l-1.6 1.6c-.5.5-1.3 1.4-1.9 2.1l-1.4 1.9c-.4.7-1 1.6-1.4 2.3l-1.1 2.1c-.3.7-.7 1.7-1 2.5L2 24.1c-.2.8-.5 1.8-.6 2.6L1 29.2c-.1.9-.1 2.2-.2 3.1l.1 2.5c.1.8.2 1.9.3 2.7l.5 2.4c.2.8.5 1.8.8 2.6l.9 2.2c.3.7.8 1.7 1.2 2.4l1.2 2c.5.7 1.1 1.6 1.6 2.2l1.5 1.8 2 2 1.6 1.4c2.2 1.6 2.4 1.8 4.1 2.8l1.6.8c.7.3 1.7.8 2.4 1.1l1.3.5c.5.1 1.1.3 1.5.5l1.1.3c.3.1.8.2 1.1.3l.9.2c.3 0 .6.1.9.1l.8.1c.2 0 .5.1.8.1l.7.1h4.2c.2 0 .5 0 .7-.1l.8-.1c.2 0 .6-.1.8-.1l1-.2c2.9-.6 4.4-1 6.6-1.9l1.6-.7c2.1-1.1 2.2-1.1 3.4-1.9l1.7-1.2c.7-.6 1.7-1.4 2.4-2l1.6-1.6c.6-.6 1.3-1.5 1.9-2.2l1.4-1.9c.4-.7 1-1.6 1.4-2.3l1.1-2.1c.3-.7.7-1.7 1-2.5l.7-2.3c.2-.8.4-1.8.6-2.6 0-.2.1-.6.1-.8-.3.5-.4 1.3-.5 1.9"/><path class="st33" d="M61.4 41.9c-9.1 24-40 18.5-50.6-3.3-8-16.5.2-34.5 16.8-37l-1 .2c-1.5.3-3.3.6-6.1 1.7l-1.6.7c-2 1-2.2 1.1-3.5 1.9l-1.7 1.2c-.8.6-1.8 1.4-2.5 2l-1.6 1.6c-.6.5-1.4 1.4-2 2.1l-1.4 1.9c-.4.7-1 1.6-1.4 2.3l-1.1 2.1c-.3.7-.7 1.7-1 2.5L2 24.1c-.2.8-.5 1.8-.6 2.6L1 29.2c-.1.9-.1 2.2-.2 3.1l.1 2.5c.1.8.2 1.9.3 2.7l.5 2.4c.2.8.5 1.8.8 2.6l.9 2.2c.3.7.8 1.7 1.2 2.4l1.2 2c.5.7 1.1 1.6 1.6 2.2l1.5 1.8 2 2 1.6 1.4c2.2 1.6 2.4 1.8 4.1 2.8l1.6.8c.7.3 1.7.8 2.4 1.1l1.3.5c.5.1 1.1.3 1.5.5l1.1.3c.3.1.8.2 1.1.3l.9.2c.3 0 .6.1.9.1l.8.1c.2 0 .5.1.8.1l.7.1h4.2c.2 0 .5 0 .7-.1l.8-.1c.2 0 .6-.1.8-.1l1-.2c2.9-.6 4.4-1 6.6-1.9l1.6-.7c2.1-1.1 2.2-1.1 3.4-1.9l1.7-1.2c.7-.6 1.7-1.4 2.4-2l1.6-1.6c.6-.6 1.3-1.5 1.9-2.2l1.4-1.9c.4-.7 1-1.6 1.4-2.3l1.1-2.1c.3-.7.7-1.7 1-2.5.1-.3.2-.7.3-1-.2.1-.2.2-.2.3"/><path class="st34" d="M57.9 49.1c-14.7 21-47 6.5-51.2-16.9-4-22.5 13.9-28.9 16-29.5l-1.1.4-1.1.4-1.6.7c-2 1-2.2 1.1-3.5 1.9l-1.7 1.2c-.8.6-1.8 1.4-2.5 2l-1.6 1.6c-.6.5-1.4 1.4-2 2.1l-1.4 1.9c-.4.7-1 1.6-1.4 2.3l-1.1 2.1c-.3.7-.7 1.7-1 2.5L2 24.1c-.2.8-.5 1.8-.6 2.6L1 29.2c-.1.9-.1 2.2-.2 3.1l.1 2.5c.1.8.2 1.9.3 2.7l.5 2.4c.2.8.5 1.8.8 2.6l.9 2.2c.3.7.8 1.7 1.2 2.4l1.2 2c.5.7 1.1 1.6 1.6 2.2l1.5 1.8 2 2 1.6 1.4c2.2 1.6 2.4 1.8 4.1 2.8l1.6.8c.7.3 1.7.8 2.4 1.1l1.3.5c.5.1 1.1.3 1.5.5l1.1.3c.3.1.8.2 1.1.3l.9.2c.3 0 .6.1.9.1l.8.1c.2 0 .5.1.8.1l.7.1h4.2c.2 0 .5 0 .7-.1l.8-.1c.2 0 .6-.1.8-.1l1-.2c2.9-.6 4.4-1 6.6-1.9l1.6-.7c2.1-1.1 2.2-1.1 3.4-1.9l1.7-1.2c.7-.6 1.7-1.4 2.4-2l1.6-1.6c.6-.6 1.3-1.5 1.9-2.2l1.4-1.9c.4-.7 1-1.6 1.4-2.3l-.8 1.4c-.3.1-.4.3-.5.5"/><path class="st35" d="M37.1 2.5c-11.6 2.1-11.6 2.1-14 3.7-3.4 2.3-6.4 7.3-7.2 10.5-4.1 17 9.3 27.3 10.9 28.5 18.2 13.2 37.8 0 35.3-18.1-2.7-19-21-25.3-25-24.6"/><path class="st36" d="M40.4 3.2c-4.9-1-12.4 1-12.5 1-3.8 1.6-7 4.5-9 8.1-4.2 7.3-3.3 17.2 2.1 25.1 12.2 17.8 37.7 14.9 40.7-4.6 2-12.9-8.1-27-21.3-29.6"/><path class="st37" d="M43.2 4.3C24.4-1.6 10.6 16.8 20.5 34.5c11.1 19.8 36 17.3 40.3.5 3.7-14-6.1-27.2-17.6-30.7"/><path class="st38" d="M47.1 6.2c-16.2-8.4-32.8 5-27.8 22.3C25.5 49.9 51 53.1 59 38c5.7-10.7.2-25.5-11.9-31.8"/><path class="st39" d="M48.3 7.2C32-2 15.6 10.7 20.5 28.7c5 18.7 31 23.9 38.6 7.8 5.1-10.9-1.4-24-10.8-29.3"/><path class="st40" d="M50.2 8.8C35.3-1.3 18.6 8.5 20.9 25.9c2.3 17.8 25.9 26.2 36 12.8 7.2-9.6 2.4-23.7-6.7-29.9"/><path class="st41" d="M50.4 9.5c-15.3-11-31.1 1-28.5 16.6 3.1 18.5 27.2 23.5 35 11.2 6.3-9.8 1.5-22.1-6.5-27.8"/><path class="st42" d="M50.2 9.8C34.4-1.4 20.3 12.5 22.8 26.1c3.5 18.4 26.2 22.3 34 9.6 5.1-8 2.1-19.4-6.6-25.9"/><path class="st43" d="M52 12C38.2-.5 23.3 10.2 23.5 23.4c.4 18.1 21.8 23.2 30.7 14.2C61.6 30.2 59 18.3 52 12"/><path class="st44" d="M51.6 12.3c-13-11.8-28.9-.9-27.1 14 1.7 14.5 22.3 20.4 30.6 8.9 5.5-7.8 2.3-17.6-3.5-22.9"/><path class="st45" d="M51.1 12.7c-13.2-11.6-27.7 1-25.9 13.6 1.9 13.6 20.8 19.1 28.9 8.5 6.1-8.1 1.9-17.8-3-22.1"/><path class="st46" d="M52.4 15.1c-10.7-12.5-26-3.4-26.7 8.5-.9 13.8 16.9 20.5 25.6 12.5 8.5-7.7 4.4-17.1 1.1-21"/><path class="st47" d="M51.7 15.5c-10-11.4-24.5-2.8-25.4 8.2-.9 11.8 14.1 21 24.5 11.6 7.1-6.4 4.8-15.4.9-19.8"/><path class="st48" d="M50.8 15.8C41.6 5.5 27.9 13.6 27 23.7c-.9 10.5 12.8 20.6 23.8 10.4 4.2-4 5.3-12.4 0-18.3"/><path class="st49" d="M49.8 16.2c-8.3-8.5-21.1-2.6-22.2 7.5C26.4 35.3 40 42.1 49.1 34.5c6.1-5.2 5.3-13.6.7-18.3"/><path class="st50" d="M50.6 18.8c-4.4-6.6-11.6-5.5-11.7-5.5-2.4.5-9.7 2.1-10.8 10.5-.6 5.1 1.7 9.1 7 12.3 1.1.7 6.7 2.5 12.2-.9 5.3-3.4 6.8-11 3.3-16.4"/><path class="st51" d="M49.5 19.1c-6-8.6-19.5-5.7-20.9 4.6-.7 4.7 1.7 9 6.6 11.7 1.3.7 6.1 2.9 12.1-1.1 3-1.9 6.8-8.5 2.2-15.2"/><path class="st52" d="M48.6 19.4c-6-7.6-18.1-4.9-19.6 4.4-.3 2.1-.4 7.3 6.1 11.2 2.4 1.4 6.3 2.4 11.5-.9 4.7-3 5.7-10.2 2-14.7"/><path class="st53" d="M47.7 19.6c-6.2-7.4-16.8-3.7-18.3 4.2-1.4 7.6 7.9 15.3 15.7 10.5 7.6-4.6 4.6-12.4 2.6-14.7"/><path class="st31" d="M31.9 2.5c.5-.1.9-.1 1.4-.1 0 0 .1 0 .2-.1h.1c-.9-.7-4.1-.3-4 .2.1.6 3.6.7 4.1.1v-.1c-.1-.1-.2 0-.3 0-.6-.1-1 0-1.5 0"/><path class="st54" d="M47.6 20.9c-3-4.6-7.4-5-10.6-4.5-2.8.5-6.3 3.5-7.1 7.4-.5 2.5-.1 6.2 4.7 9.9 2.2 1.7 7 2.1 9.2.8 4.2-2.5 4.4-3.2 5.4-6.7.2-.8.2-2 0-2.9-.5-2.3-.5-2.3-1.6-4"/><path class="st55" d="M46.3 19.9c-2.7-2.7-7.6-3.6-9.1-3-3.7 1.5-3.8 1.6-5.7 4.2-.8 1.1-1.5 3.3-1.2 5.4.4 3.1 2.6 5.3 3 5.7 1.6 1.5 1.6 1.5 5.9 2.6 2.7.7 7.4-2.6 8.1-3.8 3.9-5.9-.8-10.9-1-11.1"/><path class="st56" d="M47.4 22.5c-1.1-2.1-3.9-5.5-10.1-5-1.8.2-5.7 3.1-6.4 6.4-1.1 5 2.9 8.3 3 8.4 2 1.6 5 2.2 5.3 2.2 1.2.2 2.9-.2 4-.7 1.2-.5 2.5-1.7 3.4-2.6.3-.3 1.6-3.2 1.6-3.2s.5-3-.8-5.5"/><path class="st32" d="M31.9 2.5c.3 0 .7-.1 1-.1h.2c-.7-.6-3.1-.2-3 .1.1.5 2.7.5 3.1.1v-.1c0-.1-.2 0-.3 0-.3-.1-.7 0-1 0"/><path class="st57" d="M46.8 22.6c-.7-1.2-3.4-5.1-9.5-4.6l-3 1.3c-1.5 1.5-2.5 2.4-3.1 4.6-.8 3 .4 6.2 3.1 8.4 1.4 1.2 4.7 1.9 4.7 1.9 1.2.2 2.9-.2 4-.7 3.4-1.6 6.5-6.2 3.8-10.9"/><path class="st58" d="M46.3 22.7s-1.9-2.2-2.1-2.4c-1-.7-2.5-1.2-3.6-1.8-.9-.4-2.2-.1-3.1 0-1 .1-2.3.6-3 1.3-1.8 1.7-2.4 3.3-2.7 4.1-.4 1.4-.9 5.1 3.3 8.4 1 .8 2.8 1.4 4.1 1.5 1.2.1 2.9-.3 4-.8 1.6-.8 6.3-5.1 3.1-10.3"/><path class="st59" d="M45.8 22.7c-1-1.6-3.3-4.2-8.2-3.9-1 .1-2.3.7-3 1.4-1.4 1.3-2.3 3.5-2.3 3.5-.5 1.7-.5 5.2 2.8 7.9.4.3 3.6 1.5 4.1 1.6 1.2.1 2.9-.3 4-.8 1.8-.8 3.4-4.1 3.4-4.1.1-1 .7-3-.8-5.6"/><path class="st33" d="M31.9 2.5c.2 0 .5-.1.7-.1h.2c-.4-.4-2.1-.2-2 .1.1.3 1.8.4 2 0H31.9"/><path class="st60" d="M45.2 22.8c-1.1-1.8-3.5-2.9-4.3-3.3-.9-.4-2.3-.3-3.3-.2-1 .1-2.3.8-3.1 1.5-.6.6-1.9 3-1.9 3-.6 1.8-.2 5.3 2.4 7.4 1 .8 2.8 1.6 4.1 1.7 1.2.1 2.9-.4 4-.9.1-.1 5.3-4 2.1-9.2"/><path class="st61" d="M44.7 22.9S43.1 21 41 20c-.9-.4-2.3-.4-3.3-.3 0 0-2.8 1.3-3.1 1.6-.6.6-1.2 1.6-1.5 2.4-.8 2.3.1 5.4 1.9 6.8.6.5 3.5 1.8 4.1 1.8.2 0 3.7-.9 3.9-1 1-.7 2.2-1.9 2.4-3.1.4-1.7.7-3.3-.7-5.3"/><path class="st62" d="M44.2 23s-2.7-2.3-3.1-2.4c-.9-.4-2.4-.5-3.4-.4-.3 0-2.5 1.3-3.1 1.8-.5.4-.9 1.2-1.1 1.8-1.1 3.1.8 5.8 1.5 6.3 0 0 3.8 1.9 4.1 2 .2 0 3.7-1 3.9-1.1 2.4-1.7 3-5.6 1.2-8"/><path class="st63" d="M43.6 23.1c-.6-.7-1.5-1.6-2.4-1.9-1-.4-2.4-.6-3.5-.5-.4 0-3.2 2-3.2 2-.3.3-.6.8-.7 1.2-1.2 3.4 1 5.8 1 5.8 1.1.8 2.7 1.9 4.1 2 1.2.1 2.9-.5 3.8-1.2 2.2-1.4 2.8-5 .9-7.4"/><path class="st34" d="M31.9 2.5h.3c-.2-.2-1-.1-1 0 0 .2.9.2 1 0h-.1-.2"/><path class="st64" d="M43.1 23.1c-.4-.5-1.1-1.2-1.7-1.4-1-.4-2.5-.9-3.5-.7-1.1.2-2.3 1.5-3.2 2.2-.1.1-.3.3-.3.5-1.2 3.7.9 5.5.9 5.5 1 .8 2.5 1.8 3.7 1.9 1.2.1 2.7-.9 3.8-1.3 1.4-.5 1.5-4.1 1.5-4.1-.1-.8-.7-1.9-1.2-2.6"/><path class="st65" d="M42.6 23.2c-.3-.3-.7-.7-1.1-.9-1-.4-2.5-1-3.6-.8-1.1.2-2.2 1.5-3.1 2.2-.1.1-.1.3-.2.4-.3 1.4-.8 3.3 1.4 5.1.8.6 1.9 1.4 2.9 1.5 1.2.1 2.7-.9 3.8-1.4.2-.1.4-.4.5-.6.4-.8.7-2 .6-2.9-.1-.8-.7-1.9-1.2-2.6"/><path class="st66" d="M42 23.3c-.1-.1-.2-.3-.4-.3-1.1-.3-2.5-1.1-3.6-.9-.8.2-1.8 1-2.3 1.7-.5.6-.8 1.7-.9 2.5v.4c.6.8 1.2 2 2 2.6.5.4 1.4 1 2.1 1 1.2.1 3-.5 3.8-1.5.6-.7.8-2 .7-2.9-.2-.9-.8-1.9-1.4-2.6"/><path class="st67" d="M41.9 24c-.2-.2-.5-.5-.7-.6-.9-.3-2.1-1-3.1-.8-.6.1-1.2.7-1.6 1.1-.5.7-1.2 1.9-1.1 2.8.1 1 1.4 2 2.1 2.7.3.3.8.6 1.3.6 1.2.1 6.1-1.9 3.1-5.8"/><path class="st68" d="M42.2 25.6c-.6-.8-1.6-1.6-2.5-2.1-.4-.3-1.1-.5-1.6-.4-.3.1-.6.3-.8.6-.4.8-1.3 1.9-1.1 2.8.1 1 1.5 1.9 2.2 2.7.1.1.3.2.5.2.6 0 .8-.1 3.4-3.1.1-.1 0-.5-.1-.7"/><path class="st69" d="M38.3 23.6s-.1 0 0 0c-.2 0-1.3 2.8-1.3 2.8.1.8.9 2.2 1.8 2.2 1.1.1 2.5-1.5 2.5-2.5-.1-1.1-2-1.9-3-2.5"/><path class="st70" d="M38.4 24.9c-.5.1-.7 1-.7 1.5.1.4.5 1.1.9 1.1.6 0 1.3-.8 1.3-1.3.1-.6-.9-1.5-1.5-1.3"/><path class="st71" d="M38.6 26.2l-.1.1s0 .1.1.1l.1-.1-.1-.1"/></g></g><g class="st0"><defs><path id="SVGID_25_" class="st0" d="M16.3 59.8c-1.1-.6-2.3-1.3-4.5-3.1-1.1-.9-2.4-2.2-3.3-3.2-.7-.6-1.5-1.5-2-2.3-1.8-2.6-1.8-2.6-2.8-4.4-2-3.7-2.7-7.4-2.7-7.4-.3-1.5-.6-3.5-.7-5-.1-1.4-.1-3.3 0-4.7.1-.8.2-1.9.4-2.8.2-.7.3-1.7.5-2.5s.5-1.8.8-2.6c1.1-2.7 1.2-3.1 2.1-4.7 1.4-2.5 2.8-4.3 2.8-4.3.9-1.1 2.1-2.5 3.1-3.4.2-.2 2.1-1.9 3.8-3.1 1.5-1 4.6-3.1 9.4-4.4C27.2.8 31.4.5 35.5 1c6 .7 10.1 2.9 11.8 3.9-4.3-2.6-9.7-3.7-15.4-3 5.7-.7 11.1.4 15.5 2.9 1.1.7 2.6 1.6 3.6 2.4.9.7 2.5 1.9 3.9 3.6 1 1.1 1.9 2.1 3.3 4.1 1.2 1.8 1.6 2.6 2.5 4.6 1.1 2.2 2.1 5.8 2.3 7.6.1.8.3 1.8.3 2.5.1.8.1 2 .1 2.8 0 1.5-.2 3.6-.4 5.1-.4 3-1.6 6.4-2.4 7.9-1.2 2.4-1.4 2.8-2.5 4.5-.7 1-1.8 2.5-3.2 4-1.3 1.4-2.3 2.3-3.7 3.4-1.7 1.3-2.6 1.9-4.2 2.8-1.2.7-3.3 1.6-3.6 1.7-1 .4-2.4.9-4.6 1.4-10.8 2.5-19.4-1.5-22.5-3.4z"/></defs><clipPath id="SVGID_26_"><use xlink:href="#SVGID_25_" overflow="visible"/></clipPath><g class="st82"><path class="st35" d="M16.3 59.8C1.8 51.4-.5 36.4.3 29.7c.3-2.6 1.3-10.4 6.6-16.8 1.9-2.3 6.9-8.3 16.4-11C29 .3 37.8-.5 47.4 4.8 43 2.3 37.6 1.2 31.9 1.9c5.7-.7 11.1.4 15.5 2.9 26.9 16.5 17.4 52.4-8.5 58.3-10.9 2.6-19.5-1.4-22.6-3.3"/><path class="st35" d="M47.4 4.8c2 1.2 3.6 2.3 5.9 4.3l1.7 1.6c.6.7 1.3 1.5 1.9 2.2l1.4 1.9c.4.7 1 1.6 1.4 2.4l1.1 2.2c.3.8.7 1.8 1 2.5l.7 2.4c.2.8.4 1.9.6 2.7l.3 2.5c0 .8.1 2 .1 2.8l-.1 2.6c-.1.9-.3 2.2-.4 3.1l-.6 2.4c-.2.8-.5 1.8-.8 2.6l-.9 2.3c-.4.7-.8 1.7-1.2 2.4l-1.3 2c-.5.7-1.1 1.6-1.6 2.2L55 53.8c-.6.6-1.4 1.4-2.1 2l-1.7 1.4c-.8.6-1.8 1.3-2.6 1.8l-1.5 1c-2.1 1.1-2.2 1.1-3.6 1.7l-1.1.4c-1.6.5-3.2 1.1-6.3 1.5l-.8.1c-.2 0-.6.1-.8.1l-.7.1h-4.2c-.2 0-.5 0-.7-.1l-.9-.1c-.2 0-.6-.1-.8-.1l-.9-.1c-.3-.1-.7-.1-.9-.2l-1-.2c-.3-.1-.8-.2-1.2-.3l-1.3-.4c-.5-.2-1.1-.4-1.6-.6l-1.6-.7c-.7-.4-1.7-.9-2.5-1.3l-1.8-1.1c-.8-.6-1.9-1.4-2.7-2L10 55.2l-2.1-2.1-1.5-1.8c-.5-.7-1.1-1.6-1.6-2.3l-1.2-2.1c-.3-.7-.8-1.7-1.2-2.5L1.7 42c-.2-.8-.5-1.8-.7-2.6l-.5-2.5c-.1-1.4-.3-3.2-.3-4.6l.1-2.6c.1-.8.2-1.9.4-2.8l.5-2.5c.2-.8.5-1.8.8-2.6l.9-2.3c.4-.7.8-1.7 1.2-2.4L5.3 15c.5-.7 1.1-1.6 1.6-2.3l1.5-1.8c.6-.6 1.4-1.5 2-2.1l1.7-1.4c.8-.6 1.8-1.3 2.6-1.9l1.6-1c2.1-1.1 2.2-1.2 3.5-1.7l1.2-.2c2.1-.7 3.6-1.2 6.6-1.6l.8-.1c.2 0 .6-.1.8-.1l.8-.1h4.2c.2 0 .5 0 .7.1l.8.1c.2.1.5.1.7.1l.9.1c.3.1.7.1.9.2l1 .2 1.2.3 1.3.4c.5.2 1.1.4 1.6.6l1.7.8c.7.3 1.7.8 2.4 1.2-4.4-2.5-9.8-3.6-15.5-2.9-27.3 7.8-17.6 38-.9 46.2 19.3 9.5 37.8-6.9 30.3-27C56.5 8.3 46.7 1.8 31.9 1.9c5.7-.7 11.1.4 15.5 2.9"/><path class="st28" d="M47.4 4.8c2 1.2 3.6 2.3 5.9 4.3l1.7 1.6c.6.7 1.3 1.5 1.9 2.2l1.4 1.9c.4.7 1 1.6 1.4 2.4l1.1 2.2c.3.8.7 1.8 1 2.5l.7 2.4c.2.8.4 1.9.6 2.7l.3 2.5c0 .8.1 2 .1 2.8l-.1 2.6c-.1.9-.3 2.2-.4 3.1l-.6 2.4c-.2.8-.5 1.8-.8 2.6l-.9 2.3c-.4.7-.8 1.7-1.2 2.4l-1.3 2c-.5.7-1.1 1.6-1.6 2.2L55 53.8c-.6.6-1.4 1.4-2.1 2l-1.7 1.4c-.8.6-1.8 1.3-2.6 1.8l-1.5 1c-2.1 1.1-2.2 1.1-3.6 1.7l-1.1.4c-1.6.5-3.2 1.1-6.3 1.5l-.8.1c-.2 0-.6.1-.8.1l-.7.1h-4.2c-.2 0-.5 0-.7-.1l-.9-.1c-.2 0-.6-.1-.8-.1l-.9-.1c-.3-.1-.7-.1-.9-.2l-1-.2c-.3-.1-.8-.2-1.2-.3l-1.3-.4c-.5-.2-1.1-.4-1.6-.6l-1.6-.7c-.7-.4-1.7-.9-2.5-1.3l-1.8-1.1c-.8-.6-1.9-1.4-2.7-2L10 55.2l-2.1-2.1-1.5-1.8c-.5-.7-1.1-1.6-1.6-2.3l-1.2-2.1c-.3-.7-.8-1.7-1.2-2.5L1.7 42c-.2-.8-.5-1.8-.7-2.6l-.5-2.5c-.1-1.4-.3-3.2-.3-4.6l.1-2.6c.1-.8.2-1.9.4-2.8l.5-2.5c.2-.8.5-1.8.8-2.6l.9-2.3c.4-.7.8-1.7 1.2-2.4L5.3 15c.5-.7 1.1-1.6 1.6-2.3l1.5-1.8c.6-.6 1.4-1.5 2-2.1l1.7-1.4c.8-.6 1.8-1.3 2.6-1.9l1.6-1c2.1-1.1 2.2-1.2 3.5-1.7l1.2-.2c2.1-.7 3.6-1.2 6.6-1.6l.8-.1c.2 0 .6-.1.8-.1l.8-.1h4.2c.2 0 .5 0 .7.1l.8.1c.2.1.5.1.7.1l.9.1c.3.1.7.1.9.2l1 .2 1.2.3 1.3.4c.5.2 1.1.4 1.6.6l1.7.8c.7.3 1.7.8 2.4 1.2-1.5-.9-3.2-1.6-4.9-2.1-.1 0-.1 0-.2-.1C19.1-3.8 6.8 18.8 17.6 37.2c12.1 20.6 40.3 19.6 44.9-1.6 2.9-13.2-6.3-28.3-20.1-32.9 1.8.5 3.5 1.2 5 2.1"/><path class="st29" d="M61.7 22c.3 1 .9 2.6 1.3 5.1l.3 2.5c0 .8.1 2 .1 2.8l-.1 2.6c-.1.9-.3 2.2-.4 3.1l-.6 2.4c-.2.8-.5 1.8-.8 2.6l-.9 2.3c-.4.7-.8 1.7-1.2 2.4l-1.3 2c-.5.7-1.1 1.6-1.6 2.2L55 53.8c-.6.6-1.4 1.4-2.1 2l-1.7 1.4c-.8.6-1.8 1.3-2.6 1.8l-1.5 1c-2.1 1.1-2.2 1.1-3.6 1.7l-1.1.4c-1.6.5-3.2 1.1-6.3 1.5l-.8.1c-.2 0-.6.1-.8.1l-.7.1h-4.2c-.2 0-.5 0-.7-.1l-.9-.1c-.2 0-.6-.1-.8-.1l-.9-.1c-.3-.1-.7-.1-.9-.2l-1-.2c-.3-.1-.8-.2-1.2-.3l-1.3-.4c-.5-.2-1.1-.4-1.6-.6l-1.6-.7c-.7-.4-1.7-.9-2.5-1.3l-1.8-1.1c-.8-.6-1.9-1.4-2.7-2L10 55.2l-2.1-2.1-1.5-1.8c-.5-.7-1.1-1.6-1.6-2.3l-1.2-2.1c-.3-.7-.8-1.7-1.2-2.5L1.7 42c-.2-.8-.5-1.8-.7-2.6l-.5-2.5c-.1-1.4-.3-3.2-.3-4.6l.1-2.6c.1-.8.2-1.9.4-2.8l.5-2.5c.2-.8.5-1.8.8-2.6l.9-2.3c.4-.7.8-1.7 1.2-2.4L5.3 15c.5-.7 1.1-1.6 1.6-2.3l1.5-1.8c.6-.6 1.4-1.5 2-2.1l1.7-1.4c.8-.6 1.8-1.3 2.6-1.9l1.6-1c2.1-1.1 2.2-1.2 3.5-1.7l1.2-.2c2.1-.7 3.6-1.2 6.6-1.6l.8-.1c.2 0 .6-.1.8-.1l.8-.1h4.2c.2 0 .5 0 .7.1l.8.1c.2.1.5.1.7.1l.9.1c.3.1.7.1.9.2l1 .2 1.2.3 1.3.4c.5.2 1.1.4 1.6.6l1.7.8c.7.4 1.7.9 2.5 1.3l-.6-.3c-.6-.3-1.3-.7-1.9-.9C23-6 6.7 14.6 14.5 33.7c9.7 23.7 39 25 46.7 7.2 3.6-8.2 1.6-16.1.1-20 .2.3.3.7.4 1.1"/><path class="st29" d="M47.4 4.8c.5.3 1.1.7 1.6 1-.6-.3-1.3-.8-1.9-1.1-.1 0-.2-.1-.2-.1.2 0 .3.1.5.2"/><path class="st30" d="M63 27c.2 1.5.4 2.9.4 5.3l-.1 2.6c-.1.9-.3 2.2-.4 3.1l-.6 2.4c-.2.8-.5 1.8-.8 2.6l-.9 2.3c-.4.7-.8 1.7-1.2 2.4l-1.3 2c-.5.7-1.1 1.6-1.6 2.2L55 53.8c-.6.6-1.4 1.4-2.1 2l-1.7 1.4c-.8.6-1.8 1.3-2.6 1.8l-1.5 1c-2.1 1.1-2.2 1.1-3.6 1.7l-1.1.4c-1.6.5-3.2 1.1-6.3 1.5l-.8.1c-.2 0-.6.1-.8.1l-.7.1h-4.2c-.2 0-.5 0-.7-.1l-.9-.1c-.2 0-.6-.1-.8-.1l-.9-.1c-.3-.1-.7-.1-.9-.2l-1-.2c-.3-.1-.8-.2-1.2-.3l-1.3-.4c-.5-.2-1.1-.4-1.6-.6l-1.6-.7c-.7-.4-1.7-.9-2.5-1.3l-1.8-1.1c-.8-.6-1.9-1.4-2.7-2L10 55.2l-2.1-2.1-1.5-1.8c-.5-.7-1.1-1.6-1.6-2.3l-1.2-2.1c-.3-.7-.8-1.7-1.2-2.5L1.7 42c-.2-.8-.5-1.8-.7-2.6l-.5-2.5c-.1-1.4-.3-3.2-.3-4.6l.1-2.6c.1-.8.2-1.9.4-2.8l.5-2.5c.2-.8.5-1.8.8-2.6l.9-2.3c.4-.7.8-1.7 1.2-2.4L5.3 15c.5-.7 1.1-1.6 1.6-2.3l1.5-1.8c.6-.6 1.4-1.5 2-2.1l1.7-1.4c.8-.6 1.8-1.3 2.6-1.9l1.6-1c2.1-1.1 2.2-1.2 3.5-1.7l1.2-.2c2.1-.7 3.6-1.2 6.6-1.6l.8-.1c.2 0 .6-.1.8-.1l.8-.1h4.2c.2 0 .5 0 .7.1l.8.1c.2.1.5.1.7.1l.9.1c.3.1.7.1.9.2l1 .2 1.2.3 1.3.4.8.3-1.6-.5C17.4-4.7 4.4 18.7 15 37.7c12.8 23 41.1 20.9 47.2 1.8 1.9-6 1.1-10.8.8-12.6v.1"/><path class="st31" d="M63.5 32.4c0 1.6-.1 3-.5 5.7l-.6 2.4c-.2.8-.5 1.8-.8 2.6l-.9 2.3c-.4.7-.8 1.7-1.2 2.4l-1.3 2c-.5.7-1.1 1.6-1.6 2.2L55 53.8c-.6.6-1.4 1.4-2.1 2l-1.7 1.4c-.8.6-1.8 1.3-2.6 1.8l-1.5 1c-2.1 1.1-2.2 1.1-3.6 1.7l-1.1.4c-1.6.5-3.2 1.1-6.3 1.5l-.8.1c-.2 0-.6.1-.8.1l-.7.1h-4.2c-.2 0-.5 0-.7-.1l-.9-.1c-.2 0-.6-.1-.8-.1l-.9-.1c-.3-.1-.7-.1-.9-.2l-1-.2c-.3-.1-.8-.2-1.2-.3l-1.3-.4c-.5-.2-1.1-.4-1.6-.6l-1.6-.7c-.7-.4-1.7-.9-2.5-1.3l-1.8-1.1c-.8-.6-1.9-1.4-2.7-2L10 55.2l-2.1-2.1-1.5-1.8c-.5-.7-1.1-1.6-1.6-2.3l-1.2-2.1c-.3-.7-.8-1.7-1.2-2.5L1.7 42c-.2-.8-.5-1.8-.7-2.6l-.5-2.5c-.1-1.4-.3-3.2-.3-4.6l.1-2.6c.1-.8.2-1.9.4-2.8l.5-2.5c.2-.8.5-1.8.8-2.6l.9-2.3c.4-.7.8-1.7 1.2-2.4L5.3 15c.5-.7 1.1-1.6 1.6-2.3l1.5-1.8c.6-.6 1.4-1.5 2-2.1l1.7-1.4c.8-.6 1.8-1.3 2.6-1.9l1.6-1c2.1-1.1 2.2-1.2 3.5-1.7l1.2-.2c2.1-.7 3.6-1.2 6.6-1.6l.8-.1c.2 0 .6-.1.8-.1l.8-.1h4.2c.2 0 .5 0 .7.1l.8.1c.2.1.5.1.7.1l.9.1h.2-.3c-25-3.9-34.8 23.6-20.7 41.7C31.7 62.2 60.5 58 63.2 36c.3-2.1.3-3.1.3-3.9v.3"/><path class="st32" d="M63 38c-.2 1.1-.5 2.7-1.4 5l-.9 2.3c-.4.7-.8 1.7-1.2 2.4l-1.3 2c-.5.7-1.1 1.6-1.6 2.2L55 53.8c-.6.6-1.4 1.4-2.1 2l-1.7 1.4c-.8.6-1.8 1.3-2.6 1.8l-1.5 1c-2.1 1.1-2.2 1.1-3.6 1.7l-1.1.4c-1.6.5-3.2 1.1-6.3 1.5l-.8.1c-.2 0-.6.1-.8.1l-.7.1h-4.2c-.2 0-.5 0-.7-.1l-.9-.1c-.2 0-.6-.1-.8-.1l-.9-.1c-.3-.1-.7-.1-.9-.2l-1-.2c-.3-.1-.8-.2-1.2-.3l-1.3-.4c-.5-.2-1.1-.4-1.6-.6l-1.6-.7c-.7-.4-1.7-.9-2.5-1.3l-1.8-1.1c-.8-.6-1.9-1.4-2.7-2L10 55.2l-2.1-2.1-1.5-1.8c-.5-.7-1.1-1.6-1.6-2.3l-1.2-2.1c-.3-.7-.8-1.7-1.2-2.5L1.7 42c-.2-.8-.5-1.8-.7-2.6l-.5-2.5c-.1-1.4-.3-3.2-.3-4.6l.1-2.6c.1-.8.2-1.9.4-2.8l.5-2.5c.2-.8.5-1.8.8-2.6l.9-2.3c.4-.7.8-1.7 1.2-2.4L5.3 15c.5-.7 1.1-1.6 1.6-2.3l1.5-1.8c.6-.6 1.4-1.5 2-2.1l1.7-1.4c.8-.6 1.8-1.3 2.6-1.9l1.6-1c2.1-1.1 2.2-1.2 3.5-1.7l1.2-.2c2.1-.7 3.6-1.2 6.6-1.6l.8-.1c.2 0 .6-.1.8-.1l.8-.1H32.7h-.5C8.6.8.4 29.2 18.7 47.4c14.9 14.9 40.1 12.3 44.5-10.5-.1.3-.2.8-.2 1.1"/><path class="st33" d="M61.6 43.1c-.3.9-.9 2.5-2.2 4.7l-1.3 2c-.5.7-1.1 1.6-1.6 2.2L55 53.8c-.6.6-1.4 1.4-2.1 2l-1.7 1.4c-.8.6-1.8 1.3-2.6 1.8l-1.5 1c-2.1 1.1-2.2 1.1-3.6 1.7l-1.1.4c-1.6.5-3.2 1.1-6.3 1.5l-.8.1c-.2 0-.6.1-.8.1l-.7.1h-4.2c-.2 0-.5 0-.7-.1l-.9-.1c-.2 0-.6-.1-.8-.1l-.9-.1c-.3-.1-.7-.1-.9-.2l-1-.2c-.3-.1-.8-.2-1.2-.3l-1.3-.4c-.5-.2-1.1-.4-1.6-.6l-1.6-.7c-.7-.4-1.7-.9-2.5-1.3l-1.8-1.1c-.8-.6-1.9-1.4-2.7-2L10 55.2l-2.1-2.1-1.5-1.8c-.5-.7-1.1-1.6-1.6-2.3l-1.2-2.1c-.3-.7-.8-1.7-1.2-2.5L1.7 42c-.2-.8-.5-1.8-.7-2.6l-.5-2.5c-.1-1.4-.3-3.2-.3-4.6l.1-2.6c.1-.8.2-1.9.4-2.8l.5-2.5c.2-.8.5-1.8.8-2.6l.9-2.3c.4-.7.8-1.7 1.2-2.4L5.3 15c.5-.7 1.1-1.6 1.6-2.3l1.5-1.8c.6-.6 1.4-1.5 2-2.1l1.7-1.4c.8-.6 1.8-1.3 2.6-1.9l1.6-1c2.1-1.1 2.2-1.2 3.5-1.7l1.2-.2c1.7-.6 3.3-1.1 6.5-1.6l-.5.1C2.8 5.3-.1 36.9 22.2 52.3 37.8 63.1 56.8 58.1 62 41.8c-.1.4-.3.9-.4 1.3"/><path class="st34" d="M59.4 47.8c-.6 1.1-1.4 2.4-2.9 4.3L55 53.8c-.6.6-1.4 1.4-2.1 2l-1.7 1.4c-.8.6-1.8 1.3-2.6 1.8l-1.5 1c-2.1 1.1-2.2 1.1-3.6 1.7l-1.1.4c-1.6.5-3.2 1.1-6.3 1.5l-.8.1c-.2 0-.6.1-.8.1l-.7.1h-4.2c-.2 0-.5 0-.7-.1l-.9-.1c-.2 0-.6-.1-.8-.1l-.9-.1c-.3-.1-.7-.1-.9-.2l-1-.2c-.3-.1-.8-.2-1.2-.3l-1.3-.4c-.5-.2-1.1-.4-1.6-.6l-1.6-.7c-.7-.4-1.7-.9-2.5-1.3l-1.8-1.1c-.8-.6-1.9-1.4-2.7-2L10 55.2l-2.1-2.1-1.5-1.8c-.5-.7-1.1-1.6-1.6-2.3l-1.2-2.1c-.3-.7-.8-1.7-1.2-2.5L1.7 42c-.2-.8-.5-1.8-.7-2.6l-.5-2.5c-.1-1.4-.3-3.2-.3-4.6l.1-2.6c.1-.8.2-1.9.4-2.8l.5-2.5c.2-.8.5-1.8.8-2.6l.9-2.3c.4-.7.8-1.7 1.2-2.4L5.3 15c.5-.7 1.1-1.6 1.6-2.3l1.5-1.8c.6-.6 1.4-1.5 2-2.1l1.7-1.4c.8-.6 1.8-1.3 2.6-1.9l1.6-1c2.1-1.1 2.2-1.2 3.5-1.7l1.2-.2c.5-.2 1.1-.4 1.6-.5C-1.1 9.6-.2 43.1 24 55.7c16.5 8.6 30.1 1.6 35.7-8.5l-.3.6"/><path class="st36" d="M45.8 4.4c19.8 9.4 22.7 36.9 4.6 44-19 7.4-40.9-15.2-32.9-34.1C22.7 2.1 35.9-.3 45.8 4.4"/><path class="st37" d="M48.5 6C67.6 17.6 66.7 44.5 47 48.3c-20.6 4-38.2-21.7-26-38.2C28 .7 40.1.9 48.5 6"/><path class="st38" d="M51 8c17.2 13.2 12.4 36-3.7 39.2-18 3.5-37-18.8-25.5-36.6C26.9 2.7 39.6-.5 51 8"/><path class="st39" d="M53.2 10.1c15.6 15 7.1 36.4-9.8 36.4-19.7 0-32-24.8-18.8-37.9 8.3-8.1 21.3-5.5 28.6 1.5"/><path class="st40" d="M53.1 10.5c14.2 13.3 8.3 34.8-9.6 34.9-19.2.1-30.6-23.5-17.6-36.6 6.7-6.8 18.9-6.1 27.2 1.7"/><path class="st41" d="M54.9 12.9c11.6 14.2 3.4 32.9-13.6 31.2-19.8-1.9-25.9-26.2-13.2-36 8.7-6.7 20.7-2.7 26.8 4.8"/><path class="st42" d="M54.7 13.3c11.5 14.2 2 32.8-15.2 29.7C21 39.6 17.2 16.9 29.9 8c7.2-5.1 18.3-2.7 24.8 5.3"/><path class="st43" d="M56 16c9.1 15-2.4 28.8-16.5 26.1-18.8-3.6-20.2-25.2-9.5-33 9.9-7.2 21.5-.6 26 6.9"/><path class="st44" d="M55.6 16.3c8.4 14.2-2.7 27.3-16.1 24.8-17.3-3.2-19.9-22.8-8-31.8 6.2-4.7 18.3-2.7 24.1 7"/><path class="st45" d="M55.1 16.7c8.4 14.4-4.1 26.8-17.9 23.1-15.5-4.2-15.7-23.6-3.7-30.5 6.9-3.9 17-.5 21.6 7.4"/><path class="st46" d="M55.7 19.6c5.1 13.6-8.9 23.8-20.5 18.8-13.8-6-11.7-24.1.3-28.9 7.5-3 17.1 1.8 20.2 10.1"/><path class="st47" d="M55 20c4.3 12.2-7.7 23-19.8 17.8-13-5.7-10.8-22.5.5-27.2C44.4 7 52.8 13.7 55 20"/><path class="st48" d="M54.1 20.4c4.1 12.1-8.7 21.3-18.9 16.8-12.3-5.4-10-21.5.9-25.7 7.8-3 15.8 2.3 18 8.9"/><path class="st49" d="M53.2 20.8c3.8 11.5-8.3 20.1-18 15.9-10.6-4.7-9.9-19.8 1.1-24.2 5.9-2.3 14.3.8 16.9 8.3"/><path class="st50" d="M52.8 23.9c.6 8.6-5.4 11.4-7.4 12.3-6.8 3.2-11.9-1.2-13.6-2.6-7.8-6.7-3.5-19.3 7.2-20.7 7.4-.9 13.4 5 13.8 11"/><path class="st51" d="M51.9 24.2c.8 6.2-4.3 10.2-4.4 10.3-7.1 4.5-12 1.4-13 .7-11.9-8.6-4.2-19.1 2.1-21 6.3-1.9 14.3 2 15.3 10"/><path class="st52" d="M51.2 24.4c.9 8.2-8.8 16.4-17.9 9.1-9.3-7.4-2.3-19 6.3-19 3.6 0 10.8 2.9 11.6 9.9"/><path class="st53" d="M50.4 24.6c.2 2.3 0 7.9-6.8 10.8-1.9.8-7.3 1.1-11.3-3.1-5.8-6-2.2-17.2 7.6-16.9 6 0 10.1 5.4 10.5 9.2"/><path class="st54" d="M49.6 24.7c1.1 10.8-11.3 13.2-16.8 7.5-6.7-7-.9-17 7.3-16.3 6.6.6 9.3 6.2 9.5 8.8"/><path class="st55" d="M49 24.9c.8 5.4-2.6 7.6-5.5 9.4-.4.3-4.2 1.5-8.3-.7-.6-.3-5.6-3.2-4.8-10 .2-1.6 2.5-6 6.9-7 3.5-.8 10.7 1.7 11.7 8.3"/><path class="st56" d="M48.5 27.9s-1.2 2.8-1.6 3.2c-.9 1-2.4 1.9-3.4 2.7-1 .7-2.9.6-4.1.7-.3 0-5.4-.7-7.7-5.2-2.9-5.5 1.5-13.2 8.8-12.2 5 .7 9.1 6.3 8 10.8"/><path class="st57" d="M47.9 28c-1.5 5.5-6.6 5.9-8.6 6.1-1.3.1-3.1-.7-4.2-1.4-1.2-.8-3-3.3-3-3.4-2.7-4.9.9-12.8 8.5-11.6.3 0 3.7 1.6 3.7 1.6.7.5 1.3.9 2.8 3 1.5 2.1.8 5.7.8 5.7"/><path class="st58" d="M47.4 28.1c-.7 2.5-2.8 4-4 4.8-1 .7-2.8.7-4.1.8-1.3.1-3.1-.8-4.2-1.5-1-.6-2-1.9-2.6-2.9-.7-1.3-2.2-4.7.6-8.4 2.3-3.1 6.3-3 7.6-2.7 1.2.3 2.7 1.1 3.7 1.8.2.2 2.2 2.4 2.2 2.4 1.6 2.5.8 5.6.8 5.7"/><path class="st59" d="M46.8 28.2s-.8 2.4-3.4 4.2c-1 .7-2.8.8-4 .9 0 0-3.1-.9-4.2-1.6-.8-.5-1.6-1.5-2.1-2.4-2.4-4.2-.1-7.3.7-8.4.9-1.2 2.6-1.9 3.9-2.3.9-.3 2.3-.1 3.3.1 0 .1 7.8 2.6 5.8 9.5"/><path class="st60" d="M46.4 26.8c0 .5.1 1.1-.2 1.5-.6 1.1-1.5 2.5-2.4 3.3-.5.5-.7.6-4.6 1.3 0 0-4.1-.6-5.8-3.6-2.4-4.1-.2-7.1.8-8.4.6-.8 3.4-1.8 3.5-1.9 1-.2 2.4 0 3.3.2 2.2.6 4.4 3.3 4.4 3.4 1.2 1.7 1.1 3 1 4.2"/><path class="st61" d="M45.7 28.4c-.5 1.1-1.5 2.5-2.5 3.1-.2.1-3.6 1-4 1 0 0-4-.9-5.4-3.2-2.4-4-.1-7.1.7-8.1.1-.1 2.9-1.6 3.2-1.7 1-.2 2.4 0 3.4.3 2.1.6 6.3 4.5 4.6 8.6"/><path class="st62" d="M45.1 28.5c-.4.9-1.2 2-2 2.5-.2.1-3.6 1.1-4 1.2-.2 0-4.1-2-4.2-2-.3-.2-.6-.5-.7-.8-1.1-1.8-2-4.6.3-7.5.2-.3 2.8-1.8 3.2-1.9 1-.2 2.4.1 3.4.4.3.1 3.1 2.5 3.1 2.5.4.8 1 1.8 1.1 2.7.3.8.2 2-.2 2.9"/><path class="st63" d="M44.6 28.5c-.3.6-.8 1.5-1.4 1.8-1.1.6-2.7 1.5-4 1.3-1.4-.3-3.1-1.1-4.2-2.1-.7-.6-1.4-3.1-1.4-3.1s0-3.2 1.1-4c.8-.6 2.8-2 3.2-2.1 1-.2 2.5.1 3.5.5.9.4 1.9 1.2 2.4 2 .5.7.8 1.9 1.2 2.7.4.9 0 2.2-.4 3"/><path class="st64" d="M44 28.6c-.2.4-.6 1-1 1.2-1.1.6-2.7 1.6-3.9 1.3-1.3-.3-2.9-1.1-3.8-1.9-.7-.6-1.3-2.8-1.3-2.8s0-2.4.7-3.3c.7-1 2.1-2 3.3-2.3 1.1-.2 2.6.3 3.6.7.6.3 1.3.9 1.8 1.4.5.7 1.1 1.8 1.2 2.7.1.9-.2 2.2-.6 3"/><path class="st65" d="M43.5 28.7c-.1.2-.3.5-.5.6-1.1.5-2.6 1.5-3.9 1.4-1-.1-2.2-.9-3-1.5-.5-.3-.9-1.1-1.2-1.6-1.1-1.9 0-4 0-4.1.7-.9 2-2 3.1-2.3 1.1-.2 2.6.4 3.7.8.4.1.8.6 1.1.9.5.7 1.2 1.8 1.3 2.7.1 1-.2 2.3-.6 3.1"/><path class="st66" d="M42.9 28.7c-.8.9-2.6 1.6-3.8 1.5-.7 0-1.6-.6-2.1-1-.8-.7-1.6-1.8-2.1-2.7-.2-.4.9-3 .9-3 .5-.7 1.5-1.5 2.4-1.7 1.1-.2 2.6.6 3.7.9.1 0 .3.2.4.3.5.7 1.2 1.8 1.3 2.7.1 1-.3 2.2-.7 3"/><path class="st67" d="M42.7 27.5c-1 1.9-3.6 2.3-3.7 2.3-.4 0-1-.3-1.3-.6-.8-.7-2-1.7-2.2-2.8-.1-.9.6-2.1 1.1-2.8.3-.5 1-1.1 1.6-1.2.9-.2 2.2.5 3.1.8.3.1.5.4.7.6.8.9 1.2 2.7.7 3.7"/><path class="st68" d="M42.5 26.2c-.5 1-1.8 2-2.7 2.8-.2.2-.6.3-.8.3-.7 0-2.7-2.9-2.7-3-.1-.9.7-2.1 1.2-2.9.1-.3.5-.5.8-.6.5-.1 1.2.1 1.6.4 2.9 2.4 2.8 2.6 2.6 3"/><path class="st69" d="M38.9 28.6c-.9 0-1.7-1.4-1.8-2.3 0 0 1.2-2.9 1.3-2.9h.1c.9.8 3 1.4 3.1 2.6-.1 1.1-1.6 2.6-2.7 2.6"/><path class="st70" d="M38.8 27.5c-.5 0-.9-.7-1-1.2-.1-.5.2-1.4.7-1.5.6-.1 1.6.7 1.6 1.4.1.5-.7 1.3-1.3 1.3"/><path class="st71" d="M38.7 26.3s-.1 0 0 0c-.1-.1-.1-.2 0-.2s.1.1.1.1c0 .1 0 .1-.1.1"/></g></g></g><path class="st26" d="M19.8 32.6l22.3-11.5v3.3l-18.8 9.4v.1l18.8 9.4v3.3L19.8 35.2v-2.6z"/></svg>