<?xml version="1.0" encoding="utf-8"?>
<?xml-stylesheet type="text/css" href="../css/icons.css"?>
<!DOCTYPE svg PUBLIC "-//W3C//DTD SVG 1.1//EN" "http://www.w3.org/Graphics/SVG/1.1/DTD/svg11.dtd">
<svg version="1.1" id="facebook" class="mainIcon" xmlns="http://www.w3.org/2000/svg" xmlns:xlink="http://www.w3.org/1999/xlink" x="0px" y="0px"
	 viewBox="0 0 128 128" style="enable-background:new 0 0 128 128;" xml:space="preserve">

<g id="Rip_2_">
	<defs>
		<path id="Rip_1_" d="M73.5,10.5L86.9,9l1.7,1.5l0.8,6.7l-2.3,2.9v4.6l1,3.3l2.5,6.3l5-2.1l-1.3-8.2l2.9-4.2l1.5-6.1l1-4.6v10
			l-1.9,3.4l0.6,7.9l1.3,1.3l4.6-2.1l2.1,0.2l1.1,2.1v4.6l2.9,4l2.9,1.3l4.8-1.5l4-1.1l3.3-1.1l1.1-0.2l-4.8,4l-5.7,5l-5.6,3.6
			l3.6,12.3l5.6,1.4l1.5,0.9l-0.2,3.8l-0.8,2.5l-1.3,3.8l-1.9,3.6l-2.9,5.2l7.3,5.9h-5.9l-3.3-1l-4-1.1l-3.8-0.6l-1.9,4.8l-3.8,9.2
			l-1.3,2.5l-7.3,1l-0.6,3.8l-4,1.7l-1.1,1.3l2.3,4l5,1.7h-3.8l-2.3-1.1l-1.9-2.9l-2.9,1.1l-1.7,1.5l-4.2,0.4l-6.7-2.3l-3.8,0.6
			l-10-2.7v3.8l3.1,3.4l-0.4,1l-3.6-2.7v-4.6l-5-1.7l-1.7,1l-2.3-0.4v-1.5l-1.9-1l-1.3-4.6l-2.7,1.3l-3.8-0.8l-4.2-1.9l-4.2-2.9
			l-6.7-4.6L18.3,90l3.1,5.4l4,3.3l0.6-7.1l-2.1-1.1l-1-3.4l-4.6-1l-3.6-2.3l-5.4-4.4l-2.1-2.7l4.2-4.8l0.8-7.3l5.4-0.5l-1.1-8.5
			l-1.7-3.3l-3.4-0.6l-4-0.4l-2.1-1.9l-2.9,1l1.9-1.7L1.5,41L8,50.2l4.4,0.4l4.2,2.5c0,0,0.8,1.9,3.8,1.3c3.1-0.6,7.5-1.7,7.5-1.7
			v-10l-19.5-13l14,3.4l8.8,1.3l-1.1-8l10,8.4l1.9,0.2l-0.4-2.3l-5-6.3l0.8-7.5l6.1,7.3l3.6-3.6h5.2l0.6-4.8l3.1,2.7l0.8,2.5
			l3.8,0.6l1,2.5c0,0,5,1.9,7.3-1.9s3.3-8.6,3.3-8.6L73.5,10.5z"/>
	</defs>
	<clipPath id="Rip_3_">
		<use xlink:href="#Rip_1_"  style="overflow:visible;"/>
	</clipPath>
	<rect x="0.9" y="7.5" class="st0" width="127.1" height="111.1"/>
	<path id="f_1_" class="st1" d="M97.1,31.2v10h-9c0,0-4,0.6-4.6,4s-1.1,9.6-1.1,9.6h14.8v11.9H82.3l1,49.4l-15.1,1.1l1-50.4
		l-9.4-0.2V55.5l9,0.2V43.3c0,0,1.3-13,9.7-13S97.1,31.2,97.1,31.2z"/>
	<use xlink:href="#Rip_1_"  style="overflow:visible;fill:none;stroke:#000000;stroke-miterlimit:10;"/>
</g>
</svg>
