<svg id="Layer_1" xmlns="http://www.w3.org/2000/svg" xmlns:xlink="http://www.w3.org/1999/xlink" viewBox="0 0 64 64"><style>.st0{fill:#29abe2}.st1,.st2{enable-background:new}.st2{clip-path:url(#SVGID_2_)}.st3{fill:#a3a3a3}.st4{fill:#9e9e9e}.st5{fill:#999}.st6{fill:#949494}.st7{fill:#8f8f8f}.st8{fill:#8a8a8a}.st9{fill:#858585}.st10{fill:#a8a8a8}.st11{fill:#adadad}.st12{fill:#b3b3b3}.st13{fill:#b8b8b8}.st14{fill:#bdbdbd}.st15{fill:#c2c2c2}.st16{fill:#c7c7c7}.st17{fill:#ccc}.st18{fill:#d1d1d1}.st19{fill:#d6d6d6}.st20{fill:#dbdbdb}.st21{fill:#e0e0e0}.st22{fill:#e6e6e6}.st23{fill:#ebebeb}.st24{fill:#f0f0f0}.st25{fill:#f5f5f5}.st26{fill:#fafafa}.st27{fill:#fff}.st28{clip-path:url(#SVGID_4_);enable-background:new}.st29{fill:#971217}.st30{fill:#921116}.st31{fill:#8e1116}.st32{fill:#891015}.st33{fill:#841014}.st34{fill:#7f0f13}.st35{fill:#7b0f13}.st36{fill:#9c1218}.st37{fill:#a01318}.st38{fill:#a51419}.st39{fill:#aa141a}.st40{fill:#af151b}.st41{fill:#b3151b}.st42{fill:#b8161c}.st43{fill:#bd161d}.st44{fill:#c2171e}.st45{fill:#c6181e}.st46{fill:#cb181f}.st47{fill:#d01920}.st48{fill:#d41920}.st49{fill:#d91a21}.st50{fill:#de1a22}.st51{fill:#e31b23}.st52{fill:#e71b23}.st53{fill:#ec1c24}.st54{fill:#ee373e}.st55{fill:#ef4349}.st56{fill:#f04b52}.st57{fill:#f15259}.st58{fill:#f1595f}.st59{fill:#f25f64}.st60{fill:#f2646a}.st61{fill:#f2696e}.st62{fill:#f36e73}.st63{fill:#f37277}.st64{fill:#f4767b}.st65{fill:#f47a7f}.st66{fill:#f47e83}.st67{fill:#f58286}.st68{fill:#f5868a}.st69{fill:#f5898d}.st70{fill:#f58c90}.st71{fill:#f69093}.st72{fill:#f69397}.st73,.st74{clip-path:url(#SVGID_6_);enable-background:new}.st74{clip-path:url(#SVGID_8_)}.st75,.st76,.st77,.st78{clip-path:url(#SVGID_10_);enable-background:new}.st76,.st77,.st78{clip-path:url(#SVGID_12_)}.st77,.st78{clip-path:url(#SVGID_14_)}.st78{clip-path:url(#SVGID_16_)}.st79,.st80,.st81,.st82{clip-path:url(#SVGID_18_);enable-background:new}.st80,.st81,.st82{clip-path:url(#SVGID_20_)}.st81,.st82{clip-path:url(#SVGID_22_)}.st82{clip-path:url(#SVGID_24_)}</style><symbol id="Home" viewBox="-34.7 -31.8 69.5 63.7"><path class="st0" d="M34.7 5.3l-12.6 9.6v15.9h-9v-9L0 31.8-34.7 5.3l5.5-7.2 3.7 2.9v-32.9h51.1V1l3.7-2.9 5.4 7.2zM20.5-26.8H9v19H-9v-19h-11.5v31L0 19.9 20.5 4.2v-31z"/></symbol><g class="st1" id="RedBall"><g class="st1"><defs><path id="SVGID_1_" class="st1" d="M1.9 32.3c0-1.1 0-4 1-7.6 1-3.7 2.4-6.3 2.9-7 .7-1.2 1.7-2.7 2.5-3.8.5-.7 1.2-1.5 1.8-2.1 2.1-2 2.1-2 3.9-3.5 1.1-.9 2.2-1.5 3.4-2.2.9-.5 2.1-1.1 3.1-1.5 1.4-.5 2.2-.9 4.3-1.4 1.6-.4 4.1-.9 7.3-.8 3.8 0 6.6.8 7.9 1.1.4.1 1.7.5 3.5 1.2.9.4 2.2 1 3.1 1.5 7.3 4.2 12.1 12.4 12.1 22.4-.1 15.9-12.2 30.4-27 32.4 14.8-2 26.9-16.5 26.9-32.3 0-10-4.8-18.2-12.1-22.4.7.4 1.7 1 2.3 1.5.5.3 1.2.8 1.7 1.2.6.5 1.4 1.1 1.9 1.7.5.5 1.1 1.1 1.5 1.6.5.6 1.2 1.4 1.6 2 1.5 1.9 2.3 3.6 2.6 4 .5 1 1.2 2.3 1.9 4.4.5 1.3.9 3.2 1.2 4.6.4 2 .6 5.5.3 8-.2 1.7-.3 2.8-.9 4.9-.5 1.7-.5 1.7-1.7 4.6-.5 1.3-1.1 2.2-2.4 4.3-.5.7-1.2 1.6-1.7 2.3-2.7 3.2-4.9 4.8-7.1 6.2-1 .7-3.9 2.4-7.8 3.5-4.4 1.2-8.8 1.4-13.3.7-3.3-.6-5.7-1.6-6.5-1.9-2.7-1.1-5-2.7-5.7-3.2-.6-.5-1.5-1.1-2.1-1.6-2-1.9-2.2-2-3.3-3.4C7.5 50 6.2 48 5.1 45.8c-.3-.7-.8-1.6-1-2.3-.5-1.3-1.1-3.1-1.4-4.5-.8-2.9-.8-5.5-.8-6.7z"/></defs><clipPath id="SVGID_2_"><use xlink:href="#SVGID_1_" overflow="visible"/></clipPath><g class="st2"><path class="st3" d="M1.9 32.3c.3 18.9 14.6 26.1 19 27.9 9.1 3.7 22.7 2.9 32.4-7.1C66.8 39 63.5 16.3 46.5 6.3c7.3 4.2 12.1 12.4 12.1 22.4C58.6 44.5 46.5 59 31.7 61c14.8-2 26.9-16.5 26.9-32.3 0-10-4.8-18.2-12.1-22.4-14.3-7.6-25.9-2-29.2-.2-15 8.7-15.5 23.3-15.4 26.2"/><path class="st3" d="M58.6 28.7c0 13.1-8.3 25.4-19.6 30.3-1.2.6-2.9 1.5-4.9 1.6-.8.2-1.6.3-2.4.4.8-.1 1.6-.3 2.4-.4l.1-.1c.2-.1.5-.2.7-.3-5.6.5-5.6.5-5.7.5-1 .6-2.2.7-2.2.7-.7 0-3.2-.2-7.3-1.8-2.1-.8-7.6-3.4-12.4-10C.8 40.7.4 28.8 6.2 21.1c12.8-16.6 39-3.8 42.2 15.6 1.9 11.4-3.7 19-9.6 22.2 11.5-4.8 19.8-17.1 19.8-30.2 0-10-4.8-18.2-12.1-22.4-.5-.2-1.1-.6-1.5-.8-.7-.3-1.6-.7-2.3-1L41.4 4c-.4-.1-1-.3-1.5-.5l-1-.3c-.3-.1-.7-.2-1.1-.2l-.8-.1c-.3 0-.6-.1-.9-.1l-.7-.1c-.2 0-.5-.1-.7-.1l-.7-.1H29.4l-.7.1c-.2 0-.6.1-.8.1l-1 .1c-2.8.5-4.2 1-6.4 1.8l-1.5.7c-2 1-2.1 1.1-3.3 1.8L14 8.3c-.7.6-1.7 1.3-2.4 1.9L10 11.8c-.5.6-1.3 1.4-1.8 2.1l-1.3 1.8c-.4.7-1 1.6-1.4 2.3l-1 2.1c-.3.7-.7 1.7-1 2.4l-.7 2.2c-.2.8-.4 1.8-.6 2.5L2 29.6c0 .8-.1 1.9-.1 2.7l.1 2.4c.2 1.3.4 3 .7 4.3l.6 2.3c.3.7.6 1.7.9 2.4l1 2.1c.4.7.9 1.6 1.3 2.2l1.3 1.9c.5.6 1.1 1.5 1.6 2.1l1.5 1.6c.6.6 1.4 1.3 2.1 1.9l1.6 1.2c.8.5 1.8 1.2 2.6 1.7l1.5.8c.7.3 1.6.7 2.3 1l1.3.5c.4.1 1 .3 1.5.5l1 .3c.3.1.7.2 1.1.2l.9.2c.3 0 .6.1.9.1l.7.1c.2 0 .5.1.7.1l.7.1H34.4l.7-.1c.2 0 .6-.1.8-.1l1-.1c2.2-.4 3.6-.8 6-1.7l1.5-.7c2-1 2.1-1.1 3.4-1.8l1.7-1.1c.7-.6 1.7-1.3 2.4-1.9l1.6-1.5c.6-.6 1.3-1.4 1.8-2.1l1.3-1.8c.4-.7 1-1.6 1.4-2.2l1-2c.3-.7.7-1.7 1-2.4l.7-2.2c.2-.8.4-1.8.6-2.5l.3-2.4c.1-.9.1-2.1.2-3l-.1-2.4c-.1-.8-.2-1.8-.3-2.6l-.6-2.7c-.2-.7-.5-1.7-.7-2.5l-.8-2.2c-.3-.7-.8-1.6-1.1-2.3L57 16c-.4-.6-1-1.5-1.5-2.1l-1.4-1.7c-.6-.6-1.3-1.4-1.9-1.9L50.5 9c-2.1-1.6-2.3-1.7-4-2.7 7.3 4.2 12.1 12.4 12.1 22.4"/><path class="st4" d="M3.1 40.8C-2.7 20.1 16.4 5.7 35.5 16.4c14.1 7.8 20.4 28.8 7.8 40.3 9-5.8 15.3-16.6 15.3-28 0-10-4.8-18.2-12.1-22.4-.5-.2-1.1-.6-1.5-.8-.7-.3-1.6-.7-2.3-1L41.4 4c-.4-.1-1-.3-1.5-.5l-1-.3c-.3-.1-.7-.2-1.1-.2l-.8-.1c-.3 0-.6-.1-.9-.1l-.7-.1c-.2 0-.5-.1-.7-.1l-.7-.1H29.4l-.7.1c-.2 0-.6.1-.8.1l-1 .1c-2.8.5-4.2 1-6.4 1.8l-1.5.7c-2 1-2.1 1.1-3.3 1.8L14 8.3c-.7.6-1.7 1.3-2.4 1.9L10 11.8c-.5.6-1.3 1.4-1.8 2.1l-1.3 1.8c-.4.7-1 1.6-1.4 2.3l-1 2.1c-.3.7-.7 1.7-1 2.4l-.7 2.2c-.2.8-.4 1.8-.6 2.5L2 29.6c0 .8-.1 1.9-.1 2.7l.1 2.4c.2 1.3.4 3 .7 4.3l.6 2.3.6 1.8-.8-2.3c0 .1 0 .1 0 0"/><path class="st4" d="M58.6 28.7c0 11.4-6.3 22.1-15.3 28-4.3 3.7-6.2 3.8-9.6 4-.7.1-1.3.3-2 .4.7-.1 1.4-.2 2-.4l.1-.1c-.8-.4-.8-.4-5.5 1 0 0-4.7.6-12.4-3.9.8.5 1.8 1 2.6 1.4.7.3 1.6.7 2.3 1l1.3.5c.4.1 1 .3 1.5.5l1 .3c.3.1.7.2 1.1.2l.9.2c.3 0 .6.1.9.1l.7.1c.2 0 .5.1.7.1l.7.1H34.2l.7-.1c.2 0 .6-.1.8-.1l1-.1c2.2-.4 3.6-.8 6-1.7l1.5-.7c2-1 2.1-1.1 3.4-1.8l1.7-1.1c.7-.6 1.7-1.3 2.4-1.9l1.6-1.5c.6-.6 1.3-1.4 1.8-2.1l1.3-1.8c.4-.7 1-1.6 1.4-2.2l1-2c.3-.7.7-1.7 1-2.4l.7-2.2c.2-.8.4-1.8.6-2.5l.3-2.4c.1-.9.1-2.1.2-3l-.1-2.4c-.1-.8-.2-1.8-.3-2.6l-.4-2.6c-.2-.7-.5-1.7-.7-2.5l-.8-2.2c-.3-.7-.8-1.6-1.1-2.3L57 16c-.4-.6-1-1.5-1.5-2.1l-1.4-1.7c-.6-.6-1.3-1.4-1.9-1.9L50.5 9c-2.1-1.6-2.3-1.7-4-2.7 7.3 4.2 12.1 12.4 12.1 22.4"/><path class="st5" d="M2.2 37C-.6 13.2 23.7 4.7 40.3 18.2c8.5 6.9 16.1 22.7 6.3 36 7.2-6.1 12-15.5 12-25.5S53.8 10.5 46.5 6.3c-.5-.2-1.1-.6-1.5-.8-.7-.3-1.6-.7-2.3-1L41.4 4c-.4-.1-1-.3-1.5-.5l-1-.3c-.3-.1-.7-.2-1.1-.2l-.8-.1c-.3 0-.6-.1-.9-.1l-.7-.1c-.2 0-.5-.1-.7-.1l-.7-.1H29.4l-.7.1c-.2 0-.6.1-.8.1l-1 .1c-2.8.5-4.2 1-6.4 1.8l-1.5.7c-2 1-2.1 1.1-3.3 1.8L14 8.3c-.7.6-1.7 1.3-2.4 1.9L10 11.8c-.5.6-1.3 1.4-1.8 2.1l-1.3 1.8c-.4.7-1 1.6-1.4 2.3l-1 2.1c-.3.7-.7 1.7-1 2.4l-.7 2.2c-.2.8-.4 1.8-.6 2.5L2 29.6c0 .8-.1 1.9-.1 2.7l.1 2.4c.1.8.2 1.9.3 2.7l-.1-.4"/><path class="st5" d="M58.6 28.7c0 10-4.8 19.4-12 25.5-4.7 6.2-8.6 6.3-13.2 6.5-.6.1-1.1.2-1.7.3.6-.1 1.1-.2 1.7-.3l.1-.1c-1.3-.5-3.9 0-3.9.5 0 .2.6.4.9.4-2.4 1.1-8.8-1.2-8.8-1.2l1.2.4.7.2 1 .3c.3.1.7.2 1.1.2l.9.2c.3 0 .6.1.9.1l.7.1c.2 0 .5.1.7.1l.7.1H34.2l.7-.1c.2 0 .6-.1.8-.1l1-.1c2.2-.4 3.6-.8 6-1.7l1.5-.7c2-1 2.1-1.1 3.4-1.8l1.7-1.1c.7-.6 1.7-1.3 2.4-1.9l1.6-1.5c.6-.6 1.3-1.4 1.8-2.1l1.3-1.8c.4-.7 1-1.6 1.4-2.2l1-2c.3-.7.7-1.7 1-2.4l.7-2.2c.2-.8.4-1.8.6-2.5l.3-2.4c.1-.9.1-2.1.2-3l-.1-2.4c-.1-.8-.2-1.8-.3-2.6l-.4-2.4c-.2-.7-.5-1.7-.7-2.5l-.8-2.2c-.3-.7-.8-1.6-1.1-2.3L57 16c-.4-.6-1-1.5-1.5-2.1l-1.4-1.7c-.6-.6-1.3-1.4-1.9-1.9L50.5 9c-2.1-1.6-2.3-1.7-4-2.7 7.3 4.2 12.1 12.4 12.1 22.4"/><path class="st6" d="M1.9 32.2C3.1 6.9 30.6 5.4 44 19.9c8.7 9.4 10.8 22.1 5.4 31.7 5.6-6 9.2-14.2 9.2-22.8 0-10-4.8-18.2-12.1-22.4-.5-.3-1.1-.7-1.5-.9-.7-.3-1.6-.7-2.3-1L41.4 4c-.4-.1-1-.3-1.5-.5l-1-.3c-.3-.1-.7-.2-1.1-.2l-.8-.1c-.3 0-.6-.1-.9-.1l-.7-.1c-.2 0-.5-.1-.7-.1l-.7-.1H29.4l-.7.1c-.2 0-.6.1-.8.1l-1 .1c-2.8.5-4.2 1-6.4 1.8l-1.5.7c-2 1-2.1 1.1-3.3 1.8L14 8.3c-.7.6-1.7 1.3-2.4 1.9L10 11.8c-.5.6-1.3 1.4-1.8 2.1l-1.3 1.8c-.4.7-1 1.6-1.4 2.3l-1 2.1c-.3.7-.7 1.7-1 2.4l-.7 2.2c-.2.8-.4 1.8-.6 2.5L2 29.6c-.1.8-.1 1.9-.1 2.6"/><path class="st6" d="M58.6 28.7c0 8.6-3.6 16.8-9.2 22.8-4.7 8.1-13.3 11.9-23 10.2l.8.1h.2l.7.1c.2 0 .5.1.7.1l.7.1H34.1l.7-.1c.2 0 .6-.1.8-.1l1-.1c2.2-.4 3.6-.8 6-1.7l1.5-.7c2-1 2.1-1.1 3.4-1.8l1.7-1.1c.7-.6 1.7-1.3 2.4-1.9l1.6-1.5c.6-.6 1.3-1.4 1.8-2.1l1.3-1.8c.4-.7 1-1.6 1.4-2.2l1-2c.3-.7.7-1.7 1-2.4l.7-2.2c.2-.8.4-1.8.6-2.5l.3-2.4c.1-.9.1-2.1.2-3l-.1-2.4c-.1-.8-.2-1.8-.3-2.6l-.3-2.5c-.2-.7-.5-1.7-.7-2.5l-.8-2.2c-.3-.7-.8-1.6-1.1-2.3L57 16c-.4-.6-1-1.5-1.5-2.1l-1.4-1.7c-.6-.6-1.3-1.4-1.9-1.9L50.5 9c-2.1-1.6-2.3-1.7-4-2.7 7.3 4.2 12.1 12.4 12.1 22.4"/><path class="st7" d="M2.5 26.1C9.7.6 40.4 7.2 50 25.8c5.5 10.6 3.5 18.8 1.8 22.8C56 43 58.5 36 58.5 28.7c0-10-4.8-18.2-12.1-22.4-.4-.2-1-.6-1.4-.8-.7-.3-1.6-.7-2.3-1L41.4 4c-.4-.1-1-.3-1.5-.5l-1-.3c-.3-.1-.7-.2-1.1-.2l-.8-.1c-.3 0-.6-.1-.9-.1l-.7-.1c-.2 0-.5-.1-.7-.1l-.7-.1H29.4l-.7.1c-.2 0-.6.1-.8.1l-1 .1c-2.8.5-4.2 1-6.4 1.8l-1.5.7c-2 1-2.1 1.1-3.3 1.8L14 8.3c-.7.6-1.7 1.3-2.4 1.9L10 11.8c-.5.6-1.3 1.4-1.8 2.1l-1.3 1.8c-.4.7-1 1.6-1.4 2.3l-1 2.1c-.3.7-.7 1.7-1 2.4l-.7 2.2c-.2.8-.4 1.8-.6 2.5 0 .2-.1.5-.1.8.2-.6.3-1.3.4-1.9"/><path class="st7" d="M58.6 28.7c0 7.3-2.6 14.2-6.7 19.9-2.4 6.9-9.7 13.8-20.9 13.6h3.3l.7-.1c.2 0 .6-.1.8-.1l1-.1c2.2-.4 3.6-.8 6-1.7l1.5-.7c2-1 2.1-1.1 3.4-1.8l1.7-1.1c.7-.6 1.7-1.3 2.4-1.9l1.6-1.5c.6-.6 1.3-1.4 1.8-2.1l1.3-1.8c.4-.7 1-1.6 1.4-2.2l1-2c.3-.7.7-1.7 1-2.4l.7-2.2c.2-.8.4-1.8.6-2.5l.3-2.4c.1-.9.1-2.1.2-3l-.1-2.4c-.1-.8-.2-1.8-.3-2.6l-.5-2.6c-.2-.7-.5-1.7-.7-2.5l-.8-2.2c-.3-.7-.8-1.6-1.1-2.3L57 16c-.4-.6-1-1.5-1.5-2.1l-1.4-1.7c-.6-.6-1.3-1.4-1.9-1.9L50.5 9c-2.1-1.6-2.3-1.7-4-2.7 7.3 4.2 12.1 12.4 12.1 22.4"/><path class="st8" d="M3.3 23.1C12.1-.1 41.9 5.2 52 26.3c2.1 4.3 4.1 11.1 2.1 18.8 2.8-4.9 4.4-10.6 4.5-16.4 0-10-4.8-18.2-12.1-22.4-.5-.2-1.1-.6-1.5-.8-.7-.3-1.6-.7-2.3-1L41.4 4c-.4-.1-1-.3-1.5-.5l-1-.3c-.3-.1-.7-.2-1.1-.2l-.8-.1c-.3 0-.6-.1-.9-.1l-.7-.1c-.2 0-.5-.1-.7-.1l-.7-.1H29.4l-.7.1c-.2 0-.6.1-.8.1l-1 .1c-2.8.5-4.2 1-6.4 1.8l-1.5.7c-2 1-2.1 1.1-3.3 1.8L14 8.3c-.7.6-1.7 1.3-2.4 1.9L10 11.8c-.5.6-1.3 1.4-1.8 2.1l-1.3 1.8c-.4.7-1 1.6-1.4 2.3l-1 2.1c-.3.7-.7 1.7-1 2.4-.1.3-.2.7-.3 1 0-.2.1-.3.1-.4"/><path class="st8" d="M58.6 28.7c0 5.8-1.7 11.5-4.5 16.4-2 9-9 15.4-18.2 16.8l1-.2c1.5-.3 3.2-.6 5.9-1.7l1.5-.7c2-1 2.1-1.1 3.4-1.8l1.7-1.1c.7-.6 1.7-1.3 2.4-1.9l1.6-1.5c.6-.6 1.3-1.4 1.8-2.1l1.3-1.8c.4-.7 1-1.6 1.4-2.2l1-2c.3-.7.7-1.7 1-2.4l.7-2.2c.2-.8.4-1.8.6-2.5l.3-2.4c.1-.9.1-2.1.2-3l-.1-2.4c-.1-.8-.2-1.8-.3-2.6l-.5-2.4c-.2-.7-.5-1.7-.7-2.5l-.8-2.2c-.3-.7-.8-1.6-1.1-2.3L57 16c-.4-.6-1-1.5-1.5-2.1l-1.4-1.7c-.6-.6-1.3-1.4-1.9-1.9L50.5 9c-2.1-1.6-2.3-1.7-4-2.7 7.3 4.2 12.1 12.4 12.1 22.4"/><path class="st9" d="M6.7 16.1C20.8-4.1 52 9.8 56 32.4c.6 3.1.7 4.2.3 8.2 1.5-3.8 2.3-7.8 2.3-11.9 0-10-4.8-18.2-12.1-22.4-.5-.2-1.1-.6-1.5-.8-.7-.3-1.6-.7-2.3-1L41.4 4c-.4-.1-1-.3-1.5-.5l-1-.3c-.3-.1-.7-.2-1.1-.2l-.8-.1c-.3 0-.6-.1-.9-.1l-.7-.1c-.2 0-.5-.1-.7-.1l-.7-.1H29.4l-.7.1c-.2 0-.6.1-.8.1l-1 .1c-2.8.5-4.2 1-6.4 1.8l-1.5.7c-2 1-2.1 1.1-3.3 1.8L14 8.3c-.7.6-1.7 1.3-2.4 1.9L10 11.8c-.5.6-1.3 1.4-1.8 2.1l-1.3 1.8c-.4.7-1 1.6-1.4 2.3l.8-1.3c.1-.2.3-.4.4-.6"/><path class="st9" d="M58.6 28.7c0 4.1-.8 8.2-2.3 11.9-.2 9.2-6.5 17.3-15.7 20.2l1.1-.4 1-.4 1.5-.7c2-1 2.1-1.1 3.4-1.8l1.7-1.1c.7-.6 1.7-1.3 2.4-1.9l1.6-1.5c.6-.6 1.3-1.4 1.8-2.1l1.3-1.8c.4-.7 1-1.6 1.4-2.2l1-2c.3-.7.7-1.7 1-2.4l.7-2.2c.2-.8.4-1.8.6-2.5l.3-2.4c.1-.9.1-2.1.2-3l-.1-2.4c-.1-.8-.2-1.8-.3-2.6l-.4-2.4c-.2-.7-.5-1.7-.7-2.5l-.8-2.2c-.3-.7-.8-1.6-1.1-2.3L57 16c-.4-.6-1-1.5-1.5-2.1l-1.4-1.7c-.6-.6-1.3-1.4-1.9-1.9L50.5 9c-2.1-1.6-2.3-1.7-4-2.7 7.3 4.2 12.1 12.4 12.1 22.4"/><path class="st10" d="M26.7 61c11-1.9 11-1.9 13.4-3.6 3.3-2.2 6.1-7 6.9-10.2 3.9-16.4-9-26.4-10.5-27.4C19 7.1.2 19.9 2.6 37.4 5.2 55.5 22.9 61.7 26.7 61"/><path class="st11" d="M23.5 60.3c4.7.9 12-1 12-1 3.6-1.5 6.7-4.3 8.7-7.8 4-7.1 3.2-16.6-2-24.2C30.4 10.2 5.9 13 2.9 31.8c-1.9 12.4 7.9 26 20.6 28.5"/><path class="st12" d="M20.8 59.3c18.1 5.7 31.4-12 21.9-29.1C32 11.1 8 13.5 3.8 29.7c-3.5 13.5 5.9 26.2 17 29.6"/><path class="st13" d="M17 57.5c15.6 8.1 31.6-4.8 26.8-21.5-6-20.5-30.5-23.6-38.2-9.1C.1 37.1 5.4 51.4 17 57.5"/><path class="st14" d="M15.9 56.5c15.7 8.9 31.5-3.3 26.9-20.7C38 17.8 13 12.7 5.6 28.3.5 38.8 6.8 51.4 15.9 56.5"/><path class="st15" d="M14.1 54.9c14.3 9.8 30.4.4 28.2-16.5-2.2-17.1-24.9-25.1-34.7-12.3C.7 35.4 5.3 49 14.1 54.9"/><path class="st16" d="M13.9 54.3c14.8 10.6 30-.9 27.5-16-3-17.9-26.2-22.7-33.8-10.8-6 9.5-1.5 21.3 6.3 26.8"/><path class="st17" d="M14.1 54c15.2 10.8 28.8-2.6 26.3-15.7C37.1 20.6 15.2 16.8 7.6 29c-4.8 7.8-2 18.7 6.5 25"/><path class="st18" d="M12.3 51.9c13.3 12 27.7 1.7 27.4-11.1-.4-17.5-21-22.4-29.6-13.7-7 7.3-4.5 18.7 2.2 24.8"/><path class="st19" d="M12.7 51.6c12.5 11.3 27.9.9 26.1-13.5-1.7-13.9-21.5-19.7-29.5-8.6-5.2 7.6-2.2 17 3.4 22.1"/><path class="st20" d="M13.2 51.2c12.8 11.2 26.7-1 25-13.2-1.8-13.1-20-18.5-27.9-8.2-5.9 7.9-1.8 17.3 2.9 21.4"/><path class="st21" d="M11.9 48.9c10.3 12.1 25 3.3 25.8-8.2C38.5 27.4 21.4 21 13 28.6c-8.2 7.5-4.3 16.6-1.1 20.3"/><path class="st22" d="M12.6 48.6c9.7 11 23.6 2.7 24.4-7.9.9-11.4-13.6-20.2-23.6-11.2-6.8 6.1-4.5 14.8-.8 19.1"/><path class="st23" d="M13.5 48.2c8.9 10 22.1 2.2 23-7.6.9-10.2-12.3-19.9-22.9-10-4.2 3.8-5.2 12-.1 17.6"/><path class="st24" d="M14.4 47.8c8 8.2 20.4 2.5 21.4-7.2 1.2-11.1-12-17.7-20.7-10.4-5.9 5-5.1 13.1-.7 17.6"/><path class="st25" d="M13.7 45.3c4.3 6.4 11.2 5.3 11.3 5.3 2.3-.5 9.4-2.1 10.4-10.1.6-4.9-1.6-8.8-6.8-11.8-.1 0-5.8-2.9-11.7.8-5.1 3.2-6.6 10.7-3.2 15.8"/><path class="st26" d="M14.7 45c5.7 8.3 18.8 5.5 20.2-4.5.7-4.5-1.6-8.6-6.3-11.3-.9-.5-5.7-2.9-11.7 1-3.4 2.4-6.2 8.9-2.2 14.8"/><path class="st27" d="M15.6 44.8c5.8 7.3 17.4 4.7 18.9-4.3.3-2 .4-7.1-5.9-10.8-.1-.1-4-1.2-4-1.2-4.3.3-4.3.3-7 2.1-4.6 2.9-5.5 9.8-2 14.2"/><path class="st27" d="M16.4 44.6c6 7.1 16.2 3.5 17.6-4.1 1.5-8-8.2-14.4-15.2-10.1-7.2 4.4-4.2 11.9-2.4 14.2"/><path class="st6" d="M31.7 61c.5-.1.9-.1 1.4-.2 0 0 .1 0 .1-.1-1.6-.3-3.4.1-3.1.5.5.6 3.8.5 3.9-.1 0-.4-.7-.3-.9-.3-.5.1-.9.2-1.4.2"/><path class="st27" d="M16.5 43.3c1.6 2.5 4.7 5.2 10.2 4.3 2.7-.4 6.1-3.4 6.8-7.1.7-3.5-.8-6.7-4.5-9.5-2.1-1.6-6.8-2-8.9-.7-7.9 4.6-5.1 10.6-3.6 13"/><path class="st27" d="M17.9 44.3c2.6 2.7 7.3 3.5 8.8 2.9 3.6-1.5 3.6-1.5 5.5-4.1.8-1.1 1.4-3.1 1.1-5.2-.4-3-2.5-5.1-2.9-5.5-1.6-1.4-1.6-1.4-5.7-2.5-2.6-.7-7.1 2.5-7.9 3.7-3.7 5.7.9 10.5 1.1 10.7"/><path class="st27" d="M16.8 41.8c1.1 2 3.7 5.3 9.8 4.8 1.7-.1 5.5-3 6.1-6.1 1-4.8-2.8-8-2.9-8.1-2-1.6-4.8-2.1-5.1-2.2-1.2-.2-2.8.2-3.9.6-1.1.5-2.5 1.6-3.3 2.5-.2.3-1.5 3-1.5 3.1 0 .1-.5 2.9.8 5.4"/><path class="st7" d="M31.7 61c.3 0 .7-.1 1-.2h.1c-1.2-.2-2.6.1-2.3.4.3.4 2.9.4 2.9-.1 0-.3-.5-.3-.7-.3-.3.1-.7.2-1 .2"/><path class="st27" d="M17.3 41.7c.7 1.2 3.3 4.9 9.2 4.4l2.8-1.2c1.5-1.4 2.4-2.4 3-4.4.9-3.5-1-6.4-3-8.1-1.4-1.1-4.5-1.8-4.6-1.8-1.2-.2-2.8.2-3.9.7-.5.2-3.1 1.5-4.3 5.1-.1.5-.4 3.2.8 5.3"/><path class="st27" d="M17.8 41.6s1.8 2.1 2.1 2.3c.9.7 2.4 1.2 3.5 1.7.8.4 2.1.1 3 0 .9-.1 2.2-.6 2.9-1.2 1.7-1.6 2.4-3.2 2.6-3.9.4-1.4.8-4.9-3.2-8.1-1-.8-2.7-1.3-4-1.4-1.2-.1-2.8.3-3.8.7-2.5 1.2-5.7 5.5-3.1 9.9"/><path class="st27" d="M18.3 41.5c.9 1.5 3.2 4.1 8 3.7 1-.1 2.2-.7 2.9-1.3 1.4-1.3 2.2-3.4 2.2-3.4.8-2.7-.3-5.6-2.7-7.6-.4-.3-3.5-1.5-4-1.5-1.2-.1-2.8.3-3.8.8-.1 0-5.9 3.8-2.6 9.3"/><path class="st8" d="M31.7 61c.2 0 .5-.1.7-.1-.8-.2-1.7 0-1.6.3.2.3 1.9.3 2 0 0-.2-.4-.2-.5-.2h-.6"/><path class="st27" d="M18.9 41.4c1.1 1.7 3.4 2.8 4.2 3.2.9.4 2.2.3 3.2.2 1-.1 2.2-.8 3-1.4.6-.5 1.8-2.9 1.8-2.9.9-2.7-.5-5.7-2.3-7.1-1-.8-2.7-1.5-4-1.6-1.2-.1-2.7.4-3.8.9-.2 0-5.2 3.7-2.1 8.7"/><path class="st27" d="M19.4 41.4s1.6 1.9 3.6 2.8c.9.4 2.2.4 3.2.3 0 0 2.7-1.3 3-1.6.6-.5 1.2-1.6 1.4-2.4 1.2-3.4-1.2-6.1-1.9-6.6-.6-.4-3.4-1.7-4-1.8-.2 0-3.6.8-3.8 1-.9.6-2.1 1.8-2.3 2.9-.2 1.5-.6 3.4.8 5.4"/><path class="st27" d="M19.9 41.3s2.6 2.2 3 2.4c.9.4 2.3.4 3.3.4.3 0 2.5-1.3 3-1.8.5-.4.9-1.2 1.1-1.7 1.3-3.8-1.4-6.1-1.4-6.1s-3.7-1.9-3.9-1.9c-.2 0-3.6 1-3.7 1.1-2.2 1.2-3.5 4.8-1.4 7.6"/><path class="st27" d="M20.4 41.2c.5.7 1.5 1.5 2.3 1.9.9.4 2.3.6 3.3.5.3 0 3-1.9 3.1-2 .3-.2.5-.8.7-1.1.9-2.7-.5-5.3-1-5.6-1.1-.8-2.6-1.8-3.9-2-1.2-.1-2.8.5-3.7 1.2-1.7 1.2-2.7 4.6-.8 7.1"/><path class="st9" d="M31.7 61h.3c-.4-.1-.9 0-.8.1.1.2 1 .1 1 0S32 61 32 61h-.3"/><path class="st27" d="M20.9 41.2c.4.5 1.1 1.1 1.7 1.4 1 .4 2.4.9 3.4.6 1.1-.2 2.2-1.4 3.1-2.1.1-.1.2-.3.3-.5.2-.8.5-1.9.4-2.7 0 0-.7-2.2-1.3-2.7-.9-.8-2.4-1.7-3.6-1.8-1.2-.1-2.6.8-3.7 1.3-1.3.5-1.4 4-1.4 4 .1.7.6 1.8 1.1 2.5"/><path class="st27" d="M21.4 41.1c.2.3.6.7 1 .8 1 .4 2.4 1 3.5.7 1.1-.2 2.1-1.4 3-2.1.1-.1.1-.3.2-.4.4-1.6.8-3.2-1.3-4.9-.7-.6-1.9-1.4-2.8-1.4-1.2-.1-2.6.8-3.6 1.3-.2.1-.4.4-.5.6-1 1.9-.8 3.7.5 5.4"/><path class="st27" d="M21.9 41c.1.1.2.3.4.3 1 .3 2.4 1.1 3.5.8.8-.2 1.7-1 2.2-1.6.5-.6.7-1.7.9-2.4v-.4c-.5-.8-1.2-1.9-1.9-2.5-.5-.4-1.3-1-2-1-1.2-.1-2.9.5-3.6 1.4-.6.7-.7 2-.6 2.8 0 .9.6 2 1.1 2.6"/><path class="st27" d="M22.1 40.3c.2.2.4.5.7.6.9.3 2 .9 2.9.8.5-.1 1.2-.6 1.5-1.1.5-.7 1.1-1.8 1-2.7-.1-1-1.4-1.9-2.1-2.6-.3-.3-.8-.6-1.2-.6-1-.1-5.8 1.9-2.8 5.6"/><path class="st27" d="M21.8 38.8c.6.7 1.6 1.5 2.4 2 .4.2 1 .5 1.5.4.3-.1.6-.3.8-.6.4-.8 1.2-1.8 1.1-2.7-.1-1-1.4-1.9-2.1-2.6-.1-.1-.3-.2-.4-.2-.5 0-.8.1-3.3 3-.3.1-.1.5 0 .7"/><path class="st27" d="M25.5 40.7c.1 0 .1 0 0 0 .2 0 1.2-2.7 1.2-2.7-.1-.8-.9-2.1-1.7-2.1-1 0-2.5 1.4-2.4 2.4.1 1.1 1.9 1.9 2.9 2.4"/><path class="st27" d="M25.4 39.5c.5-.1.7-1 .6-1.5-.1-.4-.5-1.1-.9-1.1-.5 0-1.3.7-1.3 1.3.1.6 1.1 1.4 1.6 1.3"/><path class="st27" d="M25.3 38.2l.1-.1s0-.1-.1-.1l-.1.1s0 .1.1.1"/></g></g><g class="st1"><defs><path id="SVGID_3_" class="st1" d="M1.3 32.3c0-1.2.1-4.3 1-7.7 1-3.7 2.5-6.4 2.9-7.2.7-1.2 1.7-2.7 2.6-3.8.4-.8 1.2-1.6 1.8-2.2 2.1-2.1 2.1-2.1 4-3.5 1.1-.9 2.2-1.6 3.4-2.3.9-.5 2.2-1.1 3.2-1.5 1.4-.5 2.3-.9 4.4-1.4 1.6-.4 4.2-.9 7.4-.9 3.9 0 6.7.8 8.1 1.2.4.1 1.7.5 3.6 1.3 1 .4 2.2 1.1 3.1 1.5 7.5 4.2 12.4 12.6 12.4 22.8 0 16.2-12.3 30.9-27.4 33 15.1-2 27.4-16.8 27.4-33 0-10.2-4.9-18.6-12.4-22.8.7.4 1.7 1 2.4 1.5.5.4 1.2.9 1.7 1.3.6.5 1.4 1.2 2 1.7l1.6 1.6c.5.6 1.2 1.4 1.7 2 1.5 2 2.4 3.6 2.6 4.1.5 1 1.2 2.4 2 4.5.5 1.4.9 3.2 1.2 4.7.4 2.1.6 5.6.3 8.2-.2 1.7-.3 2.9-.9 5-.5 1.7-.5 1.7-1.7 4.7-.6 1.3-1.1 2.2-2.5 4.4-.5.7-1.2 1.6-1.7 2.3-2.7 3.2-5 4.9-7.2 6.3-1.1.7-3.9 2.4-7.9 3.5-4.4 1.2-9 1.5-13.6.7-3.3-.6-5.8-1.6-6.6-2-2.8-1.2-5.1-2.8-5.8-3.3-.6-.5-1.5-1.1-2.1-1.7-2.1-1.9-2.2-2.1-3.4-3.4-1.5-1.7-2.8-3.8-4-6-.4-.7-.8-1.6-1.1-2.4-.8-1.2-1.5-3-1.8-4.4-.7-3-.7-5.6-.7-6.8z"/></defs><clipPath id="SVGID_4_"><use xlink:href="#SVGID_3_" overflow="visible"/></clipPath><g class="st28"><path class="st29" d="M1.3 32.3c.3 19.2 14.9 26.6 19.4 28.4 9.3 3.8 23.2 3 33-7.2C67.5 39.2 64.2 16 46.8 5.8c7.5 4.2 12.4 12.6 12.4 22.8 0 16.2-12.3 30.9-27.4 33 15.1-2 27.4-16.8 27.4-33 0-10.2-4.9-18.6-12.4-22.8C32.2-1.9 20.3 3.7 17 5.6 1.7 14.5 1.2 29.4 1.3 32.3"/><path class="st29" d="M59.1 28.6c0 13.4-8.5 25.9-20 30.9-1.2.7-3 1.6-5 1.6-.8.2-1.6.3-2.4.4.8-.1 1.6-.3 2.4-.4l.1-.1c.2-.1.5-.2.8-.3-5.7.5-5.7.5-5.8.5-1.1.7-2.2.8-2.2.8-.7 0-3.2-.2-7.4-1.8-2.2-.8-7.7-3.5-12.7-10.2C.3 40.9-.2 28.7 5.8 21c13.1-17 39.8-4 43.1 15.8 1.9 11.6-3.8 19.3-9.8 22.7 11.5-5 20-17.5 20-30.9 0-10.2-4.9-18.6-12.4-22.8-.5-.2-1.1-.6-1.6-.8-.7-.3-1.6-.8-2.4-1l-1.3-.5c-.5-.1-1.1-.3-1.5-.5l-1-.3c-.3-.1-.8-.2-1.1-.2l-.9-.2c-.3 0-.6-.1-.9-.1l-.6-.2h-.7l-.7-.1h-4.2c-.2 0-.5 0-.7.1h-.6c-.2 0-.6.1-.8.1l-1 .2c-2.9.5-4.3 1-6.5 1.9l-1.6.7c-2 1.1-2.2 1.1-3.3 1.9L13.6 8c-.7.6-1.7 1.4-2.4 2l-1.6 1.6c-.6.4-1.3 1.3-1.9 1.9l-1.3 1.9c-.4.7-1 1.6-1.4 2.3l-1 2.1c-.3.7-.7 1.7-1 2.5l-.7 2.3c-.2.8-.4 1.8-.6 2.6l-.3 2.4c0 .8-.1 1.9-.1 2.7l.1 2.5c.1 1.2.4 3 .6 4.3l.6 2.3c.3.7.6 1.7.9 2.5l1 2.1c.4.7.9 1.6 1.3 2.3l1.3 1.9c.5.6 1.1 1.5 1.7 2.1l1.5 1.6c.6.6 1.5 1.4 2.1 1.9l1.7 1.3c.8.5 1.9 1.2 2.7 1.7l1.6.8c.7.3 1.6.8 2.4 1l1.3.5c.5.1 1.1.3 1.5.5l1 .3c.3.1.8.2 1.1.2l.9.2c.3 0 .6.1.9.1l.8.1c.2 0 .5.1.8.1l.7.1H34c.2 0 .5 0 .7-.1l.8-.1c.2 0 .6-.1.8-.1l1-.2c2.3-.4 3.7-.8 6.2-1.7l1.6-.7c2-1 2.2-1.1 3.4-1.9l1.7-1.2c.7-.6 1.7-1.4 2.4-2l1.6-1.5c.6-.6 1.3-1.5 1.9-2.1l1.4-1.8c.4-.7 1-1.6 1.4-2.3l1.1-2.1c.3-.7.7-1.7 1-2.4l.7-2.3c.2-.8.4-1.8.6-2.6l.3-2.4c.1-.9.1-2.1.2-3l-.1-2.5c-.1-.8-.2-1.9-.3-2.7l-.5-2.4c-.2-.8-.5-1.8-.8-2.5l-.9-2.2c-.3-.7-.8-1.7-1.2-2.3l-1.2-2c-.5-.7-1.1-1.5-1.5-2.2l-1.5-1.7c-.6-.6-1.3-1.4-1.9-2l-1.6-1.4c-2.1-1.6-2.4-1.8-4-2.7 6.9 4.4 11.9 12.8 11.8 23"/><path class="st30" d="M2.5 41C-3.4 19.9 16 5.2 35.6 16c14.4 8 20.8 29.4 8 41.1 9.2-6 15.6-16.9 15.6-28.5 0-10.2-4.9-18.6-12.4-22.8-.5-.2-1.1-.6-1.6-.8-.7-.3-1.6-.8-2.4-1l-1.3-.5c-.5-.1-1.1-.3-1.5-.5l-1-.3c-.3-.1-.8-.2-1.1-.2l-.9-.2c-.3 0-.6-.1-.9-.1l-.7-.2h-.7l-.7-.1h-4.2c-.2 0-.5 0-.7.1h-.6c-.2 0-.6.1-.8.1l-1 .2c-2.9.5-4.3 1-6.5 1.9l-1.6.7c-2 1.1-2.2 1.1-3.3 1.9L13.6 8c-.7.6-1.7 1.4-2.4 2l-1.6 1.6c-.6.4-1.3 1.3-1.9 1.9l-1.3 1.9c-.4.7-1 1.6-1.4 2.3l-1 2.1c-.3.7-.7 1.7-1 2.5l-.7 2.3c-.2.8-.4 1.8-.6 2.6l-.3 2.4c0 .8-.1 1.9-.1 2.7l.1 2.5c.1 1.2.4 3 .6 4.3l.6 2.3.7 1.9-.8-2.3c0 .1 0 0 0 0"/><path class="st30" d="M59.1 28.6c0 11.6-6.4 22.5-15.6 28.5-4.4 3.8-6.3 3.9-9.8 4.1-.7.1-1.4.3-2.1.4.7-.1 1.4-.2 2.1-.4l.1-.1c-.8-.4-.8-.4-5.6 1.1 0 0-4.8.6-12.7-4 .8.5 1.8 1 2.6 1.5.7.3 1.6.8 2.4 1l1.3.5c.5.1 1.1.3 1.5.5l1 .3c.3.1.8.2 1.1.2l.9.2c.3 0 .6.1.9.1l.8.1c.2 0 .5.1.8.1l.7.1h4.2c.2 0 .5 0 .7-.1l.8-.1c.2 0 .6-.1.8-.1l1-.2c2.3-.4 3.7-.8 6.2-1.7l1.6-.7c2-1 2.2-1.1 3.4-1.9l1.7-1.2c.7-.6 1.7-1.4 2.4-2l1.6-1.5c.6-.6 1.3-1.5 1.9-2.1l1.4-1.8c.4-.7 1-1.6 1.4-2.3l1.1-2.1c.3-.7.7-1.7 1-2.4l.7-2.3c.2-.8.4-1.8.6-2.6l.3-2.4c.1-.9.1-2.1.2-3l-.1-2.5c-.1-.8-.2-1.9-.3-2.7l-.5-2.4c-.2-.8-.5-1.8-.8-2.5l-.9-2.2c-.3-.7-.8-1.7-1.2-2.3l-1.2-2c-.5-.7-1.1-1.5-1.5-2.2l-1.5-1.7c-.6-.6-1.3-1.4-1.9-2L51 8.4c-2.1-1.6-2.4-1.8-4-2.7 7.2 4.3 12.2 12.7 12.1 22.9"/><path class="st31" d="M1.6 37c-2.9-24.2 22-32.9 38.8-19.1C49.1 25 56.8 41 46.8 54.7c7.4-6.2 12.2-15.9 12.2-26 0-10.2-4.9-18.6-12.4-22.8-.5-.2-1.1-.6-1.6-.8-.7-.3-1.6-.8-2.4-1l-1.3-.5c-.5-.1-1.1-.3-1.5-.5l-1-.3c-.3-.1-.8-.2-1.1-.2l-.9-.2c-.3 0-.6-.1-.9-.1l-.5-.3h-.7l-.7-.1h-4.2c-.2 0-.5 0-.7.1h-.6c-.2 0-.6.1-.8.1l-1 .2c-2.9.5-4.3 1-6.5 1.9l-1.6.7c-2 1.1-2.2 1.1-3.3 1.9L13.6 8c-.7.6-1.7 1.4-2.4 2l-1.6 1.6c-.6.4-1.3 1.3-1.9 1.9l-1.3 1.9c-.4.7-1 1.6-1.4 2.3l-1 2.1c-.3.7-.7 1.7-1 2.5l-.7 2.3c-.2.8-.4 1.8-.6 2.6l-.3 2.4c0 .8-.1 1.9-.1 2.7l.1 2.5c.1.8.2 1.9.3 2.8l-.1-.6"/><path class="st31" d="M59.1 28.6c0 10.1-4.9 19.8-12.2 26-4.8 6.3-8.8 6.5-13.5 6.7-.6.1-1.1.2-1.7.3.6-.1 1.2-.2 1.7-.3l.1-.1c-1.4-.5-4 0-3.9.5 0 .2.6.4.9.4-2.4 1.1-9-1.2-9-1.2l1.3.4.7.2 1 .3c.3.1.8.2 1.1.2l.9.2c.3 0 .6.1.9.1l.8.1c.2 0 .5.1.8.1l.7.1h4.2c.2 0 .5 0 .7-.1l.8-.1c.2 0 .6-.1.8-.1l1-.2c2.3-.4 3.7-.8 6.2-1.7l1.6-.7c2-1 2.2-1.1 3.4-1.9l1.7-1.2c.7-.6 1.7-1.4 2.4-2l1.6-1.5c.6-.6 1.3-1.5 1.9-2.1l1.4-1.8c.4-.7 1-1.6 1.4-2.3l1.1-2.1c.3-.7.7-1.7 1-2.4l.7-2.3c.2-.8.4-1.8.6-2.6l.3-2.4c.1-.9.1-2.1.2-3l-.1-2.5c-.1-.8-.2-1.9-.3-2.7l-.5-2.4c-.2-.8-.5-1.8-.8-2.5l-.9-2.2c-.3-.7-.8-1.7-1.2-2.3l-1.2-2c-.5-.7-1.1-1.5-1.5-2.2l-1.5-1.7c-.6-.6-1.3-1.4-1.9-2l-1.6-1.4c-2.1-1.6-2.4-1.8-4-2.7 7 4.5 12 12.9 11.9 23.1"/><path class="st32" d="M1.3 32.2c1.2-25.9 29.3-27.4 43-12.6 8.8 9.5 11 22.5 5.5 32.3 5.7-6.1 9.4-14.5 9.4-23.3 0-10.2-4.9-18.6-12.4-22.8-.5-.2-1.1-.6-1.6-.8-.7-.3-1.6-.8-2.4-1l-1.3-.5c-.5-.1-1.1-.3-1.5-.5l-1-.3c-.3-.1-.8-.2-1.1-.2l-.9-.2c-.3 0-.6-.1-.9-.1l-.7-.2h-.7l-.7-.1h-4.2c-.2 0-.5 0-.7.1h-.6c-.2 0-.6.1-.8.1l-1 .2c-2.9.5-4.3 1-6.5 1.9l-1.6.7c-2 1.1-2.2 1.1-3.3 1.9L13.6 8c-.7.6-1.7 1.4-2.4 2l-1.6 1.6c-.6.4-1.3 1.3-1.9 1.9l-1.3 1.9c-.4.7-1 1.6-1.4 2.3l-1 2.1c-.3.7-.7 1.7-1 2.5l-.7 2.3c-.2.8-.4 1.8-.6 2.6l-.3 2.4c-.1.8-.1 1.8-.1 2.6"/><path class="st32" d="M59.1 28.6c0 8.8-3.7 17.1-9.4 23.3-4.7 8.3-13.5 12.2-23.5 10.4l.8.1h.2l.8.1c.2 0 .5.1.8.1l.7.1h4.2c.2 0 .5 0 .7-.1l.8-.1c.2 0 .6-.1.8-.1l1-.2c2.3-.4 3.7-.8 6.2-1.7l1.6-.7c2-1 2.2-1.1 3.4-1.9l1.7-1.2c.7-.6 1.7-1.4 2.4-2l1.6-1.5c.6-.6 1.3-1.5 1.9-2.1l1.4-1.8c.4-.7 1-1.6 1.4-2.3l1.1-2.1c.3-.7.7-1.7 1-2.4l.7-2.3c.2-.8.4-1.8.6-2.6l.3-2.4c.1-.9.1-2.1.2-3l-.1-2.5c-.1-.8-.2-1.9-.3-2.7l-.5-2.4c-.2-.8-.5-1.8-.8-2.5l-.9-2.2c-.3-.7-.8-1.7-1.2-2.3l-1.2-2c-.5-.7-1.1-1.5-1.5-2.2l-1.5-1.7c-.6-.6-1.3-1.4-1.9-2L51 8.3c-2.1-1.6-2.4-1.8-4-2.7 7.2 4.4 12.2 12.8 12.1 23"/><path class="st33" d="M1.9 26c7.4-26 38.7-19.2 48.5-.4C56 36.4 54 44.8 52.3 48.9c4.3-5.7 6.9-12.9 6.9-20.3 0-10.2-4.9-18.6-12.4-22.8-.5-.2-1.1-.6-1.6-.8-.7-.3-1.6-.8-2.4-1l-1.3-.5c-.5-.1-1.1-.3-1.5-.5l-1-.3c-.3-.1-.8-.2-1.1-.2l-.9-.2c-.3 0-.6-.1-.9-.1l-.7-.2h-.7l-.7-.1h-4.2c-.2 0-.5 0-.7.1h-.6c-.2 0-.6.1-.8.1l-1 .2c-2.9.5-4.3 1-6.5 1.9l-1.6.7c-2 1.1-2.2 1.1-3.3 1.9L13.6 8c-.7.6-1.7 1.4-2.4 2l-1.6 1.6c-.6.4-1.3 1.3-1.9 1.9l-1.3 1.9c-.4.7-1 1.6-1.4 2.3l-1 2.1c-.3.7-.7 1.7-1 2.5l-.7 2.3c-.2.8-.4 1.8-.6 2.6 0 .2-.1.6-.1.8.1-.7.2-1.5.3-2"/><path class="st33" d="M59.1 28.6c0 7.4-2.6 14.5-6.9 20.3-2.3 7-9.9 14.1-21.2 13.9H33.6c.2 0 .5 0 .7-.1l.8-.1c.2 0 .6-.1.8-.1l1-.2c2.3-.4 3.7-.8 6.2-1.7l1.6-.7c2-1 2.2-1.1 3.4-1.9l1.7-1.2c.7-.6 1.7-1.4 2.4-2l1.6-1.5c.6-.6 1.3-1.5 1.9-2.1l1.4-1.8c.4-.7 1-1.6 1.4-2.3l1.1-2.1c.3-.7.7-1.7 1-2.4l.7-2.3c.2-.8.4-1.8.6-2.6l.3-2.4c.1-.9.1-2.1.2-3l-.1-2.5c-.1-.8-.2-1.9-.3-2.7l-.5-2.4c-.2-.8-.5-1.8-.8-2.5l-.9-2.2c-.3-.7-.8-1.7-1.2-2.3l-1.2-2c-.5-.7-1.1-1.5-1.5-2.2l-1.5-1.7c-.6-.6-1.3-1.4-1.9-2l-1.6-1.4c-2.1-1.6-2.4-1.8-4-2.7 7.3 4.3 12.3 12.7 12.2 22.9"/><path class="st34" d="M2.7 22.9C11.6-.7 42.1 4.7 52.4 26.1c2.1 4.4 4.2 11.3 2.1 19.2 2.9-5 4.5-10.8 4.5-16.7C59 18.4 54.1 10 46.6 5.8c-.5-.2-1.1-.6-1.6-.8-.7-.3-1.6-.8-2.4-1l-1.3-.5c-.5-.1-1.1-.3-1.5-.5l-1-.3c-.3-.1-.8-.2-1.1-.2l-.9-.2c-.3 0-.6-.1-.9-.1l-.5-.2h-.7l-.7-.1h-4.2c-.2 0-.5 0-.7.1h-.6c-.2 0-.6.1-.8.1l-1 .2c-2.9.5-4.3 1-6.5 1.9l-1.6.7c-2 1.1-2.2 1.1-3.3 1.9L13.6 8c-.7.6-1.7 1.4-2.4 2l-1.6 1.6c-.6.4-1.3 1.3-1.9 1.9l-1.3 1.9c-.4.7-1 1.6-1.4 2.3l-1 2.1c-.3.7-.7 1.7-1 2.5-.1.3-.2.7-.3 1v-.4"/><path class="st34" d="M59.1 28.6c0 5.9-1.7 11.7-4.5 16.7-2 9.2-9.1 15.8-18.6 17.2l1-.2c1.5-.3 3.2-.6 6-1.7l1.6-.7c2-1 2.2-1.1 3.4-1.9l1.7-1.2c.7-.6 1.7-1.4 2.4-2l1.6-1.5c.6-.6 1.3-1.5 1.9-2.1l1.4-1.8c.4-.7 1-1.6 1.4-2.3l1.1-2.1c.3-.7.7-1.7 1-2.4l.7-2.3c.2-.8.4-1.8.6-2.6l.3-2.4c.1-.9.1-2.1.2-3l-.1-2.5c-.1-.8-.2-1.9-.3-2.7l-.5-2.4c-.2-.8-.5-1.8-.8-2.5l-.9-2.2c-.3-.7-.8-1.7-1.2-2.3l-1.2-2c-.5-.7-1.1-1.5-1.5-2.2l-1.5-1.7c-.6-.6-1.3-1.4-1.9-2l-1.6-1.4c-2.1-1.6-2.4-1.8-4-2.7 7.4 4.3 12.4 12.7 12.3 22.9"/><path class="st35" d="M6.2 15.8C20.6-4.8 52.4 9.4 56.5 32.4c.6 3.2.8 4.3.3 8.3 1.5-3.8 2.4-7.9 2.4-12.2 0-10.2-4.9-18.6-12.4-22.8-.5-.2-1.1-.6-1.6-.8-.7-.3-1.6-.8-2.4-1l-1.3-.5c-.5-.1-1.1-.3-1.5-.5l-1-.3c-.3-.1-.8-.2-1.1-.2l-.9-.2c-.3 0-.6-.1-.9-.1l-.7-.1h-.7l-.7-.1h-4.2c-.2 0-.5 0-.7.1h-.6c-.2 0-.6.1-.8.1l-1 .2c-2.9.5-4.3 1-6.5 1.9l-1.6.7c-2 1.1-2.2 1.1-3.3 1.9L13.6 8c-.7.6-1.7 1.4-2.4 2l-1.6 1.6c-.6.4-1.3 1.3-1.9 1.9l-1.3 1.9c-.4.7-1 1.6-1.4 2.3l.8-1.4c.1-.1.3-.3.4-.5"/><path class="st35" d="M59.1 28.6c0 4.2-.9 8.3-2.4 12.2-.2 9.4-6.6 17.7-16 20.6l1.1-.4 1.1-.4 1.6-.7c2-1 2.2-1.1 3.4-1.9l1.7-1.2c.7-.6 1.7-1.4 2.4-2l1.6-1.5c.6-.6 1.3-1.5 1.9-2.1l1.4-1.8c.4-.7 1-1.6 1.4-2.3l1.1-2.1c.3-.7.7-1.7 1-2.4l.7-2.3c.2-.8.4-1.8.6-2.6l.3-2.4c.1-.9.1-2.1.2-3l-.1-2.5c-.1-.8-.2-1.9-.3-2.7l-.5-2.4c-.2-.8-.5-1.8-.8-2.5l-.9-2.2c-.3-.7-.8-1.7-1.2-2.3l-1.2-2c-.5-.7-1.1-1.5-1.5-2.2l-1.5-1.7c-.6-.6-1.3-1.4-1.9-2l-1.6-1.4c-2.1-1.6-2.4-1.8-4-2.7 7.5 4.3 12.5 12.7 12.4 22.9"/><path class="st36" d="M26.6 61.6c11.2-2 11.2-2 13.7-3.7 3.4-2.3 6.3-7.2 7-10.4 4-16.7-9.2-26.9-10.7-28C18.8 6.6-.5 19.7 2 37.5 4.6 56 22.7 62.3 26.6 61.6"/><path class="st37" d="M23.3 60.9c4.8 1 12.2-1 12.2-1 3.7-1.6 6.9-4.4 8.9-7.9 4.1-7.2 3.3-16.9-2.1-24.7-12-17.5-37-14.6-40 4.5-1.9 12.7 8.1 26.5 21 29.1"/><path class="st38" d="M20.6 59.9c18.5 5.7 32.1-12.3 22.3-29.7-10.9-19.5-35.4-17-39.6-.6-3.6 13.8 6 26.8 17.3 30.3"/><path class="st39" d="M16.8 58c15.9 8.3 32.3-4.9 27.3-22C38 15.1 12.9 11.9 5 26.7-.6 37.2 4.9 51.8 16.8 58"/><path class="st40" d="M15.5 57c16 9.1 32.2-3.4 27.4-21.1C38 17.5 12.5 12.3 5 28.2-.1 38.9 6.3 51.7 15.5 57"/><path class="st41" d="M13.7 55.4c14.6 9.9 31 .4 28.8-16.8C40.2 21.1 17.1 12.9 7.2 26 0 35.4 4.8 49.3 13.7 55.4"/><path class="st42" d="M13.5 54.8c15.1 10.8 30.6-1 28.1-16.3-3-18.2-26.7-23.1-34.4-11.1-6.2 9.7-1.6 21.7 6.3 27.4"/><path class="st43" d="M13.8 54.4c15.5 11 29.4-2.7 26.9-16C37.3 20.3 15 16.5 7.2 28.9c-5 7.9-2.1 19.2 6.6 25.5"/><path class="st44" d="M12 52.3C25.5 64.6 40.2 54 39.9 41c-.4-17.8-21.4-22.8-30.1-14-7.3 7.4-4.7 19.1 2.2 25.3"/><path class="st45" d="M12.4 52c12.7 11.5 28.4.9 26.6-13.8C37.3 24 17.1 18.1 9 29.5 3.5 37.2 6.6 46.8 12.4 52"/><path class="st46" d="M12.9 51.6c13 11.4 27.2-1 25.5-13.4C36.6 24.8 18 19.4 9.9 29.9c-6 7.9-1.9 17.4 3 21.7"/><path class="st47" d="M11.5 49.3C22 61.6 37 52.7 37.8 40.9c.9-13.6-16.6-20.1-25.2-12.3-8.3 7.6-4.3 16.8-1.1 20.7"/><path class="st48" d="M12.2 48.9c9.8 11.2 24.1 2.7 24.9-8.1.9-11.6-13.8-20.6-24-11.4-7 6.2-4.7 15.1-.9 19.5"/><path class="st49" d="M13.1 48.5c9.1 10.1 22.6 2.2 23.4-7.7.9-10.4-12.6-20.3-23.4-10.2-4.1 3.8-5.2 12.2 0 17.9"/><path class="st50" d="M14.1 48.1c8.2 8.4 20.8 2.6 21.8-7.4 1.2-11.4-12.2-18.1-21.1-10.6-6 5.1-5.2 13.4-.7 18"/><path class="st51" d="M13.4 45.6c4.4 6.5 11.4 5.5 11.5 5.4 2.4-.5 9.6-2.1 10.6-10.3.6-5-1.6-8.9-6.9-12.1-.1 0-5.9-2.9-11.9.9-5.3 3.2-6.8 10.9-3.3 16.1"/><path class="st52" d="M14.4 45.3c5.9 8.5 19.1 5.6 20.6-4.5.7-4.6-1.7-8.8-6.4-11.5-1.3-.7-6-2.8-11.9 1.1-3.1 1.8-6.9 8.3-2.3 14.9"/><path class="st53" d="M15.2 45c5.9 7.5 17.8 4.8 19.3-4.3.3-2 .4-7.2-6-11-1.9-1.1-6-2.5-11.3.8-4.5 3-5.5 10-2 14.5"/><path class="st54" d="M16.1 44.8c6.1 7.2 16.5 3.6 17.9-4.1 1.4-7.5-7.8-15-15.5-10.3-7.3 4.5-4.3 12.1-2.4 14.4"/><path class="st32" d="M31.7 61.6c.5-.1.9-.1 1.4-.2 0 0 .1 0 .1-.1-1.7-.3-3.5.1-3.2.5.5.6 3.9.5 4-.1 0-.4-.7-.3-1-.3-.4.1-.8.1-1.3.2"/><path class="st55" d="M16.2 43.5c1.6 2.5 4.8 5.3 10.4 4.4 2.7-.4 6.2-3.5 7-7.2.7-3.6-.8-6.8-4.6-9.7-2.1-1.6-6.9-2-9.1-.7-8 4.7-5.2 10.8-3.7 13.2"/><path class="st56" d="M17.6 44.5c2.7 2.7 7.5 3.5 9 2.9 3.6-1.5 3.7-1.5 5.6-4.2.8-1.1 1.5-3.2 1.2-5.3-.4-3.1-2.6-5.2-3-5.6-1.6-1.5-1.6-1.5-5.8-2.6-2.7-.7-7.2 2.5-8 3.7-3.8 6 .8 10.9 1 11.1"/><path class="st57" d="M16.5 42c1.1 2.1 3.8 5.4 9.9 4.9 1.8-.1 5.6-3 6.3-6.3 1-4.9-2.8-8.1-3-8.3-2-1.6-4.9-2.1-5.2-2.2-1.2-.2-2.8.2-4 .6-1.2.5-2.5 1.6-3.3 2.6-.3.3-1.5 3.1-1.6 3.1.1.2-.4 3.1.9 5.6"/><path class="st33" d="M31.7 61.6c.3 0 .7-.1 1-.2h.1c-1.3-.2-2.6.1-2.4.4.3.5 3 .4 3-.1 0-.3-.5-.3-.7-.3-.3.1-.6.1-1 .2"/><path class="st58" d="M17 41.9c.7 1.2 3.3 5 9.3 4.5l2.9-1.3c1.5-1.4 2.5-2.4 3-4.5.9-3.5-1-6.6-3.1-8.2-1.4-1.1-4.6-1.8-4.6-1.8-1.2-.2-2.8.2-3.9.7-.5.2-3.1 1.6-4.4 5.2-.1.5-.4 3.3.8 5.4"/><path class="st59" d="M17.5 41.8s1.9 2.2 2.1 2.3c1 .7 2.5 1.2 3.5 1.7.8.4 2.2.1 3.1 0 1-.1 2.3-.6 3-1.3 1.8-1.7 2.4-3.2 2.6-4 .4-1.4.9-5-3.2-8.2-1-.8-2.8-1.3-4.1-1.5-1.2-.1-2.8.3-3.9.8-2.5 1.3-5.7 5.7-3.1 10.2"/><path class="st60" d="M18.1 41.7c1 1.6 3.3 4.2 8.1 3.8 1-.1 2.3-.7 3-1.4 1.4-1.3 2.2-3.5 2.2-3.5.8-2.7-.3-5.7-2.8-7.7-.4-.3-3.5-1.5-4-1.6-1.2-.1-2.8.3-3.9.8-.1.1-6 4-2.6 9.6"/><path class="st34" d="M31.7 61.6c.2 0 .5-.1.7-.1-.8-.2-1.8 0-1.6.3.2.3 2 .3 2 0 0-.2-.4-.2-.5-.2-.1-.1-.4 0-.6 0"/><path class="st61" d="M18.6 41.6c1.1 1.8 3.5 2.9 4.2 3.2.9.4 2.3.3 3.2.2 1-.1 2.3-.8 3-1.5.6-.5 1.8-2.9 1.8-3 .9-2.8-.5-5.8-2.4-7.2-1-.8-2.7-1.5-4-1.7-1.2-.1-2.8.4-3.9.9.1.2-5 4-1.9 9.1"/><path class="st62" d="M19.1 41.5s1.6 1.9 3.6 2.8c.9.4 2.3.4 3.3.3 0 0 2.8-1.3 3.1-1.6.6-.6 1.2-1.6 1.5-2.4 1.2-3.4-1.2-6.2-1.9-6.7-.6-.4-3.5-1.7-4-1.8-.2 0-3.7.9-3.8 1-.9.6-2.1 1.9-2.4 3-.4 1.5-.8 3.5.6 5.4"/><path class="st63" d="M19.6 41.5s2.7 2.2 3 2.4c.9.4 2.3.4 3.3.4.3 0 2.5-1.3 3.1-1.8.5-.4.9-1.2 1.1-1.8 1.3-3.8-1.4-6.2-1.5-6.2 0 0-3.8-1.9-4-1.9-.2 0-3.6 1-3.8 1.1-1.9 1.3-3.3 5-1.2 7.8"/><path class="st64" d="M20.2 41.4c.6.7 1.5 1.6 2.4 1.9.9.4 2.4.6 3.4.5.4 0 3.1-2 3.1-2 .3-.3.6-.8.7-1.1 1-2.8-.6-5.4-1-5.7-1.1-.8-2.7-1.9-4-2-1.2-.1-2.8.5-3.8 1.2-1.8 1.1-2.8 4.7-.8 7.2"/><path class="st35" d="M31.7 61.6h.3c-.4-.1-.9 0-.8.1.1.2 1 .1 1 0s-.2-.1-.2-.1h-.3"/><path class="st65" d="M20.7 41.3c.4.5 1.1 1.1 1.7 1.4 1 .4 2.4.9 3.5.7 1.1-.2 2.2-1.5 3.2-2.2.1-.1.3-.3.3-.5.2-.8.5-1.9.4-2.7 0 0-.7-2.3-1.3-2.7-.9-.8-2.4-1.8-3.7-1.9-1.2-.1-2.6.9-3.8 1.3-1.4.5-1.5 4-1.5 4.1.1.8.7 1.9 1.2 2.5"/><path class="st66" d="M21.2 41.3c.2.3.7.7 1 .9 1 .4 2.5 1 3.5.8 1.1-.2 2.2-1.5 3-2.2.1-.1.1-.3.2-.4.4-1.6.8-3.2-1.3-5-.7-.6-1.9-1.4-2.9-1.4-1.2-.1-2.6.9-3.7 1.4-.2.1-.4.4-.5.6-.9 1.7-.6 3.5.7 5.3"/><path class="st67" d="M21.7 41.2c.1.1.2.3.4.3 1.1.3 2.5 1.1 3.6.9.8-.2 1.8-1 2.3-1.7.5-.6.7-1.7.9-2.5v-.4c-.5-.8-1.2-1.9-2-2.6-.5-.4-1.4-1-2-1-1.2-.1-2.9.5-3.7 1.4-.6.7-.7 2-.6 2.9-.1 1 .6 2 1.1 2.7"/><path class="st68" d="M21.9 40.5c.2.2.5.5.7.6.9.3 2.1.9 3 .8.6-.1 1.2-.6 1.5-1.1.5-.7 1.2-1.9 1-2.7-.1-1-1.4-2-2.1-2.7-.3-.3-.8-.6-1.3-.6-.9-.1-5.8 1.9-2.8 5.7"/><path class="st69" d="M21.6 38.9c.6.8 1.6 1.6 2.4 2.1.4.3 1.1.5 1.5.4.3-.1.6-.3.8-.6.4-.8 1.2-1.9 1.1-2.8-.1-1-1.5-1.9-2.1-2.7-.1-.1-.3-.2-.4-.2-.5 0-.8.1-3.4 3-.2.2 0 .6.1.8"/><path class="st70" d="M25.4 40.9s.1 0 0 0c.2 0 1.3-2.8 1.3-2.8-.1-.8-.9-2.1-1.8-2.2-1-.1-2.5 1.4-2.4 2.5 0 1.1 1.9 1.9 2.9 2.5"/><path class="st71" d="M25.3 39.6c.5-.1.7-1 .6-1.5 0-.4-.4-1.1-.9-1.1s-1.3.7-1.3 1.3c.1.6 1 1.4 1.6 1.3"/><path class="st72" d="M25.2 38.3l.1-.1s0-.1-.1-.1l-.1.1c-.1 0 0 .1.1.1"/></g></g><g class="st1"><defs><path id="SVGID_5_" class="st1" d="M31.7 61v0z"/></defs><clipPath id="SVGID_6_"><use xlink:href="#SVGID_5_" overflow="visible"/></clipPath><path class="st73 st9" d="M31.7 61.3V61v.3"/></g><g class="st1"><defs><path id="SVGID_7_" class="st1" d="M31.7 61.3V61v.3z"/></defs><clipPath id="SVGID_8_"><use xlink:href="#SVGID_7_" overflow="visible"/></clipPath><path class="st74 st35" d="M31.7 61v.3-.3"/></g><g class="st1"><defs><path id="SVGID_9_" class="st1" d="M31.7 61.3V61v.3z"/></defs><clipPath id="SVGID_10_"><use xlink:href="#SVGID_9_" overflow="visible"/></clipPath><path class="st75 st9" d="M31.7 61.3V61v.3"/></g><g class="st1"><defs><path id="SVGID_11_" class="st1" d="M31.7 61v.3-.3z"/></defs><clipPath id="SVGID_12_"><use xlink:href="#SVGID_11_" overflow="visible"/></clipPath><path class="st76 st35" d="M31.7 61v.3-.3"/></g><g class="st1"><defs><path id="SVGID_13_" class="st1" d="M31.7 61v.3-.3z"/></defs><clipPath id="SVGID_14_"><use xlink:href="#SVGID_13_" overflow="visible"/></clipPath><path class="st77 st35" d="M31.7 61v.3-.3"/></g><g class="st1"><defs><path id="SVGID_15_" class="st1" d="M31.7 61.3V61v.3z"/></defs><clipPath id="SVGID_16_"><use xlink:href="#SVGID_15_" overflow="visible"/></clipPath><path class="st78 st9" d="M31.7 61.3V61v.3"/></g><g class="st1"><defs><path id="SVGID_17_" class="st1" d="M27.8 2.7c4.9-.7 8.5 0 10 .3 1 .2 2.6.6 4.6 1.3 1.3.5 2.5 1 4.1 1.9 7.3 4.2 12.1 12.4 12.1 22.4C58.6 44.5 46.5 59 31.7 61c14.8-2 26.9-16.5 26.9-32.3 0-10-4.8-18.2-12.1-22.4.5.3 1.2.7 1.7 1 .8.6 1.8 1.3 2.6 1.9 1 .8 2.2 2.1 3.2 3 .6.6 1.3 1.5 1.8 2.2 1.4 2.1 2 2.9 2.6 4.2 1.1 2.3 1.3 2.7 1.9 4.5.7 2.2.9 3.5 1.1 4.8.2 1.3.3 3 .3 4.4 0 1.5-.2 3.4-.4 4.8-.3 1.8-1.2 5.2-2.1 7.2-1.4 2.8-1.4 2.8-2.3 4.3-1.3 1.9-2.5 3.3-2.9 3.8-3.1 3.4-5.4 4.7-7.5 6-1.2.7-3.3 1.6-3.3 1.6-1 .4-2.3.9-4.4 1.4-3.6.9-6.4.9-8.5.8-2.9-.1-6-.8-7.9-1.5-.9-.3-2.1-.7-3-1.2-1-.5-2.8-1.3-4-2.2-.5-.4-1.2-.8-1.7-1.2-.7-.5-1.5-1.2-2.2-1.8-1.9-1.8-3.2-3.4-3.3-3.6-.7-.9-1.6-2.1-2.7-4.1-.7-1.2-1.4-2.9-1.9-4.2-.3-.7-1.4-4-1.6-7.4-.2-2-.2-2 0-5.1 0-.9.2-2.1.4-2.9.5-2.1.6-3 1.3-4.8.9-2.4 1.9-4.2 2-4.4 1.1-1.9 3.7-6.3 9.4-10.1 4.7-3.4 9.5-4.6 12.7-5z"/></defs><clipPath id="SVGID_18_"><use xlink:href="#SVGID_17_" overflow="visible"/></clipPath><g class="st79"><path class="st29" d="M27.8 2.7c6.4-.9 12.7.3 18.7 3.6 7.3 4.2 12.1 12.4 12.1 22.4C58.6 44.5 46.5 59 31.7 61c14.8-2 26.9-16.5 26.9-32.3 0-10-4.8-18.2-12.1-22.4 15.3 9.4 15.8 23.4 14.8 30.9-1.3 9.4-8.9 20.9-22.5 24.2C12.4 67.7-8.1 38.3 6.9 15.8c4.7-7.2 12.3-12 20.9-13.1"/><path class="st29" d="M58.6 28.7c0-10-4.8-18.2-12.1-22.4 2 1.3 2.5 1.5 4.3 2.9l1.6 1.4c.6.6 1.4 1.4 1.9 2l1.4 1.7c.5.7 1.1 1.5 1.5 2.2l1.1 2c.3.7.8 1.6 1.1 2.4l.8 2.2c.2.7.5 1.7.7 2.5l.4 2.3c.1 1.3.3 3 .3 4.4l-.1 2.4c-.1.8-.2 1.8-.3 2.6l-.5 2.3c-.2.7-.5 1.7-.7 2.5l-.9 2.2c-.3.7-.7 1.7-1.1 2.3l-1.2 1.9c-.5.6-1 1.5-1.5 2.1l-1.4 1.7c-.6.6-1.3 1.4-1.9 1.9l-1.6 1.3c-.7.5-1.7 1.3-2.4 1.8l-1.5.9c-2 1.1-2.1 1.1-3.3 1.6l-1.2.6c-2 .7-3.4 1.1-6.3 1.6H35c-.2 0-.5.1-.8.1h-4.6c-.2 0-.5 0-.7-.1h-.7c-.2 0-.5-.1-.8-.1l-.8-.1c-.3-.1-.6-.1-.9-.2l-1-.2c-.3-.1-.8-.2-1.1-.3l-1.2-.4c-.5-.2-1.1-.4-1.5-.5l-1.5-.6c-.7-.3-1.6-.8-2.3-1.2l-1.7-1.1c-2.1-1.5-2.4-1.7-3.8-3L10 52.8c-.5-.6-1.3-1.4-1.8-2.1l-1.3-1.8c-.4-.7-1-1.6-1.4-2.2l-1-2.1c-.3-.7-.7-1.7-1-2.4L2.8 40c-.2-.8-.4-1.8-.5-2.5L2 34.9c0-.8-.1-1.9-.1-2.7l.1-2.4c.1-.9.2-2 .4-2.9l.5-2.3c.2-.7.5-1.7.8-2.5l.8-2.1c.3-.7.8-1.6 1.2-2.3l1.2-1.9c.5-.6 1.1-1.5 1.5-2.1L9.8 12c.6-.6 1.4-1.4 2-1.9l1.6-1.3c.7-.5 1.7-1.2 2.5-1.7l1.5-.9c2-1 2.1-1.1 3.4-1.6l1.1-.4c1.5-.5 3.1-1 5.9-1.4l.8-.1c.2 0 .5-.1.8-.1H34c.2 0 .5 0 .7.1l.7.1c.2 0 .5.1.8.1l.8.1c.2-.1.6 0 .8 0l1 .2c.3.1.8.2 1.1.3l1.2.4c.5.2 1.1.4 1.5.5l1.5.6c.7.3 1.6.8 2.3 1.2 7.4 4.3 12.2 12.5 12.2 22.5 0 13.1-8.3 25.4-19.6 30.3.1 0 .2-.1.2-.1C57.4 47.2 48 20.3 28.8 14.7 9.6 9-4.5 27.8 5.2 46.1 12.3 59.4 27.8 65.3 39 59c11.3-4.9 19.6-17.2 19.6-30.3"/><path class="st30" d="M3.5 42.1c-.3-1-.8-2.5-1.2-4.8L2 34.9c0-.8-.1-1.9-.1-2.7l.1-2.4c.1-.9.2-2 .4-2.9l.5-2.3c.2-.7.5-1.7.8-2.5l.8-2.1c.3-.7.8-1.6 1.2-2.3l1.2-1.9c.5-.6 1.1-1.5 1.5-2.1L9.8 12c.6-.6 1.4-1.4 2-1.9l1.6-1.3c.7-.5 1.7-1.2 2.5-1.7l1.5-.9c2-1 2.1-1.1 3.4-1.6l1.1-.4c1.5-.5 3.1-1 5.9-1.4l.8-.1c.2 0 .5-.1.8-.1H34c.2 0 .5 0 .7.1l.7.1c.2 0 .5.1.8.1l.8.1c.2-.1.6 0 .8 0l1 .2c.3.1.8.2 1.1.3l1.2.4c.5.2 1.1.4 1.5.5l1.5.6c.7.3 1.6.8 2.3 1.2 7.3 4.2 12.1 12.4 12.1 22.4 0 11.4-6.3 22.1-15.3 28l.4-.4c16.4-17.1-1-44.3-22-43.6C6.7 13.2-2 28 3.9 43.1c-.1-.3-.3-.7-.4-1"/><path class="st30" d="M58.6 28.7c0-10-4.8-18.2-12.1-22.4 2 1.3 2.5 1.5 4.3 2.9l1.6 1.4c.6.6 1.4 1.4 1.9 2l1.4 1.7c.5.7 1.1 1.5 1.5 2.2l1.1 2c.3.7.8 1.6 1.1 2.4l.8 2.2c.2.7.5 1.7.7 2.5l.4 2.3c.1 1.3.3 3 .3 4.4l-.1 2.4c-.1.8-.2 1.8-.3 2.6l-.5 2.3c-.2.7-.5 1.7-.7 2.5l-.9 2.2c-.3.7-.7 1.7-1.1 2.3l-1.2 1.9c-.5.6-1 1.5-1.5 2.1l-1.4 1.7c-.6.6-1.3 1.4-1.9 1.9l-1.6 1.3c-.7.5-1.7 1.3-2.4 1.8l-1.5.9c-2 1.1-2.1 1.1-3.3 1.6l-1.2.6c-2 .7-3.4 1.1-6.3 1.6H35c-.2 0-.5.1-.8.1h-4.6c-.2 0-.5 0-.7-.1h-.7c-.2 0-.5-.1-.8-.1l-.8-.1c-.3-.1-.6-.1-.9-.2l-1-.2c-.3-.1-.8-.2-1.1-.3l-1.2-.4c-.5-.2-1.1-.4-1.5-.5l-1.5-.6c-.7-.3-1.6-.8-2.3-1.2-.4-.2-.9-.5-1.3-.8.5.3 1.2.7 1.7 1 14.9 7.4 24.1-.3 25.8-1.9 9-5.9 15.3-16.6 15.3-28"/><path class="st31" d="M2.3 37.3c-.2-1.4-.4-2.8-.4-5l.1-2.5c.1-.9.2-2 .4-2.9l.5-2.3c.2-.7.5-1.7.8-2.5l.8-2.1c.3-.7.8-1.6 1.2-2.3l1.2-1.9c.5-.6 1.1-1.5 1.5-2.1L9.8 12c.6-.6 1.4-1.4 2-1.9l1.6-1.3c.7-.5 1.7-1.2 2.5-1.7l1.5-.9c2-1 2.1-1.1 3.4-1.6l1.1-.4c1.5-.5 3.1-1 5.9-1.4l.8-.1c.2 0 .5-.1.8-.1H34c.2 0 .5 0 .7.1l.7.1c.2 0 .5.1.8.1l.8.1c.2-.1.6 0 .8 0l1 .2c.3.1.8.2 1.1.3l1.2.4c.5.2 1.1.4 1.5.5l1.5.6c.7.3 1.6.8 2.3 1.2 7.3 4.2 12.1 12.4 12.1 22.4 0 10-4.8 19.4-12 25.5.3-.4.7-1 1-1.4 12.3-20.4-8.7-44.6-28.9-40.9C7.1 14.1.2 24.8 2.3 37.4v-.1"/><path class="st31" d="M58.6 28.7c0-10-4.8-18.2-12.1-22.4 2 1.3 2.5 1.5 4.3 2.9l1.6 1.4c.6.6 1.4 1.4 1.9 2l1.4 1.7c.5.7 1.1 1.5 1.5 2.2l1.1 2c.3.7.8 1.6 1.1 2.4l.8 2.2c.2.7.5 1.7.7 2.5l.4 2.3c.1 1.3.3 3 .3 4.4l-.1 2.4c-.1.8-.2 1.8-.3 2.6l-.5 2.3c-.2.7-.5 1.7-.7 2.5l-.9 2.2c-.3.7-.7 1.7-1.1 2.3l-1.2 1.9c-.5.6-1 1.5-1.5 2.1l-1.4 1.7c-.6.6-1.3 1.4-1.9 1.9l-1.6 1.3c-.7.5-1.7 1.3-2.4 1.8l-1.5.9c-2 1.1-2.1 1.1-3.3 1.6l-1.2.6c-2 .7-3.4 1.1-6.3 1.6H35c-.2 0-.5.1-.8.1h-4.6c-.2 0-.5 0-.7-.1h-.7c-.2 0-.5-.1-.8-.1l-.8-.1c-.3-.1-.6-.1-.9-.2l-1-.2c-.3-.1-.8-.2-1.1-.3l-1.2-.4-.7-.2 1.6.5c11.1 3.1 19.3-1.4 23.4-6.8 7.1-6.1 11.9-15.6 11.9-25.5"/><path class="st32" d="M1.9 32.3c0-1.5.1-2.9.5-5.4l.5-2.3c.2-.7.5-1.7.8-2.5l.8-2.1c.3-.7.8-1.6 1.2-2.3l1.2-1.9c.5-.6 1.1-1.5 1.5-2.1L9.8 12c.6-.6 1.4-1.4 2-1.9l1.6-1.3c.7-.5 1.7-1.2 2.5-1.7l1.5-.9c2-1 2.1-1.1 3.4-1.6l1.1-.4c1.5-.5 3.1-1 5.9-1.4l.8-.1c.2 0 .5-.1.8-.1H34c.2 0 .5 0 .7.1l.7.1c.2 0 .5.1.8.1l.8.1c.2-.1.6 0 .8 0l1 .2c.3.1.8.2 1.1.3l1.2.4c.5.2 1.1.4 1.5.5l1.5.6c.7.3 1.6.8 2.3 1.2 7.3 4.2 12.1 12.4 12.1 22.4 0 8.6-3.6 16.8-9.2 22.8.1-.2.2-.4.3-.5C60.7 28.5 36.2 5 16 11.6c-6.8 2.3-14.2 9-14.1 20.9v-.2"/><path class="st32" d="M58.6 28.7c0-10-4.8-18.2-12.1-22.4 2 1.3 2.5 1.5 4.3 2.9l1.6 1.4c.6.6 1.4 1.4 1.9 2l1.4 1.7c.5.7 1.1 1.5 1.5 2.2l1.1 2c.3.7.8 1.6 1.1 2.4l.8 2.2c.2.7.5 1.7.7 2.5l.4 2.3c.1 1.3.3 3 .3 4.4l-.1 2.4c-.1.8-.2 1.8-.3 2.6l-.5 2.3c-.2.7-.5 1.7-.7 2.5l-.9 2.2c-.3.7-.7 1.7-1.1 2.3l-1.2 1.9c-.5.6-1 1.5-1.5 2.1l-1.4 1.7c-.6.6-1.3 1.4-1.9 1.9l-1.6 1.3c-.7.5-1.7 1.3-2.4 1.8l-1.5.9c-2 1.1-2.1 1.1-3.3 1.6l-1.2.6c-2 .7-3.4 1.1-6.3 1.6H35c-.2 0-.5.1-.8.1h-4.6c-.2 0-.5 0-.7-.1h-.7c-.2 0-.5-.1-.8-.1l-.8-.1h-.2.2c15.8 2.5 22.1-8.9 22.8-10.2 5.6-6.1 9.2-14.3 9.2-22.9"/><path class="st33" d="M2.3 26.9c.2-1 .5-2.5 1.3-4.8l.9-2.1c.3-.7.8-1.6 1.2-2.3l1.2-1.9c.5-.6 1.1-1.5 1.5-2.1L9.8 12c.6-.6 1.4-1.4 2-1.9l1.6-1.3c.7-.5 1.7-1.2 2.5-1.7l1.5-.9c2-1 2.1-1.1 3.4-1.6l1.1-.4c1.5-.5 3.1-1 5.9-1.4l.8-.1c.2 0 .5-.1.8-.1H34c.2 0 .5 0 .7.1l.7.1c.2 0 .5.1.8.1l.8.1c.2-.1.6 0 .8 0l1 .2c.3.1.8.2 1.1.3l1.2.4c.5.2 1.1.4 1.5.5l1.5.6c.7.3 1.6.8 2.3 1.2 7.3 4.2 12.1 12.4 12.1 22.4 0 7.3-2.6 14.2-6.7 19.9.2-.6.5-1.3.7-1.9C59.2 21 30.9 1.3 12.3 12.3 4.2 17.2 2.7 25 2.2 28c0-.3.1-.8.1-1.1"/><path class="st33" d="M58.6 28.7c0-10-4.8-18.2-12.1-22.4 2 1.3 2.5 1.5 4.3 2.9l1.6 1.4c.6.6 1.4 1.4 1.9 2l1.4 1.7c.5.7 1.1 1.5 1.5 2.2l1.1 2c.3.7.8 1.6 1.1 2.4l.8 2.2c.2.7.5 1.7.7 2.5l.4 2.3c.1 1.3.3 3 .3 4.4l-.1 2.4c-.1.8-.2 1.8-.3 2.6l-.5 2.3c-.2.7-.5 1.7-.7 2.5l-.9 2.2c-.3.7-.7 1.7-1.1 2.3l-1.2 1.9c-.5.6-1 1.5-1.5 2.1l-1.4 1.7c-.6.6-1.3 1.4-1.9 1.9l-1.6 1.3c-.7.5-1.7 1.3-2.4 1.8l-1.5.9c-2 1.1-2.1 1.1-3.3 1.6l-1.2.6c-2 .7-3.4 1.1-6.3 1.6H35c-.2 0-.5.1-.8.1H31h.5c15.3-.1 19.9-12.3 20.4-13.6 4.1-5.6 6.7-12.5 6.7-19.8"/><path class="st34" d="M3.6 22.1c.3-.9.9-2.3 2-4.4l1.2-1.9c.5-.6 1.1-1.5 1.5-2.1L9.8 12c.6-.6 1.4-1.4 2-1.9l1.6-1.3c.7-.5 1.7-1.2 2.5-1.7l1.5-.9c2-1 2.1-1.1 3.4-1.6l1.1-.4c1.5-.5 3.1-1 5.9-1.4l.8-.1c.2 0 .5-.1.8-.1H34c.2 0 .5 0 .7.1l.7.1c.2 0 .5.1.8.1l.8.1c.2-.1.6 0 .8 0l1 .2c.3.1.8.2 1.1.3l1.2.4c.5.2 1.1.4 1.5.5l1.5.6c.7.3 1.6.8 2.3 1.2 7.3 4.2 12.1 12.4 12.1 22.4 0 5.8-1.7 11.5-4.5 16.4.1-.2.1-.5.2-.7C59.5 18.7 30 0 12.2 11.5c-3 1.9-7 5.6-9 11.9.1-.4.3-.9.4-1.3"/><path class="st34" d="M58.6 28.7c0-10-4.8-18.2-12.1-22.4 2 1.3 2.5 1.5 4.3 2.9l1.6 1.4c.6.6 1.4 1.4 1.9 2l1.4 1.7c.5.7 1.1 1.5 1.5 2.2l1.1 2c.3.7.8 1.6 1.1 2.4l.8 2.2c.2.7.5 1.7.7 2.5l.4 2.3c.1 1.3.3 3 .3 4.4l-.1 2.4c-.1.8-.2 1.8-.3 2.6l-.5 2.3c-.2.7-.5 1.7-.7 2.5l-.9 2.2c-.3.7-.7 1.7-1.1 2.3l-1.2 1.9c-.5.6-1 1.5-1.5 2.1l-1.4 1.7c-.6.6-1.3 1.4-1.9 1.9l-1.6 1.3c-.7.5-1.7 1.3-2.4 1.8l-1.5.9c-2 1.1-2.1 1.1-3.3 1.6l-1.2.6c-1.6.5-3.1 1.1-6.1 1.5l.5-.1C46.9 60 53 51.9 54.1 45.1c2.8-4.9 4.5-10.6 4.5-16.4"/><path class="st35" d="M5.7 17.7c.6-1 1.3-2.2 2.7-4L9.8 12c.6-.6 1.4-1.4 2-1.9l1.6-1.3c.7-.5 1.7-1.2 2.5-1.7l1.5-.9c2-1 2.1-1.1 3.4-1.6l1.1-.4c1.5-.5 3.1-1 5.9-1.4l.8-.1c.2 0 .5-.1.8-.1H34c.2 0 .5 0 .7.1l.7.1c.2 0 .5.1.8.1l.8.1c.2-.1.6 0 .8 0l1 .2c.3.1.8.2 1.1.3l1.2.4c.5.2 1.1.4 1.5.5l1.5.6c.7.3 1.6.8 2.3 1.2 7.3 4.2 12.1 12.4 12.1 22.4 0 4.1-.8 8.2-2.3 11.9 0-.4.1-.9.1-1.3 1-24.4-29.1-42.3-46.1-27.3-2.9 2.6-4.3 5-4.9 6.1.2 0 .3-.2.4-.3"/><path class="st35" d="M58.6 28.7c0-10-4.8-18.2-12.1-22.4 2 1.3 2.5 1.5 4.3 2.9l1.6 1.4c.6.6 1.4 1.4 1.9 2l1.4 1.7c.5.7 1.1 1.5 1.5 2.2l1.1 2c.3.7.8 1.6 1.1 2.4l.8 2.2c.2.7.5 1.7.7 2.5l.4 2.3c.1 1.3.3 3 .3 4.4l-.1 2.4c-.1.8-.2 1.8-.3 2.6l-.5 2.3c-.2.7-.5 1.7-.7 2.5l-.9 2.2c-.3.7-.7 1.7-1.1 2.3l-1.2 1.9c-.5.6-1 1.5-1.5 2.1l-1.4 1.7c-.6.6-1.3 1.4-1.9 1.9l-1.6 1.3c-.7.5-1.7 1.3-2.4 1.8l-1.5.9c-2 1.1-2.1 1.1-3.3 1.6l-1.2.6c-.5.2-1.1.4-1.6.5C51.1 57.5 56 48.3 56.2 40.6c1.6-3.7 2.4-7.8 2.4-11.9"/><path class="st36" d="M23.9 60.7C1.2 55.5-4 26.9 11.4 17.5 28.5 7.2 52 26.3 47.2 46.8 44.8 57 34.5 63.1 23.9 60.7"/><path class="st37" d="M18.5 58.7C-.2 49.9-3 23.8 14.2 17.1c18-7 38.6 14.4 31.1 32.3-4.9 11.4-17.4 13.7-26.8 9.3"/><path class="st38" d="M16 57.1c-18.1-11-17.2-36.4 1.4-40C36.9 13.4 53.5 37.7 42 53.3c-6.5 8.8-18.3 8.6-26 3.8"/><path class="st39" d="M13.6 55.3C-2.6 42.8 1.9 21.2 17.2 18.2c17-3.3 35 17.8 24.1 34.6-4.9 7.5-17.2 10.3-27.7 2.5"/><path class="st40" d="M11.6 53.3c-14.8-14.2-6.7-34.4 9.2-34.4 18.7 0 30.3 23.4 17.7 35.8-7.7 7.7-20 5.2-26.9-1.4"/><path class="st41" d="M11.6 52.9c-13.4-12.5-7.8-32.9 9.1-33 18.2-.1 29 22.2 16.7 34.6-6.3 6.5-17.9 5.8-25.8-1.6"/><path class="st42" d="M9.9 50.6C-1 37.2 6.7 19.6 22.8 21.1c18.7 1.8 24.5 24.8 12.5 34-8.2 6.4-19.6 2.7-25.4-4.5"/><path class="st43" d="M10.2 50.3c-10.9-13.4-1.9-31 14.4-28.1 17.5 3.2 21.1 24.7 9.1 33.1-6.9 4.8-17.4 2.5-23.5-5"/><path class="st44" d="M8.9 47.8C.3 33.6 11.2 20.6 24.5 23.1c17.7 3.3 19.1 23.8 9 31.1-9.4 6.8-20.3.6-24.6-6.4"/><path class="st45" d="M9.3 47.4C1.3 34 11.9 21.6 24.5 24c16.4 3 18.8 21.5 7.6 30.1-5.9 4.4-17.3 2.5-22.8-6.7"/><path class="st46" d="M9.8 47.1c-7.9-13.6 3.9-25.4 16.9-21.8 14.7 4 14.9 22.3 3.5 28.8-6.5 3.7-16.1.4-20.4-7"/><path class="st47" d="M9.2 44.3c-4.9-12.9 8.4-22.5 19.4-17.8 13.1 5.7 11 22.8-.3 27.3-7 2.9-16.2-1.7-19.1-9.5"/><path class="st48" d="M9.9 43.9c-4-11.6 7.3-21.8 18.7-16.8 12.3 5.4 10.2 21.3-.5 25.7-8.2 3.4-16.1-2.9-18.2-8.9"/><path class="st49" d="M10.7 43.6C6.9 32.1 19 23.4 28.6 27.7c11.6 5.1 9.4 20.3-.8 24.2-7.5 2.9-15-2.1-17.1-8.3"/><path class="st50" d="M11.6 43.2c-3.6-10.9 7.9-19 17-15 10 4.4 9.4 18.7-1.1 22.8-5.5 2.2-13.5-.7-15.9-7.8"/><path class="st51" d="M12 40.2c-.6-8.1 5.1-10.7 7-11.6 6.5-3 11.3 1.1 12.8 2.5 7.4 6.4 3.3 18.2-6.7 19.5-7.1.9-12.7-4.7-13.1-10.4"/><path class="st52" d="M12.8 40c-.8-5.9 4.1-9.7 4.1-9.7 6.7-4.2 11.4-1.3 12.2-.7 11.2 8.1 3.9 18-2 19.9-5.8 1.8-13.3-2-14.3-9.5"/><path class="st53" d="M13.5 39.8c-.9-7.8 8.3-15.5 16.9-8.6 8.8 7 2.2 18-6 18-3.4-.1-10.2-2.8-10.9-9.4"/><path class="st54" d="M14.2 39.6c-.2-2.2 0-7.5 6.5-10.2 1.8-.7 6.9-1 10.7 2.9 5.4 5.7 2 16.2-7.2 16-5.7 0-9.6-5.1-10-8.7"/><path class="st55" d="M15 39.5C14 29.3 25.6 27 30.9 32.4c6.4 6.6.8 16.1-6.9 15.4-6.3-.5-8.8-5.8-9-8.3"/><path class="st56" d="M15.5 39.3c-1-6.3 6-12 13.1-8.3.5.3 5.3 3 4.5 9.4-.2 1.5-2.4 5.7-6.5 6.6-3.8 1-10.2-1.9-11.1-7.7"/><path class="st57" d="M16 36.5s1.2-2.6 1.5-3.1c.8-.9 2.3-1.8 3.3-2.5s2.7-.5 3.9-.6c.3 0 5.1.7 7.3 4.9 2.7 5.2-1.5 12.5-8.3 11.5-5.6-.8-8.5-6.8-7.7-10.2"/><path class="st58" d="M16.5 36.4c1.4-5.2 6.3-5.6 8.1-5.7 1.3-.1 2.9.7 4 1.3 1.2.8 2.9 3.2 2.9 3.2 2.6 4.7-.8 12.1-8 11-.3 0-3.5-1.5-3.5-1.5-.7-.5-1.2-.9-2.7-2.9-.6-.9-1.2-3.8-.8-5.4"/><path class="st59" d="M17.1 36.3c.7-2.4 2.7-3.8 3.8-4.5 1-.7 2.7-.7 3.8-.7 1.3-.1 2.9.7 4 1.4.9.6 1.9 1.8 2.4 2.7.7 1.2 2 4.4-.6 7.9-2.2 3-5.9 2.8-7.2 2.5-1.1-.3-2.5-1-3.5-1.7-.2-.2-2-2.3-2.1-2.3-.6-1.1-1.1-3.5-.6-5.3"/><path class="st60" d="M17.7 36.2s.8-2.3 3.2-4c1-.7 2.7-.7 3.8-.8 0 0 3 .9 4 1.5.8.5 1.6 1.5 2 2.2 2.3 4 .1 6.9-.7 7.9-.8 1.1-2.5 1.8-3.7 2.2-.9.3-2.2.1-3.1-.1-2-.5-7.1-3.6-5.5-8.9"/><path class="st61" d="M18 37.5c0-.4-.1-1.1.1-1.4.5-1 1.4-2.3 2.3-3.1.5-.4.6-.5 4.3-1.3 0 0 3.9.6 5.5 3.4 2.3 3.9.2 6.6-.8 7.9-.6.7-3.2 1.7-3.3 1.8-.9.2-2.2 0-3.1-.2-2.1-.5-4.2-3.2-4.2-3.2-.6-1-.9-2.3-.8-3.9"/><path class="st62" d="M18.7 36c.4-1 1.4-2.3 2.3-2.9.2-.1 3.4-.9 3.8-1 0 0 3.7.8 5.1 3 2.3 3.8.1 6.6-.7 7.7-.1.1-2.8 1.5-3 1.6-.9.2-2.3 0-3.2-.3-1.3-.4-3.6-2.8-3.6-2.8-1.1-2-1.3-3.8-.7-5.3"/><path class="st63" d="M19.2 35.9c.4-.8 1.1-1.9 1.9-2.4.2-.1 3.4-1.1 3.7-1.1.2 0 3.9 1.9 3.9 1.9.3.2.5.5.7.8 1.5 2.5 1.4 4.9-.3 7.1-.2.3-2.6 1.7-3 1.8-1 .2-2.3-.1-3.3-.4-.3-.1-2.9-2.3-3-2.4-.8-1.8-1.5-3.2-.6-5.3"/><path class="st64" d="M19.7 35.9c.3-.6.8-1.4 1.4-1.7 1-.6 2.6-1.5 3.7-1.2 1.3.2 3 1.1 3.9 2 .6.6 1.3 2.9 1.3 3 0 0 0 3.1-1 3.8-.8.6-2.7 1.9-3.1 2-1 .2-2.4-.1-3.3-.5-.8-.4-1.8-1.2-2.3-1.9-.5-.7-.8-1.8-1.1-2.5-.2-1 .2-2.2.5-3"/><path class="st65" d="M20.2 35.8c.2-.4.5-1 .9-1.2 1-.5 2.5-1.5 3.7-1.3 1.2.3 2.7 1 3.6 1.8.6.6 1.3 2.7 1.3 2.7s0 2.2-.7 3.2c-.7.9-2 1.9-3.1 2.1-1 .2-2.4-.3-3.4-.6-.6-.2-1.3-.8-1.7-1.4-.5-.7-1-1.7-1.1-2.5-.1-.8.2-2 .5-2.8"/><path class="st66" d="M20.8 35.7c.1-.2.3-.5.5-.6 1.1-.5 2.5-1.4 3.6-1.3.9.1 2 .9 2.8 1.4.5.3.9 1 1.1 1.5 1.1 1.9 0 3.8 0 3.8-.7.9-1.9 1.9-3 2.1-1 .2-2.5-.4-3.5-.7-.4-.1-.8-.5-1-.8-.5-.7-1.1-1.7-1.2-2.5 0-.9.3-2.1.7-2.9"/><path class="st67" d="M21.3 35.7c.8-.9 2.5-1.5 3.6-1.4.7 0 1.5.5 2 1 .7.6 1.5 1.7 2 2.5.2.4-.8 2.8-.8 2.8-.5.7-1.4 1.5-2.2 1.6-1.1.2-2.5-.5-3.5-.8-.1 0-.3-.2-.4-.3-.5-.7-1.1-1.7-1.2-2.5-.2-1 .1-2.1.5-2.9"/><path class="st68" d="M21.5 36.9c.9-1.8 3.4-2.2 3.5-2.2.4 0 .9.3 1.2.6.7.7 1.9 1.6 2.1 2.6.1.9-.5 2-1 2.7-.3.5-.9 1-1.5 1.1-.9.2-2.1-.4-2.9-.8-.3-.1-.5-.4-.7-.6-.8-.8-1.2-2.5-.7-3.4"/><path class="st69" d="M21.7 38.1c.5-1 1.7-1.9 2.5-2.7.2-.2.5-.3.8-.3.6 0 2.5 2.8 2.5 2.8.1.9-.7 1.9-1.1 2.7-.1.2-.5.5-.8.6-.5.1-1.1-.1-1.5-.4-2.7-2.2-2.6-2.3-2.4-2.7"/><path class="st70" d="M25.1 35.8c.8 0 1.6 1.3 1.7 2.1l-1.2 2.7c-.9-.7-2.8-1.3-2.9-2.4-.1-1 1.3-2.4 2.4-2.4"/><path class="st71" d="M25.2 36.9c.4 0 .9.7.9 1.1.1.5-.2 1.3-.6 1.5-.6.1-1.5-.7-1.5-1.3-.1-.6.6-1.3 1.2-1.3"/><path class="st72" d="M25.3 38c.1.1.1.2 0 .2s-.1-.1-.1-.1c0-.1 0-.1.1-.1"/></g></g><g class="st1"><defs><path id="SVGID_19_" class="st1" d="M17 58.3c-1-.6-2.2-1.3-4.3-2.9-1-.8-2.2-2.1-3.2-3-.6-.6-1.3-1.5-1.8-2.2C6 47.7 6 47.7 5.1 46c-1.9-3.5-2.6-7-2.6-7-.3-1.4-.6-3.3-.7-4.7-.1-1.3-.1-3.1 0-4.4.2-.9.3-1.9.5-2.7.1-.7.3-1.6.5-2.3.2-.7.5-1.7.7-2.5 1-2.6 1.2-2.9 2-4.5 1.3-2.3 2.7-4.1 2.7-4.1.8-1 2-2.3 2.9-3.2.2-.2 2-1.8 3.6-2.9 1.4-.9 4.3-2.9 8.9-4.2 3.8-1.1 7.7-1.4 11.6-.9 5.7.7 9.5 2.8 11.1 3.7-4.2-2.4-9.3-3.4-14.7-2.7 5.4-.7 10.5.3 14.7 2.7 0 0 2.9 1.6 5.5 4.1 2.7 2.5 4.2 4.7 4.7 5.5.4.7 1 1.5 1.4 2.2.6 1.2 1.4 2.9 1.9 4.2.4.9 1.1 3.4 1.3 5 .2 1.4.4 3.4.4 4.8 0 .8 0 1.9-.1 2.7-.1.9-.2 2.1-.4 2.9-.3 1.4-.8 3.2-1.2 4.5-.2.7-.6 1.7-1 2.4-.3.6-.7 1.5-1 2.1-.4.7-.9 1.5-1.3 2.2-.4.7-1 1.5-1.5 2.1-.8 1-2 2.3-3 3.2-2.3 2.2-5.5 4.2-7.5 5.1-1.7.8-2.6 1.2-5.1 1.9-1.3.4-2.8.6-4.5.9-1.7.2-5.1.4-9.3-.4-4-1-7.1-2.5-8.6-3.4z"/></defs><clipPath id="SVGID_20_"><use xlink:href="#SVGID_19_" overflow="visible"/></clipPath><g class="st80"><path class="st3" d="M17 58.3C3.3 50.4 1.2 36.2 2 29.8c.3-2.4 1.2-9.8 6.3-15.9C10 11.7 14.7 6 23.7 3.5 29.1 2 37.4 1.3 46.5 6.3c-4.2-2.4-9.3-3.4-14.7-2.7 5.4-.7 10.5.3 14.7 2.7 25.4 15.6 16.4 49.5-8.1 55.1C28.1 63.8 20 60 17 58.3"/><path class="st3" d="M46.5 6.3c2 1.2 3.3 2 5.5 4.1l1.6 1.5c.5.6 1.3 1.4 1.8 2.1l1.3 1.8c.4.7 1 1.6 1.4 2.2l1 2.1c.3.7.7 1.7 1 2.4l.7 2.2c.2.8.4 1.8.5 2.5l.3 2.4c0 .8.1 1.9.1 2.7l-.1 2.4c-.1.9-.2 2.1-.4 2.9l-.6 2.4c-.2.7-.5 1.7-.8 2.5l-.8 2.1c-.3.7-.8 1.6-1.2 2.3l-1.2 1.9c-.5.6-1.1 1.5-1.5 2.1l-1.4 1.7c-.6.6-1.4 1.4-2 1.9l-1.6 1.3c-.7.5-1.7 1.2-2.5 1.7l-1.5.9c-2 1-2.1 1.1-3.4 1.6l-1.1.4c-1.5.5-3.1 1-5.9 1.4l-.7.2c-.2 0-.5.1-.8.1h-4.6c-.2 0-.5 0-.7-.1h-.7c-.2 0-.5-.1-.8-.1l-.8-.1c-.3-.1-.6-.1-.9-.2l-1-.2c-.3-.1-.8-.2-1.1-.3l-1.2-.4c-.5-.2-1.1-.4-1.5-.5l-1.5-.6c-.7-.3-1.6-.8-2.3-1.2l-1.7-1c-.8-.6-1.8-1.3-2.6-1.9l-1.6-1.4c-.6-.6-1.4-1.4-1.9-2l-1.4-1.7c-.5-.7-1.1-1.5-1.5-2.2l-1.1-2c-.3-.7-.8-1.6-1.1-2.4l-.8-2.2c-.2-.7-.5-1.7-.7-2.5l-.4-2.3c-.1-1.3-.3-3-.3-4.4v-2.6c.1-.8.2-1.8.3-2.6l.5-2.3c.2-.7.5-1.7.7-2.5l.9-2.2c.3-.7.8-1.6 1.1-2.3L6.7 16c.5-.6 1-1.5 1.5-2.1l1.4-1.7c.6-.6 1.3-1.4 1.9-1.9L13.1 9c.7-.5 1.7-1.3 2.4-1.8l1.5-.9c2-1.1 2.1-1.1 3.3-1.6l1.1-.4c2-.7 3.4-1.1 6.3-1.6l.8-.1c.2 0 .5-.1.8-.1h4.6c.2 0 .5 0 .7.1l.7.1c.2 0 .5.1.8.1l.8.1c.3 0 .7.1.9.1l1 .2c.3.1.8.2 1.1.3l1.2.4c.5.2 1.1.4 1.5.5l1.5.6c.8.5 1.7.9 2.4 1.3-1.5-.8-3-1.5-4.7-2 0 0-.1 0-.2-.1C19.6-1.9 8 19.5 18.3 36.8c11.5 19.4 38.1 18.5 42.5-1.5 2.8-12.5-5.9-26.7-19-31.1 1.7.6 3.2 1.3 4.7 2.1"/><path class="st4" d="M60 22.5c.3 1 .8 2.5 1.2 4.8l.3 2.4c0 .8.1 1.9.1 2.7l-.1 2.4c-.1.9-.2 2.1-.4 2.9l-.5 2.3c-.2.7-.5 1.7-.8 2.5l-.8 2.1c-.3.7-.8 1.6-1.2 2.3l-1.2 1.9c-.5.6-1.1 1.5-1.5 2.1l-1.4 1.7c-.6.6-1.4 1.4-2 1.9l-1.6 1.3c-.7.5-1.7 1.2-2.5 1.7l-1.5.9c-2 1-2.1 1.1-3.4 1.6l-1.1.4c-1.5.5-3.1 1-5.9 1.4l-.7.2c-.2 0-.5.1-.8.1h-4.6c-.2 0-.5 0-.7-.1h-.7c-.2 0-.5-.1-.8-.1l-.8-.1c-.3-.1-.6-.1-.9-.2l-1-.2c-.3-.1-.8-.2-1.1-.3l-1.2-.4c-.5-.2-1.1-.4-1.5-.5l-1.5-.6c-.7-.3-1.6-.8-2.3-1.2l-1.7-1c-.8-.6-1.8-1.3-2.6-1.9l-1.6-1.4c-.6-.6-1.4-1.4-1.9-2l-1.4-1.7c-.5-.7-1.1-1.5-1.5-2.2l-1.1-2c-.3-.7-.8-1.6-1.1-2.4l-.8-2.2c-.2-.7-.5-1.7-.7-2.5l-.4-2.3c-.1-1.3-.3-3-.3-4.4v-2.6c.1-.8.2-1.8.3-2.6l.5-2.3c.2-.7.5-1.7.7-2.5l.9-2.2c.3-.7.8-1.6 1.1-2.3L6.7 16c.5-.6 1-1.5 1.5-2.1l1.4-1.7c.6-.6 1.3-1.4 1.9-1.9L13.1 9c.7-.5 1.7-1.3 2.4-1.8l1.5-.9c2-1.1 2.1-1.1 3.3-1.6l1.1-.4c2-.7 3.4-1.1 6.3-1.6l.8-.1c.2 0 .5-.1.8-.1h4.6c.2 0 .5 0 .7.1l.7.1c.2 0 .5.1.8.1l.8.1c.3 0 .7.1.9.1l1 .2c.3.1.8.2 1.1.3l1.2.4c.5.2 1.1.4 1.5.5l1.5.6c.7.3 1.6.8 2.3 1.2-.1 0-.3-.1-.4-.2-.5-.3-1.3-.6-1.8-.9C23.4-3.9 8 15.5 15.4 33.6c9.2 22.4 36.8 23.6 44.2 6.8 3.4-7.8 1.5-15.2.1-18.9.1.3.2.7.3 1"/><path class="st4" d="M46.5 6.3l1.5.9-1.8-1.1c-.1 0-.2 0-.2-.1.1.1.3.2.5.3"/><path class="st5" d="M61.2 27.3c.2 1.4.4 2.8.4 5l-.1 2.4c-.1.9-.2 2.1-.4 2.9l-.5 2.4c-.2.7-.5 1.7-.8 2.5l-.8 2.1c-.3.7-.8 1.6-1.2 2.3l-1.2 1.9c-.5.6-1.1 1.5-1.5 2.1l-1.4 1.7c-.6.6-1.4 1.4-2 1.9l-1.6 1.3c-.7.5-1.7 1.2-2.5 1.7l-1.5.9c-2 1-2.1 1.1-3.4 1.6l-1.1.4c-1.5.5-3.1 1-5.9 1.4l-.7.2c-.2 0-.5.1-.8.1h-4.6c-.2 0-.5 0-.7-.1h-.7c-.2 0-.5-.1-.8-.1l-.8-.1c-.3-.1-.6-.1-.9-.2l-1-.2c-.3-.1-.8-.2-1.1-.3l-1.2-.4c-.5-.2-1.1-.4-1.5-.5l-1.5-.6c-.7-.3-1.6-.8-2.3-1.2l-1.7-1c-.8-.6-1.8-1.3-2.6-1.9l-1.6-1.4c-.6-.6-1.4-1.4-1.9-2l-1.4-1.7c-.5-.7-1.1-1.5-1.5-2.2l-1.1-2c-.3-.7-.8-1.6-1.1-2.4l-.8-2.2c-.2-.7-.5-1.7-.7-2.5l-.4-2.3c-.1-1.3-.3-3-.3-4.4v-2.6c.1-.8.2-1.8.3-2.6l.5-2.3c.2-.7.5-1.7.7-2.5l.9-2.2c.3-.7.8-1.6 1.1-2.3L6.7 16c.5-.6 1-1.5 1.5-2.1l1.4-1.7c.6-.6 1.3-1.4 1.9-1.9L13.1 9c.7-.5 1.7-1.3 2.4-1.8l1.5-.9c2-1.1 2.1-1.1 3.3-1.6l1.1-.4c2-.7 3.4-1.1 6.3-1.6l.8-.1c.2 0 .5-.1.8-.1h4.6c.2 0 .5 0 .7.1l.7.1c.2 0 .5.1.8.1l.8.1c.3 0 .7.1.9.1l1 .2c.3.1.8.2 1.1.3l1.2.4.7.2-1.6-.5C18.6-2.5 6 19.9 15.8 37.4 28 59.1 54.7 57.2 60.4 39.1c1.8-5.7 1.1-10.2.8-11.8 0-.1 0 0 0 0"/><path class="st6" d="M61.7 32.4c0 1.5-.1 2.9-.5 5.4l-.6 2.2c-.2.7-.5 1.7-.8 2.5l-.8 2.1c-.3.7-.8 1.6-1.2 2.3l-1.2 1.9c-.5.6-1.1 1.5-1.5 2.1l-1.4 1.7c-.6.6-1.4 1.4-2 1.9l-1.6 1.3c-.7.5-1.7 1.2-2.5 1.7l-1.5.9c-2 1-2.1 1.1-3.4 1.6l-1.1.4c-1.5.5-3.1 1-5.9 1.4l-.7.2c-.2 0-.5.1-.8.1h-4.6c-.2 0-.5 0-.7-.1h-.7c-.2 0-.5-.1-.8-.1l-.8-.1c-.3-.1-.6-.1-.9-.2l-1-.2c-.3-.1-.8-.2-1.1-.3l-1.2-.4c-.5-.2-1.1-.4-1.5-.5l-1.5-.6c-.7-.3-1.6-.8-2.3-1.2l-1.7-1c-.8-.6-1.8-1.3-2.6-1.9l-1.6-1.4c-.6-.6-1.4-1.4-1.9-2l-1.4-1.7c-.5-.7-1.1-1.5-1.5-2.2l-1.1-2c-.3-.7-.8-1.6-1.1-2.4l-.8-2.2c-.2-.7-.5-1.7-.7-2.5l-.4-2.3c-.1-1.3-.3-3-.3-4.4v-2.6c.1-.8.2-1.8.3-2.6l.5-2.3c.2-.7.5-1.7.7-2.5l.9-2.2c.3-.7.8-1.6 1.1-2.3L6.7 16c.5-.6 1-1.5 1.5-2.1l1.4-1.7c.6-.6 1.3-1.4 1.9-1.9L13.1 9c.7-.5 1.7-1.3 2.4-1.8l1.5-.9c2-1.1 2.1-1.1 3.3-1.6l1.1-.4c2-.7 3.4-1.1 6.3-1.6l.8-.1c.2 0 .5-.1.8-.1h4.6c.2 0 .5 0 .7.1l.7.1c.2 0 .5.1.8.1l.8.1h.2-.2C13.3-.8 4 25.2 17.3 42.3c14.3 18.3 41.5 14.3 44.1-6.5.2-2 .2-2.9.2-3.7.1.1.1.2.1.3"/><path class="st7" d="M61.2 37.7c-.2 1-.5 2.5-1.3 4.8l-.9 2.1c-.3.7-.8 1.6-1.2 2.3l-1.2 1.9c-.5.6-1.1 1.5-1.5 2.1l-1.4 1.7c-.6.6-1.4 1.4-2 1.9l-1.6 1.3c-.7.5-1.7 1.2-2.5 1.7l-1.5.9c-2 1-2.1 1.1-3.4 1.6l-1.1.4c-1.5.5-3.1 1-5.9 1.4l-.7.2c-.2 0-.5.1-.8.1h-4.6c-.2 0-.5 0-.7-.1h-.7c-.2 0-.5-.1-.8-.1l-.8-.1c-.3-.1-.6-.1-.9-.2l-1-.2c-.3-.1-.8-.2-1.1-.3l-1.2-.4c-.5-.2-1.1-.4-1.5-.5l-1.5-.6c-.7-.3-1.6-.8-2.3-1.2l-1.7-1c-.8-.6-1.8-1.3-2.6-1.9l-1.6-1.4c-.6-.6-1.4-1.4-1.9-2l-1.4-1.7c-.5-.7-1.1-1.5-1.5-2.2l-1.1-2c-.3-.7-.8-1.6-1.1-2.4l-.8-2.2c-.2-.7-.5-1.7-.7-2.5l-.4-2.3c-.1-1.3-.3-3-.3-4.4v-2.6c.1-.8.2-1.8.3-2.6l.5-2.3c.2-.7.5-1.7.7-2.5l.9-2.2c.3-.7.8-1.6 1.1-2.3L6.7 16c.5-.6 1-1.5 1.5-2.1l1.4-1.7c.6-.6 1.3-1.4 1.9-1.9L13.1 9c.7-.5 1.7-1.3 2.4-1.8l1.5-.9c2-1.1 2.1-1.1 3.3-1.6l1.1-.4c2-.7 3.4-1.1 6.3-1.6l.8-.1c.2 0 .5-.1.8-.1H32.5 32c-22.2 0-30 26.8-12.7 44 14.1 14.1 37.9 11.7 42.1-9.9-.1.3-.2.8-.2 1.1"/><path class="st8" d="M59.9 42.5c-.3.9-.9 2.3-2 4.4l-1.2 1.9c-.5.6-1.1 1.5-1.5 2.1l-1.4 1.7c-.6.6-1.4 1.4-2 1.9l-1.6 1.3c-.7.5-1.7 1.2-2.5 1.7l-1.5.9c-2 1-2.1 1.1-3.4 1.6l-1.1.4c-1.5.5-3.1 1-5.9 1.4l-.8.2c-.2 0-.5.1-.8.1h-4.6c-.2 0-.5 0-.7-.1h-.7c-.2 0-.5-.1-.8-.1l-.8-.1c-.3-.1-.6-.1-.9-.2l-1-.2c-.3-.1-.8-.2-1.1-.3l-1.2-.4c-.5-.2-1.1-.4-1.5-.5l-1.5-.6c-.7-.3-1.6-.8-2.3-1.2l-1.7-1c-.8-.6-1.8-1.3-2.6-1.9l-1.6-1.4c-.6-.6-1.4-1.4-1.9-2l-1.4-1.7c-.5-.7-1.1-1.5-1.5-2.2l-1.1-2c-.3-.7-.8-1.6-1.1-2.4l-.8-2.2c-.2-.7-.5-1.7-.7-2.5l-.4-2.3c-.1-1.3-.3-3-.3-4.4v-2.6c.1-.8.2-1.8.3-2.6l.5-2.3c.2-.7.5-1.7.7-2.5l.9-2.2c.3-.7.8-1.6 1.1-2.3L6.7 16c.5-.6 1-1.5 1.5-2.1l1.4-1.7c.6-.6 1.3-1.4 1.9-1.9L13.1 9c.7-.5 1.7-1.3 2.4-1.8l1.5-.9c2-1.1 2.1-1.1 3.3-1.6l1.1-.4c1.6-.5 3.1-1.1 6.1-1.5l-.5.1c-22.8 4-25.6 33.8-4.5 48.4 14.8 10.2 32.7 5.5 37.7-10 0 .3-.2.8-.3 1.2"/><path class="st9" d="M57.8 46.9c-.6 1-1.3 2.2-2.7 4l-1.4 1.7c-.6.6-1.4 1.4-2 1.9l-1.6 1.3c-.7.5-1.7 1.2-2.5 1.7l-1.5.9c-2 1-2.1 1.1-3.4 1.6l-1.1.4c-1.5.5-3.1 1-5.9 1.4l-.7.2c-.2 0-.5.1-.8.1h-4.6c-.2 0-.5 0-.7-.1h-.7c-.2 0-.5-.1-.8-.1l-.8-.1c-.3-.1-.6-.1-.9-.2l-1-.2c-.3-.1-.8-.2-1.1-.3l-1.2-.4c-.5-.2-1.1-.4-1.5-.5l-1.5-.6c-.7-.3-1.6-.8-2.3-1.2l-1.7-1c-.8-.6-1.8-1.3-2.6-1.9l-1.6-1.4c-.6-.6-1.4-1.4-1.9-2l-1.4-1.7c-.5-.7-1.1-1.5-1.5-2.2l-1.1-2c-.3-.7-.8-1.6-1.1-2.4l-.8-2.2c-.2-.7-.5-1.7-.7-2.5l-.4-2.3c-.1-1.3-.3-3-.3-4.4v-2.6c.1-.8.2-1.8.3-2.6l.5-2.3c.2-.7.5-1.7.7-2.5l.9-2.2c.3-.7.8-1.6 1.1-2.3L6.7 16c.5-.6 1-1.5 1.5-2.1l1.4-1.7c.6-.6 1.3-1.4 1.9-1.9L13.1 9c.7-.5 1.7-1.3 2.4-1.8l1.5-.9c2-1.1 2.1-1.1 3.3-1.6l1.1-.4c.5-.2 1.1-.4 1.6-.5-22.4 7-21.5 38.7 1.4 50.6 15.6 8.1 28.4 1.5 33.7-8-.1.2-.2.4-.3.5"/><path class="st10" d="M39.7 3.9C62.3 9.1 67.6 37.7 52.2 47 35 57.4 11.6 38.3 16.3 17.9 18.7 7.6 29 1.5 39.7 3.9"/><path class="st11" d="M45 5.9c18.8 8.8 21.5 34.9 4.3 41.6-18 7-38.6-14.4-31.1-32.3C23.1 3.8 35.6 1.5 45 5.9"/><path class="st12" d="M47.5 7.5c18.1 11 17.2 36.4-1.4 40C26.6 51.2 10 26.9 21.5 11.3c6.5-8.8 18.3-8.6 26-3.8"/><path class="st13" d="M49.9 9.3c16.3 12.5 11.8 34.1-3.5 37.1-17 3.3-35-17.8-24.1-34.6 4.8-7.5 17.1-10.3 27.6-2.5"/><path class="st14" d="M51.9 11.3c14.8 14.2 6.7 34.4-9.2 34.4-18.6 0-30.2-23.4-17.7-35.8 7.8-7.7 19.9-5.4 26.9 1.4"/><path class="st15" d="M51.9 11.7c13.4 12.5 7.8 32.9-9.1 33-18.2.1-29-22.2-16.7-34.6 6.4-6.5 17.9-5.8 25.8 1.6"/><path class="st16" d="M53.6 14c11 13.4 3.2 31.1-12.9 29.5-18.7-1.8-24.5-24.8-12.5-34 8.2-6.4 19.6-2.6 25.4 4.5"/><path class="st17" d="M53.3 14.3c10.9 13.4 1.9 31-14.4 28.1-17.5-3.2-21-24.7-9.1-33.1 6.9-4.8 17.4-2.5 23.5 5"/><path class="st18" d="M54.6 16.8C63.2 31 52.3 44 39 41.5c-17.7-3.3-19.1-23.8-9-31.1 9.4-6.8 20.3-.6 24.6 6.4"/><path class="st19" d="M54.2 17.2c8 13.4-2.6 25.8-15.2 23.4-16.4-3-18.8-21.5-7.6-30.1 5.9-4.4 17.4-2.5 22.8 6.7"/><path class="st20" d="M53.7 17.5c7.9 13.6-3.9 25.4-16.9 21.8-14.7-4-14.9-22.3-3.5-28.8 6.5-3.7 16.1-.4 20.4 7"/><path class="st21" d="M54.3 20.3c4.9 12.9-8.4 22.5-19.4 17.8-13.1-5.7-11-22.8.3-27.3 7.1-2.9 16.2 1.7 19.1 9.5"/><path class="st22" d="M53.6 20.7c4 11.6-7.3 21.8-18.7 16.8-12.3-5.4-10.2-21.2.5-25.7 8.2-3.4 16.1 2.9 18.2 8.9"/><path class="st23" d="M52.8 21.1c3.8 11.5-8.3 20.1-17.9 15.9-11.6-5.1-9.4-20.3.8-24.3 7.5-2.9 15 2.1 17.1 8.4"/><path class="st24" d="M51.9 21.4c3.6 10.9-7.9 19-17 15-10-4.4-9.4-18.7 1.1-22.8 5.5-2.2 13.5.7 15.9 7.8"/><path class="st25" d="M51.6 24.4c.6 8.1-5.1 10.7-7 11.6-6.5 3-11.3-1.1-12.8-2.5-7.4-6.4-3.3-18.2 6.7-19.5 7-.9 12.7 4.7 13.1 10.4"/><path class="st26" d="M50.7 24.6c.8 6-4.1 9.7-4.1 9.7-3.1 2-3.2 2-7.6 2.2 0 0-3.6-.8-4.6-1.6-11.2-8.1-3.9-18 2-19.9 5.8-1.7 13.3 2.1 14.3 9.6"/><path class="st27" d="M50 24.8c.9 7.8-8.3 15.5-16.9 8.6-8.8-7-2.2-18 6-18 3.4.1 10.2 2.8 10.9 9.4"/><path class="st27" d="M49.3 25c.3 2.7-.2 7.6-6.5 10.2-1.8.8-6.9 1.1-10.7-2.9-5.4-5.7-2-16.2 7.2-16 5.7.1 9.7 5.1 10 8.7"/><path class="st27" d="M48.6 25.1c1 10.2-10.7 12.5-15.9 7.1-6.4-6.6-.8-16.1 6.9-15.4 6.2.5 8.7 5.8 9 8.3"/><path class="st27" d="M48 25.3c.8 5.1-2.4 7.1-5.2 8.9-.4.2-3.9 1.4-7.9-.7-.5-.3-5.3-3-4.5-9.4.2-1.5 2.4-5.7 6.5-6.6 3.4-.8 10.2 1.6 11.1 7.8"/><path class="st27" d="M47.5 28.1s-1.2 2.7-1.5 3.1c-.8.9-2.3 1.8-3.3 2.5s-2.7.5-3.9.6c-1.3.1-2.9-.6-4-1.3-1.9-1.3-3.3-3.6-3.3-3.6-2.7-5.1 1.5-12.4 8.4-11.5 4.7.7 8.6 5.9 7.6 10.2"/><path class="st27" d="M47 28.2c-1.4 5.2-6.3 5.6-8.1 5.7-1.3.1-2.9-.7-4-1.3-1.2-.8-2.9-3.2-2.9-3.2-2.6-4.7.8-12.1 8-11 .3 0 3.5 1.5 3.5 1.5.7.5 1.2.9 2.7 2.9 1.4 2 .8 5.4.8 5.4"/><path class="st27" d="M46.4 28.3c-1.3 4.8-5.6 5.1-7.6 5.3-1.3.1-2.9-.7-4-1.4-.9-.6-1.9-1.8-2.4-2.7-.7-1.2-2-4.4.6-7.9 2.2-3 5.9-2.8 7.2-2.5 1.1.3 2.5 1 3.5 1.7.2.2 2.1 2.3 2.1 2.3 1.4 2.2.7 5.1.6 5.2"/><path class="st27" d="M45.9 28.4s-.7 2.3-3.2 4c-1 .7-2.7.7-3.8.8 0 0-3-.9-4-1.5-.8-.5-1.6-1.5-2-2.2-2.3-4-.1-6.9.7-7.9.9-1.2 2.7-1.9 3.7-2.2.9-.3 2.2-.1 3.1.1 0 0 7.4 2.4 5.5 8.9"/><path class="st27" d="M45.5 27.1c0 .4.1 1.1-.1 1.4-.5 1-1.4 2.3-2.3 3.1-.5.4-.6.5-4.3 1.3 0 0-3.9-.6-5.5-3.4-2.3-3.9-.1-6.7.8-7.9.6-.7 3.2-1.7 3.3-1.7.9-.2 2.2 0 3.1.2 2.1.5 4.2 3.2 4.2 3.2 1 1.4.9 2.6.8 3.8"/><path class="st27" d="M44.8 28.6c-.4 1-1.4 2.3-2.3 2.9-.2.1-3.4.9-3.8.9 0 0-3.7-.8-5.1-3-2.3-3.8-.1-6.7.7-7.7.1-.1 2.8-1.5 3-1.6.9-.2 2.3 0 3.2.3 1.8.6 6 4.1 4.3 8.2"/><path class="st27" d="M44.3 28.7c-.4.8-1.1 1.9-1.9 2.4-.2.1-3.4 1.1-3.7 1.1-.2 0-3.9-1.9-3.9-1.9-.3-.2-.5-.5-.7-.8-1.1-1.7-1.9-4.3.3-7.1.2-.3 2.6-1.7 3-1.8 1-.2 2.3.1 3.3.4.3.1 2.9 2.3 2.9 2.4.4.7.9 1.7 1 2.5.2.8.1 2-.3 2.8"/><path class="st27" d="M43.8 28.7c-.3.6-.8 1.4-1.4 1.8-1 .6-2.6 1.4-3.7 1.2-1.3-.2-3-1.1-3.9-2-.6-.6-1.3-2.9-1.3-3 0 0 0-3.1 1-3.8.1-.1 2.6-1.8 3.1-1.9 1-.2 2.4.1 3.3.5.8.4 1.8 1.2 2.3 1.9.5.7.8 1.8 1.1 2.5.3.8-.1 2.1-.5 2.8"/><path class="st27" d="M43.3 28.8c-.2.4-.5 1-.9 1.2-1 .5-2.5 1.5-3.7 1.3-1.2-.3-2.7-1-3.6-1.8-.6-.6-1.3-2.7-1.3-2.7s0-2.2.7-3.1c.7-.9 2-1.9 3.1-2.1 1-.2 2.4.3 3.4.6.6.2 1.3.8 1.7 1.4.5.7 1 1.7 1.2 2.5 0 .7-.3 1.9-.6 2.7"/><path class="st27" d="M42.8 28.9c-.1.2-.3.5-.5.6-1.1.5-2.5 1.4-3.6 1.3-.9-.1-2-.9-2.8-1.4-.5-.3-.9-1-1.1-1.5-1.1-1.8 0-3.8 0-3.8.7-.9 1.9-1.9 3-2.1 1-.2 2.5.4 3.5.7.4.1.8.5 1 .8.5.7 1.1 1.7 1.2 2.5-.1.9-.4 2.1-.7 2.9"/><path class="st27" d="M42.2 28.9c-.8.9-2.5 1.5-3.6 1.4-.7 0-1.5-.5-2-1-.7-.6-1.5-1.7-2-2.5-.2-.4.8-2.8.8-2.8.5-.7 1.4-1.4 2.2-1.6 1.1-.2 2.5.5 3.5.8.1 0 .3.2.4.3.5.7 1.2 1.7 1.3 2.5.1 1-.2 2.1-.6 2.9"/><path class="st27" d="M42 27.8c-.9 1.8-3.4 2.2-3.5 2.2-.4 0-.9-.3-1.2-.6-.7-.7-1.9-1.6-2.1-2.6-.1-.9.5-2 1-2.7.3-.5.9-1 1.5-1.1.9-.2 2.1.4 2.9.8.3.1.5.4.7.6.8.7 1.2 2.4.7 3.4"/><path class="st27" d="M41.8 26.5c-.5 1-1.7 1.9-2.5 2.7-.2.2-.5.3-.8.3-.6 0-2.5-2.8-2.5-2.8-.1-.9.7-1.9 1.1-2.7.1-.2.5-.5.8-.6.5-.1 1.1.1 1.5.4 2.7 2.2 2.6 2.4 2.4 2.7"/><path class="st27" d="M38.5 28.8c-.8 0-1.6-1.3-1.7-2.1L38 24c.9.7 2.8 1.3 2.9 2.4 0 1-1.4 2.4-2.4 2.4"/><path class="st27" d="M38.4 27.7c-.4 0-.9-.7-.9-1.1-.1-.5.2-1.3.6-1.5.6-.1 1.5.7 1.5 1.3 0 .6-.7 1.3-1.2 1.3"/><path class="st27" d="M38.2 26.7s0-.1 0 0c-.1-.1-.1-.2 0-.2s.1.1.1.1c.1 0 0 .1-.1.1"/></g></g><g class="st1"><defs><path id="SVGID_21_" class="st1" d="M46.5 6.3c-4.2-2.4-9.3-3.4-14.7-2.7 5.4-.7 10.5.3 14.7 2.7.8.5 1.9 1.1 2.6 1.7 1.5 1.1 2.6 2 3.7 3.1 1.6 1.7 2 2.1 3.1 3.7 1.6 2.2 2.5 4 2.5 4.1 1 2.1 1.2 2.5 1.8 4.5.4 1.2.8 2.9 1 4.1.2 1.4.4 3.4.4 4.8 0 2-.1 2.7-.4 5 0 0-.3 2.1-1.2 4.8-.3.7-.6 1.7-1 2.4-.3.6-.7 1.4-1 2.1 0 0-1.5 3-4.5 6.2-1.5 1.6-2.7 2.5-3.9 3.5-1.1.9-2.2 1.5-3.4 2.2-.9.5-2.1 1.1-3.1 1.5-1.2.5-2.4.9-4.3 1.4-3.7.9-6.7.9-8.6.8-3.1-.1-6.3-.9-8.1-1.6-.9-.3-2.2-.8-3.6-1.5-1.6-.8-2.9-1.6-3.9-2.3-1-.7-2.2-1.6-3.6-2.9-1.6-1.5-2.7-2.9-3.2-3.5-.5-.7-1.5-2-2.6-4-.7-1.2-1.4-2.9-1.9-4.2-.5-1.3-1.4-4.6-1.5-7.4-.1-.9-.1-2.1-.1-3 .1-2.1.2-3.6.5-5 .5-2.3.7-3 1.3-4.8.9-2.5 2-4.3 2.1-4.5.7-1.2 1.7-2.6 2.5-3.7.5-.7 1.3-1.5 1.8-2.1.4-.5 1.1-1.1 1.6-1.5.7-.6 1.7-1.4 2.4-1.9.5-.3 4.4-3.3 9.8-4.8 1.5-.4 5.9-1.6 11.7-.9 2.9.4 5 1 6 1.4.6.2 1.4.5 2 .8 1 .4 2.2 1 3.1 1.5z"/></defs><clipPath id="SVGID_22_"><use xlink:href="#SVGID_21_" overflow="visible"/></clipPath><g class="st81"><path class="st29" d="M46.5 6.3c-17-9-30.3.1-33.9 3.1C3.1 17.2-.5 30.2 3.4 41.9c3.9 11.5 14.7 19.7 26.8 20.3 12.4.6 23.7-6.3 28.8-17.6 5.5-12.1 2.9-29.1-12.5-38.3-4.2-2.4-9.3-3.4-14.7-2.7 5.4-.7 10.5.3 14.7 2.7"/><path class="st29" d="M41.8 4.3c21.6 8 26.7 36 8.1 44.8-17.9 8.5-41-13.3-34.2-32.4 1.1-3.2 2.8-7 8.1-10.5 3.4-2.3 7.7-1 11.3-2.6-.3-.1-.6-.1-.9-.2-.8 0-1.5.1-2.3.2.8-.1 1.6-.2 2.3-.2.1 0 .1 0 .2-.1 1.7-.1 3.7-.2 7.4 1 1.6.5 3.2 1.2 4.7 2-.5-.2-1.1-.6-1.5-.8-.7-.3-1.6-.7-2.3-1L41.4 4c-.4-.1-1-.3-1.5-.5l-1-.3c-.3-.1-.7-.2-1.1-.2l-.8-.1c-.3 0-.6-.1-.9-.1l-.7-.1c-.2 0-.5-.1-.7-.1l-.7-.1H29.4l-.7.1c-.2 0-.6.1-.8.1l-1 .1c-1.9.4-3.4.7-6 1.7l-1.5.7c-2 1-2.1 1.1-3.4 1.8l-1.7 1.1c-.7.6-1.7 1.3-2.4 1.9l-1.6 1.5c-.6.6-1.3 1.4-1.8 2.1l-1.3 1.8c-.4.7-1 1.6-1.4 2.2l-1 2c-.3.7-.7 1.7-1 2.4l-.7 2.2c-.2.8-.4 1.8-.6 2.5L2 29.3c-.1.9-.1 2.1-.2 3l.1 2.4c.1.8.2 1.8.3 2.6l.5 2.3c.2.7.5 1.7.7 2.5l.8 2.2c.3.7.8 1.6 1.1 2.3l1.2 2c.4.6 1 1.5 1.5 2.1l1.4 1.7c.6.6 1.3 1.4 1.9 1.9l1.6 1.4c2.1 1.6 2.3 1.7 4 2.7l1.5.8c.7.3 1.6.7 2.3 1l1.3.5c.4.1 1 .3 1.5.5l1 .3c.3.1.7.2 1.1.2l.9.2c.3 0 .6.1.9.1l.7.1c.2 0 .5.1.7.1l.7.1H34.1l.7-.1c.2 0 .6-.1.8-.1l1-.1c2.8-.5 4.2-1 6.4-1.8l1.5-.7c2-1 2.1-1.1 3.3-1.8l1.7-1.2c.7-.6 1.7-1.3 2.4-1.9l1.6-1.5c.5-.6 1.3-1.4 1.8-2.1l1.3-1.8c.4-.7 1-1.6 1.4-2.3l1-2.1c.3-.7.7-1.7 1-2.4l.7-2.2c.2-.8.4-1.8.6-2.5l.3-2.4c0-.8.1-1.9.1-2.7l-.1-2.4c-.2-1.3-.4-3-.7-4.3l-.6-2.3c-.3-.7-.6-1.7-.9-2.4l-1-2.1c-.4-.7-.9-1.6-1.3-2.2L56 14.8c-.5-.6-1.1-1.5-1.6-2.1l-1.5-1.6c-.6-.6-1.4-1.3-2.1-1.9L49.1 8c-.8-.5-1.8-1.2-2.6-1.7-1.5-.8-3-1.5-4.7-2"/><path class="st30" d="M31.8 3.6c.7-.1 1.3-.2 2-.2.1 0 .2 0 .2-.1C38.1 2 45.6 5.8 46 6c.2.1.4.2.5.3-.5-.2-1.1-.6-1.5-.8-.7-.3-1.6-.7-2.3-1L41.4 4c-.4-.1-1-.3-1.5-.5l-1-.3c-.3-.1-.7-.2-1.1-.2l-.8-.1c-.3 0-.6-.1-.9-.1l-.7-.1c-.2 0-.5-.1-.7-.1l-.7-.1H29.4l-.7.1c-.2 0-.6.1-.8.1l-1 .1c-1.9.4-3.4.7-6 1.7l-1.5.7c-2 1-2.1 1.1-3.4 1.8l-1.7 1.1c-.7.6-1.7 1.3-2.4 1.9l-1.6 1.5c-.6.6-1.3 1.4-1.8 2.1l-1.3 1.8c-.4.7-1 1.6-1.4 2.2l-1 2c-.3.7-.7 1.7-1 2.4l-.7 2.2c-.2.8-.4 1.8-.6 2.5L2 29.3c-.1.9-.1 2.1-.2 3l.1 2.4c.1.8.2 1.8.3 2.6l.5 2.3c.2.7.5 1.7.7 2.5l.8 2.2c.3.7.8 1.6 1.1 2.3l1.2 2c.4.6 1 1.5 1.5 2.1l1.4 1.7c.6.6 1.3 1.4 1.9 1.9l1.6 1.4c2.1 1.6 2.3 1.7 4 2.7l1.5.8c.7.3 1.6.7 2.3 1l1.3.5c.4.1 1 .3 1.5.5l1 .3c.3.1.7.2 1.1.2l.9.2c.3 0 .6.1.9.1l.7.1c.2 0 .5.1.7.1l.7.1H34.1l.7-.1c.2 0 .6-.1.8-.1l1-.1c2.8-.5 4.2-1 6.4-1.8l1.5-.7c2-1 2.1-1.1 3.3-1.8l1.7-1.2c.7-.6 1.7-1.3 2.4-1.9l1.6-1.5c.5-.6 1.3-1.4 1.8-2.1l1.3-1.8c.4-.7 1-1.6 1.4-2.3l1-2.1c.3-.7.7-1.7 1-2.4l.7-2.2c.2-.8.4-1.8.6-2.5l.3-2.4c0-.8.1-1.9.1-2.7l-.1-2.4c-.2-1.3-.4-3-.7-4.3l-.6-2.3-.6-1.8.7 2.1C66 44.7 47.3 59 28 48.3 6.9 36.5 11.3 8.1 26.2 4.3c2.7-.7 5.6 2 8.1-.7-.1 0-.3-.1-.5-.1-.7-.1-1.3 0-2 .1"/><path class="st30" d="M46 6c.5.3 1.2.7 1.8 1-.4-.2-.9-.5-1.2-.7-.3-.1-.5-.2-.6-.3"/><path class="st31" d="M31.8 3.6c.6-.1 1.1-.1 1.7-.2.1 0 .1 0 .2-.1-.2-.1-.5-.2-.7-.3 2.4-1.1 8.8 1.2 8.8 1.2l-1.2-.4-.7-.2-1-.3c-.3-.1-.7-.2-1.1-.2l-.8-.2c-.3 0-.6-.1-.9-.1l-.7-.1c-.2 0-.5-.1-.7-.1l-.7-.1H29.4l-.7.1c-.2 0-.6.1-.8.1l-1 .1c-1.9.4-3.4.7-6 1.7l-1.5.7c-2 1-2.1 1.1-3.4 1.8l-1.7 1.1c-.7.6-1.7 1.3-2.4 1.9l-1.6 1.5c-.6.6-1.3 1.4-1.8 2.1l-1.3 1.8c-.4.7-1 1.6-1.4 2.2l-1 2c-.3.7-.7 1.7-1 2.4l-.7 2.2c-.2.8-.4 1.8-.6 2.5L2 29.3c-.1.9-.1 2.1-.2 3l.1 2.4c.1.8.2 1.8.3 2.6l.5 2.3c.2.7.5 1.7.7 2.5l.8 2.2c.3.7.8 1.6 1.1 2.3l1.2 2c.4.6 1 1.5 1.5 2.1l1.4 1.7c.6.6 1.3 1.4 1.9 1.9l1.6 1.4c2.1 1.6 2.3 1.7 4 2.7l1.5.8c.7.3 1.6.7 2.3 1l1.3.5c.4.1 1 .3 1.5.5l1 .3c.3.1.7.2 1.1.2l.9.2c.3 0 .6.1.9.1l.7.1c.2 0 .5.1.7.1l.7.1H34.1l.7-.1c.2 0 .6-.1.8-.1l1-.1c2.8-.5 4.2-1 6.4-1.8l1.5-.7c2-1 2.1-1.1 3.3-1.8l1.7-1.2c.7-.6 1.7-1.3 2.4-1.9l1.6-1.5c.5-.6 1.3-1.4 1.8-2.1l1.3-1.8c.4-.7 1-1.6 1.4-2.3l1-2.1c.3-.7.7-1.7 1-2.4l.7-2.2c.2-.8.4-1.8.6-2.5l.3-2.4c0-.8.1-1.9.1-2.7l-.1-2.4c-.1-.8-.2-1.9-.3-2.7l.1.4c2.8 23.8-21.5 32.3-38.1 18.8-19-15.4-9.6-40.2 3-42.7 2.5-.5 5.1 1.9 7.6-.2-.1 0-.3-.1-.4-.1-.6-.2-1.1-.2-1.7-.1"/><path class="st32" d="M61.7 32.4c-1.2 25.4-28.8 26.9-42.2 12.4-16.1-17.4-7.6-43 14-42.2.4 0 1.8.1 3.7.4l-.8-.1h-.2l-.7-.1c-.2 0-.5-.1-.7-.1l-.8-.2H29.4l-.7.1c-.2 0-.6.1-.8.1l-1 .1c-1.9.4-3.4.7-6 1.7l-1.5.7c-2 1-2.1 1.1-3.4 1.8l-1.7 1.1c-.7.6-1.7 1.3-2.4 1.9l-1.6 1.5c-.6.6-1.3 1.4-1.8 2.1l-1.3 1.8c-.4.7-1 1.6-1.4 2.2l-1 2c-.3.7-.7 1.7-1 2.4l-.7 2.2c-.2.8-.4 1.8-.6 2.5L2 29.3c-.1.9-.1 2.1-.2 3l.1 2.4c.1.8.2 1.8.3 2.6l.5 2.3c.2.7.5 1.7.7 2.5l.8 2.2c.3.7.8 1.6 1.1 2.3l1.2 2c.4.6 1 1.5 1.5 2.1l1.4 1.7c.6.6 1.3 1.4 1.9 1.9l1.6 1.4c2.1 1.6 2.3 1.7 4 2.7l1.5.8c.7.3 1.6.7 2.3 1l1.3.5c.4.1 1 .3 1.5.5l1 .3c.3.1.7.2 1.1.2l.9.2c.3 0 .6.1.9.1l.7.1c.2 0 .5.1.7.1l.7.1H34.1l.7-.1c.2 0 .6-.1.8-.1l1-.1c2.8-.5 4.2-1 6.4-1.8l1.5-.7c2-1 2.1-1.1 3.3-1.8l1.7-1.2c.7-.6 1.7-1.3 2.4-1.9l1.6-1.5c.5-.6 1.3-1.4 1.8-2.1l1.3-1.8c.4-.7 1-1.6 1.4-2.3l1-2.1c.3-.7.7-1.7 1-2.4l.7-2.2c.2-.8.4-1.8.6-2.5l.3-2.4c0-1.1.1-2.2.1-2.9"/><path class="st33" d="M61 38.5c-7.2 25.5-37.9 18.9-47.5.3-9.4-18 .4-36.7 19.1-36.4h-3.3l-.7.1c-.2 0-.6.1-.8.1l-1 .1c-1.9.4-3.4.7-6 1.7l-1.5.7c-2 1-2.1 1.1-3.4 1.8L14.2 8c-.7.6-1.7 1.3-2.4 1.9l-1.6 1.5c-.6.6-1.3 1.4-1.8 2.1l-1.3 1.8c-.4.7-1 1.6-1.4 2.2l-1 2c-.3.7-.7 1.7-1 2.4L3 24.1c-.2.8-.4 1.8-.6 2.5L2 29.3c-.1.9-.1 2.1-.2 3l.1 2.4c.1.8.2 1.8.3 2.6l.5 2.3c.2.7.5 1.7.7 2.5l.8 2.2c.3.7.8 1.6 1.1 2.3l1.2 2c.4.6 1 1.5 1.5 2.1l1.4 1.7c.6.6 1.3 1.4 1.9 1.9l1.6 1.4c2.1 1.6 2.3 1.7 4 2.7l1.5.8c.7.3 1.6.7 2.3 1l1.3.5c.4.1 1 .3 1.5.5l1 .3c.3.1.7.2 1.1.2l.9.2c.3 0 .6.1.9.1l.7.1c.2 0 .5.1.7.1l.7.1H34.1l.7-.1c.2 0 .6-.1.8-.1l1-.1c2.8-.5 4.2-1 6.4-1.8l1.5-.7c2-1 2.1-1.1 3.3-1.8l1.7-1.2c.7-.6 1.7-1.3 2.4-1.9l1.6-1.5c.5-.6 1.3-1.4 1.8-2.1l1.3-1.8c.4-.7 1-1.6 1.4-2.3l1-2.1c.3-.7.7-1.7 1-2.4l.7-2.2c.2-.8.4-1.8.6-2.5 0-.2.1-.5.1-.8-.2.3-.3 1-.4 1.6"/><path class="st34" d="M60.2 41.5c-8.8 23.2-38.6 17.9-48.7-3.2-7.7-15.9.1-33.2 16.1-35.6l-1 .2c-1.5.3-3.2.6-5.9 1.7l-1.5.7c-2 1-2.1 1.1-3.4 1.8l-1.7 1.1c-.7.6-1.7 1.3-2.4 1.9l-1.6 1.5c-.6.6-1.3 1.4-1.8 2.1L7 15.5c-.4.7-1 1.6-1.4 2.2l-1 2c-.3.7-.7 1.7-1 2.4l-.7 2.2c-.2.8-.4 1.8-.6 2.5L2 29.3c-.1.9-.1 2.1-.2 3l.1 2.4c.1.8.2 1.8.3 2.6l.5 2.3c.2.7.5 1.7.7 2.5l.8 2.2c.3.7.8 1.6 1.1 2.3l1.2 2c.4.6 1 1.5 1.5 2.1l1.4 1.7c.6.6 1.3 1.4 1.9 1.9l1.6 1.4c2.1 1.6 2.3 1.7 4 2.7l1.5.8c.7.3 1.6.7 2.3 1l1.3.5c.4.1 1 .3 1.5.5l1 .3c.3.1.7.2 1.1.2l.9.2c.3 0 .6.1.9.1l.7.1c.2 0 .5.1.7.1l.7.1H34.1l.7-.1c.2 0 .6-.1.8-.1l1-.1c2.8-.5 4.2-1 6.4-1.8l1.5-.7c2-1 2.1-1.1 3.3-1.8l1.7-1.2c.7-.6 1.7-1.3 2.4-1.9l1.6-1.5c.5-.6 1.3-1.4 1.8-2.1l1.3-1.8c.4-.7 1-1.6 1.4-2.3l1-2.1c.3-.7.7-1.7 1-2.4.1-.3.2-.7.3-.9 0-.2-.1-.1-.1 0"/><path class="st35" d="M56.8 48.5C42.7 68.7 11.6 54.8 7.5 32.2 3.7 10.5 20.9 4.4 22.9 3.8l-1.1.4-1 .4-1.5.7c-2 1-2.1 1.1-3.4 1.8l-1.7 1.1c-.7.6-1.7 1.3-2.4 1.9l-1.6 1.5c-.6.6-1.3 1.4-1.8 2.1l-1.3 1.8c-.4.7-1 1.6-1.4 2.2l-1 2c-.3.7-.7 1.7-1 2.4L3 24.3c-.2.8-.4 1.8-.6 2.5L2 29.3c-.1.9-.1 2.1-.2 3l.1 2.4c.1.8.2 1.8.3 2.6l.5 2.3c.2.7.5 1.7.7 2.5l.8 2.2c.3.7.8 1.6 1.1 2.3l1.2 2c.4.6 1 1.5 1.5 2.1l1.4 1.7c.6.6 1.3 1.4 1.9 1.9l1.6 1.4c2.1 1.6 2.3 1.7 4 2.7l1.5.8c.7.3 1.6.7 2.3 1l1.3.5c.4.1 1 .3 1.5.5l1 .3c.3.1.7.2 1.1.2l.9.2c.3 0 .6.1.9.1l.7.1c.2 0 .5.1.7.1l.7.1H34.1l.7-.1c.2 0 .6-.1.8-.1l1-.1c2.8-.5 4.2-1 6.4-1.8l1.5-.7c2-1 2.1-1.1 3.3-1.8l1.7-1.2c.7-.6 1.7-1.3 2.4-1.9l1.6-1.5c.5-.6 1.3-1.4 1.8-2.1l1.3-1.8c.4-.7 1-1.6 1.4-2.3l-.8 1.1c-.1.1-.2.3-.4.5"/><path class="st36" d="M36.8 3.6c-11.1 2-11.1 2-13.4 3.6-3.3 2.2-6.1 7-6.9 10.2-3.9 16.4 9 26.4 10.5 27.4 17.5 12.7 36.4-.1 33.9-17.5C58.3 9 40.6 2.9 36.8 3.6"/><path class="st37" d="M40 4.3c-4.7-.9-12 1-12 1-3.6 1.5-6.7 4.3-8.7 7.8-4 7.1-3.2 16.6 2 24.2 12 17.5 36.3 14.8 39.3-4.5 1.9-12.4-7.9-26-20.6-28.5"/><path class="st38" d="M42.7 5.3c-18.1-5.6-31.4 12-21.9 29.1 10.7 19.1 34.6 16.7 38.9.5 3.5-13.5-5.9-26.2-17-29.6"/><path class="st39" d="M46.5 7.2C30.9-.9 14.9 12 19.7 28.7c6 20.5 30.5 23.6 38.3 9.1 5.4-10.3.1-24.6-11.5-30.6"/><path class="st40" d="M47.6 8.1C31.9-.8 16.1 11.4 20.7 28.8c4.8 18 29.8 23 37.2 7.5C63 25.8 56.7 13.2 47.6 8.1"/><path class="st41" d="M49.4 9.7C35.1-.1 19 9.3 21.2 26.1c2.3 17.2 24.9 25.2 34.7 12.3 6.9-9.2 2.3-22.7-6.5-28.7"/><path class="st42" d="M49.6 10.3c-14.8-10.6-30 .9-27.5 16 3 17.9 26.2 22.7 33.8 10.8 6.1-9.5 1.5-21.3-6.3-26.8"/><path class="st43" d="M49.4 10.6C34.2-.1 20.6 13.2 23.1 26.3c3.3 17.7 25.2 21.5 32.8 9.3 4.8-7.8 2-18.7-6.5-25"/><path class="st44" d="M51.2 12.7C37.9.7 23.5 11 23.7 23.7c.4 17.5 21 22.3 29.6 13.7 7.1-7.2 4.6-18.6-2.1-24.7"/><path class="st45" d="M50.8 13c-12.6-11.3-27.9-.9-26.2 13.5 1.7 13.9 21.5 19.7 29.5 8.6 5.4-7.6 2.3-17-3.3-22.1"/><path class="st46" d="M50.3 13.4c-12.8-11.2-26.7 1-25 13.2 1.8 13.1 20 18.5 27.9 8.2 5.9-7.9 1.9-17.2-2.9-21.4"/><path class="st47" d="M51.6 15.7c-10.3-12.1-25-3.3-25.8 8.2C25 37.2 42.1 43.6 50.5 36c8.2-7.5 4.3-16.6 1.1-20.3"/><path class="st48" d="M50.9 16c-9.7-11-23.6-2.7-24.4 7.9-.9 11.4 13.5 20.2 23.6 11.2 6.8-6 4.5-14.8.8-19.1"/><path class="st49" d="M50.1 16.4c-8.9-9.9-22.1-2.2-23 7.6-.9 10.1 12.3 19.8 22.9 10 4.1-3.8 5.1-11.9.1-17.6"/><path class="st50" d="M49.1 16.8c-8-8.2-20.4-2.5-21.4 7.2-1.2 11.1 12 17.7 20.7 10.4 5.9-5 5.1-13.1.7-17.6"/><path class="st51" d="M49.8 19.3C45.5 12.9 38.6 14 38.5 14c-2.3.5-9.3 2-10.3 10-.6 4.9 1.6 8.8 6.8 11.8 1.1.6 6.5 2.5 11.7-.8 5.1-3.2 6.5-10.5 3.1-15.7"/><path class="st52" d="M48.8 19.6C43 11.3 30 14.2 28.6 24.1c-.7 4.5 1.6 8.6 6.3 11.3 1.3.7 5.8 2.8 11.7-1 2.9-2 6.6-8.3 2.2-14.8"/><path class="st53" d="M48 19.8c-5.8-7.3-17.4-4.7-18.9 4.3-.3 2-.4 7.1 5.9 10.8 2.3 1.4 6.1 2.3 11-.8 4.5-3 5.4-9.9 2-14.3"/><path class="st54" d="M47.1 20c-6-7.1-16.2-3.5-17.6 4.1-1.4 7.3 7.6 14.7 15.2 10.1 7.2-4.4 4.3-11.9 2.4-14.2"/><path class="st32" d="M31.8 3.6c.4-.1.9-.1 1.3-.1 0 0 .1 0 .2-.1h.1c-.9-.7-4-.3-3.9.2.1.6 3.5.7 3.9.1v-.1c-.1-.1-.2 0-.3 0-.4-.1-.8-.1-1.3 0"/><path class="st55" d="M47 21.3c-2.9-4.5-7.2-4.8-10.2-4.3-2.7.4-6.1 3.4-6.8 7.1-.5 2.4-.1 6 4.5 9.5 2.1 1.6 6.8 2 8.9.7 4.1-2.4 4.3-3.1 5.2-6.4.2-.8.2-2 0-2.8-.6-2.2-.6-2.2-1.6-3.8"/><path class="st56" d="M45.6 20.3c-2.6-2.7-7.3-3.5-8.8-2.9-3.6 1.5-3.6 1.5-5.5 4.1-.8 1.1-1.4 3.1-1.1 5.2.4 3 2.5 5.1 2.9 5.5 1.6 1.4 1.6 1.4 5.7 2.5 2.6.7 7.1-2.5 7.9-3.7 3.7-5.7-.9-10.5-1.1-10.7"/><path class="st57" d="M46.7 22.8c-1.1-2-3.7-5.3-9.7-4.8-1.6.1-5.5 2.9-6.1 6.1-1 4.8 2.8 8 2.9 8.1 2 1.6 4.8 2.1 5.1 2.2 1.2.2 2.8-.2 3.9-.6 1.1-.5 2.5-1.6 3.3-2.5.2-.3 1.5-3 1.5-3.1-.1-.1.4-2.9-.9-5.4"/><path class="st33" d="M31.8 3.6c.3 0 .7-.1 1-.1h.2c-.6-.6-3-.2-2.9.1.1.4 2.6.4 2.9 0v-.1c0-.1-.2 0-.2 0-.3 0-.7 0-1 .1"/><path class="st58" d="M46.2 22.9c-.7-1.2-3.3-4.9-9.1-4.4l-2.8 1.2c-1.5 1.4-2.4 2.4-3 4.4-.7 2.9.4 6 3 8.1 1.4 1.1 4.5 1.8 4.6 1.8 1.2.2 2.8-.2 3.9-.7 3-1.4 6-5.9 3.4-10.4"/><path class="st59" d="M45.7 23s-1.8-2.1-2.1-2.3c-.9-.7-2.4-1.2-3.5-1.7-.8-.4-2.1-.1-3 0-.9.1-2.2.6-2.9 1.2-1.7 1.6-2.4 3.2-2.6 3.9-.4 1.4-.8 4.9 3.2 8.1 1 .8 2.7 1.3 4 1.4 1.2.1 2.8-.3 3.8-.8 1.6-.6 6.1-4.7 3.1-9.8"/><path class="st60" d="M45.2 23.1c-1.1-1.9-3.5-4.1-7.9-3.7-1 .1-2.2.7-2.9 1.3-1.4 1.3-2.2 3.4-2.2 3.4-.5 1.6-.5 5 2.7 7.6.4.3 3.5 1.5 4 1.5 1.2.1 2.8-.3 3.8-.8 1.7-.8 3.2-4 3.2-4 .2-1 .7-2.9-.7-5.3"/><path class="st34" d="M31.8 3.6c.2 0 .4-.1.7-.1h.1c-.4-.4-2-.2-1.9.1.1.3 1.8.4 2 0h-.2c-.2-.1-.5 0-.7 0"/><path class="st61" d="M44.6 23.2c-1.1-1.7-3.4-2.8-4.2-3.2-.9-.4-2.2-.3-3.2-.2-1 .1-2.2.8-3 1.4-.6.5-1.8 2.9-1.8 2.9-.6 1.7-.2 5.1 2.3 7.1 1 .8 2.7 1.5 3.9 1.6 1.2.1 2.7-.4 3.8-.9.3 0 5.3-3.7 2.2-8.7"/><path class="st62" d="M44.1 23.2s-1.6-1.9-3.6-2.8c-.9-.4-2.2-.4-3.2-.3 0 0-2.7 1.3-3 1.6-.6.5-1.2 1.6-1.4 2.4-.8 2.2.1 5.2 1.9 6.6.6.4 3.4 1.7 4 1.8.2 0 3.6-.9 3.8-.9.9-.6 2.1-1.8 2.3-2.9.3-2 .6-3.5-.8-5.5"/><path class="st63" d="M43.6 23.3s-2.6-2.2-2.9-2.4c-.9-.4-2.3-.4-3.3-.4-.3 0-2.4 1.2-3 1.8-.5.4-.9 1.2-1.1 1.7-1 3 .7 5.6 1.4 6.1 0 0 3.7 1.9 3.9 1.9.2 0 3.6-1 3.7-1.1 2-1.1 3.4-4.8 1.3-7.6"/><path class="st64" d="M43.1 23.4c-.5-.7-1.5-1.5-2.3-1.9-.9-.4-2.3-.6-3.3-.5-.3 0-3 1.9-3.1 1.9-.3.2-.5.7-.7 1.1-1.1 3.3 1 5.6 1 5.6 1.1.8 2.6 1.8 3.9 2 1.2.1 2.8-.5 3.7-1.2 2.1-1.3 2.6-4.7.8-7"/><path class="st35" d="M31.8 3.6h.3c-.2-.2-1-.1-1 0 0 .2.9.2 1 0H32h-.2"/><path class="st65" d="M42.6 23.5c-.4-.5-1.1-1.1-1.7-1.4-1-.4-2.4-.8-3.4-.6-1.1.2-2.2 1.4-3.1 2.1-.1.1-.2.3-.3.5-1.1 3.6.9 5.3.9 5.3.9.8 2.4 1.7 3.6 1.8 1.2.1 2.6-.8 3.7-1.3 1.3-.5 1.4-4 1.4-4 0-.7-.6-1.8-1.1-2.4"/><path class="st66" d="M42.1 23.5c-.2-.3-.6-.7-1-.8-1-.4-2.4-1-3.5-.7-1.1.2-2.1 1.4-3 2.1-.1.1-.1.3-.2.4-.3 1.3-.8 3.2 1.3 4.9.7.6 1.9 1.4 2.8 1.4 1.2.1 2.6-.8 3.6-1.3.2-.1.4-.4.5-.6.4-.8.7-2 .5-2.8.1-.9-.5-1.9-1-2.6"/><path class="st67" d="M41.6 23.6c-.1-.1-.2-.3-.4-.3-1-.3-2.4-1-3.5-.8-.8.2-1.7 1-2.2 1.6-.5.6-.7 1.7-.9 2.4v.4c.5.8 1.2 1.9 1.9 2.5.5.4 1.3 1 2 1 1.2.1 2.9-.5 3.6-1.4.6-.7.7-2 .6-2.8 0-.9-.6-2-1.1-2.6"/><path class="st68" d="M41.4 24.3c-.2-.2-.4-.5-.7-.6-.9-.3-2-.9-2.9-.8-.5.1-1.2.6-1.5 1.1-.5.7-1.1 1.8-1 2.7.1 1 1.4 1.9 2.1 2.6.3.3.8.6 1.2.6 1 .1 5.8-1.9 2.8-5.6"/><path class="st69" d="M41.7 25.8c-.6-.7-1.6-1.5-2.4-2-.4-.2-1-.5-1.5-.4-.3.1-.6.3-.8.6-.4.8-1.2 1.8-1.1 2.7.1 1 1.4 1.9 2.1 2.6.1.1.3.2.4.2.5 0 .8-.1 3.3-3 .3-.1.1-.5 0-.7"/><path class="st70" d="M38 23.9c-.1 0-.1 0 0 0-.2 0-1.2 2.7-1.2 2.7.1.8.9 2.1 1.7 2.1 1 0 2.5-1.4 2.4-2.4-.1-1.1-1.9-1.9-2.9-2.4"/><path class="st71" d="M38.1 25.1c-.5.1-.7 1-.6 1.5.1.4.5 1.1.9 1.1.5 0 1.3-.7 1.3-1.3-.1-.6-1-1.4-1.6-1.3"/><path class="st72" d="M38.2 26.4l-.1.1s0 .1.1.1l.1-.1c.1 0 0-.1-.1-.1"/></g></g><g class="st1"><defs><path id="SVGID_23_" class="st1" d="M16.7 58.8c-1-.6-2.2-1.3-4.3-3-1-.8-2.3-2.1-3.2-3.1-.6-.6-1.4-1.5-1.9-2.2C5.6 48 5.6 48 4.6 46.3 2.7 42.7 2 39.1 2 39.1c-.3-1.4-.6-3.4-.7-4.8-.1-1.3-.1-3.2 0-4.5.1-.8.2-1.9.3-2.7.2-.7.3-1.7.5-2.4.3-.7.6-1.7.9-2.5 1-2.6 1.2-3 2-4.6 1.3-2.4 2.7-4.1 2.7-4.2.9-1 2-2.4 3-3.3.2-.2 2-1.9 3.7-3 1.4-1 4.4-3 9.1-4.3 3.9-1.1 7.9-1.4 11.9-.9 5.8.7 9.7 2.8 11.4 3.7-4.3-2.4-9.4-3.5-15-2.8 5.5-.7 10.7.3 15 2.8 1.1.7 2.5 1.5 3.5 2.3.9.7 2.4 1.9 3.8 3.4 1 1.1 1.9 2.1 3.2 4 1.1 1.7 1.5 2.5 2.4 4.4 1 2.1 2 5.6 2.2 7.3.1.7.2 1.7.3 2.4.1.8.1 1.9.1 2.7 0 1.5-.2 3.5-.4 4.9-.4 2.9-1.6 6.1-2.3 7.6-1.2 2.4-1.3 2.7-2.4 4.3-.9 1.4-2 2.7-3 3.9-1.3 1.4-2.3 2.3-3.6 3.3-1.6 1.3-2.6 1.8-4.1 2.7-1.2.7-3.1 1.5-3.5 1.6-1 .6-2.4 1.1-4.4 1.6-10.6 2.5-18.8-1.4-21.9-3.2z"/></defs><clipPath id="SVGID_24_"><use xlink:href="#SVGID_23_" overflow="visible"/></clipPath><g class="st82"><path class="st36" d="M16.7 58.8C2.8 50.7.6 36.3 1.4 29.8c.3-2.5 1.2-10 6.4-16.2 1.8-2.2 6.6-8 15.8-10.6C29 1.4 37.5.7 46.8 5.8c-4.3-2.4-9.4-3.5-15-2.8 5.5-.7 10.7.3 15 2.8C72.7 21.7 63.6 56.3 38.6 62c-10.6 2.5-18.8-1.4-21.9-3.2"/><path class="st36" d="M46.8 5.8c2 1.2 3.5 2.2 5.7 4.1l1.6 1.6c.5.6 1.3 1.5 1.8 2.1l1.3 1.9c.4.7 1 1.6 1.4 2.3l1 2.1c.3.7.7 1.7 1 2.5l.7 2.3c.2.8.4 1.8.6 2.6l.3 2.4c0 .8.1 1.9.1 2.7l-.1 2.5c-.1.9-.2 2.1-.4 3l-.5 2.4c-.2.8-.5 1.8-.8 2.5l-.9 2.2c-.4.7-.8 1.7-1.2 2.3l-1.2 2c-.5.7-1.1 1.5-1.6 2.2L54.1 53l-2 2-1.6 1.3c-.8.5-1.8 1.3-2.5 1.8l-1.6.9c-2 1-2.1 1.1-3.5 1.6l-1.1.4c-1.5.5-3.1 1-6 1.5l-.8.1c-.2 0-.5.1-.8.1h-4.9c-.2 0-.5 0-.7-.1l-.7-.1c-.2 0-.5-.1-.8-.1l-.8-.1c-.3-.1-.6-.1-.9-.2l-1-.2c-.3-.1-.8-.2-1.1-.3l-1.3-.4c-.5-.2-1.1-.4-1.5-.6l-1.4-.6c-.7-.4-1.7-.8-2.4-1.2l-1.7-1c-.8-.6-1.8-1.3-2.6-1.9l-1.7-1.5c-.6-.6-1.4-1.4-2-2.1l-1.4-1.8c-.5-.7-1.1-1.5-1.5-2.2l-1.2-2c-.3-.7-.8-1.7-1.1-2.4l-.8-2.2c-.2-.8-.5-1.8-.7-2.5l-.4-2.4c-.1-1.3-.3-3.1-.3-4.4l.1-2.5c.1-.8.2-1.9.3-2.7l.5-2.4c.2-.8.5-1.8.8-2.6l.8-2.2c.3-.7.8-1.7 1.2-2.4l1.2-2c.5-.7 1.1-1.5 1.6-2.2l1.5-1.7 2-2 1.6-1.4c.7-.6 1.7-1.3 2.5-1.8l1.5-.9C19 4.5 19 4.5 20.3 4l1.1-.4c2-.7 3.4-1.1 6.4-1.6h.7c.2 0 .5-.1.8-.1h4.9c.2 0 .5 0 .7.1h.5c.2 0 .5.1.8.1l.8.2c.3.1.6.1.9.2l1 .2c.3.1.8.2 1.1.3l1.3.4c.5.2 1.1.4 1.5.6l1.6.7c.7.2 1.7.7 2.4 1.1-4.3-2.4-9.4-3.5-15-2.8-26.3 7.5-17 36.6-.9 44.5 18.6 9.2 36.4-6.6 29.2-26C55.6 9.1 46 2.9 31.8 3c5.5-.7 10.7.3 15 2.8"/><path class="st29" d="M46.8 5.8c2 1.2 3.5 2.2 5.7 4.1l1.6 1.6c.5.6 1.3 1.5 1.8 2.1l1.3 1.9c.4.7 1 1.6 1.4 2.3l1 2.1c.3.7.7 1.7 1 2.5l.7 2.3c.2.8.4 1.8.6 2.6l.3 2.4c0 .8.1 1.9.1 2.7l-.1 2.5c-.1.9-.2 2.1-.4 3l-.5 2.4c-.2.8-.5 1.8-.8 2.5l-.9 2.2c-.4.7-.8 1.7-1.2 2.3l-1.2 2c-.5.7-1.1 1.5-1.6 2.2L54.1 53l-2 2-1.6 1.3c-.8.5-1.8 1.3-2.5 1.8l-1.6.9c-2 1-2.1 1.1-3.5 1.6l-1.1.4c-1.5.5-3.1 1-6 1.5l-.8.1c-.2 0-.5.1-.8.1h-4.9c-.2 0-.5 0-.7-.1l-.7-.1c-.2 0-.5-.1-.8-.1l-.8-.1c-.3-.1-.6-.1-.9-.2l-1-.2c-.3-.1-.8-.2-1.1-.3l-1.3-.4c-.5-.2-1.1-.4-1.5-.6l-1.4-.6c-.7-.4-1.7-.8-2.4-1.2l-1.7-1c-.8-.6-1.8-1.3-2.6-1.9l-1.7-1.5c-.6-.6-1.4-1.4-2-2.1l-1.4-1.8c-.5-.7-1.1-1.5-1.5-2.2l-1.2-2c-.3-.7-.8-1.7-1.1-2.4l-.8-2.2c-.2-.8-.5-1.8-.7-2.5l-.4-2.4c-.1-1.3-.3-3.1-.3-4.4l.1-2.5c.1-.8.2-1.9.3-2.7l.5-2.4c.2-.8.5-1.8.8-2.6l.8-2.2c.3-.7.8-1.7 1.2-2.4l1.2-2c.5-.7 1.1-1.5 1.6-2.2l1.5-1.7 2-2 1.6-1.4c.7-.6 1.7-1.3 2.5-1.8l1.5-.9C19 4.5 19 4.5 20.3 4l1.1-.4c2-.7 3.4-1.1 6.4-1.6h.7c.2 0 .5-.1.8-.1h4.9c.2 0 .5 0 .7.1h.5c.2 0 .5.1.8.1l.8.2c.3.1.6.1.9.2l1 .2c.3.1.8.2 1.1.3l1.3.4c.5.2 1.1.4 1.5.6l1.6.7c.7.2 1.7.7 2.4 1.1-1.5-.8-3.1-1.5-4.8-2-.1 0-.1 0-.2-.1C19.4-2.6 7.6 19.3 18.1 37c11.7 19.8 38.8 18.9 43.3-1.5 2.8-12.7-6-27.3-19.4-31.7 1.7.5 3.3 1.1 4.8 2"/><path class="st30" d="M60.6 22.3c.3 1 .8 2.5 1.2 4.9l.3 2.4c0 .8.1 1.9.1 2.7l-.1 2.5c-.1.9-.2 2.1-.4 3l-.5 2.4c-.2.8-.5 1.8-.8 2.5l-.9 2.2c-.4.7-.8 1.7-1.2 2.3l-1.2 2c-.5.7-1.1 1.5-1.6 2.2L54.1 53l-2 2-1.6 1.3c-.8.5-1.8 1.3-2.5 1.8l-1.6.9c-2 1-2.1 1.1-3.5 1.6l-1.1.4c-1.5.5-3.1 1-6 1.5l-.8.1c-.2 0-.5.1-.8.1h-4.9c-.2 0-.5 0-.7-.1l-.7-.1c-.2 0-.5-.1-.8-.1l-.8-.1c-.3-.1-.6-.1-.9-.2l-1-.2c-.3-.1-.8-.2-1.1-.3l-1.3-.4c-.5-.2-1.1-.4-1.5-.6l-1.4-.6c-.7-.4-1.7-.8-2.4-1.2l-1.7-1c-.8-.6-1.8-1.3-2.6-1.9l-1.7-1.5c-.6-.6-1.4-1.4-2-2.1l-1.4-1.8c-.5-.7-1.1-1.5-1.5-2.2l-1.2-2c-.3-.7-.8-1.7-1.1-2.4l-.8-2.2c-.2-.8-.5-1.8-.7-2.5l-.4-2.4c-.1-1.3-.3-3.1-.3-4.4l.1-2.5c.1-.8.2-1.9.3-2.7l.5-2.4c.2-.8.5-1.8.8-2.6l.8-2.2c.3-.7.8-1.7 1.2-2.4l1.2-2c.5-.7 1.1-1.5 1.6-2.2l1.5-1.7 2-2 1.6-1.4c.7-.6 1.7-1.3 2.5-1.8l1.5-.9C19 4.5 19 4.5 20.3 4l1.1-.4c2-.7 3.4-1.1 6.4-1.6h.7c.2 0 .5-.1.8-.1h4.9c.2 0 .5 0 .7.1h.5c.2 0 .5.1.8.1l.8.2c.3.1.6.1.9.2l1 .2c.3.1.8.2 1.1.3l1.3.4c.5.2 1.1.4 1.5.6l1.6.7c.7.4 1.7.8 2.4 1.2-.2-.1-.4-.2-.5-.3-.5-.3-1.3-.6-1.8-.9C23.2-4.6 7.5 15.2 15 33.6c9.4 22.8 37.6 24.1 45.1 7 3.5-8 1.5-15.5.1-19.3.1.3.3.7.4 1M46.8 5.8c.5.3 1.1.6 1.5.9-.5-.3-1.3-.8-1.8-1.1-.1 0-.2-.1-.2-.1.1.1.3.2.5.3"/><path class="st31" d="M61.8 27.2c.2 1.5.4 2.8.4 5.1l-.1 2.5c-.1.9-.2 2.1-.4 3l-.5 2.4c-.2.8-.5 1.8-.8 2.5l-.9 2.2c-.4.7-.8 1.7-1.2 2.3l-1.2 2c-.5.7-1.1 1.5-1.6 2.2L54.1 53l-2 2-1.6 1.3c-.8.5-1.8 1.3-2.5 1.8l-1.6.9c-2 1-2.1 1.1-3.5 1.6l-1.1.4c-1.5.5-3.1 1-6 1.5l-.8.1c-.2 0-.5.1-.8.1h-4.9c-.2 0-.5 0-.7-.1l-.7-.1c-.2 0-.5-.1-.8-.1l-.8-.1c-.3-.1-.6-.1-.9-.2l-1-.2c-.3-.1-.8-.2-1.1-.3l-1.3-.4c-.5-.2-1.1-.4-1.5-.6l-1.4-.6c-.7-.4-1.7-.8-2.4-1.2l-1.7-1c-.8-.6-1.8-1.3-2.6-1.9l-1.7-1.5c-.6-.6-1.4-1.4-2-2.1l-1.4-1.8c-.5-.7-1.1-1.5-1.5-2.2l-1.2-2c-.3-.7-.8-1.7-1.1-2.4l-.8-2.2c-.2-.8-.5-1.8-.7-2.5l-.4-2.4c-.1-1.3-.3-3.1-.3-4.4l.1-2.5c.1-.8.2-1.9.3-2.7l.5-2.4c.2-.8.5-1.8.8-2.6l.8-2.2c.3-.7.8-1.7 1.2-2.4l1.2-2c.5-.7 1.1-1.5 1.6-2.2l1.5-1.7 2-2 1.6-1.4c.7-.6 1.7-1.3 2.5-1.8l1.5-.9C19 4.5 19 4.5 20.3 4l1.1-.4c2-.7 3.4-1.1 6.4-1.6h.7c.2 0 .5-.1.8-.1h4.9c.2 0 .5 0 .7.1h.5c.2 0 .5.1.8.1l.8.2c.3.1.6.1.9.2l1 .2c.3.1.8.2 1.1.3l1.3.4.7.3-1.6-.5c-22.7-6.4-35.2 16.1-25 34.4 12.5 22.1 39.8 20 45.6 1.7 1.8-5.8 1.1-10.4.8-12.2v.1"/><path class="st32" d="M62.3 32.4c0 1.6-.1 2.9-.5 5.5l-.5 2.4c-.2.8-.5 1.8-.8 2.5l-.9 2.2c-.4.7-.8 1.7-1.2 2.3l-1.2 2c-.5.7-1.1 1.5-1.6 2.2L54.1 53l-2 2-1.6 1.3c-.8.5-1.8 1.3-2.5 1.8l-1.6.9c-2 1-2.1 1.1-3.5 1.6l-1.1.4c-1.5.5-3.1 1-6 1.5l-.8.1c-.2 0-.5.1-.8.1h-4.9c-.2 0-.5 0-.7-.1l-.7-.1c-.2 0-.5-.1-.8-.1l-.8-.1c-.3-.1-.6-.1-.9-.2l-1-.2c-.3-.1-.8-.2-1.1-.3l-1.3-.4c-.5-.2-1.1-.4-1.5-.6l-1.4-.6c-.7-.4-1.7-.8-2.4-1.2l-1.7-1c-.8-.6-1.8-1.3-2.6-1.9l-1.7-1.5c-.6-.6-1.4-1.4-2-2.1l-1.4-1.8c-.5-.7-1.1-1.5-1.5-2.2l-1.2-2c-.3-.7-.8-1.7-1.1-2.4l-.8-2.2c-.2-.8-.5-1.8-.7-2.5l-.4-2.4c-.1-1.3-.3-3.1-.3-4.4l.1-2.5c.1-.8.2-1.9.3-2.7l.5-2.4c.2-.8.5-1.8.8-2.6l.8-2.2c.3-.7.8-1.7 1.2-2.4l1.2-2c.5-.7 1.1-1.5 1.6-2.2l1.5-1.7 2-2 1.6-1.4c.7-.6 1.7-1.3 2.5-1.8l1.5-.9C19 4.5 19 4.5 20.3 4l1.1-.4c2-.7 3.4-1.1 6.4-1.6h.7c.2 0 .5-.1.8-.1h4.9c.2 0 .5 0 .7.1h.5c.2 0 .5.1.8.1l.8.2h.2-.2C12.9-1.5 3.4 25.1 17 42.5 31.6 61.1 59.4 57 62 35.9c.3-2 .2-3 .2-3.7.1 0 .1.1.1.2"/><path class="st33" d="M61.8 37.8c-.2 1-.5 2.6-1.3 4.9l-.9 2.2c-.4.7-.8 1.7-1.2 2.3l-1.2 2c-.5.7-1.1 1.5-1.6 2.2L54.1 53l-2 2-1.6 1.3c-.8.5-1.8 1.3-2.5 1.8l-1.6.9c-2 1-2.1 1.1-3.5 1.6l-1.1.4c-1.5.5-3.1 1-6 1.5l-.8.1c-.2 0-.5.1-.8.1h-4.9c-.2 0-.5 0-.7-.1l-.7-.1c-.2 0-.5-.1-.8-.1l-.8-.1c-.3-.1-.6-.1-.9-.2l-1-.2c-.3-.1-.8-.2-1.1-.3l-1.3-.4c-.5-.2-1.1-.4-1.5-.6l-1.4-.6c-.7-.4-1.7-.8-2.4-1.2l-1.7-1c-.8-.6-1.8-1.3-2.6-1.9l-1.7-1.5c-.6-.6-1.4-1.4-2-2.1l-1.4-1.8c-.5-.7-1.1-1.5-1.5-2.2l-1.2-2c-.3-.7-.8-1.7-1.1-2.4l-.8-2.2c-.2-.8-.5-1.8-.7-2.5l-.4-2.4c-.1-1.3-.3-3.1-.3-4.4l.1-2.5c.1-.8.2-1.9.3-2.7l.5-2.4c.2-.8.5-1.8.8-2.6l.8-2.2c.3-.7.8-1.7 1.2-2.4l1.2-2c.5-.7 1.1-1.5 1.6-2.2l1.5-1.7 2-2 1.6-1.4c.7-.6 1.7-1.3 2.5-1.8l1.5-.9C19 4.5 19 4.5 20.3 4l1.1-.4c2-.7 3.4-1.1 6.4-1.6h.7c.2 0 .5-.1.8-.1h3.4-.5C9.3 1.9 1.4 29.3 19 46.8c14.4 14.3 38.7 11.9 42.9-10.1 0 .3-.1.8-.1 1.1"/><path class="st34" d="M60.4 42.7c-.3.9-.9 2.4-2.1 4.5l-1.2 2c-.5.7-1.1 1.5-1.6 2.2L54.1 53l-2 2-1.6 1.3c-.8.5-1.8 1.3-2.5 1.8l-1.6.9c-2 1-2.1 1.1-3.5 1.6l-1.1.4c-1.5.5-3.1 1-6 1.5l-.8.1c-.2 0-.5.1-.8.1h-4.9c-.2 0-.5 0-.7-.1l-.7-.1c-.2 0-.5-.1-.8-.1l-.8-.1c-.3-.1-.6-.1-.9-.2l-1-.2c-.3-.1-.8-.2-1.1-.3l-1.3-.4c-.5-.2-1.1-.4-1.5-.6l-1.4-.6c-.7-.4-1.7-.8-2.4-1.2l-1.7-1c-.8-.6-1.8-1.3-2.6-1.9l-1.7-1.5c-.6-.6-1.4-1.4-2-2.1l-1.4-1.8c-.5-.7-1.1-1.5-1.5-2.2l-1.2-2c-.3-.7-.8-1.7-1.1-2.4l-.8-2.2c-.2-.8-.5-1.8-.7-2.5l-.4-2.4c-.1-1.3-.3-3.1-.3-4.4l.1-2.5c.1-.8.2-1.9.3-2.7l.5-2.4c.2-.8.5-1.8.8-2.6l.8-2.2c.3-.7.8-1.7 1.2-2.4l1.2-2c.5-.7 1.1-1.5 1.6-2.2l1.5-1.7 2-2 1.6-1.4c.7-.6 1.7-1.3 2.5-1.8l1.5-.9C19 4.5 19 4.5 20.3 4l1.1-.4C23 3 24.6 2.5 27.6 2l-.5.1C3.8 6.1 1 36.6 22.5 51.5c15 10.4 33.4 5.6 38.4-10.2-.2.5-.3 1-.5 1.4"/><path class="st35" d="M58.4 47.2c-.6 1.1-1.3 2.3-2.8 4.1L54.1 53l-2 2-1.6 1.3c-.8.5-1.8 1.3-2.5 1.8l-1.6.9c-2 1-2.1 1.1-3.5 1.6l-1.1.4c-1.5.5-3.1 1-6 1.5l-.8.1c-.2 0-.5.1-.8.1h-4.9c-.2 0-.5 0-.7-.1l-.7-.1c-.2 0-.5-.1-.8-.1l-.8-.1c-.3-.1-.6-.1-.9-.2l-1-.2c-.3-.1-.8-.2-1.1-.3l-1.3-.4c-.5-.2-1.1-.4-1.5-.6l-1.4-.6c-.7-.4-1.7-.8-2.4-1.2l-1.7-1c-.8-.6-1.8-1.3-2.6-1.9l-1.7-1.5c-.6-.6-1.4-1.4-2-2.1l-1.4-1.8c-.5-.7-1.1-1.5-1.5-2.2l-1.2-2c-.3-.7-.8-1.7-1.1-2.4l-.8-2.2c-.2-.8-.5-1.8-.7-2.5l-.4-2.4c-.1-1.3-.3-3.1-.3-4.4l.1-2.5c.1-.8.2-1.9.3-2.7l.5-2.4c.2-.8.5-1.8.8-2.6l.8-2.2c.3-.7.8-1.7 1.2-2.4l1.2-2c.5-.7 1.1-1.5 1.6-2.2l1.5-1.7 2-2 1.6-1.4c.7-.6 1.7-1.3 2.5-1.8l1.5-.9C19 4.5 19 4.5 20.3 4l1.1-.4c.5-.2 1.1-.4 1.6-.5C0 10.4.9 42.7 24.2 54.8c15.9 8.3 29 1.6 34.4-8.1-.1.2-.2.4-.2.5"/><path class="st37" d="M45.2 5.4c19.1 9 21.9 35.6 4.4 42.4C31.3 55 10.3 33.1 18 14.9 22.9 3.2 35.7.9 45.2 5.4"/><path class="st38" d="M47.9 7c18.4 11.2 17.5 37.1-1.4 40.7-20 3.8-36.9-21-25.2-36.8C28 1.8 39.8 2 47.9 7"/><path class="st39" d="M50.2 8.8c16.6 12.8 12 34.8-3.6 37.8C29.2 50 10.9 28.4 22.1 11.3 27 3.8 39.2.7 50.2 8.8"/><path class="st40" d="M52.3 10.9c15.1 14.4 6.8 35-9.4 35-19 0-30.9-23.9-18.1-36.5 8.1-7.8 20.3-5.4 27.5 1.5"/><path class="st41" d="M52.3 11.3c13.7 12.8 8 33.5-9.2 33.7C24.5 45 13.5 22.3 26 9.6c6.5-6.6 18.3-5.8 26.3 1.7"/><path class="st42" d="M54 13.6c11.2 13.7 3.3 31.7-13.2 30.1-19.1-1.9-25-25.3-12.7-34.7 8.4-6.5 20-2.6 25.9 4.6"/><path class="st43" d="M53.8 13.9c11.1 13.7 1.9 31.6-14.7 28.6-17.9-3.2-21.5-25.2-9.3-33.7 7-4.8 17.7-2.5 24 5.1"/><path class="st44" d="M55.1 16.5c8.8 14.4-2.4 27.7-15.9 25.2-18.1-3.4-19.6-24.3-9.3-31.7 9.6-7 20.8-.7 25.2 6.5"/><path class="st45" d="M54.7 16.9c8.1 13.7-2.6 26.3-15.5 23.9-16.7-3.1-19.2-22-7.7-30.7 5.9-4.5 17.6-2.5 23.2 6.8"/><path class="st46" d="M54.2 17.2c8.1 13.8-3.9 25.9-17.3 22.2-15-4.1-15.2-22.7-3.6-29.4 6.7-3.7 16.4-.4 20.9 7.2"/><path class="st47" d="M54.8 20.1c5 13.1-8.5 23-19.8 18.1-13.3-5.8-11.2-23.2.3-27.9 7.2-2.9 16.5 1.8 19.5 9.8"/><path class="st48" d="M54.1 20.5c4.1 11.8-7.5 22.2-19 17.1-12.6-5.5-10.4-21.7.5-26.2 8.2-3.5 16.3 2.9 18.5 9.1"/><path class="st49" d="M53.2 20.8C57.1 32.5 44.8 41.3 35 37c-11.9-5.2-9.6-20.7.8-24.7 7.6-2.9 15.3 2.1 17.4 8.5"/><path class="st50" d="M52.3 21.2c3.7 11.1-8 19.4-17.3 15.3-10.3-4.5-9.6-19.1 1.1-23.3 5.6-2.2 13.8.7 16.2 8"/><path class="st51" d="M51.9 24.2c.6 8.3-5.2 11-7.1 11.8-6.6 3.1-11.5-1.1-13.1-2.5-7.6-6.5-3.4-18.6 6.9-19.9 7.2-.9 12.9 4.8 13.3 10.6"/><path class="st52" d="M51.1 24.5c.8 6.1-4.2 9.9-4.2 9.9-3.2 2-3.3 2-7.8 2.3 0 0-3.6-.8-4.7-1.6-11.5-8.3-4-18.4 2.1-20.2 5.9-1.9 13.6 1.9 14.6 9.6"/><path class="st53" d="M50.4 24.6c.9 7.9-8.4 15.8-17.3 8.8-9-7.1-2.2-18.3 6.1-18.3 3.5 0 10.4 2.8 11.2 9.5"/><path class="st54" d="M49.6 24.8c.3 2.7-.2 7.7-6.6 10.4-1.9.8-7 1.1-10.9-3-5.5-5.8-2.1-16.5 7.4-16.3 5.8.1 9.8 5.3 10.1 8.9"/><path class="st55" d="M48.9 25c1 10.4-10.9 12.8-16.2 7.2-6.5-6.8-.8-16.4 7-15.7 6.3.5 8.9 6.1 9.2 8.5"/><path class="st56" d="M48.3 25.1c.8 5.2-2.5 7.3-5.3 9.1-.4.3-4 1.5-8-.7-.6-.3-5.4-3-4.6-9.6.2-1.5 2.4-5.8 6.6-6.7 3.4-.8 10.4 1.6 11.3 7.9"/><path class="st57" d="M47.8 28.1s-1.2 2.7-1.5 3.1c-.8 1-2.3 1.9-3.3 2.6-1 .7-2.8.5-4 .6-1.3.1-3-.6-4.1-1.3-2-1.3-3.4-3.7-3.4-3.7-2.7-5.3 1.5-12.7 8.5-11.8 4.9.7 8.9 6.1 7.8 10.5"/><path class="st58" d="M47.3 28.2c-1.4 5.3-6.4 5.7-8.3 5.9-1.3.1-3-.7-4.1-1.4-1.2-.8-2.9-3.2-2.9-3.2-2.6-4.7.8-12.3 8.2-11.2.3 0 3.6 1.5 3.6 1.6.7.5 1.3.9 2.7 2.9 1.4 1.9.8 5.3.8 5.4"/><path class="st59" d="M46.7 28.3c-1.4 4.9-5.7 5.2-7.8 5.4-1.3.1-3-.7-4.1-1.4-.9-.6-1.9-1.8-2.5-2.8-.7-1.2-2.1-4.5.6-8.1 2.2-3 6.1-2.9 7.3-2.6 1.1.3 2.6 1 3.5 1.7.2.2 2.1 2.3 2.1 2.3 1.7 2.4.9 5.3.9 5.5"/><path class="st60" d="M46.1 28.3s-.7 2.3-3.3 4.1c-1 .7-2.7.7-3.9.8 0 0-3-.9-4-1.6-.8-.5-1.6-1.5-2-2.3-2.4-4-.1-7.1.7-8.1.8-1.1 3.9-2.9 6.9-2.1.1.2 7.6 2.6 5.6 9.2"/><path class="st61" d="M45.8 27c0 .4.1 1.1-.2 1.5-.5 1-1.4 2.4-2.3 3.1-.5.4-.6.6-4.4 1.3 0 0-3.9-.6-5.6-3.5-2.3-4-.1-6.9.8-8.1.6-.7 3.3-1.8 3.3-1.8.9-.2 2.3 0 3.2.2 2.1.6 4.3 3.2 4.3 3.2 1.1 1.7 1 2.9.9 4.1"/><path class="st62" d="M45.1 28.5c-.4 1.1-1.4 2.4-2.4 3-.2.1-3.5.9-3.8 1 0 0-3.8-.8-5.2-3.1-2.4-3.9-.1-6.9.7-7.8.1-.1 2.8-1.5 3.1-1.6 1-.2 2.3 0 3.3.3 1.8.5 5.9 4.2 4.3 8.2"/><path class="st63" d="M44.6 28.6c-.4.8-1.1 1.9-1.9 2.4-.2.1-3.5 1.1-3.8 1.1-.2 0-4-1.9-4-1.9-.3-.2-.5-.5-.7-.8-1.1-1.7-1.9-4.4.3-7.2.6-.8 2-1.5 3-1.8 1-.2 2.4.1 3.4.3.3.1 3 2.4 3 2.4.4.8 1 1.8 1.1 2.6 0 .9-.1 2.1-.4 2.9"/><path class="st64" d="M44.1 28.7c-.3.6-.8 1.5-1.4 1.8-1 .6-2.6 1.4-3.8 1.2-1.3-.3-3-1.1-4-2-.7-.6-1.4-3-1.4-3s0-3.1 1-3.8c.3-.2 2.7-1.9 3.1-2 1-.2 2.5.1 3.4.5.8.4 1.8 1.2 2.4 1.9.5.7.8 1.8 1.1 2.6.3.7-.1 2-.4 2.8"/><path class="st65" d="M43.5 28.7c-.2.4-.6 1-1 1.2-1.1.6-2.6 1.5-3.8 1.3-1.2-.3-2.8-1-3.7-1.9-.6-.6-1.3-2.7-1.3-2.7s0-2.3.7-3.2c.7-.9 2-1.9 3.2-2.2 1-.2 2.5.3 3.5.7.6.2 1.3.9 1.7 1.4.5.7 1.1 1.7 1.2 2.6.1.8-.1 2-.5 2.8"/><path class="st66" d="M43 28.8c-.1.2-.3.5-.5.6-1.1.5-2.5 1.4-3.7 1.4-1-.1-2.1-.9-2.9-1.4-.5-.3-.9-1-1.2-1.5-1.1-1.9 0-3.9 0-3.9.7-.9 1.9-1.9 3-2.2 1.1-.2 2.5.4 3.5.8.4.1.8.5 1 .8.5.7 1.1 1.7 1.2 2.6.2.8 0 2-.4 2.8"/><path class="st67" d="M42.4 28.9c-.8.9-2.5 1.5-3.7 1.5-.7 0-1.5-.6-2-1-.7-.6-1.6-1.7-2-2.6-.2-.4.8-2.8.9-2.9.5-.7 1.4-1.5 2.3-1.6 1.1-.2 2.5.5 3.6.9.1 0 .3.2.4.3.5.7 1.2 1.7 1.3 2.6 0 .8-.4 2-.8 2.8"/><path class="st68" d="M42.2 27.7c-1 1.8-3.5 2.2-3.5 2.2-.4 0-1-.3-1.3-.6-.7-.7-2-1.7-2.1-2.7-.1-.9.6-2 1-2.7.3-.5 1-1 1.5-1.1.9-.2 2.1.5 3 .8.3.1.5.4.7.6.8.7 1.2 2.5.7 3.5"/><path class="st69" d="M42 26.4c-.5 1-1.7 2-2.6 2.7-.2.2-.6.3-.8.3-.6 0-2.6-2.8-2.6-2.9-.1-.9.7-2 1.1-2.8.1-.3.5-.5.8-.6.5-.1 1.2.1 1.5.4 2.9 2.4 2.8 2.5 2.6 2.9"/><path class="st70" d="M38.6 28.7c-.8 0-1.7-1.3-1.8-2.2l1.2-2.8c.9.7 2.9 1.3 3 2.5.1 1.1-1.4 2.6-2.4 2.5"/><path class="st71" d="M38.5 27.6c-.4 0-.9-.7-.9-1.1-.1-.5.2-1.4.6-1.5.6-.1 1.5.7 1.6 1.3 0 .6-.8 1.3-1.3 1.3"/><path class="st72" d="M38.4 26.5c-.1 0-.1 0 0 0-.1-.1-.1-.2 0-.2s.1.1.1.1c0 .1-.1.1-.1.1"/></g></g></g><use xlink:href="#Home" width="69.5" height="63.7" x="-34.7" y="-31.8" transform="matrix(.5157 0 0 -.5157 31.911 32.306)" overflow="visible"/><use xlink:href="#Home" width="69.5" height="63.7" x="-34.7" y="-31.8" transform="matrix(.5157 0 0 -.5157 31.981 32.304)" overflow="visible"/></svg>