<svg id="Layer_1" xmlns="http://www.w3.org/2000/svg" xmlns:xlink="http://www.w3.org/1999/xlink" viewBox="0 0 64 64"><style>.st0,.st1{enable-background:new}.st1{clip-path:url(#SVGID_2_)}.st2{fill:#1e2060}.st3{fill:#1d1f5d}.st4{fill:#1d1e5a}.st5{fill:#1c1d57}.st6{fill:#1b1c54}.st7{fill:#1a1b51}.st8{fill:#191a4e}.st9{fill:#18194b}.st10{fill:#1f2163}.st11{fill:#202266}.st12{fill:#212368}.st13{fill:#22246b}.st14{fill:#23256e}.st15{fill:#242671}.st16{fill:#252774}.st17{fill:#262877}.st18{fill:#27297a}.st19{fill:#282a7d}.st20{fill:#282b80}.st21{fill:#292c83}.st22{fill:#2a2d85}.st23{fill:#2b2e88}.st24{fill:#2c2f8b}.st25{fill:#2d308e}.st26{fill:#2e3191}.st27{fill:#474a9e}.st28{fill:#5154a4}.st29{fill:#595ca8}.st30{fill:#6062ab}.st31{fill:#6668af}.st32{fill:#6b6eb1}.st33{fill:#7072b4}.st34{fill:#7577b6}.st35{fill:#797bb9}.st36{fill:#7d7fbb}.st37{fill:#8183bd}.st38{fill:#8587bf}.st39{fill:#888ac1}.st40{fill:#8c8dc2}.st41{fill:#8f91c4}.st42{fill:#9294c6}.st43{fill:#9597c7}.st44{fill:#989ac9}.st45{fill:#9b9dcb}.st46{clip-path:url(#SVGID_4_);enable-background:new}.st47{fill:#a8a8a8}.st48{fill:#a3a3a3}.st49{fill:#9e9e9e}.st50{fill:#999}.st51{fill:#949494}.st52{fill:#8f8f8f}.st53{fill:#8a8a8a}.st54{fill:#858585}.st55{fill:#adadad}.st56{fill:#b3b3b3}.st57{fill:#b8b8b8}.st58{fill:#bdbdbd}.st59{fill:#c2c2c2}.st60{fill:#c7c7c7}.st61{fill:#ccc}.st62{fill:#d1d1d1}.st63{fill:#d6d6d6}.st64{fill:#dbdbdb}.st65{fill:#e0e0e0}.st66{fill:#e6e6e6}.st67{fill:#ebebeb}.st68{fill:#f0f0f0}.st69{fill:#f5f5f5}.st70{fill:#fafafa}.st71{fill:#fff}.st72,.st73,.st74,.st75{clip-path:url(#SVGID_6_);enable-background:new}.st73,.st74,.st75{clip-path:url(#SVGID_8_)}.st74,.st75{clip-path:url(#SVGID_10_)}.st75{clip-path:url(#SVGID_12_)}</style><g class="st0" id="BlueBall"><g class="st0"><defs><path id="SVGID_1_" class="st0" d="M1.4 31.8c0-1.4.1-4.4 1-7.8 1-3.8 2.5-6.4 2.9-7.2C6 15.6 7 14.1 7.9 13c.5-.7 1.2-1.5 1.8-2.1 2.1-2.1 2.1-2.1 4-3.6 1.1-.9 2.3-1.5 3.5-2.2.9-.5 2.2-1.1 3.2-1.5 1.4-.5 2.3-.9 4.4-1.4 1.6-.4 4.2-.9 7.4-.9 3.9 0 6.7.8 8.1 1.2.4.1 1.7.5 3.6 1.3 1 .4 2.2 1.1 3.1 1.5 7.5 4.2 12.4 12.6 12.4 22.9 0 16.2-12.4 31-27.5 33.1 15.1-2 27.5-16.9 27.5-33.1 0-10.3-4.9-18.7-12.4-22.9.7.4 1.7 1 2.4 1.5.5.4 1.2.9 1.7 1.3.6.5 1.4 1.2 2 1.7l1.6 1.6c.5.6 1.2 1.4 1.7 2 1.5 2 2.4 3.7 2.6 4.1.5 1 1.2 2.4 2 4.6.5 1.4.9 3.3 1.2 4.7.4 2 .6 5.6.3 8.2-.2 1.7-.3 2.9-.9 5-.5 1.7-.5 1.7-1.7 4.7-.6 1.3-1.1 2.2-2.5 4.4-.5.7-1.2 1.6-1.7 2.3-.9 1-2.1 2.3-3.1 3.2-1.9 1.7-3 2.4-4.2 3.1-1.1.7-4 2.4-8 3.5-4.5 1.3-9 1.5-13.6.7-3.3-.6-5.8-1.6-6.6-2-2.8-1.2-5.2-2.8-5.8-3.3-.6-.5-1.5-1.1-2.1-1.7-2.3-1.7-2.4-1.9-3.6-3.3-1.5-1.7-2.8-3.8-4-6-.4-.7-.8-1.6-1.1-2.4-.5-1.4-1.1-3.2-1.4-4.6-.7-2.9-.8-5.4-.8-6.8z"/></defs><clipPath id="SVGID_2_"><use xlink:href="#SVGID_1_" overflow="visible"/></clipPath><g class="st1"><path class="st2" d="M1.4 31.8c.3 19.3 15 26.7 19.4 28.5 9.4 3.8 23.2 3 33.1-7.3C67.8 38.6 64.4 15.4 47 5.2c7.5 4.2 12.4 12.6 12.4 22.9 0 16.2-12.4 31-27.5 33.1 15.1-2 27.5-16.9 27.5-33.1 0-10.3-4.9-18.7-12.4-22.9-14.6-7.7-26.5-2-29.8-.1C1.9 14 1.4 28.9 1.4 31.8"/><path class="st2" d="M59.4 28.2c0 16.2-12.4 31-27.5 33.1h-.1C5.3 62.6-4.9 33.9 6.9 20.4c12.9-14.7 40-2.5 41.5 18.7C49.5 55.3 37.7 59.3 32 61.3c15.1-2.1 27.4-16.9 27.4-33.1 0-10.3-4.9-18.7-12.4-22.9-.4-.3-1-.6-1.5-.9-.7-.3-1.6-.8-2.4-1l-1.3-.5c-.5-.1-1.1-.3-1.5-.5l-1-.3c-.3 0-.8-.1-1.1-.2l-.9-.2c-.3 0-.6-.1-.9-.1l-.8-.1c-.2 0-.5-.1-.8-.1l-.7-.1h-4.2c-.2 0-.5 0-.7.1l-.8.1c-.2 0-.6.1-.8.1l-1 .2c-2.9.5-4.3 1-6.5 1.9l-1.6.7c-2 1.1-2.2 1.1-3.3 1.9l-1.7 1.2c-.7.6-1.7 1.4-2.4 2l-1.6 1.6c-.6.6-1.3 1.5-1.8 2.1l-1.4 1.9c-.4.7-1 1.6-1.4 2.3l-1.1 2.1c-.3.7-.7 1.7-1 2.5l-.7 2.3c-.2.8-.4 1.8-.6 2.6l-.3 2.4c0 .8-.1 1.9-.1 2.7l.1 2.5c.2 1.3.4 3.1.7 4.4l.9 2.1c.3.7.6 1.7.9 2.5l1 2.1c.4.7.9 1.6 1.3 2.3l1.3 1.9c.5.6 1.2 1.5 1.7 2.1l1.5 1.6c.6.6 1.5 1.4 2.1 1.9l1.7 1.3c.8.5 1.9 1.2 2.7 1.7l1.6.8c.7.3 1.6.8 2.4 1l1.3.5c.5.1 1.1.3 1.5.5l1 .3c.3.1.8.2 1.1.2l.9.2c.3 0 .6.1.9.1l.8.1c.2 0 .5.1.8.1l.7.1h4.2c.2 0 .5 0 .7-.1l.8-.1c.2 0 .6-.1.8-.1l1-.2c1.9-.4 3.5-.7 6.2-1.7l1.6-.7c2-1 2.2-1.1 3.4-1.9l1.7-1.2c.7-.6 1.7-1.4 2.5-2l1.6-1.5c.6-.6 1.3-1.5 1.9-2.1l1.4-1.8c.4-.7 1-1.6 1.4-2.3l1.1-2.1c.3-.7.7-1.7 1-2.5l.7-2.3c.2-.8.4-1.8.6-2.6l.3-2.4c.1-.9.1-2.1.2-3.1l-.1-2.5c-.1-.8-.2-1.9-.3-2.7l-.5-2.4c-.2-.8-.5-1.8-.8-2.5L60 19.7c-.3-.7-.8-1.7-1.2-2.4l-1.2-2c-.5-.7-1.1-1.5-1.5-2.2l-1.5-1.7c-.6-.6-1.3-1.4-2-2L51.1 8C49 6.4 48.7 6.2 47 5.2c7.5 4.3 12.5 12.7 12.4 23"/><path class="st3" d="M59.4 28.2c0 13.5-8.5 26-20.1 31-.4.2-.9.5-1.3.7C17.7 68.4-4.8 45.4 3.6 24.6c7.3-18 35.1-14.4 43.7 5.7 4.9 11.4 1.6 23.5-7.9 28.9 11.5-5.1 20-17.6 20-31 0-10.3-4.9-18.7-12.4-22.9-.4-.3-1-.6-1.5-.9-.7-.3-1.6-.8-2.4-1l-1.3-.5c-.5-.1-1.1-.3-1.5-.5l-1-.3c-.3 0-.8-.1-1.1-.2l-.9-.2c-.3 0-.6-.1-.9-.1l-.8-.1c-.2 0-.5-.1-.8-.1l-.7-.1h-4.2c-.2 0-.5 0-.7.1l-.8.1c-.2 0-.6.1-.8.1l-1 .2c-2.9.5-4.3 1-6.5 1.9l-1.6.7c-2 1.1-2.2 1.1-3.3 1.9l-1.7 1.2c-.7.6-1.7 1.4-2.4 2l-1.6 1.6c-.6.6-1.3 1.5-1.8 2.1l-1.4 1.9c-.4.7-1 1.6-1.4 2.3l-1.1 2.1c-.3.7-.7 1.7-1 2.5l-.7 2.3c-.2.8-.4 1.8-.6 2.6l-.3 2.4c0 .8-.1 1.9-.1 2.7l.1 2.5c.2 1.3.4 3.1.7 4.4l.9 2.1c.3.7.6 1.7.9 2.5l1 2.1c.4.7.9 1.6 1.3 2.3l1.3 1.9c.5.6 1.2 1.5 1.7 2.1l1.5 1.6c.6.6 1.5 1.4 2.1 1.9l1.7 1.3c.8.5 1.9 1.2 2.7 1.7l1.6.8c.7.3 1.6.8 2.4 1l1.3.5c.5.1 1.1.3 1.5.5l1 .3c.3.1.8.2 1.1.2l.9.2c.3 0 .6.1.9.1l.8.1c.2 0 .5.1.8.1l.7.1h4.2c.2 0 .5 0 .7-.1l.8-.1c.2 0 .6-.1.8-.1l1-.2c1.9-.4 3.5-.7 6.2-1.7l1.6-.7c2-1 2.2-1.1 3.4-1.9l1.7-1.2c.7-.6 1.7-1.4 2.5-2l1.6-1.5c.6-.6 1.3-1.5 1.9-2.1l1.4-1.8c.4-.7 1-1.6 1.4-2.3l1.1-2.1c.3-.7.7-1.7 1-2.5l.7-2.3c.2-.8.4-1.8.6-2.6l.3-2.4c.1-.9.1-2.1.2-3.1l-.1-2.5c-.1-.8-.2-1.9-.3-2.7l-.5-2.4c-.2-.8-.5-1.8-.8-2.5L60 19.7c-.3-.7-.8-1.7-1.2-2.4l-1.2-2c-.5-.7-1.1-1.5-1.5-2.2l-1.5-1.7c-.6-.6-1.3-1.4-2-2L51.1 8C49 6.4 48.7 6.2 47 5.2c7.5 4.3 12.5 12.7 12.4 23"/><path class="st4" d="M2.7 40.6c-5.9-21.2 13.6-35.9 33.1-25 14.4 8 20.9 29.4 8 41.2 9.2-6 15.6-16.9 15.7-28.6 0-10.3-4.9-18.7-12.4-22.9-.5-.3-1.1-.6-1.6-.9-.7-.3-1.6-.8-2.4-1l-1.3-.5c-.5-.1-1.1-.3-1.5-.5l-1-.3c-.3 0-.8-.1-1.1-.2l-.9-.2c-.3 0-.6-.1-.9-.1l-.8-.1c-.2 0-.5-.1-.8-.1l-.7-.1h-4.2c-.2 0-.5 0-.7.1l-.8.1c-.2 0-.6.1-.8.1l-1 .2c-2.9.5-4.3 1-6.5 1.9l-1.6.7c-2 1.1-2.2 1.1-3.3 1.9l-1.7 1.2c-.7.6-1.7 1.4-2.4 2l-1.6 1.6c-.6.6-1.3 1.5-1.8 2.1l-1.4 1.9c-.4.7-1 1.6-1.4 2.3l-1.1 2.1c-.3.7-.7 1.7-1 2.5l-.7 2.3c-.2.8-.4 1.8-.6 2.6l-.3 2.4c0 .8-.1 1.9-.1 2.7l.1 2.5c.2 1.3.4 3.1.7 4.4l.9 2.1.7 1.9-.7-2.2c-.1 0-.1-.1-.1-.1"/><path class="st4" d="M59.4 28.2c0 11.7-6.4 22.6-15.7 28.6-.4.3-.9.7-1.2 1.1-3.5 2.6-13.2 7.9-26.7 0 .8.5 1.8 1 2.6 1.5.7.3 1.6.8 2.4 1l1.3.5c.5.1 1.1.3 1.5.5l1 .3c.3.1.8.2 1.1.2l.9.2c.3 0 .6.1.9.1l.8.1c.2 0 .5.1.8.1l.7.1H34c.2 0 .5 0 .7-.1l.8-.1c.2 0 .6-.1.8-.1l1-.2c1.9-.4 3.5-.7 6.2-1.7l1.6-.7c2-1 2.2-1.1 3.4-1.9l1.7-1.2c.7-.6 1.7-1.4 2.5-2l1.6-1.5c.6-.6 1.3-1.5 1.9-2.1l1.4-1.8c.4-.7 1-1.6 1.4-2.3l1.1-2.1c.3-.7.7-1.7 1-2.5l.7-2.3c.2-.8.4-1.8.6-2.6l.3-2.4c.1-.9.1-2.1.2-3.1l-.1-2.5c-.1-.8-.2-1.9-.3-2.7l-.5-2.4c-.2-.8-.5-1.8-.8-2.5l-1.2-2c-.3-.7-.8-1.7-1.2-2.4l-1.2-2c-.5-.7-1.1-1.5-1.5-2.2l-1.5-1.7c-.6-.6-1.3-1.4-2-2L51.1 8C49 6.4 48.7 6.2 47 5.2c7.5 4.3 12.5 12.7 12.4 23"/><path class="st5" d="M1.8 36.6c-2.9-24.3 22-33 38.9-19.2 8.7 7.1 16.4 23.2 6.5 36.9 7.4-6.3 12.3-15.9 12.3-26.1 0-10.3-4.9-18.7-12.4-22.9-.5-.3-1.1-.6-1.6-.9-.7-.3-1.6-.8-2.4-1l-1.3-.5c-.5-.1-1.1-.3-1.5-.5l-1-.3c-.3 0-.8-.1-1.1-.2l-.9-.2c-.3 0-.6-.1-.9-.1l-.8-.1c-.2 0-.5-.1-.8-.1l-.7-.1h-4.2c-.2 0-.5 0-.7.1l-.8.1c-.2 0-.6.1-.8.1l-1 .2c-2.9.5-4.3 1-6.5 1.9l-1.6.7c-2 1.1-2.2 1.1-3.3 1.9l-1.7 1.2c-.7.6-1.7 1.4-2.4 2l-1.6 1.6c-.6.6-1.3 1.5-1.8 2.1l-1.4 1.9c-.4.7-1 1.6-1.4 2.3l-1.1 2.1c-.3.7-.7 1.7-1 2.5l-.7 2.3c-.2.8-.4 1.8-.6 2.6l-.3 2.4c0 .8-.1 1.9-.1 2.7l.1 2.5c.1.8.2 2 .3 2.8l.3-.7"/><path class="st5" d="M59.4 28.2c0 10.2-4.9 19.8-12.3 26.1-.1.2-.3.5-.5.6-8.9 10-20.4 7.4-25 5.7l1.3.4.7.2 1 .3c.3.1.8.2 1.1.2l.9.2c.3 0 .6.1.9.1l.8.1c.2 0 .5.1.8.1l.7.1H34c.2 0 .5 0 .7-.1l.8-.1c.2 0 .6-.1.8-.1l1-.2c1.9-.4 3.5-.7 6.2-1.7l1.6-.7c2-1 2.2-1.1 3.4-1.9l1.7-1.2c.7-.6 1.7-1.4 2.5-2l1.6-1.5c.6-.6 1.3-1.5 1.9-2.1l1.4-1.8c.4-.7 1-1.6 1.4-2.3l1.1-2.1c.3-.7.7-1.7 1-2.5l.7-2.3c.2-.8.4-1.8.6-2.6l.3-2.4c.1-.9.1-2.1.2-3.1l-.1-2.5c-.1-.8-.2-1.9-.3-2.7L62 24c-.2-.8-.5-1.8-.8-2.5L60 19.7c-.3-.7-.8-1.7-1.2-2.4l-1.2-2c-.5-.7-1.1-1.5-1.5-2.2l-1.5-1.7c-.6-.6-1.3-1.4-2-2L51.1 8C49 6.4 48.7 6.2 47 5.2c7.5 4.3 12.5 12.7 12.4 23"/><path class="st6" d="M1.4 31.8c1.2-26 29.4-27.5 43.1-12.6 8.8 9.6 11 22.6 5.5 32.4 5.8-6.2 9.4-14.6 9.4-23.4 0-10.3-4.9-18.7-12.4-22.9-.4-.3-1-.6-1.5-.9-.7-.3-1.6-.8-2.4-1l-1.3-.5c-.5-.1-1.1-.3-1.5-.5l-1-.3c-.3 0-.8-.1-1.1-.2l-.9-.2c-.3 0-.6-.1-.9-.1l-.8-.1c-.2 0-.5-.1-.8-.1l-.7-.1h-4.2c-.2 0-.5 0-.7.1l-.8.1c-.2 0-.6.1-.8.1l-1 .2c-2.9.5-4.3 1-6.5 1.9l-1.6.7c-2 1.1-2.2 1.1-3.3 1.9l-1.7 1.2c-.7.6-1.7 1.4-2.4 2l-1.6 1.6c-.6.6-1.3 1.5-1.8 2.1l-1.4 1.9c-.4.7-1 1.6-1.4 2.3l-1.1 2.1c-.3.7-.7 1.7-1 2.5l-.7 2.3c-.2.8-.4 1.8-.6 2.6l-.3 2.4c.3.6.2 1.7.2 2.5"/><path class="st6" d="M59.4 28.2c0 8.8-3.7 17.2-9.4 23.4-.3.5-.6 1.1-.9 1.5-7 9.4-16.2 10-22.7 8.9l.9.1h.2l.8.1c.2 0 .5.1.8.1l.7.1H34c.2 0 .5 0 .7-.1l.8-.1c.2 0 .6-.1.8-.1l1-.2c1.9-.4 3.5-.7 6.2-1.7l1.6-.7c2-1 2.2-1.1 3.4-1.9l1.7-1.2c.7-.6 1.7-1.4 2.5-2l1.6-1.5c.6-.6 1.3-1.5 1.9-2.1l1.4-1.8c.4-.7 1-1.6 1.4-2.3l1.1-2.1c.3-.7.7-1.7 1-2.5l.7-2.3c.2-.8.4-1.8.6-2.6l.3-2.4c.1-.9.1-2.1.2-3.1l-.1-2.5c-.1-.8-.2-1.9-.3-2.7l-.5-2.4c-.2-.8-.5-1.8-.8-2.5L60 19.7c-.3-.7-.8-1.7-1.2-2.4l-1.2-2c-.5-.7-1.1-1.5-1.5-2.2l-1.5-1.7c-.6-.6-1.3-1.4-2-2L51.1 8C49 6.4 48.7 6.2 47 5.2c7.5 4.3 12.5 12.7 12.4 23"/><path class="st7" d="M2.1 25.5c7.3-26 38.7-19.3 48.6-.3 5.6 10.8 3.6 19.2 1.9 23.3 4.3-5.8 6.9-12.9 6.9-20.3 0-10.3-4.9-18.7-12.4-22.9-.5-.3-1.1-.6-1.6-.9-.7-.3-1.6-.8-2.4-1l-1.3-.5c-.5-.1-1.1-.3-1.5-.5l-1-.3c-.3 0-.8-.1-1.1-.2l-.9-.2c-.3 0-.6-.1-.9-.1l-.8-.1c-.2 0-.5-.1-.8-.1l-.7-.1h-4.2c-.2 0-.5 0-.7.1l-.8.1c-.2 0-.6.1-.8.1l-1 .2c-2.9.5-4.3 1-6.5 1.9l-1.6.7c-2 1.1-2.2 1.1-3.3 1.9l-1.7 1.2c-.7.6-1.7 1.4-2.4 2l-1.6 1.6c-.6.6-1.3 1.5-1.8 2.1l-1.4 1.9c-.4.7-1 1.6-1.4 2.3l-1.1 2.1c-.3.7-.7 1.7-1 2.5l-.7 2.3c-.2.8-.4 1.8-.6 2.6 0 .2-.1.6-.1.8.4-.8.6-1.6.7-2.2"/><path class="st7" d="M59.4 28.2c0 7.4-2.6 14.6-6.9 20.3-.1.2-.1.4-.2.5-3.8 8.7-11.5 13.6-21.2 13.4H33.7c.2 0 .5 0 .7-.1l.8-.1c.2 0 .6-.1.8-.1l1-.2c1.9-.4 3.5-.7 6.2-1.7l1.6-.7c2-1 2.2-1.1 3.4-1.9l1.7-1.2c.7-.6 1.7-1.4 2.5-2l1.6-1.5c.6-.6 1.3-1.5 1.9-2.1l1.4-1.8c.4-.7 1-1.6 1.4-2.3l1.1-2.1c.3-.7.7-1.7 1-2.5l.7-2.3c.2-.8.4-1.8.6-2.6l.3-2.4c.1-.9.1-2.1.2-3.1l-.1-2.5c-.1-.8-.2-1.9-.3-2.7l-.5-2.4c-.2-.8-.5-1.8-.8-2.5l-.9-1.9c-.3-.7-.8-1.7-1.2-2.4l-1.2-2c-.5-.7-1.1-1.5-1.5-2.2l-1.5-1.7c-.6-.6-1.3-1.4-2-2L51.1 8C49 6.4 48.7 6.2 47 5.2c7.5 4.3 12.5 12.7 12.4 23"/><path class="st8" d="M2.9 22.4c9-23.7 39.5-18.3 49.8 3.2 2.1 4.4 4.2 11.3 2.1 19.3 2.9-5 4.6-10.8 4.6-16.8 0-10.3-4.9-18.7-12.4-22.9-.4-.2-1-.5-1.5-.8-.7-.3-1.6-.8-2.4-1l-1.3-.5c-.5-.1-1.1-.3-1.5-.5l-1-.3c-.3 0-.8-.1-1.1-.2l-.9-.2c-.3 0-.6-.1-.9-.1l-.8-.1c-.2 0-.5-.1-.8-.1l-.7-.1h-4.2c-.2 0-.5 0-.7.1l-.8.1c-.2 0-.6.1-.8.1l-1 .2c-2.9.5-4.3 1-6.5 1.9l-1.6.7c-2 1.1-2.2 1.1-3.3 1.9l-1.7 1.2c-.7.6-1.7 1.4-2.4 2l-1.6 1.6c-.6.6-1.3 1.5-1.8 2.1l-1.4 1.9c-.4.7-1 1.6-1.4 2.3l-1.1 2.1c-.3.7-.7 1.7-1 2.5-.1.3-.2.7-.3 1 .3-.4.4-.5.4-.6"/><path class="st8" d="M59.4 28.2c0 6-1.7 11.7-4.6 16.8-.1.6-.3 1.3-.4 1.9-4 11-12.1 14.4-18.2 15.3l1-.2c1.5-.3 3.2-.6 6-1.7l1.6-.7c2-1 2.2-1.1 3.4-1.9l1.7-1.2c.7-.6 1.7-1.4 2.5-2L54 53c.6-.6 1.3-1.5 1.9-2.1l1.4-1.8c.4-.7 1-1.6 1.4-2.3l1.1-2.1c.3-.7.7-1.7 1-2.5l.7-2.3c.2-.8.4-1.8.6-2.6l.3-2.4c.1-.9.1-2.1.2-3.1l-.1-2.5c-.1-.8-.2-1.9-.3-2.7l-.5-2.4c-.2-.8-.5-1.8-.8-2.5l-.9-2c-.3-.7-.8-1.7-1.2-2.4l-1.2-2c-.5-.7-1.1-1.5-1.5-2.2l-1.5-1.7c-.6-.6-1.3-1.4-2-2L51.1 8C49 6.4 48.7 6.2 47 5.2c7.5 4.3 12.5 12.7 12.4 23"/><path class="st9" d="M6.3 15.3C20.8-5.4 52.6 8.9 56.8 32c.6 3.2.8 4.3.3 8.4 1.5-3.8 2.4-8 2.4-12.2 0-10.3-4.9-18.7-12.4-22.9-.5-.3-1.1-.6-1.6-.9-.7-.3-1.6-.8-2.4-1l-1.3-.5c-.5-.1-1.1-.3-1.5-.5l-1-.3c-.3 0-.8-.1-1.1-.2l-.9-.2c-.3 0-.6-.1-.9-.1l-.8-.1c-.2 0-.5-.1-.8-.1l-.7-.1h-4.2c-.2 0-.5 0-.7.1l-.8.1c-.2 0-.6.1-.8.1l-1 .2c-2.9.5-4.3 1-6.5 1.9l-1.6.7c-2 1.1-2.2 1.1-3.3 1.9l-1.7 1.2c-.7.6-1.7 1.4-2.4 2l-1.6 1.6c-.6.6-1.3 1.5-1.8 2.1l-1.4 1.9c-.4.7-1 1.6-1.4 2.3L6 15.8c.1-.1.2-.3.3-.5"/><path class="st9" d="M59.4 28.2c0 4.2-.9 8.4-2.4 12.2v1.8C54.8 55 46 59.5 41 61.1l1.1-.4 1.1-.4 1.6-.7c2-1 2.2-1.1 3.4-1.9l1.7-1.2c.7-.6 1.7-1.4 2.5-2L54 53c.6-.6 1.3-1.5 1.9-2.1l1.4-1.8c.4-.7 1-1.6 1.4-2.3l1.1-2.1c.3-.7.7-1.7 1-2.5l.7-2.3c.2-.8.4-1.8.6-2.6l.3-2.4c.1-.9.1-2.1.2-3.1l-.1-2.5c-.1-.8-.2-1.9-.3-2.7l-.5-2.4c-.2-.8-.5-1.8-.8-2.5l-.9-2c-.3-.7-.8-1.7-1.2-2.4l-1.2-2c-.5-.7-1.1-1.5-1.5-2.2l-1.5-1.7c-.6-.6-1.3-1.4-2-2L51.1 8C49 6.4 48.7 6.2 47 5.2c7.5 4.3 12.5 12.7 12.4 23"/><path class="st10" d="M23.6 60.5c19.2 3.8 30.8-16.7 19.1-33.8C30.6 9.3 5.5 12.1 2.5 31.4.6 44.1 10.6 58 23.6 60.5"/><path class="st11" d="M20.8 59.5c20 6.2 31.4-13.7 22.4-29.8-11-19.5-35.4-17.1-39.7-.5C-.2 43 9.5 56 20.8 59.5"/><path class="st12" d="M17 57.6c17.2 8.9 32-6.2 27.4-22-6.1-21-31.2-24.2-39.1-9.4C-.4 36.8 5.1 51.4 17 57.6"/><path class="st13" d="M15.7 56.6c16.1 9.1 32.2-3.4 27.5-21.2-4.9-18.4-30.5-23.6-38-7.7C.1 38.5 6.5 51.4 15.7 56.6"/><path class="st14" d="M13.9 55c14.7 10 31.1.4 28.9-16.8-2.3-17.6-25.5-25.8-35.5-12.6C.2 35 4.9 48.9 13.9 55"/><path class="st15" d="M13.7 54.4c15.1 10.8 30.7-1 28.1-16.3-3-18.3-26.7-23.2-34.5-11.1-6.2 9.6-1.5 21.7 6.4 27.4"/><path class="st16" d="M13.9 54.1c15.6 11 29.5-2.7 26.9-16.1C37.4 19.9 15 16 7.3 28.5c-4.9 7.9-2 19.2 6.6 25.6"/><path class="st17" d="M12.1 51.9c13.6 12.3 28.3 1.7 28.1-11.3-.4-17.9-21.5-22.9-30.2-14-7.3 7.4-4.8 19.1 2.1 25.3"/><path class="st18" d="M12.5 51.6c12.8 11.6 28.5.9 26.7-13.8-1.7-14.3-22-20.2-30.1-8.8-5.4 7.7-2.3 17.4 3.4 22.6"/><path class="st19" d="M13.1 51.2c13 11.4 27.3-1 25.6-13.5-1.8-13.4-20.5-18.9-28.5-8.4-6.2 8.1-2 17.7 2.9 21.9"/><path class="st20" d="M11.7 48.9c10.6 12.4 25.6 3.4 26.3-8.4.9-13.6-16.7-20.2-25.2-12.4-8.3 7.7-4.4 16.9-1.1 20.8"/><path class="st21" d="M12.4 48.5c9.9 11.2 24.2 2.8 25-8.1.9-11.6-13.9-20.6-24.1-11.4-7 6.2-4.7 15.1-.9 19.5"/><path class="st22" d="M13.3 48.1c9.1 10.2 22.6 2.2 23.5-7.7.9-10.4-12.7-20.3-23.5-10.3-4.2 3.9-5.2 12.3 0 18"/><path class="st23" d="M14.3 47.8c8.2 8.4 20.8 2.6 21.9-7.4C37.3 28.9 23.9 22.2 15 29.7c-6 5.1-5.2 13.4-.7 18.1"/><path class="st24" d="M13.6 45.2c4.4 6.6 11.5 5.5 11.5 5.5 2.4-.5 9.6-2.1 10.6-10.3.6-5-1.6-9-6.9-12.1-.1 0-5.9-2.9-12 .9-5.2 3.1-6.7 10.8-3.2 16"/><path class="st25" d="M14.6 44.9c5.9 8.5 19.2 5.6 20.6-4.6.7-4.6-1.7-8.8-6.5-11.6-.9-.5-5.8-2.9-11.9 1.1-3 2-6.8 8.5-2.2 15.1"/><path class="st26" d="M15.4 44.6c5.9 7.5 17.8 4.8 19.3-4.3.3-2.1.4-7.2-6-11-.1-.1-4-1.3-4.1-1.3-4.4.3-4.4.3-7.2 2.1-4.5 3-5.5 10-2 14.5"/><path class="st27" d="M16.3 44.4c6.1 7.3 16.6 3.6 18-4.1 1.5-8.1-8.4-14.7-15.5-10.4-7.4 4.5-4.4 12.2-2.5 14.5"/><path class="st28" d="M16.4 43.1c1.6 2.5 4.8 5.3 10.5 4.4 2.8-.4 6.2-3.5 7-7.3.7-3.6-.8-6.8-4.6-9.8-2.1-1.6-6.9-2-9.1-.7-8.2 4.8-5.4 11-3.8 13.4"/><path class="st29" d="M17.8 44.1c2.7 2.7 7.5 3.5 9 2.9 3.6-1.5 3.7-1.5 5.6-4.2.8-1.1 1.5-3.2 1.2-5.3-.4-3.1-2.6-5.2-3-5.6-1.6-1.5-1.6-1.5-5.8-2.6-2.7-.7-7.3 2.5-8 3.7-3.9 6 .8 10.9 1 11.1"/><path class="st30" d="M16.7 41.6c1.1 2.1 3.8 5.4 10 4.9 1.8-.1 5.6-3 6.3-6.3 1-5-2.8-8.2-3-8.3-2-1.6-4.9-2.1-5.2-2.2-1.2-.2-2.9.2-4 .6-1.2.5-2.5 1.6-3.3 2.6-.3.3-1.6 3.1-1.6 3.1 0 .2-.5 3.1.8 5.6"/><path class="st31" d="M17.2 41.5c.7 1.2 3.3 5 9.4 4.5l2.9-1.3c1.5-1.5 2.5-2.4 3-4.5.9-3.5-1-6.6-3.1-8.3-1.4-1.1-4.6-1.8-4.7-1.8-1.2-.2-2.8.2-3.9.7-.5.2-3.2 1.6-4.4 5.2-.1.5-.4 3.3.8 5.5"/><path class="st32" d="M17.7 41.4s1.9 2.2 2.1 2.3c1 .7 2.5 1.2 3.5 1.7.8.4 2.2.1 3.1 0 1-.1 2.3-.6 3-1.3 1.8-1.7 2.4-3.2 2.6-4 .4-1.4.9-5-3.2-8.3-1-.8-2.8-1.3-4.1-1.5-1.2-.1-2.8.3-3.9.8-2.5 1.3-5.7 5.8-3.1 10.3"/><path class="st33" d="M18.3 41.3c1 1.6 3.3 4.2 8.1 3.8 1-.1 2.3-.7 3-1.4 1.4-1.3 2.2-3.5 2.2-3.5.8-2.7-.3-5.8-2.8-7.8-.4-.3-3.5-1.5-4.1-1.6-1.2-.1-2.8.3-3.9.8 0 .2-5.9 4.1-2.5 9.7"/><path class="st34" d="M18.8 41.2c1.1 1.8 3.5 2.9 4.3 3.2.9.4 2.3.3 3.3.2 1-.1 2.3-.8 3-1.5.6-.5 1.8-3 1.9-3 .9-2.8-.5-5.8-2.4-7.3-1-.8-2.7-1.6-4-1.7-1.2-.1-2.8.4-3.9.9-.2.3-5.3 4.1-2.2 9.2"/><path class="st35" d="M19.3 41.1s1.6 1.9 3.7 2.8c.9.4 2.3.4 3.3.3 0 0 2.8-1.3 3.1-1.6.6-.6 1.2-1.6 1.5-2.4 1.2-3.5-1.2-6.2-1.9-6.7-.6-.4-3.5-1.8-4-1.8-.2 0-3.7.9-3.9 1-.9.7-2.2 1.9-2.4 3-.4 1.5-.8 3.5.6 5.4"/><path class="st36" d="M19.8 41.1s2.7 2.3 3 2.4c.9.4 2.3.4 3.3.4.3 0 2.5-1.3 3.1-1.8.5-.4.9-1.2 1.1-1.8 1.3-3.8-1.4-6.2-1.5-6.2 0 0-3.8-1.9-4-1.9-.2 0-3.6 1-3.8 1.1-1.9 1.3-3.3 5-1.2 7.8"/><path class="st37" d="M20.4 41c.6.7 1.5 1.6 2.4 1.9 1 .4 2.4.6 3.4.5.4 0 3.1-2 3.1-2 .3-.3.6-.8.7-1.1 1-2.8-.6-5.4-1-5.7-1.1-.8-2.7-1.9-4-2-1.2-.1-2.8.5-3.8 1.2-1.8 1.1-2.8 4.6-.8 7.2"/><path class="st38" d="M20.9 40.9c.4.5 1.1 1.1 1.7 1.4 1 .4 2.4.9 3.5.7 1.1-.2 2.3-1.5 3.2-2.2.1-.1.3-.3.3-.5.2-.8.5-1.9.4-2.7 0 0-.7-2.3-1.3-2.7-.9-.8-2.4-1.8-3.7-1.9-1.2-.1-2.7.9-3.8 1.3-1.4.5-1.5 4-1.5 4.1.1.8.7 1.8 1.2 2.5"/><path class="st39" d="M21.4 40.9c.3.3.7.7 1 .9 1 .4 2.5 1 3.5.8 1.1-.2 2.2-1.5 3-2.2.1-.1.1-.3.2-.4.4-1.6.8-3.2-1.3-5-.7-.6-1.9-1.4-2.9-1.4-1.2-.1-2.6.9-3.7 1.4-.2.1-.4.4-.5.6-.9 1.7-.6 3.5.7 5.3"/><path class="st40" d="M21.9 40.8c.1.1.2.3.4.3 1.1.3 2.5 1.1 3.6.9.8-.2 1.8-1 2.3-1.7.5-.6.7-1.7.9-2.5v-.4c-.5-.8-1.2-1.9-2-2.6-.5-.4-1.4-1-2-1-1.2-.1-2.9.5-3.7 1.4-.6.7-.7 2-.6 2.9 0 1 .6 2 1.1 2.7"/><path class="st41" d="M22.1 40.1c.2.2.5.5.7.6.9.3 2.1 1 3 .8.6-.1 1.2-.6 1.5-1.1.5-.7 1.2-1.9 1-2.8-.1-1-1.4-2-2.1-2.7-.3-.3-.8-.6-1.3-.6-.9 0-5.8 2-2.8 5.8"/><path class="st42" d="M21.8 38.5c.6.8 1.6 1.6 2.4 2.1.4.3 1.1.5 1.5.4.3-.1.6-.3.8-.6.4-.8 1.2-1.9 1.1-2.8-.1-1-1.5-1.9-2.1-2.7-.1-.1-.3-.2-.4-.2-.5 0-.8.1-3.4 3-.2.2 0 .6.1.8"/><path class="st43" d="M25.6 40.5c.1 0 .1 0 0 0 .2 0 1.3-2.8 1.3-2.8-.1-.8-.9-2.1-1.8-2.2-1-.1-2.5 1.4-2.4 2.5.1 1.1 1.9 1.9 2.9 2.5"/><path class="st44" d="M25.5 39.2c.5-.1.7-1 .6-1.5-.1-.4-.5-1.1-.9-1.1-.5 0-1.3.7-1.3 1.3.1.6 1 1.4 1.6 1.3"/><path class="st45" d="M25.4 37.9l.1-.1s0-.1-.1-.1l-.1.1s0 .1.1.1"/></g></g><g class="st0"><defs><path id="SVGID_3_" class="st0" d="M2 31.8c0-1.1 0-4 1-7.6 1-3.7 2.4-6.3 2.9-7 .7-1.2 1.7-2.7 2.5-3.8.5-.7 1.2-1.5 1.8-2.1 2.1-2.1 2.1-2.1 3.9-3.5 1.1-.9 2.3-1.5 3.4-2.2.9-.5 2.1-1.1 3.1-1.5 1.4-.5 2.2-.9 4.3-1.4 1.6-.4 4.1-.9 7.3-.9 3.8 0 6.6.8 7.9 1.1.4.1 1.7.5 3.5 1.2.9.4 2.2 1 3.1 1.5C54 9.8 58.9 18 58.8 28.1c0 15.9-12.1 30.4-27 32.4 14.8-2 26.9-16.5 27-32.4C58.8 18 54 9.8 46.7 5.6c.7.4 1.7 1 2.3 1.5.5.4 1.2.8 1.7 1.2.6.5 1.4 1.2 2 1.7.5.5 1.1 1.1 1.5 1.6.5.6 1.2 1.4 1.6 2 1.5 1.9 2.4 3.6 2.6 4 .5 1 1.2 2.3 1.9 4.5.5 1.3.9 3.2 1.2 4.6.4 2 .6 5.5.3 8-.2 1.7-.3 2.8-.9 4.9-.5 1.7-.5 1.7-1.7 4.6-.5 1.3-1.1 2.2-2.5 4.3-.5.7-1.2 1.6-1.7 2.3-2.6 3.1-4.9 4.8-7.1 6.2-1 .7-3.9 2.4-7.8 3.5-4.4 1.2-8.9 1.5-13.3.7-3.3-.6-5.7-1.6-6.5-1.9-2.7-1.2-5.1-2.7-5.7-3.2-.6-.5-1.5-1.1-2.1-1.6-2-1.9-2.2-2-3.4-3.4-1.5-1.7-2.8-3.7-3.9-5.9-.3-.7-.8-1.6-1.1-2.3-.5-1.3-1.1-3.1-1.4-4.5-.6-2.8-.7-5.2-.7-6.6z"/></defs><clipPath id="SVGID_4_"><use xlink:href="#SVGID_3_" overflow="visible"/></clipPath><g class="st46"><path class="st47" d="M2 31.8c.3 18.9 14.7 26.2 19.1 28 9.2 3.7 22.8 2.9 32.5-7.1 13.6-14.1 10.3-36.9-6.8-46.9C54.1 10 59 18.2 58.9 28.3c0 15.9-12.1 30.4-27 32.4 14.8-2 26.9-16.5 27-32.4 0-10.1-4.8-18.3-12.1-22.5-14.3-7.6-26-2-29.2-.2C2.5 14.4 2 29 2 31.8"/><path class="st47" d="M58.9 28.2c0 15.9-12.1 30.4-27 32.4h-.1c-26 1.4-36-26.8-24.4-40C20 6.2 46.6 18.2 48.1 38.9 49.2 54.8 37.6 58.7 32 60.6c14.8-1.9 26.9-16.5 26.9-32.4 0-10.1-4.8-18.3-12.1-22.5-.5-.2-1.1-.6-1.5-.8-.7-.3-1.6-.7-2.3-1l-1.3-.5c-.4-.1-1-.3-1.5-.5l-1-.3c-.3-.1-.8-.2-1.1-.2l-.9-.2c-.3 0-.6-.1-.9-.1l-.7-.1c-.2 0-.5-.1-.7-.1l-.7.1H29.6l-.7.1c-.2 0-.6.1-.8.1l-1 .1c-2.9.5-4.2 1-6.4 1.8l-1.6.7c-2 1-2.1 1.1-3.3 1.8l-1.7 1.2c-.7.6-1.7 1.3-2.4 2l-1.6 1.5c-.5.6-1.3 1.4-1.8 2.1L7 15.2c-.4.7-1 1.6-1.4 2.3l-1 2.1c-.3.7-.7 1.7-1 2.4L3 24.2c-.2.8-.4 1.8-.6 2.6l-.3 2.4c0 .8-.1 1.8-.1 2.6l.1 2.4c.2 1.3.4 3 .7 4.3l.6 2.3c.3.7.6 1.7.9 2.4l1 2.1c.4.7.9 1.6 1.3 2.2l1.3 1.9c.5.6 1.1 1.5 1.6 2.1l1.5 1.6c.6.6 1.4 1.3 2.1 1.9l1.6 1.2c.8.5 1.8 1.2 2.7 1.7l1.5.8c.7.3 1.6.7 2.3 1l1.3.5c.4.1 1 .3 1.5.5l1 .3c.3.1.8.2 1.1.2l.9.2c.3 0 .6.1.9.1l.7.1c.2 0 .5.1.7.1l.7.1H34.6l.7-.1c.2 0 .6-.1.8-.1l1-.1c1.9-.4 3.4-.7 6.1-1.7l1.5-.7c1.9-1 2.1-1.1 3.4-1.8l1.7-1.1c.7-.6 1.7-1.3 2.4-1.9l1.6-1.5c.6-.6 1.3-1.4 1.8-2.1l1.3-1.8c.4-.7 1-1.6 1.4-2.2l1.1-2c.3-.7.7-1.7 1-2.4l.7-2.2c.2-.8.4-1.8.6-2.5l.3-2.4c.1-.9.1-2.1.2-3l-.1-2.4c-.1-.8-.2-1.8-.3-2.6l-.5-2.3c-.2-.7-.5-1.7-.7-2.5l-.8-2.2c-.3-.7-.8-1.6-1.1-2.3l-1.2-2c-.5-.6-1-1.5-1.5-2.1l-1.4-1.7c-.6-.6-1.3-1.4-1.9-1.9l-1.6-1.4c-2.1-1.6-2.3-1.7-4-2.7 7 3.9 11.8 12.1 11.8 22.1"/><path class="st48" d="M58.9 28.2c0 13.2-8.4 25.5-19.7 30.4-.4.2-.9.5-1.3.7C18 67.7-4.1 45.1 4.1 24.8 11.3 7.1 38.5 10.7 47 30.3c4.8 11.2 1.5 23.1-7.8 28.3 11.3-4.9 19.7-17.2 19.7-30.4 0-10.1-4.8-18.3-12.1-22.5-.5-.2-1.1-.6-1.5-.8-.7-.3-1.6-.7-2.3-1l-1.3-.5c-.4-.1-1-.3-1.5-.5l-1-.3c-.3-.1-.8-.2-1.1-.2l-.9-.2c-.3 0-.6-.1-.9-.1l-.7-.1c-.2 0-.5-.1-.7-.1l-.7.1H29.6l-.7.1c-.2 0-.6.1-.8.1l-1 .1c-2.9.5-4.2 1-6.4 1.8l-1.6.7c-2 1-2.1 1.1-3.3 1.8l-1.7 1.2c-.7.6-1.7 1.3-2.4 2l-1.6 1.5c-.5.6-1.3 1.4-1.8 2.1L7 15.2c-.4.7-1 1.6-1.4 2.3l-1 2.1c-.3.7-.7 1.7-1 2.4L3 24.2c-.2.8-.4 1.8-.6 2.6l-.3 2.4c0 .8-.1 1.8-.1 2.6l.1 2.4c.2 1.3.4 3 .7 4.3l.6 2.3c.3.7.6 1.7.9 2.4l1 2.1c.4.7.9 1.6 1.3 2.2l1.3 1.9c.5.6 1.1 1.5 1.6 2.1l1.5 1.6c.6.6 1.4 1.3 2.1 1.9l1.6 1.2c.8.5 1.8 1.2 2.7 1.7l1.5.8c.7.3 1.6.7 2.3 1l1.3.5c.4.1 1 .3 1.5.5l1 .3c.3.1.8.2 1.1.2l.9.2c.3 0 .6.1.9.1l.7.1c.2 0 .5.1.7.1l.7.1H34.6l.7-.1c.2 0 .6-.1.8-.1l1-.1c1.9-.4 3.4-.7 6.1-1.7l1.5-.7c1.9-1 2.1-1.1 3.4-1.8l1.7-1.1c.7-.6 1.7-1.3 2.4-1.9l1.6-1.5c.6-.6 1.3-1.4 1.8-2.1l1.3-1.8c.4-.7 1-1.6 1.4-2.2l1.1-2c.3-.7.7-1.7 1-2.4l.7-2.2c.2-.8.4-1.8.6-2.5l.3-2.4c.1-.9.1-2.1.2-3l-.1-2.4c-.1-.8-.2-1.8-.3-2.6l-.5-2.3c-.2-.7-.5-1.7-.7-2.5l-.8-2.2c-.3-.7-.8-1.6-1.1-2.3l-1.2-2c-.5-.6-1-1.5-1.5-2.1l-1.4-1.7c-.6-.6-1.3-1.4-1.9-1.9l-1.6-1.4c-2.1-1.6-2.3-1.7-4-2.7 7 3.9 11.8 12.1 11.8 22.1"/><path class="st49" d="M3.3 40.4C-2.6 19.6 16.5 5.2 35.7 15.9c14.1 7.9 20.4 28.9 7.8 40.4 9.1-5.9 15.3-16.6 15.3-28C58.8 18.2 54 10 46.7 5.8c-.5-.2-1.1-.6-1.5-.8-.7-.3-1.6-.7-2.3-1l-1.3-.5c-.4-.1-1-.3-1.5-.5l-1-.3c-.3-.1-.8-.2-1.1-.2l-.9-.2c-.3 0-.6-.1-.9-.1l-.7-.1c-.2 0-.5-.1-.7-.1h-5.2l-.7.1c-.2 0-.6.1-.8.1l-1 .1c-2.9.5-4.2 1-6.4 1.8l-1.6.7c-2 1-2.1 1.1-3.3 1.8l-1.7 1.2c-.7.6-1.7 1.3-2.4 2l-1.6 1.5c-.5.6-1.3 1.4-1.8 2.1L7 15.2c-.4.7-1 1.6-1.4 2.3l-1 2.1c-.3.7-.7 1.7-1 2.4L3 24.2c-.2.8-.4 1.8-.6 2.6l-.3 2.4c0 .8-.1 1.8-.1 2.6l.1 2.4c.2 1.3.4 3 .7 4.3l.6 2.3.6 1.9-.7-2.1v-.2"/><path class="st49" d="M58.9 28.2c0 11.4-6.3 22.2-15.3 28-.4.3-.8.7-1.2 1-3.5 2.6-12.9 7.7-26.2 0 .8.5 1.8 1 2.6 1.4.7.3 1.6.7 2.3 1l1.3.5c.4.1 1 .3 1.5.5l1 .3c.3.1.8.2 1.1.2l.9.2c.3 0 .6.1.9.1l.7.1c.2 0 .5.1.7.1l.7.1H34.5l.7-.1c.2 0 .6-.1.8-.1l1-.1c1.9-.4 3.4-.7 6.1-1.7l1.5-.7c1.9-1 2.1-1.1 3.4-1.8l1.7-1.1c.7-.6 1.7-1.3 2.4-1.9l1.6-1.5c.6-.6 1.3-1.4 1.8-2.1l1.3-1.8c.4-.7 1-1.6 1.4-2.2l1.1-2c.3-.7.7-1.7 1-2.4L61 40c.2-.8.4-1.8.6-2.5l.3-2.4c.1-.9.1-2.1.2-3l-.1-2.4c-.1-.8-.2-1.8-.3-2.6l-.5-2.3c-.2-.7-.5-1.7-.7-2.5l-.8-2.2c-.3-.7-.8-1.6-1.1-2.3l-1.2-2c-.5-.6-1-1.5-1.5-2.1L54.5 12c-.6-.6-1.3-1.4-1.9-1.9L51 8.7C48.9 7.1 48.7 7 47 6c7.1 4 11.9 12.2 11.9 22.2"/><path class="st50" d="M2.4 36.5C-.5 12.7 23.9 4.2 40.5 17.7c8.5 6.9 16.1 22.7 6.3 36.2 7.2-6.1 12-15.6 12-25.6C58.8 18.2 54 10 46.7 5.8c-.5-.2-1.1-.6-1.5-.8-.7-.3-1.6-.7-2.3-1l-1.3-.5c-.4-.1-1-.3-1.5-.5l-1-.3c-.3-.1-.8-.2-1.1-.2l-.9-.2c-.3 0-.6-.1-.9-.1l-.7-.1c-.2 0-.5-.1-.7-.1h-5.2l-.7.1c-.2 0-.6.1-.8.1l-1 .1c-2.9.5-4.2 1-6.4 1.8l-1.6.7c-2 1-2.1 1.1-3.3 1.8l-1.7 1.2c-.7.6-1.7 1.3-2.4 2l-1.6 1.5c-.5.6-1.3 1.4-1.8 2.1L7 15.2c-.4.7-1 1.6-1.4 2.3l-1 2.1c-.3.7-.7 1.7-1 2.4L3 24.2c-.2.8-.4 1.8-.6 2.6l-.3 2.4c0 .8-.1 1.8-.1 2.6l.1 2.4c.1.8.2 1.9.3 2.7v-.4"/><path class="st50" d="M58.9 28.2c0 10-4.8 19.4-12 25.6-.1.2-.3.4-.5.6-8.7 9.8-20.1 7.2-24.5 5.6l1.2.4.7.2 1 .3c.3.1.8.2 1.1.2l.9.2c.3 0 .6.1.9.1l.7.1c.2 0 .5.1.7.1l.7.1H34.4l.7-.1c.2 0 .6-.1.8-.1l1-.1c1.9-.4 3.4-.7 6.1-1.7l1.5-.7c1.9-1 2.1-1.1 3.4-1.8l1.7-1.1c.7-.6 1.7-1.3 2.4-1.9l1.6-1.5c.6-.6 1.3-1.4 1.8-2.1l1.3-1.8c.4-.7 1-1.6 1.4-2.2l1.1-2c.3-.7.7-1.7 1-2.4l.7-2.2c.2-.8.4-1.8.6-2.5l.3-2.4c.1-.9.1-2.1.2-3l-.1-2.4c-.1-.8-.2-1.8-.3-2.6l-.5-2.3c-.2-.7-.5-1.7-.7-2.5l-.8-2.2c-.3-.7-.8-1.6-1.1-2.3l-1.2-2c-.5-.6-1-1.5-1.5-2.1L54.4 12c-.6-.6-1.3-1.4-1.9-1.9l-1.6-1.4c-2.1-1.6-2.3-1.7-4-2.7 7.2 4 12 12.2 12 22.2"/><path class="st51" d="M2 31.8C3.2 6.4 30.9 4.9 44.3 19.4c8.7 9.4 10.8 22.1 5.4 31.7 5.6-6 9.2-14.3 9.2-22.9 0-10.1-4.8-18.3-12.1-22.5-.5-.2-1.1-.6-1.5-.8-.7-.3-1.6-.7-2.3-1l-1.3-.5c-.4-.1-1-.3-1.5-.5l-1-.3c-.3-.1-.8-.2-1.1-.2l-.9-.2c-.3 0-.6-.1-.9-.1l-.7-.1c-.2 0-.5-.1-.7-.1l-.7.1H29.6l-.7.1c-.2 0-.6.1-.8.1l-1 .1c-2.9.5-4.2 1-6.4 1.8l-1.6.7c-2 1-2.1 1.1-3.3 1.8l-1.7 1.2c-.7.6-1.7 1.3-2.4 2l-1.6 1.5c-.5.6-1.3 1.4-1.8 2.1L7 15.2c-.4.7-1 1.6-1.4 2.3l-1 2.1c-.3.7-.7 1.7-1 2.4L3 24.2c-.2.8-.4 1.8-.6 2.6l-.3 2.4c0 .8-.1 1.8-.1 2.6"/><path class="st51" d="M58.9 28.2c0 8.6-3.6 16.9-9.2 22.9-4.7 8.1-13.3 12-23.1 10.2l.8.1h.2l.7.1c.2 0 .5.1.7.1l.7.1H34.3l.7-.1c.2 0 .6-.1.8-.1l1-.1c1.9-.4 3.4-.7 6.1-1.7l1.5-.7c1.9-1 2.1-1.1 3.4-1.8l1.7-1.1c.7-.6 1.7-1.3 2.4-1.9l1.6-1.5c.6-.6 1.3-1.4 1.8-2.1l1.3-1.8c.4-.7 1-1.6 1.4-2.2l1.1-2c.3-.7.7-1.7 1-2.4l.7-2.2c.2-.8.4-1.8.6-2.5l.3-2.4c.1-.9.1-2.1.2-3l-.1-2.4c-.1-.8-.2-1.8-.3-2.6l-.5-2.3c-.2-.7-.5-1.7-.7-2.5l-.8-2.2c-.3-.7-.8-1.6-1.1-2.3l-1.2-2c-.5-.6-1-1.5-1.5-2.1L54.3 12c-.6-.6-1.3-1.4-1.9-1.9l-1.6-1.4c-2.1-1.6-2.3-1.7-4-2.7 7.3 4 12.1 12.2 12.1 22.2"/><path class="st52" d="M2.7 25.6c7.2-25.5 38-18.9 47.7-.3 5.5 10.6 3.5 18.9 1.8 22.9 4.2-5.6 6.7-12.6 6.8-19.9C59 18.2 54.2 10 46.9 5.8c-.5-.2-1.1-.6-1.5-.8-.7-.3-1.6-.7-2.3-1l-1.3-.5c-.4-.1-1-.3-1.5-.5l-1-.3c-.3-.1-.8-.2-1.1-.2l-.9-.2c-.3 0-.6-.1-.9-.1l-.7-.1c-.2 0-.5-.1-.7-.1h-5.4l-.7.1c-.2 0-.6.1-.8.1l-1 .1c-2.9.5-4.2 1-6.4 1.8l-1.6.7c-2 1-2.1 1.1-3.3 1.8l-1.7 1.2c-.7.6-1.7 1.3-2.4 2l-1.6 1.5c-.5.6-1.3 1.4-1.8 2.1L7 15.2c-.4.7-1 1.6-1.4 2.3l-1 2.1c-.3.7-.7 1.7-1 2.4L3 24.2c-.2.8-.4 1.8-.6 2.6 0 .2-.1.5-.1.8.1-.6.3-1.4.4-2"/><path class="st52" d="M58.9 28.2c0 7.3-2.6 14.3-6.8 19.9-.1.2-.1.4-.2.5-3.6 8.6-11.2 13.4-20.7 13.2h3.3l.7-.1c.2 0 .6-.1.8-.1l1-.1c1.9-.4 3.4-.7 6.1-1.7l1.5-.7c1.9-1 2.1-1.1 3.4-1.8l1.7-1.1c.7-.6 1.7-1.3 2.4-1.9l1.6-1.5c.6-.6 1.3-1.4 1.8-2.1l1.3-1.8c.4-.7 1-1.6 1.4-2.2l1.1-2c.3-.7.7-1.7 1-2.4l.7-2.2c.2-.8.4-1.8.6-2.5l.3-2.4c.1-.9.1-2.1.2-3l-.1-2.4c-.1-.8-.2-1.8-.3-2.6l-.5-2.3c-.2-.7-.5-1.7-.7-2.5l-.8-2.2c-.3-.7-.8-1.6-1.1-2.3l-1.2-2c-.5-.6-1-1.5-1.5-2.1l-1.4-1.7c-.6-.6-1.3-1.4-1.9-1.9L51 8.8c-2.1-1.6-2.3-1.7-4-2.7 7.1 3.9 11.9 12.1 11.9 22.1"/><path class="st53" d="M3.5 22.6C12.3-.6 42.2 4.7 52.4 25.8c2.1 4.3 4.1 11.1 2.1 18.9 2.8-4.9 4.5-10.6 4.5-16.4C59 18.2 54.2 10 46.9 5.8c-.5-.2-1.1-.6-1.5-.8-.7-.3-1.6-.7-2.3-1l-1.3-.5c-.4-.1-1-.3-1.5-.5l-1-.3c-.3-.1-.8-.2-1.1-.2l-.9-.2c-.3 0-.6-.1-.9-.1l-.7-.1c-.2 0-.5-.1-.7-.1h-5.4l-.7.1c-.2 0-.6.1-.8.1l-1 .1c-2.9.5-4.2 1-6.4 1.8l-1.6.7c-2 1-2.1 1.1-3.3 1.8l-1.7 1.2c-.7.6-1.7 1.3-2.4 2l-1.6 1.5c-.5.6-1.3 1.4-1.8 2.1L7 15.2c-.4.7-1 1.6-1.4 2.3l-1 2.1c-.3.7-.7 1.7-1 2.4-.1.3-.2.7-.3 1 .1-.2.1-.3.2-.4"/><path class="st53" d="M58.9 28.2c0 5.8-1.7 11.5-4.5 16.4-.1.6-.3 1.3-.4 1.8-4 10.8-11.9 14.1-17.9 15l1-.2c1.5-.3 3.2-.6 5.9-1.7l1.5-.7c1.9-1 2.1-1.1 3.4-1.8l1.7-1.1c.7-.6 1.7-1.3 2.4-1.9l1.6-1.5c.6-.6 1.3-1.4 1.8-2.1l1.3-1.8c.4-.7 1-1.6 1.4-2.2l1.1-2c.3-.7.7-1.7 1-2.4l.7-2.2c.2-.8.4-1.8.6-2.5l.3-2.4c.1-.9.1-2.1.2-3l-.1-2.4c-.1-.8-.2-1.8-.3-2.6l-.5-2.3c-.2-.7-.5-1.7-.7-2.5l-.8-2.2c-.3-.7-.8-1.6-1.1-2.3l-1.2-2c-.5-.6-1-1.5-1.5-2.1l-1.4-1.7c-.6-.6-1.3-1.4-1.9-1.9l-1.6-1.4c-2.1-1.6-2.3-1.7-4-2.7 7.2 4.2 12 12.4 12 22.4"/><path class="st54" d="M6.8 15.6C21-4.6 52.2 9.3 56.3 32c.6 3.2.8 4.2.3 8.2 1.5-3.8 2.3-7.8 2.3-12 0-10.1-4.8-18.3-12.1-22.5-.5-.2-1.1-.6-1.5-.8-.7-.3-1.6-.7-2.3-1l-1.3-.5c-.4-.1-1-.3-1.5-.5l-1-.3c-.3-.1-.8-.2-1.1-.2l-.9-.2c-.3 0-.6-.1-.9-.1l-.7-.1c-.2 0-.5-.1-.7-.1l-.7.1H29.6l-.7.1c-.2 0-.6.1-.8.1l-1 .1c-2.9.5-4.2 1-6.4 1.8l-1.6.7c-2 1-2.1 1.1-3.3 1.8l-1.7 1.2c-.7.6-1.7 1.3-2.4 2l-1.6 1.5c-.5.6-1.3 1.4-1.8 2.1L7 15.2c-.4.7-1 1.6-1.4 2.3l.8-1.4c.2-.1.3-.3.4-.5"/><path class="st54" d="M58.9 28.2c0 4.1-.8 8.2-2.3 12V42c-2.2 12.5-10.8 17-15.7 18.5l1.1-.4 1-.4 1.5-.7c1.9-1 2.1-1.1 3.4-1.8l1.7-1.1c.7-.6 1.7-1.3 2.4-1.9l1.6-1.5c.6-.6 1.3-1.4 1.8-2.1l1.3-1.8c.4-.7 1-1.6 1.4-2.2l1.1-2c.3-.7.7-1.7 1-2.4l.7-2.2c.2-.8.4-1.8.6-2.5l.3-2.4c.1-.9.1-2.1.2-3l-.1-2.4c-.1-.8-.2-1.8-.3-2.6l-.5-2.3c-.2-.7-.5-1.7-.7-2.5l-.8-2.2c-.3-.7-.8-1.6-1.1-2.3l-1.2-2c-.5-.6-1-1.5-1.5-2.1L54.4 12c-.6-.6-1.3-1.4-1.9-1.9l-1.6-1.4c-2.1-1.6-2.3-1.7-4-2.7 7.2 4 12 12.2 12 22.2"/><path class="st55" d="M23.7 60c18.8 3.7 30.2-16.4 18.7-33.1C30.7 9.7 6 12.5 3.1 31.4 1.2 43.8 11 57.5 23.7 60"/><path class="st56" d="M21 59c19.6 6 30.8-13.5 21.9-29.2C32.2 10.6 8.2 13 4 29.2.4 42.8 9.9 55.5 21 59"/><path class="st57" d="M17.2 57.1C34 65.8 48.5 51 44 35.5c-6-20.6-30.6-23.7-38.4-9.2-5.4 10.4 0 24.8 11.6 30.8"/><path class="st58" d="M16.1 56.1C31.8 65 47.7 52.8 43 35.4c-4.8-18-29.9-23.1-37.3-7.6C.7 38.4 7 51 16.1 56.1"/><path class="st59" d="M14.3 54.6c14.4 9.8 30.5.4 28.3-16.5-2.3-17.2-25-25.3-34.8-12.4-7 9.2-2.3 22.9 6.5 28.9"/><path class="st60" d="M14.1 54c14.8 10.6 30.1-.9 27.6-16-3-18-26.3-22.8-33.9-10.9-6.1 9.4-1.5 21.3 6.3 26.9"/><path class="st61" d="M14.3 53.6C29.6 64.4 43.2 51 40.7 37.9c-3.4-17.8-25.3-21.5-32.9-9.3-4.8 7.7-2 18.8 6.5 25"/><path class="st62" d="M12.5 51.6c13.3 12 27.8 1.6 27.5-11.1-.3-17.6-21-22.5-29.6-13.8-7.1 7.3-4.7 18.7 2.1 24.9"/><path class="st63" d="M12.9 51.2c12.6 11.4 28 .9 26.2-13.5-1.7-14-21.6-19.8-29.5-8.6-5.4 7.5-2.3 17 3.3 22.1"/><path class="st64" d="M13.4 50.9c12.8 11.2 26.8-1 25.1-13.2-1.8-13.1-20.1-18.5-28-8.2-5.9 7.8-1.9 17.2 2.9 21.4"/><path class="st65" d="M12.1 48.5c10.4 12.1 25.1 3.3 25.8-8.2.9-13.3-16.3-19.8-24.7-12.1-8.2 7.5-4.3 16.6-1.1 20.3"/><path class="st66" d="M12.8 48.2c9.7 11 23.7 2.7 24.5-7.9C38.2 28.9 23.7 20 13.6 29c-6.8 6.1-4.6 14.9-.8 19.2"/><path class="st67" d="M13.6 47.8c9 10 22.2 2.2 23-7.6.9-10.2-12.4-19.9-23-10-4 3.8-5 11.9 0 17.6"/><path class="st68" d="M14.6 47.4C22.7 55.7 35 50 36 40.2 37.2 29 24 22.4 15.3 29.8c-5.9 5-5.1 13.1-.7 17.6"/><path class="st69" d="M13.9 44.9c4.3 6.4 11.2 5.4 11.3 5.4 2.3-.5 9.4-2.1 10.4-10.1.6-4.9-1.6-8.8-6.8-11.9-.1 0-5.8-2.9-11.7.8-5.1 3.2-6.6 10.7-3.2 15.8"/><path class="st70" d="M14.9 44.6c5.8 8.4 18.8 5.5 20.2-4.5.7-4.5-1.7-8.7-6.3-11.3-.9-.5-5.7-2.9-11.7 1-2.9 2-6.6 8.3-2.2 14.8"/><path class="st71" d="M15.8 44.4c5.8 7.3 17.5 4.7 19-4.3.3-2 .4-7.1-5.9-10.8-.1-.1-4-1.2-4-1.2-4.3.3-4.3.3-7 2.1-4.7 2.8-5.6 9.8-2.1 14.2"/><path class="st71" d="M16.6 44.2c6 7.1 16.2 3.6 17.6-4.1C35.7 32.1 26 25.7 19 30c-7.2 4.4-4.3 11.9-2.4 14.2"/><path class="st71" d="M16.7 42.9c1.6 2.5 4.7 5.2 10.2 4.3 2.7-.4 6.1-3.4 6.9-7.1.7-3.5-.8-6.7-4.5-9.6-2.1-1.6-6.8-2-8.9-.7-8 4.7-5.2 10.7-3.7 13.1"/><path class="st71" d="M18.1 43.9c2.6 2.7 7.3 3.5 8.8 2.9 3.6-1.5 3.6-1.5 5.5-4.1.8-1.1 1.4-3.1 1.1-5.2-.4-3-2.5-5.1-2.9-5.5-1.6-1.4-1.6-1.4-5.7-2.5-2.6-.7-7.1 2.5-7.9 3.7-3.7 5.7.9 10.5 1.1 10.7"/><path class="st71" d="M17 41.4c1.1 2 3.7 5.3 9.8 4.8 1.7-.1 5.5-3 6.2-6.2 1-4.9-2.8-8-2.9-8.1-2-1.6-4.8-2.1-5.1-2.2-1.2-.2-2.8.2-3.9.6-1.1.5-2.5 1.6-3.3 2.5-.2.3-1.5 3-1.5 3.1-.1.2-.6 3 .7 5.5"/><path class="st71" d="M17.5 41.3c.8 1.5 3.4 4.9 9.2 4.4l2.9-1.2c1.5-1.4 2.4-2.4 3-4.4.9-3.5-1-6.5-3-8.1-1.4-1.1-4.5-1.8-4.6-1.8-1.2-.2-2.8.2-3.9.7-.5.2-3.1 1.5-4.3 5.1-.2.5-.5 3.2.7 5.3"/><path class="st71" d="M18 41.2s1.8 2.1 2.1 2.3c.9.7 2.4 1.2 3.5 1.7.8.4 2.1.1 3 0 .9-.1 2.2-.6 2.9-1.2 1.8-1.7 2.4-3.3 2.6-3.9.4-1.4.8-4.9-3.2-8.1-1-.8-2.7-1.3-4-1.4-1.2-.1-2.8.3-3.8.8-2.5 1-5.7 5.4-3.1 9.8"/><path class="st71" d="M18.5 41.1c1.1 1.9 3.5 4.1 8 3.7 1-.1 2.2-.7 2.9-1.3 1.4-1.3 2.2-3.4 2.2-3.4.8-2.7-.3-5.6-2.8-7.6-.4-.3-3.5-1.5-4-1.5-1.2-.1-2.8.3-3.8.8 0 0-5.8 3.8-2.5 9.3"/><path class="st71" d="M19.1 41c1.1 1.7 3.4 2.8 4.2 3.2.9.4 2.2.3 3.2.2 1-.1 2.2-.8 3-1.4.6-.5 1.8-2.9 1.8-2.9.9-2.7-.5-5.7-2.3-7.1-1-.8-2.7-1.5-4-1.7-1.2-.1-2.7.4-3.8.9-.2 0-5.2 3.8-2.1 8.8"/><path class="st71" d="M19.6 41s1.6 1.9 3.6 2.8c.9.4 2.2.4 3.2.3 0 0 2.7-1.3 3-1.6.6-.5 1.2-1.6 1.4-2.4 1.2-3.4-1.2-6.1-1.9-6.6-.6-.4-3.4-1.7-4-1.8-.2 0-3.6.8-3.8 1-.9.6-2.1 1.8-2.3 2.9-.2 1.5-.6 3.4.8 5.4"/><path class="st71" d="M20.1 40.9s2.6 2.2 3 2.4c.9.4 2.3.4 3.3.4 0 0 3.2-.8 4.1-3.5C31.7 36.3 29 34 29 34s-3.7-1.9-4-1.9c-.2 0-3.6 1-3.8 1.1-1.9 1.3-3.2 4.9-1.1 7.7"/><path class="st71" d="M20.6 40.8c.5.7 1.5 1.5 2.3 1.9.9.4 2.3.6 3.3.5.3 0 3.1-1.9 3.1-2 .3-.3.6-.8.7-1.1.9-2.7-.6-5.3-1-5.6-1.1-.8-2.6-1.8-3.9-2-1.2-.1-2.8.5-3.7 1.2-1.7 1.1-2.7 4.6-.8 7.1"/><path class="st71" d="M21.1 40.7c.4.5 1.1 1.1 1.7 1.4 1 .4 2.4.9 3.4.6 1.1-.2 2.2-1.4 3.1-2.1.1-.1.2-.3.3-.5.2-.8.5-1.9.4-2.7 0 0-.7-2.2-1.3-2.7-.9-.8-2.4-1.7-3.6-1.8-1.2-.1-2.6.8-3.7 1.3-1.3.5-1.4 4-1.4 4 .1.8.6 1.9 1.1 2.5"/><path class="st71" d="M21.6 40.7c.2.3.6.7 1 .8 1 .4 2.4 1 3.5.7 1.1-.2 2.1-1.4 3-2.1.1-.1.1-.3.2-.4.4-1.6.8-3.2-1.3-4.9-.7-.6-1.9-1.4-2.8-1.4-1.2-.1-2.6.8-3.7 1.3-.2.1-.4.4-.5.6-.9 1.9-.7 3.7.6 5.4"/><path class="st71" d="M22.1 40.6c.1.1.2.3.4.3 1 .3 2.5 1.1 3.5.8.8-.2 1.7-1 2.2-1.6.5-.6.7-1.7.9-2.4v-.4c-.5-.8-1.2-1.9-2-2.5-.5-.4-1.3-1-2-1-1.2-.1-2.9.5-3.6 1.4-.6.7-.7 2-.6 2.8.1.9.7 2 1.2 2.6"/><path class="st71" d="M22.3 39.9c.2.2.4.5.7.6.9.3 2.1.9 3 .8.5-.1 1.2-.6 1.5-1.1.5-.7 1.1-1.8 1-2.7-.1-1-1.4-1.9-2.1-2.6-.3-.3-.8-.6-1.2-.6-1-.1-5.8 1.9-2.9 5.6"/><path class="st71" d="M22 38.3c.6.7 1.6 1.5 2.4 2 .4.2 1 .5 1.5.4.3-.1.6-.3.8-.6.4-.8 1.2-1.8 1.1-2.7-.1-1-1.4-1.9-2.1-2.6-.1-.1-.3-.2-.4-.2-.4 0-.7 0-3.3 3-.2.2-.1.6 0 .7"/><path class="st71" d="M25.8 40.3c.2 0 1.2-2.7 1.2-2.7-.1-.8-.9-2.1-1.7-2.1-1 0-2.5 1.4-2.4 2.4 0 1.1 1.9 1.9 2.9 2.4"/><path class="st71" d="M25.7 39c.5-.1.7-1 .6-1.5-.1-.4-.5-1.1-.9-1.1-.5 0-1.3.7-1.2 1.2 0 .7.9 1.6 1.5 1.4"/><path class="st71" d="M25.5 37.8l.1-.1s0-.1-.1-.1l-.1.1.1.1"/></g></g><g class="st0"><defs><path id="SVGID_5_" class="st0" d="M28 2.2c4.9-.7 8.5 0 10 .3 1 .2 2.6.6 4.6 1.3 1.3.5 2.5 1.1 4.1 1.9C54 9.9 58.9 18.1 58.8 28.2c0 15.9-12.1 30.4-27 32.4 14.8-2 26.9-16.5 27-32.4 0-10.1-4.8-18.3-12.1-22.5.5.3 1.2.7 1.7 1 .8.5 1.8 1.3 2.6 1.9 1 .8 2.3 2.1 3.2 3 .6.6 1.3 1.5 1.8 2.2 1.5 2.1 2 2.9 2.6 4.2 1.1 2.3 1.3 2.8 1.9 4.6.7 2.2.9 3.5 1.1 4.9.2 1.3.3 3.1.3 4.4 0 1.5-.2 3.4-.4 4.8-.3 1.8-1.2 5.2-2.1 7.2-1.4 2.8-1.4 2.8-2.3 4.3-1.3 2-2.5 3.3-3 3.8-3.1 3.4-5.4 4.7-7.5 6-1.2.7-3.3 1.6-3.3 1.6-1 .4-2.3.9-4.3 1.4-3.6.9-6.4.9-8.5.8-2.9-.1-6-.8-7.9-1.5-.9-.3-2.1-.7-3-1.2-1-.5-2.8-1.4-4-2.2-.5-.4-1.2-.8-1.7-1.2-.7-.5-1.5-1.2-2.2-1.8-1.9-1.8-3.2-3.5-3.3-3.6-.7-.9-1.6-2.1-2.7-4.1C5 45 4.3 43.3 3.8 42c-.2-.6-1.4-4-1.6-7.4-.2-2.1-.1-2.3 0-5.1 0-.9.2-2.1.4-2.9.5-2.2.6-3 1.3-4.8.9-2.4 1.9-4.3 2-4.5 1.1-2 3.6-6.4 9.3-10.3C20 3.8 24.8 2.6 28 2.2z"/></defs><clipPath id="SVGID_6_"><use xlink:href="#SVGID_5_" overflow="visible"/></clipPath><g class="st72"><path class="st2" d="M28 2.2c6.5-.9 12.8.4 18.8 3.6C54.1 10 59 18.2 58.9 28.3c0 15.9-12.1 30.4-27 32.4 14.8-2 26.9-16.5 27-32.4 0-10.1-4.8-18.3-12.1-22.5 15.4 9.4 15.9 23.4 14.8 31-1.3 9.4-9 21-22.6 24.3C12.6 67.4-8 37.9 7 15.3c4.8-7.2 12.5-12 21-13.1"/><path class="st2" d="M58.9 28.2c0-10.1-4.8-18.3-12.1-22.5.5.3 1.2.7 1.7 1 .8.6 1.8 1.3 2.6 1.9l1.6 1.4c.6.6 1.4 1.4 1.9 2l1.4 1.7c.5.7 1.1 1.5 1.5 2.2l1.1 2c.3.7.8 1.6 1.1 2.4l.8 2.2c.2.8.5 1.7.7 2.5l.4 2.3c.1 1.3.3 3.1.3 4.4l-.1 2.4c-.1.8-.2 1.8-.3 2.6l-.5 2.6c-.2.7-.5 1.7-.7 2.5l-.9 2.2c-.3.7-.8 1.6-1.1 2.3l-1.2 2c-.5.6-1 1.5-1.5 2.1L54.2 52c-.6.6-1.3 1.4-1.9 1.9l-1.6 1.3c-.7.5-1.7 1.3-2.5 1.8l-1.5 1c-2 1.1-2.1 1.1-3.3 1.6l-1.1.4c-2 .7-3.4 1.1-6.3 1.6l-.8.1c-.2 0-.5.1-.8.1h-4.6c-.2 0-.5 0-.7-.1l-.7-.1c-.2 0-.5-.1-.8-.1l-.8-.1c-.3-.1-.6-.1-.9-.2l-1-.2c-.3-.1-.8-.2-1.1-.3l-1.2-.4c-.5-.2-1.1-.4-1.5-.5l-1.5-.7c-.7-.3-1.6-.8-2.3-1.2l-1.7-1.1c-2.1-1.5-2.4-1.7-3.8-3l-1.6-1.6c-.5-.6-1.3-1.4-1.8-2.1L7 48.4c-.4-.7-1-1.6-1.4-2.3l-1-2.1c-.3-.7-.7-1.7-1-2.4L3 39.4c-.2-.8-.4-1.8-.5-2.5l-.3-2.4c0-.8-.1-1.9-.1-2.7l.1-2.4c.1-.9.2-2.1.4-2.9l.4-2.4c.2-.7.5-1.7.8-2.5l.9-2.1c.3-.7.8-1.6 1.2-2.3L7 15.3c.5-.6 1.1-1.5 1.6-2.1l1.4-1.7c.6-.6 1.4-1.4 2-1.9l1.6-1.3c.7-.5 1.7-1.3 2.5-1.8l1.5-.9c2-1 2.1-1.1 3.4-1.6l1.1-.4c1.5-.5 3.1-1 5.9-1.4l.8-.1c.2-.1.5-.1.7-.1h4.6c.2 0 .5 0 .7.1l.7.1c.2 0 .5.1.8.1l.8.1c.3.1.6.1.9.2l1 .2c.3.1.8.2 1.1.3l1.2.4c.5.2 1.1.4 1.5.5l1.5.7c.7.3 1.6.8 2.3 1.2 7.5 4.1 12.3 12.3 12.3 22.3 0 15.9-12.1 30.4-27 32.4 25.9-7.4 16.7-36 .9-43.7C14.5 7.9-3 23.4 4.1 42.5 8.6 54.6 18 60.8 31.9 60.7c14.9-2 27-16.6 27-32.5"/><path class="st3" d="M58.9 28.2c0-10.1-4.8-18.3-12.1-22.5.5.3 1.2.7 1.7 1 .8.6 1.8 1.3 2.6 1.9l1.6 1.4c.6.6 1.4 1.4 1.9 2l1.4 1.7c.5.7 1.1 1.5 1.5 2.2l1.1 2c.3.7.8 1.6 1.1 2.4l.8 2.2c.2.8.5 1.7.7 2.5l.4 2.3c.1 1.3.3 3.1.3 4.4l-.1 2.4c-.1.8-.2 1.8-.3 2.6l-.5 2.6c-.2.7-.5 1.7-.7 2.5l-.9 2.2c-.3.7-.8 1.6-1.1 2.3l-1.2 2c-.5.6-1 1.5-1.5 2.1L54.2 52c-.6.6-1.3 1.4-1.9 1.9l-1.6 1.3c-.7.5-1.7 1.3-2.5 1.8l-1.5 1c-2 1.1-2.1 1.1-3.3 1.6l-1.1.4c-2 .7-3.4 1.1-6.3 1.6l-.8.1c-.2 0-.5.1-.8.1h-4.6c-.2 0-.5 0-.7-.1l-.7-.1c-.2 0-.5-.1-.8-.1l-.8-.1c-.3-.1-.6-.1-.9-.2l-1-.2c-.3-.1-.8-.2-1.1-.3l-1.2-.4c-.5-.2-1.1-.4-1.5-.5l-1.5-.7c-.7-.3-1.6-.8-2.3-1.2l-1.7-1.1c-2.1-1.5-2.4-1.7-3.8-3l-1.6-1.6c-.5-.6-1.3-1.4-1.8-2.1L7 48.4c-.4-.7-1-1.6-1.4-2.3l-1-2.1c-.3-.7-.7-1.7-1-2.4L3 39.4c-.2-.8-.4-1.8-.5-2.5l-.3-2.4c0-.8-.1-1.9-.1-2.7l.1-2.4c.1-.9.2-2.1.4-2.9l.4-2.4c.2-.7.5-1.7.8-2.5l.9-2.1c.3-.7.8-1.6 1.2-2.3L7 15.3c.5-.6 1.1-1.5 1.6-2.1l1.4-1.7c.6-.6 1.4-1.4 2-1.9l1.6-1.3c.7-.5 1.7-1.3 2.5-1.8l1.5-.9c2-1 2.1-1.1 3.4-1.6l1.1-.4c1.5-.5 3.1-1 5.9-1.4l.8-.1c.2-.1.5-.1.7-.1h4.6c.2 0 .5 0 .7.1l.7.1c.2 0 .5.1.8.1l.8.1c.3.1.6.1.9.2l1 .2c.3.1.8.2 1.1.3l1.2.4c.5.2 1.1.4 1.5.5l1.5.7c.7.3 1.6.8 2.3 1.2 7.5 4.1 12.3 12.3 12.3 22.3 0 13.2-8.4 25.5-19.7 30.4.1 0 .2-.1.2-.1C57.7 46.9 48.3 19.9 29 14.2 9.8 8.5-4.3 27.4 5.4 45.7 12.5 59 28 65 39.2 58.6c11.3-4.9 19.7-17.2 19.7-30.4"/><path class="st4" d="M3.7 41.7c-.3-1-.8-2.5-1.2-4.8l-.3-2.4c0-.8-.1-1.9-.1-2.7l.1-2.4c.1-.9.2-2.1.4-2.9l.4-2.4c.2-.7.5-1.7.8-2.5l.9-2.1c.3-.7.8-1.6 1.2-2.3L7 15.3c.5-.6 1.1-1.5 1.6-2.1l1.4-1.7c.6-.6 1.4-1.4 2-1.9l1.6-1.3c.7-.5 1.7-1.3 2.5-1.8l1.5-.9c2-1 2.1-1.1 3.4-1.6l1.1-.4c1.5-.5 3.1-1 5.9-1.4l.8-.1c.2-.1.5-.1.7-.1h4.6c.2 0 .5 0 .7.1l.7.1c.2 0 .5.1.8.1l.8.1c.3.1.6.1.9.2l1 .2c.3.1.8.2 1.1.3l1.2.4c.5.2 1.1.4 1.5.5l1.5.7c.7.3 1.6.8 2.3 1.2 7.3 4.2 12.2 12.4 12.1 22.5 0 11.4-6.3 22.2-15.3 28l.4-.4c16.4-17.1-1-44.5-22.1-43.7C6.9 12.7-1.8 27.5 4 42.7c-.1-.3-.2-.7-.3-1"/><path class="st4" d="M58.9 28.2c0-10.1-4.8-18.3-12.1-22.5.5.3 1.2.7 1.7 1 .8.6 1.8 1.3 2.6 1.9l1.6 1.4c.6.6 1.4 1.4 1.9 2l1.4 1.7c.5.7 1.1 1.5 1.5 2.2l1.1 2c.3.7.8 1.6 1.1 2.4l.8 2.2c.2.8.5 1.7.7 2.5l.4 2.3c.1 1.3.3 3.1.3 4.4l-.1 2.4c-.1.8-.2 1.8-.3 2.6l-.5 2.6c-.2.7-.5 1.7-.7 2.5l-.9 2.2c-.3.7-.8 1.6-1.1 2.3l-1.2 2c-.5.6-1 1.5-1.5 2.1L54.2 52c-.6.6-1.3 1.4-1.9 1.9l-1.6 1.3c-.7.5-1.7 1.3-2.5 1.8l-1.5 1c-2 1.1-2.1 1.1-3.3 1.6l-1.1.4c-2 .7-3.4 1.1-6.3 1.6l-.8.1c-.2 0-.5.1-.8.1h-4.6c-.2 0-.5 0-.7-.1l-.7-.1c-.2 0-.5-.1-.8-.1l-.8-.1c-.3-.1-.6-.1-.9-.2l-1-.2c-.3-.1-.8-.2-1.1-.3l-1.2-.4c-.5-.2-1.1-.4-1.5-.5l-1.5-.7c-.7-.3-1.6-.8-2.3-1.2-.4-.2-.9-.5-1.3-.8.5.3 1.2.7 1.7 1 14.9 7.4 24.2-.3 25.9-1.9 9-5.8 15.3-16.5 15.3-28"/><path class="st5" d="M2.4 36.9c-.2-1.5-.4-2.8-.4-5.1l.1-2.4c.1-.9.2-2.1.4-2.9l.5-2.4c.2-.7.5-1.7.8-2.5l.9-2.1c.3-.7.8-1.6 1.2-2.3L7 15.3c.5-.6 1.1-1.5 1.6-2.1l1.4-1.7c.6-.6 1.4-1.4 2-1.9l1.6-1.3c.7-.5 1.7-1.3 2.5-1.8l1.5-.9c2-1 2.1-1.1 3.4-1.6l1.1-.4c1.5-.5 3.1-1 5.9-1.4l.8-.1c.2-.1.5-.1.7-.1h4.6c.2 0 .5 0 .7.1l.7.1c.2 0 .5.1.8.1l.8.1c.3.1.6.1.9.2l1 .2c.3.1.8.2 1.1.3l1.2.4c.5.2 1.1.4 1.5.5l1.5.7c.7.3 1.6.8 2.3 1.2 7.3 4.2 12.2 12.4 12.1 22.5 0 10-4.8 19.4-12 25.6.3-.4.7-1 1-1.4 12.3-20.5-8.8-44.7-29-41C7.3 13.6.4 24.3 2.4 37v-.1"/><path class="st5" d="M58.9 28.2c0-10.1-4.8-18.3-12.1-22.5.5.3 1.2.7 1.7 1 .8.6 1.8 1.3 2.6 1.9l1.6 1.4c.6.6 1.4 1.4 1.9 2l1.4 1.7c.5.7 1.1 1.5 1.5 2.2l1.1 2c.3.7.8 1.6 1.1 2.4l.8 2.2c.2.8.5 1.7.7 2.5l.4 2.3c.1 1.3.3 3.1.3 4.4l-.1 2.4c-.1.8-.2 1.8-.3 2.6l-.5 2.6c-.2.7-.5 1.7-.7 2.5l-.9 2.2c-.3.7-.8 1.6-1.1 2.3l-1.2 2c-.5.6-1 1.5-1.5 2.1L54.2 52c-.6.6-1.3 1.4-1.9 1.9l-1.6 1.3c-.7.5-1.7 1.3-2.5 1.8l-1.5 1c-2 1.1-2.1 1.1-3.3 1.6l-1.1.4c-2 .7-3.4 1.1-6.3 1.6l-.8.1c-.2 0-.5.1-.8.1h-4.6c-.2 0-.5 0-.7-.1l-.7-.1c-.2 0-.5-.1-.8-.1l-.8-.1c-.3-.1-.6-.1-.9-.2l-1-.2c-.3-.1-.8-.2-1.1-.3l-1.2-.4-.7-.2 1.6.5c11.1 3.2 19.4-1.4 23.4-6.8 7.2-6.1 12-15.6 12-25.6"/><path class="st6" d="M2 31.8c0-1.5.1-2.9.5-5.4l.5-2.3c.2-.7.5-1.7.8-2.5l.9-2.1c.3-.7.8-1.6 1.2-2.3L7 15.3c.5-.6 1.1-1.5 1.6-2.1l1.4-1.7c.6-.6 1.4-1.4 2-1.9l1.6-1.3c.7-.5 1.7-1.3 2.5-1.8l1.5-.9c2-1 2.1-1.1 3.4-1.6l1.1-.4c1.5-.5 3.1-1 5.9-1.4l.8-.1c.2-.1.5-.1.7-.1h4.6c.2 0 .5 0 .7.1l.7.1c.2 0 .5.1.8.1l.8.1c.3.1.6.1.9.2l1 .2c.3.1.8.2 1.1.3l1.2.4c.5.2 1.1.4 1.5.5l1.5.7c.7.3 1.6.8 2.3 1.2 7.3 4.2 12.2 12.4 12.1 22.5 0 8.6-3.6 16.9-9.2 22.9.1-.2.2-.4.3-.5C61.1 28.1 36.5 4.4 16.2 11.1 9.4 13.4 2 20.1 2 32v-.2"/><path class="st6" d="M58.9 28.2c0-10.1-4.8-18.3-12.1-22.5.5.3 1.2.7 1.7 1 .8.6 1.8 1.3 2.6 1.9l1.6 1.4c.6.6 1.4 1.4 1.9 2l1.4 1.7c.5.7 1.1 1.5 1.5 2.2l1.1 2c.3.7.8 1.6 1.1 2.4l.8 2.2c.2.8.5 1.7.7 2.5l.4 2.3c.1 1.3.3 3.1.3 4.4l-.1 2.4c-.1.8-.2 1.8-.3 2.6l-.5 2.6c-.2.7-.5 1.7-.7 2.5l-.9 2.2c-.3.7-.8 1.6-1.1 2.3l-1.2 2c-.5.6-1 1.5-1.5 2.1L54.2 52c-.6.6-1.3 1.4-1.9 1.9l-1.6 1.3c-.7.5-1.7 1.3-2.5 1.8l-1.5 1c-2 1.1-2.1 1.1-3.3 1.6l-1.1.4c-2 .7-3.4 1.1-6.3 1.6l-.8.1c-.2 0-.5.1-.8.1h-4.6c-.2 0-.5 0-.7-.1l-.7-.1c-.2 0-.5-.1-.8-.1l-.8-.1h-.2.2c15.9 2.5 22.2-8.9 22.8-10.2 5.7-6.1 9.3-14.3 9.3-23"/><path class="st7" d="M2.5 26.4c.2-1 .5-2.5 1.3-4.8l.9-2.1c.3-.7.8-1.6 1.2-2.3L7 15.3c.5-.6 1.1-1.5 1.6-2.1l1.4-1.7c.6-.6 1.4-1.4 2-1.9l1.6-1.3c.7-.5 1.7-1.3 2.5-1.8l1.5-.9c2-1 2.1-1.1 3.4-1.6l1.1-.4c1.5-.5 3.1-1 5.9-1.4l.8-.1c.2-.1.5-.1.7-.1h4.6c.2 0 .5 0 .7.1l.7.1c.2 0 .5.1.8.1l.8.1c.3.1.6.1.9.2l1 .2c.3.1.8.2 1.1.3l1.2.4c.5.2 1.1.4 1.5.5l1.5.7c.7.3 1.6.8 2.3 1.2 7.3 4.2 12.2 12.4 12.1 22.5 0 7.3-2.6 14.3-6.8 19.9.2-.6.5-1.3.7-1.9C59.4 20.8 30.9 1 12.3 12c-7.9 4.7-9.4 12.6-10 15.5.1-.3.1-.7.2-1.1"/><path class="st7" d="M58.9 28.2c0-10.1-4.8-18.3-12.1-22.5.5.3 1.2.7 1.7 1 .8.6 1.8 1.3 2.6 1.9l1.6 1.4c.6.6 1.4 1.4 1.9 2l1.4 1.7c.5.7 1.1 1.5 1.5 2.2l1.1 2c.3.7.8 1.6 1.1 2.4l.8 2.2c.2.8.5 1.7.7 2.5l.4 2.3c.1 1.3.3 3.1.3 4.4l-.1 2.4c-.1.8-.2 1.8-.3 2.6l-.5 2.6c-.2.7-.5 1.7-.7 2.5l-.9 2.2c-.3.7-.8 1.6-1.1 2.3l-1.2 2c-.5.6-1 1.5-1.5 2.1L54.2 52c-.6.6-1.3 1.4-1.9 1.9l-1.6 1.3c-.7.5-1.7 1.3-2.5 1.8l-1.5 1c-2 1.1-2.1 1.1-3.3 1.6l-1.1.4c-2 .7-3.4 1.1-6.3 1.6l-.8.1c-.2 0-.5.1-.8.1H31.2h.5c15.3-.1 20-12.3 20.4-13.7 4.2-5.6 6.8-12.6 6.8-19.9"/><path class="st8" d="M3.8 21.7c.3-.9.9-2.4 2-4.5L7 15.3c.5-.6 1.1-1.5 1.6-2.1l1.4-1.7c.6-.6 1.4-1.4 2-1.9l1.6-1.3c.7-.5 1.7-1.3 2.5-1.8l1.5-.9c2-1 2.1-1.1 3.4-1.6l1.1-.4c1.5-.5 3.1-1 5.9-1.4l.8-.1c.2-.1.5-.1.7-.1h4.6c.2 0 .5 0 .7.1l.7.1c.2 0 .5.1.8.1l.8.1c.3.1.6.1.9.2l1 .2c.3.1.8.2 1.1.3l1.2.4c.5.2 1.1.4 1.5.5l1.5.7c.7.3 1.6.8 2.3 1.2 7.3 4.2 12.2 12.4 12.1 22.5 0 5.8-1.7 11.5-4.5 16.4.1-.2.1-.5.2-.7 5.2-25.8-24.3-44.5-42.2-33-3 1.9-7 5.6-9 11.9.3-.5.5-1 .6-1.3"/><path class="st8" d="M58.9 28.2c0-10.1-4.8-18.3-12.1-22.5.5.3 1.2.7 1.7 1 .8.6 1.8 1.3 2.6 1.9l1.6 1.4c.6.6 1.4 1.4 1.9 2l1.4 1.7c.5.7 1.1 1.5 1.5 2.2l1.1 2c.3.7.8 1.6 1.1 2.4l.8 2.2c.2.8.5 1.7.7 2.5l.4 2.3c.1 1.3.3 3.1.3 4.4l-.1 2.4c-.1.8-.2 1.8-.3 2.6l-.5 2.6c-.2.7-.5 1.7-.7 2.5l-.9 2.2c-.3.7-.8 1.6-1.1 2.3l-1.2 2c-.5.6-1 1.5-1.5 2.1L54.2 52c-.6.6-1.3 1.4-1.9 1.9l-1.6 1.3c-.7.5-1.7 1.3-2.5 1.8l-1.5 1c-2 1.1-2.1 1.1-3.3 1.6l-1.1.4c-1.6.6-3.1 1.1-6.1 1.5l.5-.1c10.6-1.8 16.7-10 17.8-16.8 2.8-4.8 4.4-10.5 4.4-16.4"/><path class="st9" d="M5.8 17.2c.6-1 1.3-2.2 2.7-4.1l1.4-1.7c.6-.6 1.4-1.4 2-1.9l1.6-1.3c.7-.5 1.7-1.3 2.5-1.8l1.5-.9c2-1 2.1-1.1 3.4-1.6l1.1-.4c1.5-.5 3.1-1 5.9-1.4l.8-.1h5.4c.2 0 .5 0 .7.1l.7.1c.2 0 .5.1.8.1l.8.1c.3.1.6.1.9.2l1 .2c.3.1.8.2 1.1.3l1.2.4c.5.2 1.1.4 1.5.5l1.5.7c.7.3 1.6.8 2.3 1.2 7.3 4.2 12.2 12.4 12.1 22.5 0 4.1-.8 8.2-2.3 12 0-.4.1-.9.1-1.3 1-24.5-29.2-42.4-46.3-27.4-2.9 2.6-4.3 5-4.9 6.1.4-.2.5-.4.5-.6"/><path class="st9" d="M58.9 28.2c0-10.1-4.8-18.3-12.1-22.5.5.3 1.2.7 1.7 1 .8.6 1.8 1.3 2.6 1.9l1.6 1.4c.6.6 1.4 1.4 1.9 2l1.4 1.7c.5.7 1.1 1.5 1.5 2.2l1.1 2c.3.7.8 1.6 1.1 2.4l.8 2.2c.2.8.5 1.7.7 2.5l.4 2.3c.1 1.3.3 3.1.3 4.4l-.1 2.4c-.1.8-.2 1.8-.3 2.6l-.5 2.6c-.2.7-.5 1.7-.7 2.5l-.9 2.2c-.3.7-.8 1.6-1.1 2.3l-1.2 2c-.5.6-1 1.5-1.5 2.1L54.2 52c-.6.6-1.3 1.4-1.9 1.9l-1.6 1.3c-.7.5-1.7 1.3-2.5 1.8l-1.5 1c-2 1.1-2.1 1.1-3.3 1.6l-1.1.4c-.5.2-1.1.4-1.6.5 10.7-3.4 15.7-12.7 15.8-20.3 1.6-3.8 2.4-7.8 2.4-12"/><path class="st10" d="M18.7 58.4c-18.8-8.9-21.5-35-4.4-41.7C32.4 9.6 53.1 31 45.5 49c-4.8 11.5-17.4 13.8-26.8 9.4"/><path class="st11" d="M16.2 56.8C-1.9 45.8-1 20.3 17.6 16.7c19.6-3.8 36.3 20.6 24.7 36.2-6.6 9-18.2 8.7-26.1 3.9"/><path class="st12" d="M13.8 55C-2.5 42.4 2 20.8 17.4 17.8c17.1-3.3 35.1 17.9 24.1 34.7C36.7 59.9 24.7 63 13.8 55"/><path class="st13" d="M11.8 52.9C-3 38.7 5 18.4 21 18.4c18.7 0 30.3 23.5 17.8 35.9-7.8 7.7-20.1 5.3-27-1.4"/><path class="st14" d="M11.8 52.6C-1.6 40 4 19.6 20.9 19.5c18.2-.1 29 22.3 16.8 34.7-6.4 6.5-18 5.7-25.9-1.6"/><path class="st15" d="M10.1 50.3C-.9 36.8 6.9 19.1 23 20.7c18.8 1.8 24.6 24.8 12.5 34.2-8.2 6.3-19.6 2.5-25.4-4.6"/><path class="st16" d="M10.4 49.9c-11-13.5-1.9-31.1 14.4-28.1C42.4 25 45.9 46.6 33.9 55c-6.9 4.7-17.4 2.5-23.5-5.1"/><path class="st17" d="M9.1 47.4C.5 33.2 11.4 20.1 24.8 22.7c17.8 3.3 19.2 23.9 9 31.2-9.4 6.8-20.4.6-24.7-6.5"/><path class="st18" d="M9.5 47c-8-13.4 2.6-25.9 15.3-23.5 16.4 3 18.8 21.6 7.6 30.2C26.5 58.2 15 56.2 9.5 47"/><path class="st19" d="M10 46.7c-8-13.6 3.9-25.5 17-21.9 14.7 4 14.9 22.4 3.5 28.9-6.6 3.7-16.2.5-20.5-7"/><path class="st20" d="M9.4 43.9C4.5 31 17.8 21.3 28.8 26.1c13.1 5.7 11.1 22.9-.3 27.4-7 2.9-16.2-1.7-19.1-9.6"/><path class="st21" d="M10.1 43.5c-4-11.6 7.3-21.8 18.7-16.8 12.3 5.4 10.3 21.3-.5 25.8-8.2 3.4-16.1-2.9-18.2-9"/><path class="st22" d="M10.9 43.2c-3.8-11.6 8.3-20.2 17.9-16 11.7 5.1 9.5 20.4-.8 24.3-7.5 2.9-15-2.1-17.1-8.3"/><path class="st23" d="M11.8 42.8c-3.6-10.9 7.9-19.1 17-15.1 10.1 4.4 9.4 18.8-1.1 22.9-5.5 2.2-13.5-.7-15.9-7.8"/><path class="st24" d="M12.1 39.8c-.6-8.2 5.1-10.8 7-11.6 6.5-3 11.3 1.1 12.9 2.5 7.5 6.4 3.3 18.3-6.8 19.6-7 .9-12.7-4.8-13.1-10.5"/><path class="st25" d="M13 39.6c-.8-5.9 4.1-9.7 4.1-9.7 6.7-4.3 11.4-1.3 12.3-.7 11.3 8.2 4 18.1-2 19.9-5.9 1.8-13.4-2-14.4-9.5"/><path class="st26" d="M13.7 39.4c-.9-7.8 8.3-15.5 17-8.7 8.9 7 2.2 18-6 18-3.5.1-10.3-2.7-11-9.3"/><path class="st27" d="M14.4 39.2c-.2-2.2 0-7.5 6.5-10.2 1.8-.7 6.9-1 10.7 2.9 5.5 5.7 2.1 16.3-7.2 16.1-5.7-.1-9.6-5.2-10-8.8"/><path class="st28" d="M15.2 39c-1-10.2 10.7-12.5 15.9-7.1 6.4 6.7.8 16.1-6.9 15.5-6.2-.5-8.8-5.9-9-8.4"/><path class="st29" d="M15.7 38.9c-1-6.4 6.1-12 13.2-8.3.5.3 5.3 3 4.5 9.4-.2 1.5-2.4 5.7-6.5 6.7-3.9.9-10.3-1.9-11.2-7.8"/><path class="st30" d="M16.2 36s1.2-2.7 1.5-3.1c.8-.9 2.3-1.8 3.3-2.5s2.7-.5 3.9-.6c.3 0 5.1.7 7.3 4.9 2.8 5.2-1.5 12.6-8.3 11.6-5.2-.7-8.6-6.3-7.7-10.3"/><path class="st31" d="M16.7 35.9c1.4-5.2 6.3-5.6 8.2-5.8 1.3-.1 2.9.7 4 1.4 1.1.8 2.9 3.2 2.9 3.2 2.6 4.7-.8 12.2-8.1 11-.3 0-3.5-1.5-3.5-1.5-.7-.5-1.2-.9-2.7-2.9-.6-.8-1.2-3.7-.8-5.4"/><path class="st32" d="M17.3 35.8c.7-2.4 2.8-3.8 3.8-4.5 1-.7 2.7-.7 3.8-.8 1.3-.1 2.9.7 4 1.4.9.6 1.9 1.8 2.4 2.7.7 1.2 2 4.4-.6 8-2.2 3-6 2.9-7.2 2.6-1.1-.3-2.5-1-3.5-1.7-.2-.1-2.1-2.3-2.1-2.3-.6-1.1-1.1-3.5-.6-5.4"/><path class="st33" d="M17.9 35.8s.8-2.3 3.3-4c1-.7 2.7-.7 3.8-.8 0 0 2.9.9 4 1.5.8.5 1.6 1.5 2 2.2 2.3 4 .1 7-.7 8-.9 1.3-3.1 2-3.7 2.2-.9.3-2.2.1-3.1-.1-2.1-.6-7.2-3.7-5.6-9"/><path class="st34" d="M18.2 37.1c0-.4-.1-1.1.1-1.4.5-1 1.4-2.3 2.3-3.1.5-.4.6-.5 4.3-1.3 0 0 3.9.6 5.5 3.4 2.3 3.9.2 6.6-.8 8-.6.7-3.3 1.8-3.3 1.8-.9.2-2.2 0-3.2-.2-2.1-.5-4.2-3.2-4.2-3.2-.5-1.1-.8-2.4-.7-4"/><path class="st35" d="M18.9 35.6c.4-1 1.4-2.3 2.3-2.9.2-.1 3.4-.9 3.8-1 0 0 3.8.8 5.1 3 2.3 3.8.1 6.7-.7 7.7-.1.1-2.8 1.5-3 1.6-.9.2-2.3 0-3.2-.3-1.3-.4-3.6-2.8-3.6-2.8-1.1-2-1.3-3.8-.7-5.3"/><path class="st36" d="M19.4 35.5c.4-.8 1.1-1.9 1.9-2.4.2-.1 3.4-1.1 3.8-1.1.2 0 3.9 1.9 4 1.9.3.2.5.5.7.8 1.5 2.5 1.4 4.9-.3 7.1-.2.3-2.6 1.7-3 1.8-1 .2-2.3-.1-3.3-.4-.3-.1-3-2.3-3-2.4-1-1.8-1.7-3.2-.8-5.3"/><path class="st37" d="M19.9 35.5c.3-.6.8-1.4 1.4-1.7 1-.6 2.6-1.5 3.8-1.2 1.3.2 3 1.1 3.9 2 .6.6 1.3 3 1.3 3s0 3.1-1 3.8c-.8.6-2.7 1.9-3.1 2-1 .2-2.4-.1-3.3-.5-.8-.4-1.8-1.2-2.3-1.9-.5-.7-.8-1.8-1.1-2.5-.3-1 .1-2.3.4-3"/><path class="st38" d="M20.4 35.4c.2-.4.5-1 .9-1.2 1-.5 2.5-1.5 3.7-1.3 1.2.3 2.7 1 3.6 1.8.6.6 1.3 2.7 1.3 2.7s0 2.2-.7 3.2c-.7.9-2 1.9-3.1 2.1-1 .2-2.4-.3-3.4-.6-.6-.2-1.3-.9-1.7-1.4-.5-.7-1-1.7-1.2-2.5 0-.8.3-2 .6-2.8"/><path class="st39" d="M21 35.3c.1-.2.3-.5.5-.6 1.1-.5 2.5-1.4 3.7-1.3.9.1 2 .8 2.8 1.4.5.3.9 1 1.1 1.5 1.1 1.9 0 3.8 0 3.8-.7.9-1.9 1.9-3 2.1-1 .2-2.5-.4-3.5-.7-.4-.1-.8-.5-1-.8-.5-.7-1.1-1.7-1.2-2.5-.1-.9.2-2.1.6-2.9"/><path class="st40" d="M21.5 35.3c.8-.9 2.5-1.5 3.6-1.4.7 0 1.5.5 2 1 .7.6 1.5 1.7 2 2.5.2.4-.8 2.8-.8 2.8-.5.7-1.4 1.5-2.2 1.6-1.1.2-2.5-.5-3.5-.8-.1 0-.3-.2-.4-.3-.5-.7-1.2-1.7-1.3-2.5-.1-1 .2-2.2.6-2.9"/><path class="st41" d="M21.7 36.4c.9-1.8 3.5-2.2 3.5-2.2.4 0 .9.3 1.2.6.7.7 1.9 1.6 2.1 2.6.1.9-.5 2-1 2.7-.3.5-1 1-1.5 1.1-.9.2-2.1-.4-3-.8-.3-.1-.5-.4-.7-.6-.7-.7-1.1-2.4-.6-3.4"/><path class="st42" d="M21.9 37.7c.5-1 1.7-1.9 2.6-2.7.2-.2.5-.3.8-.3.6 0 2.5 2.8 2.5 2.8.1.9-.7 2-1.1 2.7-.1.2-.5.5-.8.6-.5.1-1.1-.1-1.5-.4-.7-.6-1.7-1.4-2.4-2-.1-.2-.2-.6-.1-.7"/><path class="st43" d="M25.3 35.4c.8 0 1.6 1.3 1.7 2.1l-1.2 2.7c-.9-.7-2.8-1.3-2.9-2.4-.1-1 1.4-2.4 2.4-2.4"/><path class="st44" d="M25.4 36.5c.4 0 .8.7.9 1.1.1.5-.2 1.3-.6 1.5-.6.1-1.5-.7-1.5-1.3-.1-.6.7-1.3 1.2-1.3"/><path class="st45" d="M25.5 37.5s.1.1 0 0c.1.1.1.2 0 .2l-.1-.1s0-.1.1-.1"/></g></g><g class="st0"><defs><path id="SVGID_7_" class="st0" d="M46.8 5.8C42.5 3.4 37.5 2.3 32 3.1c5.5-.8 10.5.3 14.8 2.7.8.5 1.9 1.1 2.7 1.7 1.5 1.1 2.6 2 3.7 3.1 1.6 1.7 2 2.1 3.1 3.7 1.6 2.2 2.5 4.1 2.5 4.1 1 2.1 1.2 2.5 1.8 4.5.4 1.2.8 2.9 1 4.2.2 1.4.4 3.4.4 4.8 0 2-.1 2.7-.4 5.1 0 0-.3 2.1-1.2 4.8-.3.7-.6 1.7-1 2.4-.3.6-.7 1.4-1 2.1 0 0-1.5 3-4.5 6.2-1.5 1.6-2.6 2.5-3.9 3.5-1.1.9-2.3 1.5-3.4 2.2-.9.5-2.1 1.1-3.1 1.5-1.2.5-2.4.9-4.3 1.4-3.7.9-6.7.9-8.6.8-3.2-.1-6.3-.9-8.1-1.6-.9-.3-2.2-.8-3.6-1.5-1.6-.8-2.9-1.6-3.9-2.3-1-.7-2.2-1.6-3.6-2.9-1.7-1.6-2.8-3-3.3-3.6-.5-.7-1.5-2-2.6-4.1-.7-1.2-1.4-3-1.9-4.2-.5-1.3-1.4-4.6-1.6-7.4v-3c.1-2.1.2-3.6.5-5 .5-2.3.7-3 1.4-4.8.9-2.5 2-4.3 2.1-4.5.7-1.2 1.7-2.6 2.6-3.7.5-.7 1.3-1.5 1.8-2.1.4-.5 1.1-1.1 1.6-1.5.7-.6 1.7-1.4 2.4-1.9.2-.1 4.1-3.1 9.5-4.6 1.5-.4 5.9-1.6 11.7-.9 2.9.4 5 1 6 1.4.6.2 1.4.5 2 .8 1 .2 2.3.8 3.2 1.3z"/></defs><clipPath id="SVGID_8_"><use xlink:href="#SVGID_7_" overflow="visible"/></clipPath><g class="st73"><path class="st2" d="M46.8 5.8c-17.1-9.1-30.3.1-34 3.1C3.3 16.7-.4 29.8 3.6 41.5 7.5 53 18.3 61.2 30.5 61.8c12.4.6 23.7-6.3 28.9-17.6C64.8 32.1 62.3 15 46.8 5.8 42.5 3.4 37.5 2.3 32 3.1c5.5-.8 10.5.3 14.8 2.7"/><path class="st2" d="M32 3.1C59.3 2.4 68.4 32 55.3 44.5 41.4 57.7 14.9 42.6 15.9 22 16.6 8.3 26.3 5 32 3.1c5.4-.7 10.5.3 14.7 2.7-.5-.2-1.1-.6-1.5-.8-.7-.3-1.6-.7-2.3-1l-1.3-.5c-.4-.1-1-.3-1.5-.5l-1-.3c-.3-.1-.8-.2-1.1-.2l-.9-.2c-.3 0-.6-.1-.9-.1l-.7-.1c-.2 0-.5-.1-.7-.1h-5.2l-.7.1c-.2 0-.6.1-.8.1l-1 .1c-2.3.4-3.7.8-6.1 1.7l-1.5.7c-2 1-2.1 1.1-3.4 1.8l-1.7 1.1c-.7.6-1.7 1.3-2.4 1.9L10.4 11c-.6.6-1.3 1.4-1.8 2.1L7.2 15c-.4.7-1 1.6-1.4 2.2l-1.1 2c-.3.7-.7 1.7-1 2.4L3 23.8c-.2.8-.4 1.8-.6 2.5l-.3 2.4c-.1.9-.1 2.1-.2 3l.1 2.4c.1.8.2 1.8.3 2.6l.5 2.3c.2.7.5 1.7.7 2.5l.8 2.2c.3.7.8 1.6 1.1 2.3l1.2 2c.5.6 1 1.5 1.5 2.1l1.4 1.7c.6.6 1.3 1.4 1.9 1.9l1.6 1.4c2.1 1.6 2.3 1.7 4 2.7l1.5.8c.7.3 1.6.7 2.3 1l1.3.5c.4.1 1 .3 1.5.5l1 .3c.3.1.8.2 1.1.2l.9.2c.3 0 .6.1.9.1l.7.1c.2 0 .5.1.7.1l.7.1H34.2l.7-.1c.2 0 .6-.1.8-.1l1-.1c2.9-.5 4.2-1 6.4-1.8l1.6-.7c2-1 2.1-1.1 3.3-1.8l1.7-1.2c.7-.6 1.7-1.3 2.4-2l1.6-1.5c.5-.6 1.3-1.4 1.8-2.1l1.3-1.8c.4-.7 1-1.6 1.4-2.3l1-2.1c.3-.7.7-1.7 1-2.4l.7-2.2c.2-.8.4-1.8.6-2.6l.3-2.4c0-.8.1-1.9.1-2.7l-.1-2.4c-.2-1.3-.4-3-.7-4.3l-.6-2.3c-.3-.7-.6-1.7-.9-2.4l-1-2.1c-.4-.7-.9-1.6-1.3-2.2L56 14.2c-.5-.6-1.1-1.5-1.6-2.1l-1.5-1.6c-.4-.5-1.2-1.2-1.9-1.8l-1.6-1.2c-.8-.5-1.8-1.2-2.7-1.7-4.2-2.4-9.2-3.5-14.7-2.7"/><path class="st3" d="M42.1 3.8c21.7 8 26.7 36.1 8.1 45-18 8.5-41.1-13.4-34.3-32.6C21.1 1.3 35.3 1.6 42.1 3.8c1.6.5 3.2 1.2 4.7 2-.5-.2-1.1-.6-1.5-.8-.7-.3-1.6-.7-2.3-1l-1.3-.5c-.4-.1-1-.3-1.5-.5l-1-.3c-.3-.1-.8-.2-1.1-.2l-.9-.2c-.3 0-.6-.1-.9-.1l-.7-.1c-.2 0-.5-.1-.7-.1H29.6l-.7.1c-.2 0-.6.1-.8.1l-1 .1c-2.3.4-3.7.8-6.1 1.7l-1.5.7c-2 1-2.1 1.1-3.4 1.8l-1.7 1.1c-.7.6-1.7 1.3-2.4 1.9L10.4 11c-.6.6-1.3 1.4-1.8 2.1L7.2 15c-.4.7-1 1.6-1.4 2.2l-1.1 2c-.3.7-.7 1.7-1 2.4L3 23.8c-.2.8-.4 1.8-.6 2.5l-.3 2.4c-.1.9-.1 2.1-.2 3l.1 2.4c.1.8.2 1.8.3 2.6l.5 2.3c.2.7.5 1.7.7 2.5l.8 2.2c.3.7.8 1.6 1.1 2.3l1.2 2c.5.6 1 1.5 1.5 2.1l1.4 1.7c.6.6 1.3 1.4 1.9 1.9l1.6 1.4c2.1 1.6 2.3 1.7 4 2.7l1.5.8c.7.3 1.6.7 2.3 1l1.3.5c.4.1 1 .3 1.5.5l1 .3c.3.1.8.2 1.1.2l.9.2c.3 0 .6.1.9.1l.7.1c.2 0 .5.1.7.1l.7.1H34.2l.7-.1c.2 0 .6-.1.8-.1l1-.1c2.9-.5 4.2-1 6.4-1.8l1.6-.7c2-1 2.1-1.1 3.3-1.8l1.7-1.2c.7-.6 1.7-1.3 2.4-2l1.6-1.5c.5-.6 1.3-1.4 1.8-2.1l1.3-1.8c.4-.7 1-1.6 1.4-2.3l1-2.1c.3-.7.7-1.7 1-2.4l.7-2.2c.2-.8.4-1.8.6-2.6l.3-2.4c0-.8.1-1.9.1-2.7l-.1-2.4c-.2-1.3-.4-3-.7-4.3l-.6-2.3c-.3-.7-.6-1.7-.9-2.4l-1-2.1c-.4-.7-.9-1.6-1.3-2.2L56 14.2c-.5-.6-1.1-1.5-1.6-2.1l-1.5-1.6c-.4-.5-1.2-1.2-1.9-1.8l-1.6-1.2c-.8-.5-1.8-1.2-2.7-1.7-1.4-.8-3-1.5-4.6-2"/><path class="st4" d="M60.7 23.3c5.8 20.8-13.3 35.2-32.5 24.5C8.8 37 8.8 8.6 28.3 3.1c4-1.1 10.3-1.6 17.9 2.4.2.1.4.2.5.3-.5-.2-1.1-.6-1.5-.8-.7-.3-1.6-.7-2.3-1l-1.3-.5c-.4-.1-1-.3-1.5-.5l-1-.3c-.3-.1-.8-.2-1.1-.2l-.9-.2c-.3 0-.6-.1-.9-.1l-.7-.1c-.2 0-.5-.1-.7-.1h-5.2l-.7.1c-.2 0-.6.1-.8.1l-1 .1c-2.3.4-3.7.8-6.1 1.7l-1.5.7c-2 1-2.1 1.1-3.4 1.8l-1.7 1.1c-.7.6-1.7 1.3-2.4 1.9L10.4 11c-.6.6-1.3 1.4-1.8 2.1L7.2 15c-.4.7-1 1.6-1.4 2.2l-1.1 2c-.3.7-.7 1.7-1 2.4L3 23.8c-.2.8-.4 1.8-.6 2.5l-.3 2.4c-.1.9-.1 2.1-.2 3l.1 2.4c.1.8.2 1.8.3 2.6l.5 2.3c.2.7.5 1.7.7 2.5l.8 2.2c.3.7.8 1.6 1.1 2.3l1.2 2c.5.6 1 1.5 1.5 2.1l1.4 1.7c.6.6 1.3 1.4 1.9 1.9l1.6 1.4c2.1 1.6 2.3 1.7 4 2.7l1.5.8c.7.3 1.6.7 2.3 1l1.3.5c.4.1 1 .3 1.5.5l1 .3c.3.1.8.2 1.1.2l.9.2c.3 0 .6.1.9.1l.7.1c.2 0 .5.1.7.1l.7.1H34.2l.7-.1c.2 0 .6-.1.8-.1l1-.1c2.9-.5 4.2-1 6.4-1.8l1.6-.7c2-1 2.1-1.1 3.3-1.8l1.7-1.2c.7-.6 1.7-1.3 2.4-2l1.6-1.5c.5-.6 1.3-1.4 1.8-2.1l1.3-1.8c.4-.7 1-1.6 1.4-2.3l1-2.1c.3-.7.7-1.7 1-2.4l.7-2.2c.2-.8.4-1.8.6-2.6l.3-2.4c0-.8.1-1.9.1-2.7l-.1-2.4c-.2-1.3-.4-3-.7-4.3l-.6-2.3-.5-1.7.7 2.2c0-.1 0 0 0 0"/><path class="st4" d="M46.2 5.5c.5.3 1.2.7 1.8 1-.4-.2-.9-.5-1.3-.8-.1 0-.3-.1-.5-.2"/><path class="st5" d="M61.6 27.2C64.4 51.1 40 59.6 23.4 46.1c-17.7-14.5-12.8-42 8-43.9 5.3-.5 9.4 1 10.8 1.4l-1.3-.4-.7-.2-1-.3c-.3-.1-.8-.2-1.1-.2l-.9-.2c-.3 0-.6-.1-.9-.1l-.7-.1c-.2 0-.5-.1-.7-.1H29.6l-.7.1c-.2 0-.6.1-.8.1l-1 .1c-2.3.4-3.7.8-6.1 1.7l-1.5.7c-2 1-2.1 1.1-3.4 1.8l-1.7 1.1c-.7.6-1.7 1.3-2.4 1.9L10.4 11c-.6.6-1.3 1.4-1.8 2.1L7.2 15c-.4.7-1 1.6-1.4 2.2l-1.1 2c-.3.7-.7 1.7-1 2.4L3 23.8c-.2.8-.4 1.8-.6 2.5l-.3 2.4c-.1.9-.1 2.1-.2 3l.1 2.4c.1.8.2 1.8.3 2.6l.5 2.3c.2.7.5 1.7.7 2.5l.8 2.2c.3.7.8 1.6 1.1 2.3l1.2 2c.5.6 1 1.5 1.5 2.1l1.4 1.7c.6.6 1.3 1.4 1.9 1.9l1.6 1.4c2.1 1.6 2.3 1.7 4 2.7l1.5.8c.7.3 1.6.7 2.3 1l1.3.5c.4.1 1 .3 1.5.5l1 .3c.3.1.8.2 1.1.2l.9.2c.3 0 .6.1.9.1l.7.1c.2 0 .5.1.7.1l.7.1H34.2l.7-.1c.2 0 .6-.1.8-.1l1-.1c2.9-.5 4.2-1 6.4-1.8l1.6-.7c2-1 2.1-1.1 3.3-1.8l1.7-1.2c.7-.6 1.7-1.3 2.4-2l1.6-1.5c.5-.6 1.3-1.4 1.8-2.1l1.3-1.8c.4-.7 1-1.6 1.4-2.3l1-2.1c.3-.7.7-1.7 1-2.4l.7-2.2c.2-.8.4-1.8.6-2.6l.3-2.4c0-.8.1-1.9.1-2.7l-.1-2.4c-.1-.8-.2-1.9-.3-2.7l.1.5"/><path class="st6" d="M62 31.9c-1.2 25.5-28.8 26.9-42.3 12.4C3.6 26.9 12.1 1.2 33.7 2c.4 0 1.8.1 3.7.4l-.8-.1h-.2l-.7-.1c-.2 0-.5-.1-.7-.1l-.8-.1H29.6l-.7.1c-.2 0-.6.1-.8.1l-1 .1c-2.3.4-3.7.8-6.1 1.7l-1.5.7c-2 1-2.1 1.1-3.4 1.8l-1.7 1.1c-.7.6-1.7 1.3-2.4 1.9L10.4 11c-.6.6-1.3 1.4-1.8 2.1L7.2 15c-.4.7-1 1.6-1.4 2.2l-1.1 2c-.3.7-.7 1.7-1 2.4L3 23.8c-.2.8-.4 1.8-.6 2.5l-.3 2.4c-.1.9-.1 2.1-.2 3l.1 2.4c.1.8.2 1.8.3 2.6l.5 2.3c.2.7.5 1.7.7 2.5l.8 2.2c.3.7.8 1.6 1.1 2.3l1.2 2c.5.6 1 1.5 1.5 2.1l1.4 1.7c.6.6 1.3 1.4 1.9 1.9l1.6 1.4c2.1 1.6 2.3 1.7 4 2.7l1.5.8c.7.3 1.6.7 2.3 1l1.3.5c.4.1 1 .3 1.5.5l1 .3c.3.1.8.2 1.1.2l.9.2c.3 0 .6.1.9.1l.7.1c.2 0 .5.1.7.1l.7.1H34.2l.7-.1c.2 0 .6-.1.8-.1l1-.1c2.9-.5 4.2-1 6.4-1.8l1.6-.7c2-1 2.1-1.1 3.3-1.8l1.7-1.2c.7-.6 1.7-1.3 2.4-2l1.6-1.5c.5-.6 1.3-1.4 1.8-2.1l1.3-1.8c.4-.7 1-1.6 1.4-2.3l1-2.1c.3-.7.7-1.7 1-2.4l.7-2.2c.2-.8.4-1.8.6-2.6l.3-2.4c.1-.7.2-1.8.2-2.6"/><path class="st7" d="M61.3 38.1c-7.2 25.5-38 18.9-47.7.3-9.4-18 .5-36.8 19.2-36.5h-3.3l-.7.1c-.2 0-.6.1-.8.1l-1 .1c-2.2.5-3.6.9-6 1.8l-1.5.7c-2 1-2.1 1.1-3.4 1.8l-1.7 1.1c-.7.6-1.7 1.3-2.4 1.9L10.4 11c-.6.6-1.3 1.4-1.8 2.1L7.2 15c-.4.7-1 1.6-1.4 2.2l-1.1 2c-.3.7-.7 1.7-1 2.4L3 23.8c-.2.8-.4 1.8-.6 2.5l-.3 2.4c-.1.9-.1 2.1-.2 3l.1 2.4c.1.8.2 1.8.3 2.6l.5 2.3c.2.7.5 1.7.7 2.5l.8 2.2c.3.7.8 1.6 1.1 2.3l1.2 2c.5.6 1 1.5 1.5 2.1l1.4 1.7c.6.6 1.3 1.4 1.9 1.9l1.6 1.4c2.1 1.6 2.3 1.7 4 2.7l1.5.8c.7.3 1.6.7 2.3 1l1.3.5c.4.1 1 .3 1.5.5l1 .3c.3.1.8.2 1.1.2l.9.2c.3 0 .6.1.9.1l.7.1c.2 0 .5.1.7.1l.7.1H34.2l.7-.1c.2 0 .6-.1.8-.1l1-.1c2.9-.5 4.2-1 6.4-1.8l1.6-.7c2-1 2.1-1.1 3.3-1.8l1.7-1.2c.7-.6 1.7-1.3 2.4-2l1.6-1.5c.5-.6 1.3-1.4 1.8-2.1l1.3-1.8c.4-.7 1-1.6 1.4-2.3l1-2.1c.3-.7.7-1.7 1-2.4l.7-2.2c.2-.8.4-1.8.6-2.6 0-.2.1-.5.1-.8 0 .7-.2 1.4-.3 2"/><path class="st8" d="M60.5 41.1C51.7 64.4 21.8 59 11.6 37.9 3.9 22 11.8 4.6 27.8 2.2l-1 .2c-1.4.2-3.1.6-5.8 1.6l-1.5.7c-2 1-2.1 1.1-3.4 1.8l-1.7 1.1c-.7.6-1.7 1.3-2.4 1.9L10.4 11c-.6.6-1.3 1.4-1.8 2.1L7.2 15c-.4.7-1 1.6-1.4 2.2l-1.1 2c-.3.7-.7 1.7-1 2.4L3 23.8c-.2.8-.4 1.8-.6 2.5l-.3 2.4c-.1.9-.1 2.1-.2 3l.1 2.4c.1.8.2 1.8.3 2.6l.5 2.3c.2.7.5 1.7.7 2.5l.8 2.2c.3.7.8 1.6 1.1 2.3l1.2 2c.5.6 1 1.5 1.5 2.1l1.4 1.7c.6.6 1.3 1.4 1.9 1.9l1.6 1.4c2.1 1.6 2.3 1.7 4 2.7l1.5.8c.7.3 1.6.7 2.3 1l1.3.5c.4.1 1 .3 1.5.5l1 .3c.3.1.8.2 1.1.2l.9.2c.3 0 .6.1.9.1l.7.1c.2 0 .5.1.7.1l.7.1H34.2l.7-.1c.2 0 .6-.1.8-.1l1-.1c2.9-.5 4.2-1 6.4-1.8l1.6-.7c2-1 2.1-1.1 3.3-1.8l1.7-1.2c.7-.6 1.7-1.3 2.4-2l1.6-1.5c.5-.6 1.3-1.4 1.8-2.1l1.3-1.8c.4-.7 1-1.6 1.4-2.3l1-2.1c.3-.7.7-1.7 1-2.4.1-.3.2-.7.3-1 .1.2 0 .3 0 .4"/><path class="st9" d="M57.2 48.1C43 68.4 11.7 54.4 7.7 31.7 3.8 10 21.1 3.9 23.1 3.2l-1.1.4-1 .4-1.5.7c-2 1-2.1 1.1-3.4 1.8l-1.7 1.1c-.7.6-1.7 1.3-2.4 1.9L10.4 11c-.6.6-1.3 1.4-1.8 2.1L7.2 15c-.4.7-1 1.6-1.4 2.2l-1.1 2c-.3.7-.7 1.7-1 2.4L3 23.8c-.2.8-.4 1.8-.6 2.5l-.3 2.4c-.1.9-.1 2.1-.2 3l.1 2.4c.1.8.2 1.8.3 2.6l.5 2.3c.2.7.5 1.7.7 2.5l.8 2.2c.3.7.8 1.6 1.1 2.3l1.2 2c.5.6 1 1.5 1.5 2.1l1.4 1.7c.6.6 1.3 1.4 1.9 1.9l1.6 1.4c2.1 1.6 2.3 1.7 4 2.7l1.5.8c.7.3 1.6.7 2.3 1l1.3.5c.4.1 1 .3 1.5.5l1 .3c.3.1.8.2 1.1.2l.9.2c.3 0 .6.1.9.1l.7.1c.2 0 .5.1.7.1l.7.1H34.2l.7-.1c.2 0 .6-.1.8-.1l1-.1c2.9-.5 4.2-1 6.4-1.8l1.6-.7c2-1 2.1-1.1 3.3-1.8l1.7-1.2c.7-.6 1.7-1.3 2.4-2l1.6-1.5c.5-.6 1.3-1.4 1.8-2.1l1.3-1.8c.4-.7 1-1.6 1.4-2.3l-.8 1.4c0 .2-.1.4-.2.5"/><path class="st10" d="M40.3 3.7C21.4 0 10.1 20.1 21.5 36.8c12.1 17.6 36.4 14.8 39.4-4.5 1.9-12.4-7.9-26-20.6-28.6"/><path class="st11" d="M43 4.8C23.4-1.3 12.2 18.2 21.1 34c10.7 19.1 34.7 16.7 39 .5C63.5 21 54.1 8.2 43 4.8"/><path class="st12" d="M46.7 6.6c-16.8-8.7-31.3 6.1-26.8 21.6 6 20.6 30.6 23.7 38.4 9.2 5.5-10.4.1-24.7-11.6-30.8"/><path class="st13" d="M47.9 7.6C32.2-1.3 16.3 10.9 21 28.4c4.8 18 29.9 23.1 37.3 7.6 5-10.7-1.3-23.3-10.4-28.4"/><path class="st14" d="M49.7 9.2C35.3-.6 19.2 8.8 21.4 25.7 23.7 42.9 46.4 51 56.2 38c7-9.2 2.3-22.8-6.5-28.8"/><path class="st15" d="M49.9 9.8c-14.8-10.6-30.1.9-27.6 16 3 17.9 26.2 22.7 33.9 10.9 6.1-9.5 1.5-21.4-6.3-26.9"/><path class="st16" d="M49.7 10.1C34.4-.7 20.8 12.7 23.3 25.9c3.4 17.8 25.3 21.5 32.9 9.3 4.8-7.8 2-18.8-6.5-25.1"/><path class="st17" d="M51.5 12.2C38.2.1 23.7 10.5 24 23.3c.3 17.5 21 22.4 29.6 13.7 7.1-7.2 4.6-18.7-2.1-24.8"/><path class="st18" d="M51.1 12.5c-12.6-11.4-28-.9-26.2 13.5 1.7 14 21.6 19.8 29.5 8.6 5.4-7.5 2.3-17-3.3-22.1"/><path class="st19" d="M50.6 12.9c-12.8-11.2-26.7 1-25.1 13.2 1.8 13.1 20.1 18.5 28 8.2 5.9-7.8 1.9-17.2-2.9-21.4"/><path class="st20" d="M51.9 15.2C41.5 3.1 26.8 11.9 26 23.4c-.8 13.3 16.4 19.8 24.7 12.1 8.3-7.4 4.4-16.5 1.2-20.3"/><path class="st21" d="M51.2 15.6c-9.7-11-23.7-2.7-24.5 7.9-.9 11.4 13.6 20.3 23.7 11.2 6.8-6.1 4.5-14.9.8-19.1"/><path class="st22" d="M50.4 15.9c-9-10-22.2-2.2-23 7.6-.9 10.2 12.4 19.9 23 10 4-3.7 5-11.9 0-17.6"/><path class="st23" d="M49.4 16.3C41.3 8 29 13.8 27.9 23.6 26.8 34.7 40 41.3 48.7 34c5.9-5 5.1-13.2.7-17.7"/><path class="st24" d="M50.1 18.8c-4.3-6.4-11.2-5.4-11.3-5.4-2.3.5-9.4 2.1-10.4 10.1-.6 4.9 1.6 8.8 6.8 11.9 1.1.6 6.5 2.5 11.7-.8 5.2-3.2 6.6-10.6 3.2-15.8"/><path class="st25" d="M49.1 19.1c-5.8-8.4-18.8-5.5-20.2 4.5-.7 4.5 1.7 8.7 6.3 11.3 1.3.7 5.9 2.8 11.7-1 2.9-2 6.6-8.3 2.2-14.8"/><path class="st26" d="M48.2 19.3c-5.8-7.3-17.5-4.7-19 4.3-.3 2-.4 7.1 5.9 10.8 2.3 1.4 6.1 2.3 11.1-.8 4.6-2.9 5.5-9.8 2-14.3"/><path class="st27" d="M47.4 19.6c-6-7.1-16.2-3.6-17.6 4.1-1.4 7.4 7.7 14.8 15.2 10.1 7.2-4.5 4.2-12 2.4-14.2"/><path class="st28" d="M47.3 20.8c-2.9-4.5-7.2-4.8-10.2-4.3-2.7.4-6.1 3.4-6.9 7.1-.7 3.5.8 6.7 4.5 9.6 2.1 1.6 6.8 2 8.9.7 4.1-2.4 4.3-3.1 5.2-6.5.2-.8.2-2 0-2.8-.5-2.2-.5-2.2-1.5-3.8"/><path class="st29" d="M45.9 19.9c-2.6-2.7-7.3-3.5-8.8-2.9-3.6 1.5-3.6 1.5-5.5 4.1-.8 1.1-1.4 3.1-1.2 5.2.4 3 2.5 5.1 2.9 5.5 1.6 1.5 1.6 1.5 5.7 2.5 2.6.7 7.1-2.5 7.9-3.7 3.8-5.7-.8-10.5-1-10.7"/><path class="st30" d="M47 22.3c-1.1-2-3.7-5.3-9.8-4.8-1.7.1-5.5 3-6.2 6.2-1 4.9 2.8 8 2.9 8.1 2 1.6 4.8 2.1 5.1 2.2 1.2.2 2.8-.2 3.9-.6 1.1-.5 2.5-1.6 3.3-2.5.2-.3 1.5-3 1.5-3.1.1-.1.6-3-.7-5.5"/><path class="st31" d="M46.5 22.4c-.7-1.2-3.3-4.9-9.2-4.4l-2.9 1.2c-1.5 1.4-2.4 2.4-3 4.4-.7 2.9.4 6 3 8.1 1.4 1.1 4.5 1.8 4.6 1.8 1.2.2 2.8-.2 3.9-.7 3.1-1.3 6.2-5.8 3.6-10.4"/><path class="st32" d="M46 22.5s-1.8-2.1-2.1-2.3c-.9-.7-2.4-1.2-3.5-1.7-.8-.4-2.1-.1-3 0-.9.1-2.2.6-2.9 1.2-1.7 1.6-2.4 3.2-2.6 3.9-.4 1.4-.8 4.9 3.2 8.1 1 .8 2.7 1.3 4 1.4 1.2.1 2.8-.3 3.8-.8 1.6-.6 6.1-4.7 3.1-9.8"/><path class="st33" d="M45.4 22.6c-.9-1.6-3.2-4.1-8-3.7-1 .1-2.2.7-2.9 1.3-1.4 1.3-2.2 3.4-2.2 3.4-.5 1.6-.5 5.1 2.8 7.6.4.3 3.5 1.5 4 1.5 1.2.1 2.8-.3 3.8-.8 1.7-.8 3.2-4 3.3-4 .2-.9.7-2.8-.8-5.3"/><path class="st34" d="M44.9 22.7c-1.1-1.7-3.4-2.8-4.2-3.2-.9-.4-2.2-.3-3.2-.2-1 .1-2.2.8-3 1.4-.6.5-1.8 2.9-1.8 2.9-.6 1.8-.2 5.1 2.3 7.1 1 .8 2.7 1.5 4 1.7 1.2.1 2.8-.4 3.8-.9.2 0 5.2-3.8 2.1-8.8"/><path class="st35" d="M44.4 22.8s-1.6-1.9-3.6-2.8c-.9-.4-2.2-.4-3.2-.3 0 0-2.7 1.3-3 1.6-.6.5-1.2 1.6-1.4 2.4-.8 2.2.1 5.2 1.9 6.6.6.4 3.4 1.7 4 1.8.2 0 3.6-.8 3.8-1 .9-.6 2.1-1.8 2.3-3 .3-1.9.6-3.4-.8-5.3"/><path class="st36" d="M43.9 22.9s-2.6-2.2-3-2.4c-.9-.4-2.3-.4-3.3-.4-.3 0-2.5 1.3-3 1.8-.5.4-.9 1.2-1.1 1.7-1 3 .7 5.6 1.4 6.1 0 0 3.7 1.9 4 1.9.2 0 3.6-1 3.8-1.1 2.4-1.6 3-5.3 1.2-7.6"/><path class="st37" d="M43.4 22.9c-.5-.7-1.5-1.5-2.3-1.9-.9-.4-2.3-.6-3.3-.5-.3 0-3.1 1.9-3.1 2-.3.3-.6.8-.7 1.1-1.1 3.3 1 5.6 1 5.6 1.1.8 2.6 1.8 3.9 2 1.2.1 2.8-.5 3.7-1.2 2-1.3 2.6-4.7.8-7.1"/><path class="st38" d="M42.9 23c-.4-.5-1.1-1.1-1.7-1.4-1-.4-2.4-.9-3.4-.6-1.1.2-2.2 1.4-3.1 2.1-.1.1-.2.3-.3.5-1.1 3.6.9 5.3.9 5.3.9.8 2.4 1.7 3.6 1.8 1.2.1 2.6-.8 3.7-1.3 1.3-.5 1.4-4 1.4-4-.1-.7-.6-1.7-1.1-2.4"/><path class="st39" d="M42.4 23.1c-.2-.3-.6-.7-1-.8-1-.4-2.4-1-3.5-.7-1.1.2-2.1 1.4-3 2.1-.1.1-.1.3-.2.4-.3 1.3-.8 3.2 1.3 4.9.7.6 1.9 1.4 2.8 1.4 1.2.1 2.6-.8 3.7-1.3.2-.1.4-.4.5-.6.4-.8.7-2 .6-2.8-.1-.9-.7-2-1.2-2.6"/><path class="st40" d="M41.9 23.1c-.1-.1-.2-.3-.4-.3-1-.3-2.5-1.1-3.5-.8-.8.2-1.7 1-2.2 1.6-.5.6-.7 1.7-.9 2.4v.4c.5.8 1.2 1.9 1.9 2.5.5.4 1.3 1 2 1 1.2.1 2.9-.5 3.6-1.4.6-.7.7-2 .6-2.8 0-.9-.6-1.9-1.1-2.6"/><path class="st41" d="M41.7 23.8c-.2-.2-.4-.5-.7-.6-.9-.3-2.1-.9-3-.8-.5.1-1.2.6-1.5 1.1-.5.7-1.1 1.8-1 2.7.1 1 1.4 1.9 2.1 2.6.3.3.8.6 1.2.6 1 .1 5.8-1.8 2.9-5.6"/><path class="st42" d="M42 25.4c-.6-.7-1.6-1.5-2.4-2-.4-.2-1-.5-1.5-.4-.3.1-.6.3-.8.6-.4.8-1.2 1.8-1.1 2.7.1 1 1.4 1.9 2.1 2.6.1.1.3.2.4.2.5 0 .8-.1 3.3-3 .2-.2.1-.5 0-.7"/><path class="st43" d="M38.2 23.5c0-.1 0-.1 0 0-.2 0-1.2 2.7-1.2 2.7.1.8.9 2.1 1.7 2.1 1 0 2.5-1.4 2.4-2.4-.1-1.1-1.9-1.9-2.9-2.4"/><path class="st44" d="M38.3 24.7c-.5.1-.7 1-.6 1.5.1.4.5 1.1.9 1.1.5 0 1.3-.7 1.3-1.3-.1-.6-1-1.4-1.6-1.3"/><path class="st45" d="M38.5 26l-.1.1s0 .1.1.1l.1-.1c0-.1-.1-.1-.1-.1"/></g></g><g class="st0"><defs><path id="SVGID_9_" class="st0" d="M17.2 58c-1-.6-2.2-1.3-4.3-2.9-1-.8-2.3-2.1-3.2-3-.6-.6-1.3-1.5-1.8-2.2-1.7-2.5-1.7-2.5-2.6-4.2-1.9-3.5-2.6-7-2.6-7.1-.3-1.4-.6-3.3-.7-4.8-.1-1.3-.1-3.1 0-4.4.1-.8.2-1.8.3-2.6.1-.7.3-1.6.5-2.3.2-.8.5-1.8.7-2.5 1-2.6 1.2-2.9 2-4.5 1.3-2.3 2.7-4.1 2.7-4.1.8-1 2-2.3 3-3.3.2-.2 2-1.8 3.6-3 1.4-.9 4.4-2.9 9-4.2 3.8-1.1 7.8-1.4 11.7-.9 5.7.7 9.5 2.8 11.2 3.7-4.2-2.3-9.2-3.4-14.7-2.6 5.4-.7 10.5.3 14.7 2.7 1 .6 2.4 1.5 3.4 2.3.9.7 2.3 1.8 3.7 3.4.9 1 1.8 2 3.1 3.9 1.1 1.7 1.5 2.5 2.4 4.3 1.1 2.2 2 5.7 2.2 7.2.1.7.2 1.7.3 2.4.1.8.1 1.9.1 2.7 0 1.5-.2 3.4-.4 4.8-.4 2.8-1.5 6-2.3 7.5-1.1 2.3-1.3 2.7-2.4 4.2-.9 1.4-1.9 2.7-3 3.8-1.3 1.3-2.2 2.2-3.5 3.3-1.6 1.3-2.5 1.8-4 2.6-1.1.7-3.1 1.5-3.4 1.6-.9.3-2.3.9-4.3 1.3-10.3 2.4-18.4-1.4-21.4-3.1z"/></defs><clipPath id="SVGID_10_"><use xlink:href="#SVGID_9_" overflow="visible"/></clipPath><g class="st74"><path class="st47" d="M17.2 58C3.5 50 1.3 35.8 2.1 29.4c.3-2.4 1.2-9.8 6.3-16 1.8-2.2 6.5-7.9 15.5-10.4C29.3 1.5 37.6.8 46.7 5.8 42.5 3.4 37.5 2.3 32 3.1c5.4-.7 10.5.3 14.7 2.7 25.5 15.6 16.5 49.6-8.1 55.3-10.3 2.4-18.4-1.4-21.4-3.1"/><path class="st47" d="M46.8 5.8c1.9 1.1 3.5 2.2 5.6 4.1l1.6 1.6c.5.6 1.3 1.4 1.8 2.1l1.3 1.8c.4.7 1 1.6 1.4 2.3l1 2.1c.3.7.7 1.7 1 2.4l.7 2.3c.2.8.4 1.8.5 2.5l.3 2.4c0 .8.1 1.9.1 2.7l-.1 2.4c-.1.9-.2 2.1-.4 2.9l-.6 2.2c-.2.7-.5 1.7-.8 2.5l-.9 2.2c-.3.7-.8 1.6-1.2 2.3L57 48.5c-.5.6-1.1 1.5-1.6 2.1L54 52.3c-.6.6-1.4 1.4-2 1.9l-1.6 1.3c-.7.5-1.7 1.3-2.5 1.8l-1.5.9c-2 1-2.1 1.1-3.4 1.6l-1.1.4c-1.5.5-3.1 1-5.9 1.4l-.8.1c-.2 0-.5.1-.8.1h-4.6c-.2 0-.5 0-.7-.1l-.7-.1c-.2 0-.5-.1-.8-.1l-.8-.1c-.3-.1-.6-.1-.9-.2l-1-.2c-.3-.1-.8-.2-1.1-.3l-1.2-.4c-.5-.2-1.1-.4-1.5-.5l-1.5-.7c-.7-.3-1.6-.8-2.3-1.2l-1.7-1c-.8-.6-1.8-1.3-2.6-1.9l-1.6-1.4c-.6-.6-1.4-1.4-1.9-2L8 49.8c-.5-.7-1.1-1.5-1.5-2.2l-1.1-2c-.4-.7-.8-1.6-1.1-2.4L3.4 41c-.2-.8-.5-1.7-.7-2.5l-.4-2.3c-.1-1.3-.3-3.1-.3-4.4l.1-2.4c.1-.8.2-1.8.3-2.6l.5-2.3c.2-.7.5-1.7.7-2.5l.9-2.2c.3-.7.8-1.6 1.1-2.3l1.2-2c.5-.6 1-1.5 1.5-2.1l1.4-1.7c.6-.6 1.3-1.4 1.9-1.9l1.6-1.3c.7-.5 1.7-1.3 2.5-1.8l1.5-.9c2.1-1.1 2.1-1.1 3.3-1.6l1.1-.4c2-.7 3.4-1.1 6.3-1.6l.8-.1c.3-.1.6-.1.8-.1h4.6c.2 0 .5 0 .7.1l.7.1c.2 0 .5.1.8.1l.8.1c.3.1.6.1.9.2l1 .2c.3.1.8.2 1.1.3l1.2.4c.5.2 1.1.4 1.5.5l1.5.7c.8.2 1.8.7 2.5 1.1-4.3-2.4-9.3-3.5-14.8-2.7-25.9 7.3-16.6 35.9-.8 43.7 18.2 9 35-5.4 29-24.8-1.8-5.7-8.1-19.1-28.1-19 5.4-.7 10.4.4 14.7 2.8"/><path class="st48" d="M46.8 5.8c1.9 1.1 3.5 2.2 5.6 4.1l1.6 1.6c.5.6 1.3 1.4 1.8 2.1l1.3 1.8c.4.7 1 1.6 1.4 2.3l1 2.1c.3.7.7 1.7 1 2.4l.7 2.3c.2.8.4 1.8.5 2.5l.3 2.4c0 .8.1 1.9.1 2.7l-.1 2.4c-.1.9-.2 2.1-.4 2.9l-.6 2.2c-.2.7-.5 1.7-.8 2.5l-.9 2.2c-.3.7-.8 1.6-1.2 2.3L57 48.5c-.5.6-1.1 1.5-1.6 2.1L54 52.3c-.6.6-1.4 1.4-2 1.9l-1.6 1.3c-.7.5-1.7 1.3-2.5 1.8l-1.5.9c-2 1-2.1 1.1-3.4 1.6l-1.1.4c-1.5.5-3.1 1-5.9 1.4l-.8.1c-.2 0-.5.1-.8.1h-4.6c-.2 0-.5 0-.7-.1l-.7-.1c-.2 0-.5-.1-.8-.1l-.8-.1c-.3-.1-.6-.1-.9-.2l-1-.2c-.3-.1-.8-.2-1.1-.3l-1.2-.4c-.5-.2-1.1-.4-1.5-.5l-1.5-.7c-.7-.3-1.6-.8-2.3-1.2l-1.7-1c-.8-.6-1.8-1.3-2.6-1.9l-1.6-1.4c-.6-.6-1.4-1.4-1.9-2L8 49.8c-.5-.7-1.1-1.5-1.5-2.2l-1.1-2c-.4-.7-.8-1.6-1.1-2.4L3.4 41c-.2-.8-.5-1.7-.7-2.5l-.4-2.3c-.1-1.3-.3-3.1-.3-4.4l.1-2.4c.1-.8.2-1.8.3-2.6l.5-2.3c.2-.7.5-1.7.7-2.5l.9-2.2c.3-.7.8-1.6 1.1-2.3l1.2-2c.5-.6 1-1.5 1.5-2.1l1.4-1.7c.6-.6 1.3-1.4 1.9-1.9l1.6-1.3c.7-.5 1.7-1.3 2.5-1.8l1.5-.9c2.1-1.1 2.1-1.1 3.3-1.6l1.1-.4c2-.7 3.4-1.1 6.3-1.6l.8-.1c.3-.1.6-.1.8-.1h4.6c.2 0 .5 0 .7.1l.7.1c.2 0 .5.1.8.1l.8.1c.3.1.6.1.9.2l1 .2c.3.1.8.2 1.1.3l1.2.4c.5.2 1.1.4 1.5.5l1.5.7c.8.2 1.8.7 2.5 1.1-1.5-.8-3-1.5-4.7-2 0 0-.1 0-.2-.1C19.9-2.4 8.3 19 18.5 36.5 30 55.9 56.7 55 61.1 35 63.9 22.5 55.2 8.2 42 3.8c1.7.5 3.3 1.2 4.8 2"/><path class="st49" d="M60.3 22.1c.3 1 .8 2.5 1.2 4.8l.3 2.4c0 .8.1 1.9.1 2.7l-.1 2.4c-.1.9-.2 2.1-.4 2.9l-.4 2.3c-.2.7-.5 1.7-.8 2.5l-.9 2.2c-.3.7-.8 1.6-1.2 2.3L57 48.5c-.5.6-1.1 1.5-1.6 2.1L54 52.3c-.6.6-1.4 1.4-2 1.9l-1.6 1.3c-.7.5-1.7 1.3-2.5 1.8l-1.5.9c-2 1-2.1 1.1-3.4 1.6l-1.1.4c-1.5.5-3.1 1-5.9 1.4l-.8.1c-.2 0-.5.1-.8.1h-4.6c-.2 0-.5 0-.7-.1l-.7-.1c-.2 0-.5-.1-.8-.1l-.8-.1c-.3-.1-.6-.1-.9-.2l-1-.2c-.3-.1-.8-.2-1.1-.3l-1.2-.4c-.5-.2-1.1-.4-1.5-.5l-1.5-.7c-.7-.3-1.6-.8-2.3-1.2l-1.7-1c-.8-.6-1.8-1.3-2.6-1.9l-1.6-1.4c-.6-.6-1.4-1.4-1.9-2L8 49.8c-.5-.7-1.1-1.5-1.5-2.2l-1.1-2c-.4-.7-.8-1.6-1.1-2.4L3.4 41c-.2-.8-.5-1.7-.7-2.5l-.4-2.3c-.1-1.3-.3-3.1-.3-4.4l.1-2.4c.1-.8.2-1.8.3-2.6l.5-2.3c.2-.7.5-1.7.7-2.5l.9-2.2c.3-.7.8-1.6 1.1-2.3l1.2-2c.5-.6 1-1.5 1.5-2.1l1.4-1.7c.6-.6 1.3-1.4 1.9-1.9l1.6-1.3c.7-.5 1.7-1.3 2.5-1.8l1.5-.9c2.1-1.1 2.1-1.1 3.3-1.6l1.1-.4c2-.7 3.4-1.1 6.3-1.6l.8-.1c.3-.1.6-.1.8-.1h4.6c.2 0 .5 0 .7.1l.7.1c.2 0 .5.1.8.1l.8.1c.3.1.6.1.9.2l1 .2c.3.1.8.2 1.1.3l1.2.4c.5.2 1.1.4 1.5.5l1.5.7c.7.3 1.6.8 2.3 1.2-.2-.1-.3-.2-.5-.3-.5-.3-1.3-.6-1.8-.9C23.6-4.5 8.1 15 15.6 33.2c9.2 22.4 36.9 23.7 44.3 6.8 3.4-7.8 1.5-15.2.1-18.9.1.3.2.7.3 1M46.8 5.8c.5.3 1.1.6 1.5.9-.5-.3-1.3-.8-1.8-1.1-.1 0-.2-.1-.2-.1.1.1.3.2.5.3"/><path class="st50" d="M61.6 26.9c.2 1.4.4 2.8.4 5.1l-.1 2.4c-.1.9-.2 2.1-.4 2.9l-.5 2.3c-.2.7-.5 1.7-.8 2.5l-.9 2.2c-.3.7-.8 1.6-1.2 2.3L57 48.5c-.5.6-1.1 1.5-1.6 2.1L54 52.3c-.6.6-1.4 1.4-2 1.9l-1.6 1.3c-.7.5-1.7 1.3-2.5 1.8l-1.5.9c-2 1-2.1 1.1-3.4 1.6l-1.1.4c-1.5.5-3.1 1-5.9 1.4l-.8.1c-.2 0-.5.1-.8.1h-4.6c-.2 0-.5 0-.7-.1l-.7-.1c-.2 0-.5-.1-.8-.1l-.8-.1c-.3-.1-.6-.1-.9-.2l-1-.2c-.3-.1-.8-.2-1.1-.3l-1.2-.4c-.5-.2-1.1-.4-1.5-.5l-1.5-.7c-.7-.3-1.6-.8-2.3-1.2l-1.7-1c-.8-.6-1.8-1.3-2.6-1.9l-1.6-1.4c-.6-.6-1.4-1.4-1.9-2L8 49.8c-.5-.7-1.1-1.5-1.5-2.2l-1.1-2c-.4-.7-.8-1.6-1.1-2.4L3.4 41c-.2-.8-.5-1.7-.7-2.5l-.4-2.3c-.1-1.3-.3-3.1-.3-4.4l.1-2.4c.1-.8.2-1.8.3-2.6l.5-2.3c.2-.7.5-1.7.7-2.5l.9-2.2c.3-.7.8-1.6 1.1-2.3l1.2-2c.5-.6 1-1.5 1.5-2.1l1.4-1.7c.6-.6 1.3-1.4 1.9-1.9l1.6-1.3c.7-.5 1.7-1.3 2.5-1.8l1.5-.9c2.1-1.1 2.1-1.1 3.3-1.6l1.1-.4c2-.7 3.4-1.1 6.3-1.6l.8-.1c.3-.1.6-.1.8-.1h4.6c.2 0 .5 0 .7.1l.7.1c.2 0 .5.1.8.1l.8.1c.3.1.6.1.9.2l1 .2c.3.1.8.2 1.1.3l1.2.4.7.2-1.6-.5C18.8-3.1 6.2 19.4 16 37c12.2 21.8 39 19.8 44.7 1.7 1.8-5.7 1.1-10.2.8-12 .1.1.1.1.1.2"/><path class="st51" d="M62 31.9c0 1.5-.1 2.9-.5 5.4l-.5 2.3c-.2.7-.5 1.7-.8 2.5l-.9 2.2c-.3.7-.8 1.6-1.2 2.3L57 48.5c-.5.6-1.1 1.5-1.6 2.1L54 52.3c-.6.6-1.4 1.4-2 1.9l-1.6 1.3c-.7.5-1.7 1.3-2.5 1.8l-1.5.9c-2 1-2.1 1.1-3.4 1.6l-1.1.4c-1.5.5-3.1 1-5.9 1.4l-.8.1c-.2 0-.5.1-.8.1h-4.6c-.2 0-.5 0-.7-.1l-.7-.1c-.2 0-.5-.1-.8-.1l-.8-.1c-.3-.1-.6-.1-.9-.2l-1-.2c-.3-.1-.8-.2-1.1-.3l-1.2-.4c-.5-.2-1.1-.4-1.5-.5l-1.5-.7c-.7-.3-1.6-.8-2.3-1.2l-1.7-1c-.8-.6-1.8-1.3-2.6-1.9l-1.6-1.4c-.6-.6-1.4-1.4-1.9-2L8 49.8c-.5-.7-1.1-1.5-1.5-2.2l-1.1-2c-.4-.7-.8-1.6-1.1-2.4L3.4 41c-.2-.8-.5-1.7-.7-2.5l-.4-2.3c-.1-1.3-.3-3.1-.3-4.4l.1-2.4c.1-.8.2-1.8.3-2.6l.5-2.3c.2-.7.5-1.7.7-2.5l.9-2.2c.3-.7.8-1.6 1.1-2.3l1.2-2c.5-.6 1-1.5 1.5-2.1l1.4-1.7c.6-.6 1.3-1.4 1.9-1.9l1.6-1.3c.7-.5 1.7-1.3 2.5-1.8l1.5-.9c2.1-1.1 2.1-1.1 3.3-1.6l1.1-.4c2-.7 3.4-1.1 6.3-1.6l.8-.1c.3-.1.6-.1.8-.1h4.6c.2 0 .5 0 .7.1l.7.1c.2 0 .5.1.8.1l.8.1h.2-.2c-23.7-3.7-33 22.4-19.6 39.5 14.3 18.4 41.6 14.3 44.2-6.5.2-2 .2-2.9.2-3.7.1.1.1.2.1.2"/><path class="st52" d="M61.5 37.3c-.2 1-.5 2.5-1.3 4.8l-.9 2.2c-.3.7-.8 1.6-1.2 2.3L57 48.5c-.5.6-1.1 1.5-1.6 2.1L54 52.3c-.6.6-1.4 1.4-2 1.9l-1.6 1.3c-.7.5-1.7 1.3-2.5 1.8l-1.5.9c-2 1-2.1 1.1-3.4 1.6l-1.1.4c-1.5.5-3.1 1-5.9 1.4l-.8.1c-.2 0-.5.1-.8.1h-4.6c-.2 0-.5 0-.7-.1l-.7-.1c-.2 0-.5-.1-.8-.1l-.8-.1c-.3-.1-.6-.1-.9-.2l-1-.2c-.3-.1-.8-.2-1.1-.3l-1.2-.4c-.5-.2-1.1-.4-1.5-.5l-1.5-.7c-.7-.3-1.6-.8-2.3-1.2l-1.7-1c-.8-.6-1.8-1.3-2.6-1.9l-1.6-1.4c-.6-.6-1.4-1.4-1.9-2L8 49.8c-.5-.7-1.1-1.5-1.5-2.2l-1.1-2c-.4-.7-.8-1.6-1.1-2.4L3.4 41c-.2-.8-.5-1.7-.7-2.5l-.4-2.3c-.1-1.3-.3-3.1-.3-4.4l.1-2.4c.1-.8.2-1.8.3-2.6l.5-2.3c.2-.7.5-1.7.7-2.5l.9-2.2c.3-.7.8-1.6 1.1-2.3l1.2-2c.5-.6 1-1.5 1.5-2.1l1.4-1.7c.6-.6 1.3-1.4 1.9-1.9l1.6-1.3c.7-.5 1.7-1.3 2.5-1.8l1.5-.9c2.1-1.1 2.1-1.1 3.3-1.6l1.1-.4c2-.7 3.4-1.1 6.3-1.6l.8-.1c.3-.1.6-.1.8-.1H32.7h-.5C10 2 2.2 28.9 19.5 46.1c14.1 14.1 38 11.7 42.2-9.9-.1.3-.1.8-.2 1.1"/><path class="st53" d="M60.2 42.1c-.3.9-.9 2.4-2 4.5L57 48.5c-.5.6-1.1 1.5-1.6 2.1L54 52.3c-.6.6-1.4 1.4-2 1.9l-1.6 1.3c-.7.5-1.7 1.3-2.5 1.8l-1.5.9c-2 1-2.1 1.1-3.4 1.6l-1.1.4c-1.5.5-3.1 1-5.9 1.4l-.8.1c-.2 0-.5.1-.8.1h-4.6c-.2 0-.5 0-.7-.1l-.7-.1c-.2 0-.5-.1-.8-.1l-.8-.1c-.3-.1-.6-.1-.9-.2l-1-.2c-.3-.1-.8-.2-1.1-.3l-1.2-.4c-.5-.2-1.1-.4-1.5-.5l-1.5-.7c-.7-.3-1.6-.8-2.3-1.2l-1.7-1c-.8-.6-1.8-1.3-2.6-1.9l-1.6-1.4c-.6-.6-1.4-1.4-1.9-2L8 49.8c-.5-.7-1.1-1.5-1.5-2.2l-1.1-2c-.4-.7-.8-1.6-1.1-2.4L3.4 41c-.2-.8-.5-1.7-.7-2.5l-.4-2.3c-.1-1.3-.3-3.1-.3-4.4l.1-2.4c.1-.8.2-1.8.3-2.6l.5-2.3c.2-.7.5-1.7.7-2.5l.9-2.2c.3-.7.8-1.6 1.1-2.3l1.2-2c.5-.6 1-1.5 1.5-2.1l1.4-1.7c.6-.6 1.3-1.4 1.9-1.9l1.6-1.3c.7-.5 1.7-1.3 2.5-1.8l1.5-.9c2.1-1.1 2.1-1.1 3.3-1.6l1.1-.4c1.6-.6 3.1-1.1 6.1-1.5l-.5.1C4.3 6.4 1.5 36.3 22.7 51c14.8 10.2 32.8 5.5 37.8-10 0 .2-.2.7-.3 1.1"/><path class="st54" d="M58.1 46.5c-.6 1-1.3 2.2-2.7 4.1L54 52.3c-.6.6-1.4 1.4-2 1.9l-1.6 1.3c-.7.5-1.7 1.3-2.5 1.8l-1.5.9c-2 1-2.1 1.1-3.4 1.6l-1.1.4c-1.5.5-3.1 1-5.9 1.4l-.8.1c-.2 0-.5.1-.8.1h-4.6c-.2 0-.5 0-.7-.1l-.7-.1c-.2 0-.5-.1-.8-.1l-.8-.1c-.3-.1-.6-.1-.9-.2l-1-.2c-.3-.1-.8-.2-1.1-.3l-1.2-.4c-.5-.2-1.1-.4-1.5-.5l-1.5-.7c-.7-.3-1.6-.8-2.3-1.2l-1.7-1c-.8-.6-1.8-1.3-2.6-1.9l-1.6-1.4c-.6-.6-1.4-1.4-1.9-2L8 49.8c-.5-.7-1.1-1.5-1.5-2.2l-1.1-2c-.4-.7-.8-1.6-1.1-2.4L3.4 41c-.2-.8-.5-1.7-.7-2.5l-.4-2.3c-.1-1.3-.3-3.1-.3-4.4l.1-2.4c.1-.8.2-1.8.3-2.6l.5-2.3c.2-.7.5-1.7.7-2.5l.9-2.2c.3-.7.8-1.6 1.1-2.3l1.2-2c.5-.6 1-1.5 1.5-2.1l1.4-1.7c.6-.6 1.3-1.4 1.9-1.9l1.6-1.3c.7-.5 1.7-1.3 2.5-1.8l1.5-.9c2.1-1.1 2.1-1.1 3.3-1.6l1.1-.4c.5-.2 1.1-.4 1.6-.5C.8 10.3 1.6 42.1 24.6 54c15.7 8.1 28.5 1.5 33.8-8-.1.2-.2.4-.3.5"/><path class="st55" d="M45.3 5.4c18.8 8.9 21.5 35 4.4 41.7-18 7.1-38.7-14.4-31.2-32.4C23.3 3.3 35.9 1 45.3 5.4"/><path class="st56" d="M47.8 7c18.1 11 17.3 36.5-1.4 40-19.6 3.8-36.3-20.6-24.7-36.2C28.3 1.9 39.9 2.1 47.8 7"/><path class="st57" d="M50.2 8.8C66.5 21.3 61.9 43 46.6 46c-17.1 3.3-35.1-17.9-24.1-34.7C27.3 3.8 39.3.7 50.2 8.8"/><path class="st58" d="M52.2 10.8C67 25 59 45.3 43 45.3c-18.7 0-30.3-23.5-17.8-35.9 7.9-7.8 19.9-5.4 27 1.4"/><path class="st59" d="M52.2 11.2c13.4 12.6 7.8 33-9.1 33.1C24.9 44.4 14 22 26.3 9.6c6.4-6.5 18-5.8 25.9 1.6"/><path class="st60" d="M53.9 13.5C64.9 27 57.1 44.7 41 43.1 22.2 41.2 16.4 18.2 28.4 8.9c8.3-6.3 19.6-2.6 25.5 4.6"/><path class="st61" d="M53.6 13.8c11 13.5 1.9 31.1-14.4 28.2-17.6-3.2-21.1-24.8-9.1-33.2 6.8-4.8 17.4-2.6 23.5 5"/><path class="st62" d="M54.9 16.4c8.6 14.2-2.3 27.3-15.7 24.7-17.8-3.3-19.2-23.9-9-31.2 9.4-6.8 20.4-.6 24.7 6.5"/><path class="st63" d="M54.5 16.7c8 13.4-2.6 25.9-15.3 23.5-16.4-3-18.8-21.6-7.6-30.2 5.9-4.5 17.4-2.5 22.9 6.7"/><path class="st64" d="M54 17.1c7.9 13.6-3.9 25.4-17 21.9-14.7-4-14.9-22.4-3.5-28.9 6.6-3.8 16.2-.5 20.5 7"/><path class="st65" d="M54.6 19.9c4.9 12.9-8.4 22.6-19.4 17.8-13.1-5.7-11.1-22.9.3-27.5 7-2.8 16.2 1.8 19.1 9.7"/><path class="st66" d="M53.9 20.2C58 31.8 46.6 42 35.2 37c-12.3-5.4-10.3-21.3.5-25.8 8.2-3.3 16.1 3 18.2 9"/><path class="st67" d="M53.1 20.6c3.8 11.5-8.3 20.2-17.9 15.9-11.7-5.1-9.5-20.4.8-24.3 7.5-2.9 15 2.1 17.1 8.4"/><path class="st68" d="M52.2 20.9c3.6 10.9-7.9 19.1-17 15.1-10.1-4.4-9.4-18.8 1.1-22.9 5.5-2.2 13.5.7 15.9 7.8"/><path class="st69" d="M51.8 23.9c.6 8.2-5.1 10.8-7 11.6-6.5 3-11.3-1.1-12.9-2.5-7.4-6.4-3.3-18.3 6.8-19.6 7.1-.8 12.7 4.8 13.1 10.5"/><path class="st70" d="M51 24.2c.8 5.9-4.1 9.7-4.1 9.7-3.1 2-3.2 2-7.7 2.2 0 0-3.6-.8-4.6-1.6-11.3-8.2-4-18.1 2-19.9 5.9-1.8 13.4 2 14.4 9.6"/><path class="st71" d="M50.3 24.3c.9 7.8-8.3 15.5-17 8.7-8.9-7-2.2-18 6-18 3.5 0 10.3 2.7 11 9.3"/><path class="st71" d="M49.6 24.5c.2 2.2 0 7.5-6.5 10.2-1.8.8-6.9 1.1-10.7-2.9-5.5-5.7-2-16.3 7.2-16.1 5.7.2 9.6 5.2 10 8.8"/><path class="st71" d="M48.8 24.7c1 10.2-10.7 12.5-15.9 7.1-6.4-6.7-.8-16.1 6.9-15.5 6.2.5 8.8 6 9 8.4"/><path class="st71" d="M48.3 24.8c.8 5.1-2.4 7.2-5.3 8.9-.4.2-3.9 1.4-7.9-.7-.5-.3-5.3-3-4.5-9.4.2-1.5 2.4-5.7 6.5-6.6 3.4-.8 10.2 1.6 11.2 7.8"/><path class="st71" d="M47.8 27.7s-1.2 2.6-1.5 3.1c-.8.9-2.3 1.8-3.3 2.5s-2.7.5-3.9.6c-1.3.1-3-.6-4-1.3-2-1.3-3.3-3.6-3.3-3.6-2.7-5.2 1.5-12.5 8.3-11.6 4.8.7 8.7 6 7.7 10.3"/><path class="st71" d="M47.2 27.8c-1.4 5.2-6.3 5.6-8.2 5.8-1.3.1-2.9-.7-4-1.4-1.2-.8-2.9-3.2-2.9-3.2-2.6-4.7.8-12.2 8.1-11 .3 0 3.5 1.5 3.5 1.5.7.5 1.2.9 2.7 2.9 1.5 2 .9 5.4.8 5.4"/><path class="st71" d="M46.7 27.9c-.7 2.4-2.7 3.8-3.8 4.5-1 .7-2.7.7-3.8.8-1.3.1-2.9-.7-4-1.4-.9-.6-1.9-1.8-2.4-2.7-.7-1.2-2-4.4.6-7.9 2.2-3 6-2.8 7.2-2.6 1.1.3 2.5 1 3.5 1.7.2.1 2.1 2.3 2.1 2.3 1.4 2.2.6 5.2.6 5.3"/><path class="st71" d="M46.1 28s-.8 2.3-3.3 4c-1 .7-2.7.7-3.8.8 0 0-3-.9-4-1.5-.8-.5-1.6-1.5-2-2.2-2.3-4-.1-7 .7-8 .8-1.1 2.5-1.8 3.7-2.2.9-.3 2.2-.1 3.1.1.1 0 7.6 2.4 5.6 9"/><path class="st71" d="M45.8 26.6c0 .4.1 1.1-.1 1.4-.5 1-1.4 2.3-2.3 3.1-.5.4-.6.5-4.3 1.3 0 0-3.9-.6-5.5-3.4-2.3-3.9-.1-6.7.8-8 .6-.7 3.3-1.8 3.3-1.8.9-.2 2.2 0 3.2.2 2.1.5 4.2 3.2 4.2 3.2.9 1.6.8 2.9.7 4"/><path class="st71" d="M45.1 28.1c-.4 1-1.4 2.3-2.3 3-.2.1-3.4.9-3.8 1 0 0-3.8-.8-5.1-3-2.3-3.8-.1-6.8.7-7.7.1-.1 2.8-1.5 3-1.6.9-.2 2.3 0 3.2.3 1.9.4 5.9 4.2 4.3 8"/><path class="st71" d="M44.6 28.2c-.4.8-1.1 1.9-1.9 2.4-.2.1-3.4 1.1-3.8 1.1-.2 0-3.9-1.9-4-1.9-.3-.2-.5-.5-.7-.8-1.1-1.7-1.9-4.3.3-7.1.2-.3 2.6-1.7 3-1.8 1-.2 2.3.1 3.3.4.3.1 3 2.3 3 2.4.4.7.9 1.7 1 2.5.3.8.1 2-.2 2.8"/><path class="st71" d="M44.1 28.3c-.3.6-.8 1.4-1.4 1.8-1 .6-2.6 1.4-3.7 1.2-1.3-.2-3-1.1-3.9-2-.6-.6-1.3-3-1.3-3s0-3.1 1-3.8c.8-.6 2.7-1.9 3.1-2 1-.2 2.4.1 3.3.5.8.4 1.8 1.2 2.3 1.9.5.7.8 1.8 1.1 2.5.2.9-.2 2.1-.5 2.9"/><path class="st71" d="M43.6 28.3c-.2.4-.5 1-.9 1.2-1 .5-2.5 1.5-3.7 1.3-1.2-.3-2.7-1-3.6-1.8-.6-.6-1.3-2.7-1.3-2.7s0-2.2.7-3.2c.7-.9 2-1.9 3.1-2.1 1-.2 2.4.3 3.4.6.6.2 1.3.9 1.7 1.4.5.7 1 1.7 1.2 2.5-.1.9-.3 2.1-.6 2.8"/><path class="st71" d="M43 28.4c-.1.2-.3.5-.5.6-1.1.5-2.5 1.4-3.7 1.3-.9-.1-2.1-.9-2.8-1.4-.5-.3-.9-1-1.1-1.5-1.1-1.8 0-3.8 0-3.9.7-.9 1.9-1.9 3-2.1 1-.2 2.5.4 3.5.7.4.1.8.5 1 .8.5.7 1.1 1.7 1.2 2.5.1 1.1-.2 2.2-.6 3"/><path class="st71" d="M42.5 28.5c-.8.9-2.5 1.5-3.6 1.4-.7 0-1.5-.5-2-1-.7-.6-1.5-1.7-2-2.5-.2-.4.8-2.8.8-2.8.5-.7 1.4-1.5 2.2-1.6 1.1-.2 2.5.5 3.5.8.1 0 .3.2.4.3.5.7 1.2 1.7 1.3 2.5.1.9-.2 2.1-.6 2.9"/><path class="st71" d="M42.3 27.3c-.9 1.8-3.5 2.2-3.5 2.2-.4 0-.9-.3-1.2-.6-.7-.7-1.9-1.6-2.1-2.6-.1-.9.5-2 1-2.7.3-.5 1-1 1.5-1.1.9-.2 2.1.4 3 .8.3.1.5.4.7.6.7.7 1.1 2.5.6 3.4"/><path class="st71" d="M42.1 26.1c-.5 1-1.7 1.9-2.5 2.7-.2.2-.5.3-.8.3-.6 0-2.5-2.8-2.5-2.8-.1-.9.7-2 1.1-2.7.1-.2.5-.5.8-.6.5-.1 1.1.1 1.5.4 2.7 2.1 2.6 2.3 2.4 2.7"/><path class="st71" d="M38.7 28.3c-.8 0-1.6-1.3-1.7-2.1l1.2-2.7c.9.7 2.8 1.3 2.9 2.4.1 1-1.4 2.5-2.4 2.4"/><path class="st71" d="M38.6 27.3c-.4 0-.9-.7-.9-1.1-.1-.5.2-1.4.6-1.5.6-.1 1.5.7 1.5 1.3.1.5-.7 1.3-1.2 1.3"/><path class="st71" d="M38.5 26.2s-.1-.1 0 0c-.1-.1-.1-.2 0-.2s.1.1.1.1l-.1.1"/></g></g><g class="st0"><defs><path id="SVGID_11_" class="st0" d="M16.9 58.5c-1-.6-2.2-1.3-4.4-3-1-.8-2.3-2.1-3.2-3.1-.6-.6-1.4-1.5-1.9-2.3-1.8-2.5-1.8-2.5-2.7-4.3-1.9-3.6-2.6-7.2-2.6-7.2-.3-1.4-.6-3.4-.7-4.8-.1-1.3-.1-3.2 0-4.5.1-.8.2-1.9.3-2.7.3-.6.5-1.6.7-2.3.2-.8.5-1.8.8-2.5 1-2.7 1.2-3 2-4.6C6.5 14.8 7.9 13.1 8 13c.9-1 2-2.4 3-3.3.2-.2 2-1.9 3.7-3 1.4-1 4.4-3 9.1-4.3 3.9-1.1 7.9-1.4 11.9-.9 5.8.7 9.7 2.8 11.4 3.8-4.3-2.4-9.5-3.5-15-2.8 5.5-.7 10.7.3 15 2.8 1.1.7 2.5 1.5 3.5 2.3.9.7 2.4 1.9 3.8 3.4 1 1.1 1.9 2.1 3.2 4 1.1 1.7 1.5 2.5 2.4 4.4 1 2.1 2 5.6 2.2 7.4.1.7.2 1.7.3 2.4.1.8.1 1.9.1 2.7 0 1.5-.2 3.5-.4 4.9-.4 2.9-1.6 6.2-2.3 7.6-1.2 2.4-1.3 2.7-2.4 4.3-.9 1.4-2 2.7-3.1 3.9-1.3 1.4-2.3 2.3-3.6 3.3-1.6 1.3-2.6 1.8-4.1 2.7-1.2.7-3.1 1.5-3.5 1.6-.9.4-2.3.9-4.4 1.4-10.6 2.5-18.8-1.4-21.9-3.1z"/></defs><clipPath id="SVGID_12_"><use xlink:href="#SVGID_11_" overflow="visible"/></clipPath><g class="st75"><path class="st2" d="M16.9 58.5C2.9 50.3.7 35.8 1.5 29.3c.3-2.5 1.2-10 6.4-16.3 1.8-2.2 6.7-8 15.9-10.6C29.3.9 37.7.1 47.1 5.2c-4.3-2.4-9.5-3.5-15-2.8 5.5-.7 10.7.3 15 2.8 26 15.9 16.8 50.6-8.2 56.4-10.7 2.5-18.9-1.4-22-3.1"/><path class="st2" d="M47.1 5.3c2 1.2 3.5 2.2 5.7 4.1l1.6 1.6c.6.6 1.3 1.5 1.8 2.1l1.3 1.9c.4.7 1 1.6 1.4 2.3l1 2.1c.3.7.7 1.7 1 2.5l.7 2.3c.2.8.4 1.8.6 2.6l.3 2.4c0 .8.1 1.9.1 2.7l-.1 2.5c-.1.9-.2 2.1-.4 3l-.5 2.4c-.2.8-.5 1.8-.8 2.5l-.9 2.2c-.4.7-.8 1.7-1.2 2.3l-1.2 2c-.5.7-1.1 1.5-1.6 2.2l-1.5 1.7-2 2-1.6 1.3c-.8.5-1.8 1.3-2.5 1.8l-1.5.9c-2 1-2.1 1.1-3.5 1.6l-1.1.4c-1.5.5-3.1 1-6.1 1.5l-.8.1c-.2 0-.5.1-.8.1l-.7.1h-4.2c-.2 0-.5 0-.7-.1l-.7-.1c-.2 0-.5-.1-.8-.1l-.7-.2c-.3-.1-.6-.1-.9-.2l-1-.2c-.3-.1-.8-.2-1.1-.3l-1.3-.4c-.5-.2-1.1-.4-1.5-.6l-1.6-.7c-.7-.4-1.7-.8-2.4-1.2l-1.7-1.1c-.8-.6-1.9-1.3-2.6-1.9L10.9 54c-.6-.6-1.4-1.4-2-2.1l-1.4-1.8c-.5-.6-1.1-1.5-1.5-2.2l-1.2-2c-.3-.7-.8-1.7-1.1-2.4l-.8-2.2c-.2-.8-.5-1.8-.7-2.6l-.4-2.4c-.1-1.3-.3-3.1-.3-4.5l.1-2.5c.1-.8.2-1.9.3-2.7l.5-2.4c.2-.8.5-1.8.8-2.5l.8-2.1c.3-.7.8-1.7 1.2-2.4l1.2-2c.5-.7 1.1-1.5 1.6-2.2l1.5-1.7 2-2L13 8c.7-.6 1.7-1.3 2.5-1.8l1.5-1c2.1-1.1 2.1-1.1 3.4-1.6l1.1-.4c2-.7 3.5-1.1 6.4-1.6l.8-.1c.2 0 .5-.1.8-.1l.7-.1h4.2c.2 0 .5 0 .7.1l.7.1c.2 0 .5.1.8.1l.8.1c.3.1.6.1.9.2l1 .2c.3.1.8.2 1.1.3l1.3.4c.3.2 1 .4 1.4.6l1.6.7c.7.3 1.7.8 2.4 1.2-4.3-2.4-9.5-3.5-15-2.8C5.6 10 15 39.2 31.1 47.1c18.6 9.1 35.7-5.5 29.6-25.3C58.9 16 52.5 2.4 32.1 2.5c5.5-.7 10.6.3 15 2.8"/><path class="st3" d="M47.1 5.3c2 1.2 3.5 2.2 5.7 4.1l1.6 1.6c.6.6 1.3 1.5 1.8 2.1l1.3 1.9c.4.7 1 1.6 1.4 2.3l1 2.1c.3.7.7 1.7 1 2.5l.7 2.3c.2.8.4 1.8.6 2.6l.3 2.4c0 .8.1 1.9.1 2.7l-.1 2.5c-.1.9-.2 2.1-.4 3l-.5 2.4c-.2.8-.5 1.8-.8 2.5l-.9 2.2c-.4.7-.8 1.7-1.2 2.3l-1.2 2c-.5.7-1.1 1.5-1.6 2.2l-1.5 1.7-2 2-1.6 1.3c-.8.5-1.8 1.3-2.5 1.8l-1.5.9c-2 1-2.1 1.1-3.5 1.6l-1.1.4c-1.5.5-3.1 1-6.1 1.5l-.8.1c-.2 0-.5.1-.8.1l-.7.1h-4.2c-.2 0-.5 0-.7-.1l-.7-.1c-.2 0-.5-.1-.8-.1l-.7-.2c-.3-.1-.6-.1-.9-.2l-1-.2c-.3-.1-.8-.2-1.1-.3l-1.3-.4c-.5-.2-1.1-.4-1.5-.6l-1.6-.7c-.7-.4-1.7-.8-2.4-1.2l-1.7-1.1c-.8-.6-1.9-1.3-2.6-1.9L10.9 54c-.6-.6-1.4-1.4-2-2.1l-1.4-1.8c-.5-.6-1.1-1.5-1.5-2.2l-1.2-2c-.3-.7-.8-1.7-1.1-2.4l-.8-2.2c-.2-.8-.5-1.8-.7-2.6l-.4-2.4c-.1-1.3-.3-3.1-.3-4.5l.1-2.5c.1-.8.2-1.9.3-2.7l.5-2.4c.2-.8.5-1.8.8-2.5l.8-2.1c.3-.7.8-1.7 1.2-2.4l1.2-2c.5-.7 1.1-1.5 1.6-2.2l1.5-1.7 2-2L13 8c.7-.6 1.7-1.3 2.5-1.8l1.5-1c2.1-1.1 2.1-1.1 3.4-1.6l1.1-.4c2-.7 3.5-1.1 6.4-1.6l.8-.1c.2 0 .5-.1.8-.1l.7-.1h4.2c.2 0 .5 0 .7.1l.7.1c.2 0 .5.1.8.1l.8.1c.3.1.6.1.9.2l1 .2c.3.1.8.2 1.1.3l1.3.4c.3.2 1 .4 1.4.6l1.6.7c.7.3 1.7.8 2.4 1.2-1.5-.9-3.1-1.5-4.8-2 0 0-.1 0-.2-.1C19.6-3.1 7.8 18.8 18.3 36.6 30 56.4 57.2 55.5 61.7 35.1c2.8-12.8-6.1-27.4-19.4-31.8 1.7.4 3.3 1.1 4.8 2"/><path class="st4" d="M60.9 21.9c.3 1 .8 2.5 1.3 4.9l.3 2.4c0 .8.1 1.9.1 2.7l-.1 2.5c-.1.9-.2 2.1-.4 3l-.5 2.4c-.2.8-.5 1.8-.8 2.5l-.9 2.2c-.4.7-.8 1.7-1.2 2.3l-1.2 2c-.5.7-1.1 1.5-1.6 2.2l-1.5 1.7-2 2-1.6 1.3c-.8.5-1.8 1.3-2.5 1.8l-1.5.9c-2 1-2.1 1.1-3.5 1.6l-1.1.4c-1.5.5-3.1 1-6.1 1.5l-.8.1c-.2 0-.5.1-.8.1l-.7.1h-4.2c-.2 0-.5 0-.7-.1l-.7-.1c-.2 0-.5-.1-.8-.1l-.7-.2c-.3-.1-.6-.1-.9-.2l-1-.2c-.3-.1-.8-.2-1.1-.3l-1.3-.4c-.5-.2-1.1-.4-1.5-.6l-1.6-.7c-.7-.4-1.7-.8-2.4-1.2l-1.7-1.1c-.8-.6-1.9-1.3-2.6-1.9L10.9 54c-.6-.6-1.4-1.4-2-2.1l-1.4-1.8c-.5-.6-1.1-1.5-1.5-2.2l-1.2-2c-.3-.7-.8-1.7-1.1-2.4l-.8-2.2c-.2-.8-.5-1.8-.7-2.6l-.4-2.4c-.1-1.3-.3-3.1-.3-4.5l.1-2.5c.1-.8.2-1.9.3-2.7l.5-2.4c.2-.8.5-1.8.8-2.5l.8-2.1c.3-.7.8-1.7 1.2-2.4l1.2-2c.5-.7 1.1-1.5 1.6-2.2l1.5-1.7 2-2L13 8c.7-.6 1.7-1.3 2.5-1.8l1.5-1c2.1-1.1 2.1-1.1 3.4-1.6l1.1-.4c2-.7 3.5-1.1 6.4-1.6l.8-.1c.2 0 .5-.1.8-.1l.7-.1h4.2c.2 0 .5 0 .7.1l.7.1c.2 0 .5.1.8.1l.8.1c.3.1.6.1.9.2l1 .2c.3.1.8.2 1.1.3l1.3.4c.3.2 1 .4 1.4.6l1.6.7c.7.4 1.7.8 2.4 1.2-.2-.1-.4-.2-.5-.3-.5-.3-1.3-.6-1.8-.9-21.3-9.3-37 10.6-29.5 29.1 9.4 22.9 37.7 24.2 45.2 7 3.5-8 1.6-15.5.1-19.3 0 .2.2.7.3 1"/><path class="st4" d="M47.1 5.3c.5.3 1.1.7 1.5.9-.6-.3-1.3-.8-1.8-1.1-.1 0-.2-.1-.2-.1.1.1.3.2.5.3"/><path class="st5" d="M62.2 26.8c.2 1.5.4 2.8.4 5.2l-.1 2.5c-.1.9-.2 2.1-.4 3l-.5 2.4c-.2.8-.5 1.8-.8 2.5l-.9 2.2c-.4.7-.8 1.7-1.2 2.3l-1.2 2c-.5.7-1.1 1.5-1.6 2.2l-1.5 1.7-2 2-1.6 1.2c-.8.5-1.8 1.3-2.5 1.8l-1.5.9c-2 1-2.1 1.1-3.5 1.6l-1.1.4c-1.5.5-3.1 1-6.1 1.5l-.8.1c-.2 0-.5.1-.8.1l-.7.1h-4.2c-.2 0-.5 0-.7-.1l-.7-.1c-.2 0-.5-.1-.8-.1l-.7-.2c-.3-.1-.6-.1-.9-.2l-1-.2c-.3-.1-.8-.2-1.1-.3l-1.3-.4c-.5-.2-1.1-.4-1.5-.6l-1.6-.7c-.7-.4-1.7-.8-2.4-1.2l-1.7-1.1c-.8-.6-1.9-1.3-2.6-1.9L10.9 54c-.6-.6-1.4-1.4-2-2.1l-1.4-1.8c-.5-.6-1.1-1.5-1.5-2.2l-1.2-2c-.3-.7-.8-1.7-1.1-2.4l-.8-2.2c-.2-.8-.5-1.8-.7-2.6l-.4-2.4c-.1-1.3-.3-3.1-.3-4.5l.1-2.5c.1-.8.2-1.9.3-2.7l.5-2.4c.2-.8.5-1.8.8-2.5l.8-2.1c.3-.7.8-1.7 1.2-2.4l1.2-2c.5-.7 1.1-1.5 1.6-2.2l1.5-1.7 2-2L13 8c.7-.6 1.7-1.3 2.5-1.8l1.5-1c2.1-1.1 2.1-1.1 3.4-1.6l1.1-.4c2-.7 3.5-1.1 6.4-1.6l.8-.1c.2 0 .5-.1.8-.1l.7-.1h4.2c.2 0 .5 0 .7.1l.7.1c.2 0 .5.1.8.1l.8.1c.3.1.6.1.9.2l1 .2c.3.1.8.2 1.1.3l1.3.4.7.3-1.6-.5c-22.2-6.3-35 16.6-25 34.5 12.4 22.2 39.8 20.2 45.6 1.8 1.9-5.8 1.1-10.5.8-12.2-.1 0-.1 0 0 .1"/><path class="st6" d="M62.6 31.9c0 1.6-.1 2.9-.5 5.5l-.5 2.4c-.2.8-.5 1.8-.8 2.5l-.9 2.2c-.4.7-.8 1.7-1.2 2.3l-1.2 2c-.5.7-1.1 1.5-1.6 2.2l-1.5 1.7-2 2-1.6 1.3c-.8.5-1.8 1.3-2.5 1.8l-1.5.9c-2 1-2.1 1.1-3.5 1.6l-1.1.4c-1.5.5-3.1 1-6.1 1.5l-.8.1c-.2 0-.5.1-.8.1l-.7.1h-4.2c-.2 0-.5 0-.7-.1l-.7-.1c-.2 0-.5-.1-.8-.1l-.7-.2c-.3-.1-.6-.1-.9-.2l-1-.2c-.3-.1-.8-.2-1.1-.3l-1.3-.4c-.5-.2-1.1-.4-1.5-.6l-1.6-.7c-.7-.4-1.7-.8-2.4-1.2l-1.7-1.1c-.8-.6-1.9-1.3-2.6-1.9L10.9 54c-.6-.6-1.4-1.4-2-2.1l-1.4-1.8c-.5-.6-1.1-1.5-1.5-2.2l-1.2-2c-.3-.7-.8-1.7-1.1-2.4l-.8-2.2c-.2-.8-.5-1.8-.7-2.6l-.4-2.4c-.1-1.3-.3-3.1-.3-4.5l.1-2.5c.1-.8.2-1.9.3-2.7l.5-2.4c.2-.8.5-1.8.8-2.5l.8-2.1c.3-.7.8-1.7 1.2-2.4l1.2-2c.5-.7 1.1-1.5 1.6-2.2l1.5-1.7 2-2L13 8c.7-.6 1.7-1.3 2.5-1.8l1.5-1c2.1-1.1 2.1-1.1 3.4-1.6l1.1-.4c2-.7 3.5-1.1 6.4-1.6l.8-.1c.2 0 .5-.1.8-.1l.7-.1h4.2c.2 0 .5 0 .7.1l.7.1c.2 0 .5.1.8.1l.8.1h.2-.2C13.1-2 3.6 24.6 17.3 42.1c14.6 18.7 42.4 14.6 45.1-6.6.3-2 .2-3 .2-3.7v.1"/><path class="st7" d="M62.1 37.4c-.2 1-.5 2.6-1.3 4.9l-.9 2.2c-.4.7-.8 1.7-1.2 2.3l-1.2 2c-.5.7-1.1 1.5-1.6 2.2l-1.5 1.7-2 2-1.6 1.3c-.8.5-1.8 1.3-2.5 1.8l-1.5.9c-2 1-2.1 1.1-3.5 1.6l-1.1.4c-1.5.5-3.1 1-6.1 1.5l-.8.1c-.2 0-.5.1-.8.1l-.7.1h-4.2c-.2 0-.5 0-.7-.1l-.7-.1c-.2 0-.5-.1-.8-.1l-.7-.2c-.3-.1-.6-.1-.9-.2l-1-.2c-.3-.1-.8-.2-1.1-.3l-1.3-.4c-.5-.2-1.1-.4-1.5-.6l-1.6-.7c-.7-.4-1.7-.8-2.4-1.2l-1.7-1.1c-.8-.6-1.9-1.3-2.6-1.9L10.9 54c-.6-.6-1.4-1.4-2-2.1l-1.4-1.8c-.5-.6-1.1-1.5-1.5-2.2l-1.2-2c-.3-.7-.8-1.7-1.1-2.4l-.8-2.2c-.2-.8-.5-1.8-.7-2.6l-.4-2.4c-.1-1.3-.3-3.1-.3-4.5l.1-2.5c.1-.8.2-1.9.3-2.7l.5-2.4c.2-.8.5-1.8.8-2.5l.8-2.1c.3-.7.8-1.7 1.2-2.4l1.2-2c.5-.7 1.1-1.5 1.6-2.2l1.5-1.7 2-2L13 8c.7-.6 1.7-1.3 2.5-1.8l1.5-1c2.1-1.1 2.1-1.1 3.4-1.6l1.1-.4c2-.7 3.5-1.1 6.4-1.6l.8-.1c.2 0 .5-.1.8-.1l.7-.1H32.9h-.5C9.5 1.4 1.6 28.8 19.2 46.4c14.4 14.4 38.8 11.9 43-10.1 0 .3-.1.8-.1 1.1"/><path class="st8" d="M60.7 42.3c-.3.9-.9 2.4-2.1 4.5l-1.2 2c-.5.7-1.1 1.5-1.6 2.2l-1.5 1.7-2 2-1.5 1.3c-.8.5-1.8 1.3-2.5 1.8l-1.5.9c-2 1-2.1 1.1-3.5 1.6l-1.1.4c-1.5.5-3.1 1-6.1 1.5l-.8.1c-.2 0-.5.1-.8.1l-.7.1h-4.2c-.2 0-.5 0-.7-.1l-.7-.1c-.2 0-.5-.1-.8-.1l-.7-.2c-.3-.1-.6-.1-.9-.2l-1-.2c-.3-.1-.8-.2-1.1-.3l-1.3-.4c-.5-.2-1.1-.4-1.5-.6l-1.6-.7c-.7-.4-1.7-.8-2.4-1.2l-1.7-1.1c-.8-.6-1.9-1.3-2.6-1.9L10.9 54c-.6-.6-1.4-1.4-2-2.1l-1.4-1.8c-.5-.6-1.1-1.5-1.5-2.2l-1.2-2c-.3-.7-.8-1.7-1.1-2.4l-.8-2.2c-.2-.8-.5-1.8-.7-2.6l-.4-2.4c-.1-1.3-.3-3.1-.3-4.5l.1-2.5c.1-.8.2-1.9.3-2.7l.5-2.4c.2-.8.5-1.8.8-2.5l.8-2.1c.3-.7.8-1.7 1.2-2.4l1.2-2c.5-.7 1.1-1.5 1.6-2.2l1.5-1.7 2-2L13 8c.7-.6 1.7-1.3 2.5-1.8l1.5-1c2.1-1.1 2.1-1.1 3.4-1.6l1.1-.4c1.6-.6 3.2-1.1 6.2-1.6l-.5.1c-23.3 4-26.1 34.6-4.5 49.5 15 10.4 33.4 5.6 38.5-10.2-.1.4-.3.9-.5 1.3"/><path class="st9" d="M58.7 46.8c-.6 1.1-1.3 2.3-2.8 4.1l-1.5 1.7-2 2-1.6 1.4c-.8.5-1.8 1.3-2.5 1.8l-1.5.9c-2 1-2.1 1.1-3.5 1.6l-1.1.4c-1.5.5-3.1 1-6.1 1.5l-.8.1c-.2 0-.5.1-.8.1l-.7.1h-4.2c-.2 0-.5 0-.7-.1l-.7-.1c-.2 0-.5-.1-.8-.1l-.7-.2c-.3-.1-.6-.1-.9-.2l-1-.2c-.3-.1-.8-.2-1.1-.3l-1.3-.4c-.5-.2-1.1-.4-1.5-.6l-1.6-.7c-.7-.4-1.7-.8-2.4-1.2l-1.7-1.1c-.8-.6-1.9-1.3-2.6-1.9L10.9 54c-.6-.6-1.4-1.4-2-2.1l-1.4-1.8c-.5-.6-1.1-1.5-1.5-2.2l-1.2-2c-.3-.7-.8-1.7-1.1-2.4l-.8-2.2c-.2-.8-.5-1.8-.7-2.6l-.4-2.4c-.1-1.3-.3-3.1-.3-4.5l.1-2.5c.1-.8.2-1.9.3-2.7l.5-2.4c.2-.8.5-1.8.8-2.5l.8-2.1c.3-.7.8-1.7 1.2-2.4l1.2-2c.5-.7 1.1-1.5 1.6-2.2l1.5-1.7 2-2L13 8c.7-.6 1.7-1.3 2.5-1.8l1.5-1c2.1-1.1 2.1-1.1 3.4-1.6l1.1-.4c.5-.2 1.1-.4 1.6-.6C.2 9.9 1 42.3 24.4 54.5c16 8.3 29.1 1.6 34.5-8.2 0 .2-.1.4-.2.5"/><path class="st10" d="M45.5 4.9c19.2 9 22 35.7 4.4 42.5-18.4 7.2-39.5-14.7-31.8-33 5-11.7 17.9-14 27.4-9.5"/><path class="st11" d="M48.1 6.5c18.5 11.3 17.6 37.2-1.4 40.9-20 3.8-37-21-25.2-36.9 6.8-9.2 18.5-9 26.6-4"/><path class="st12" d="M50.5 8.3c16.6 12.8 12 34.9-3.6 38C29.5 49.7 11.1 28 22.3 10.9c5-7.6 17.2-10.8 28.2-2.6"/><path class="st13" d="M52.6 10.4c15.1 14.5 6.9 35.2-9.4 35.2-19.1 0-30.9-24-18.1-36.6 8-8 20.3-5.5 27.5 1.4"/><path class="st14" d="M52.6 10.8c13.7 12.8 8 33.6-9.3 33.8-18.6.1-29.6-22.8-17.1-35.5 6.5-6.6 18.3-5.8 26.4 1.7"/><path class="st15" d="M54.3 13.1c11.2 13.7 3.3 31.8-13.2 30.2C22 41.4 16.1 18 28.4 8.5c8.4-6.5 20-2.7 25.9 4.6"/><path class="st16" d="M54.1 13.5C65.2 27.2 56 45.2 39.4 42.2 21.5 39 17.9 17 30.1 8.4c6.9-4.9 17.7-2.7 24 5.1"/><path class="st17" d="M55.4 16.1c8.8 14.5-2.4 27.8-16 25.2C21.3 37.9 19.8 17 30.2 9.5c9.6-7 20.8-.7 25.2 6.6"/><path class="st18" d="M55 16.4c8.2 13.7-2.6 26.4-15.6 24-16.7-3.1-19.2-22-7.8-30.8C37.6 5 49.4 7 55 16.4"/><path class="st19" d="M54.5 16.8c8.1 13.9-4 25.9-17.3 22.3C22.2 35 22 16.3 33.6 9.7c6.6-3.9 16.4-.6 20.9 7.1"/><path class="st20" d="M55.1 19.6c5 13.2-8.6 23-19.8 18.2-13.4-5.8-11.3-23.3.2-28 7.2-2.9 16.6 1.8 19.6 9.8"/><path class="st21" d="M54.4 20c4.1 11.8-7.5 22.3-19.1 17.2-12.6-5.5-10.5-21.7.5-26.3 8.3-3.5 16.4 2.9 18.6 9.1"/><path class="st22" d="M53.5 20.4c3.9 11.7-8.4 20.6-18.3 16.2-11.9-5.2-9.6-20.8.8-24.8 7.7-2.9 15.4 2.1 17.5 8.6"/><path class="st23" d="M52.6 20.7c3.7 11.1-8 19.5-17.4 15.4-10.3-4.5-9.6-19.2 1.1-23.3 5.7-2.3 13.9.6 16.3 7.9"/><path class="st24" d="M52.2 23.7c.6 8.3-5.2 11-7.1 11.9-6.6 3.1-11.5-1.1-13.1-2.5-7.6-6.5-3.4-18.7 6.9-20 7.1-.9 12.9 4.9 13.3 10.6"/><path class="st25" d="M51.4 24c.8 6-4.2 9.9-4.2 9.9-3.2 2-3.3 2-7.8 2.3 0 0-3.6-.8-4.7-1.6-11.5-8.3-4-18.4 2.1-20.3 5.9-1.8 13.6 2 14.6 9.7"/><path class="st26" d="M50.7 24.2c.9 8-8.5 15.8-17.3 8.8-9-7.1-2.2-18.4 6.1-18.4 3.5.1 10.4 2.9 11.2 9.6"/><path class="st27" d="M49.9 24.4c.2 2.2 0 7.6-6.6 10.4-1.9.8-7 1.1-11-3-5.6-5.8-2.1-16.6 7.4-16.4 5.8.2 9.9 5.3 10.2 9"/><path class="st28" d="M49.2 24.5c1 10.4-10.9 12.8-16.3 7.2-6.5-6.8-.9-16.4 7-15.8 6.4.6 9 6.1 9.3 8.6"/><path class="st29" d="M48.6 24.7c.8 5.2-2.5 7.3-5.4 9.1-.4.3-4 1.5-8.1-.7-.6-.3-5.4-3.1-4.6-9.6.2-1.5 2.4-5.8 6.6-6.8 3.6-.8 10.5 1.6 11.5 8"/><path class="st30" d="M48.1 27.6s-1.2 2.7-1.6 3.1c-.8 1-2.3 1.9-3.3 2.6-1 .7-2.8.5-4 .6-1.3.1-3-.6-4.1-1.3-2-1.3-3.4-3.7-3.4-3.7-2.8-5.3 1.5-12.8 8.5-11.8 4.9.7 9 6.1 7.9 10.5"/><path class="st31" d="M47.6 27.7c-1.4 5.3-6.4 5.7-8.3 5.9-1.3.1-3-.7-4.1-1.4-1.2-.8-3-3.2-3-3.2-2.6-4.8.8-12.4 8.2-11.2.3 0 3.6 1.5 3.6 1.6.7.5 1.3.9 2.7 2.9 1.5 1.9.9 5.4.9 5.4"/><path class="st32" d="M47 27.8c-.7 2.4-2.7 3.9-3.9 4.6-1 .7-2.7.7-3.9.8-1.3.1-3-.7-4.1-1.4-.9-.6-1.9-1.8-2.5-2.8-.7-1.2-2.1-4.5.6-8.1 2.2-3 6.1-2.9 7.4-2.6 1.2.3 2.6 1 3.5 1.7.2.2 2.1 2.3 2.1 2.3 1.6 2.4.8 5.4.8 5.5"/><path class="st33" d="M46.4 27.9s-.8 2.4-3.3 4.1c-1 .7-2.7.7-3.9.8 0 0-3-.9-4.1-1.6-.8-.5-1.6-1.5-2.1-2.3-2.4-4-.1-7.1.7-8.1.9-1.1 2.5-1.8 3.8-2.2.9-.3 2.2-.1 3.2.1.1.1 7.7 2.5 5.7 9.2"/><path class="st34" d="M46 26.5c0 .4.1 1.1-.2 1.5-.6 1-1.4 2.4-2.3 3.2-.5.4-.6.6-4.4 1.3 0 0-3.9-.6-5.7-3.5-2.4-4-.1-6.9.8-8.1.6-.8 3.3-1.8 3.3-1.8.9-.2 2.3 0 3.2.2 2.1.6 4.3 3.2 4.3 3.3 1.3 1.5 1.2 2.8 1 3.9"/><path class="st35" d="M45.4 28.1c-.4 1.1-1.4 2.4-2.4 3-.2.1-3.5.9-3.9 1 0 0-3.8-.8-5.2-3.1-2.4-3.9-.1-6.9.7-7.9.1-.1 2.8-1.6 3.1-1.6 1-.2 2.3 0 3.3.3 1.9.5 6 4.3 4.4 8.3"/><path class="st36" d="M44.9 28.1c-.4.8-1.1 1.9-1.9 2.4-.2.1-3.5 1.1-3.8 1.1-.2 0-4-1.9-4-1.9-.3-.2-.5-.5-.7-.8-1.1-1.7-1.9-4.4.3-7.2.2-.3 2.7-1.7 3.1-1.8 1-.2 2.4.1 3.3.4.3.1 3 2.4 3 2.4.4.8 1 1.8 1.1 2.6 0 .8-.1 2-.4 2.8"/><path class="st37" d="M44.3 28.2c-.3.6-.8 1.5-1.4 1.8-1 .6-2.6 1.4-3.8 1.2-1.3-.3-3-1.1-4-2-.7-.6-1.4-3-1.4-3s0-3.1 1-3.9c.8-.6 2.7-1.9 3.1-2 1-.2 2.5.1 3.4.5.8.4 1.8 1.2 2.4 1.9.5.7.8 1.8 1.1 2.6.4.8 0 2.1-.4 2.9"/><path class="st38" d="M43.8 28.3c-.2.4-.6 1-1 1.2-1.1.6-2.6 1.5-3.8 1.3-1.2-.3-2.8-1-3.7-1.9-.6-.6-1.3-2.7-1.3-2.7s0-2.3.7-3.2c.7-.9 2-1.9 3.2-2.2 1-.2 2.5.3 3.5.7.6.2 1.3.9 1.7 1.4.5.7 1.1 1.7 1.2 2.6.1.8-.1 2-.5 2.8"/><path class="st39" d="M43.2 28.3c-.1.2-.3.5-.5.6-1.1.5-2.5 1.4-3.7 1.4-1-.1-2.1-.9-2.9-1.4-.5-.3-.9-1-1.2-1.5-1.1-1.9 0-3.9 0-3.9.7-.9 1.9-1.9 3-2.2 1.1-.2 2.5.4 3.5.8.4.1.8.5 1 .9.5.7 1.1 1.7 1.2 2.6.3.7 0 2-.4 2.7"/><path class="st40" d="M42.7 28.4c-.8.9-2.5 1.5-3.7 1.5-.7 0-1.5-.6-2-1-.7-.6-1.6-1.7-2-2.6-.2-.4.8-2.9.9-2.9.5-.7 1.5-1.5 2.3-1.7 1.1-.2 2.5.5 3.6.9.1 0 .3.2.4.3.5.7 1.2 1.7 1.3 2.6-.1.9-.4 2.1-.8 2.9"/><path class="st41" d="M42.5 27.2c-1 1.8-3.5 2.2-3.6 2.2-.4 0-1-.3-1.3-.6-.7-.7-2-1.7-2.1-2.7-.1-.9.5-2 1-2.8.3-.5 1-1 1.5-1.1.9-.2 2.1.5 3 .8.3.1.5.4.7.6.9.9 1.3 2.6.8 3.6"/><path class="st42" d="M42.3 26c-.5 1-1.7 2-2.6 2.7-.2.2-.6.3-.8.3-.6 0-2.6-2.9-2.6-2.9-.1-.9.7-2 1.1-2.8.1-.3.5-.5.8-.6.5-.1 1.2.1 1.5.4 2.9 2.3 2.8 2.5 2.6 2.9"/><path class="st43" d="M38.9 28.3c-.8 0-1.7-1.3-1.8-2.2l1.2-2.8h.1c.9.7 2.9 1.3 3 2.5 0 1-1.5 2.5-2.5 2.5"/><path class="st44" d="M38.7 27.2c-.4 0-.9-.7-.9-1.1-.1-.5.2-1.4.6-1.5.6-.1 1.5.7 1.6 1.3 0 .5-.7 1.3-1.3 1.3"/><path class="st45" d="M38.6 26.1s0-.1 0 0c-.1-.1-.1-.2 0-.2s.1.1.1.1 0 .1-.1.1"/></g></g></g><path class="st71" d="M43.5 36.3L21.2 47.7v-3.3L40.1 35v-.1l-18.9-9.4v-3.3l22.3 11.4v2.7z"/></svg>